<svg xmlns="http://www.w3.org/2000/svg" xmlns:xlink="http://www.w3.org/1999/xlink" width="537" zoomAndPan="magnify" viewBox="0 0 402.75 105.749996" height="141" preserveAspectRatio="xMidYMid meet" version="1.0"><defs><g/><clipPath id="130041e311"><path d="M 0.351562 0 L 138.773438 0 L 138.773438 104.753906 L 0.351562 104.753906 Z M 0.351562 0 " clip-rule="nonzero"/></clipPath></defs><g clip-path="url(#130041e311)"><path fill="#1800ad" d="M 56.640625 64.753906 C 56.46875 64.515625 56.257812 64.300781 56.011719 64.117188 L 54.59375 63.054688 C 53.050781 61.898438 51.070312 61.675781 49.34375 62.398438 C 49.121094 62.089844 49.003906 61.722656 49.003906 61.292969 L 49.003906 60.664062 C 53.019531 58.121094 55.984375 54.058594 57.085938 49.292969 L 58.40625 49.292969 C 63.257812 49.292969 67.207031 45.34375 67.207031 40.492188 C 67.207031 38.03125 66.191406 35.808594 64.5625 34.210938 L 64.5625 33.359375 C 64.5625 19.382812 53.1875 8.007812 39.207031 8.007812 C 25.230469 8.007812 13.855469 19.382812 13.855469 33.359375 L 13.855469 34.210938 C 12.222656 35.808594 11.210938 38.03125 11.210938 40.492188 C 11.210938 45.34375 15.160156 49.292969 20.011719 49.292969 L 21.332031 49.292969 C 22.433594 54.058594 25.394531 58.121094 29.414062 60.664062 L 29.414062 61.292969 C 29.414062 61.71875 29.296875 62.089844 29.070312 62.398438 C 27.34375 61.671875 25.363281 61.898438 23.824219 63.054688 L 22.40625 64.117188 C 22.160156 64.300781 21.949219 64.515625 21.773438 64.753906 C 9.496094 66.710938 0.351562 77.347656 0.351562 89.878906 L 0.351562 96.878906 C 0.351562 101.070312 3.757812 104.480469 7.949219 104.480469 L 70.472656 104.480469 C 74.660156 104.480469 78.070312 101.070312 78.070312 96.878906 L 78.070312 89.878906 C 78.070312 77.347656 68.925781 66.710938 56.644531 64.753906 Z M 52.53125 65.8125 L 53.609375 66.621094 L 46.207031 74.125 L 42.179688 70.921875 L 50.386719 65.730469 C 51.074219 65.292969 51.878906 65.324219 52.53125 65.8125 Z M 37.96875 81.378906 L 40.449219 81.378906 L 44.054688 101.03125 L 34.363281 101.03125 Z M 40.890625 77.933594 L 37.527344 77.933594 L 36.085938 75.445312 L 39.207031 72.960938 L 42.332031 75.445312 Z M 54.117188 36.308594 C 49.59375 35.210938 46.734375 32.382812 45.417969 27.710938 C 45.21875 27.003906 44.59375 26.5 43.859375 26.457031 C 43.125 26.410156 42.445312 26.84375 42.164062 27.519531 C 39.710938 33.46875 33.398438 36.691406 24.300781 36.683594 L 24.300781 33.359375 C 24.300781 25.140625 30.988281 18.453125 39.207031 18.453125 C 47.429688 18.453125 54.117188 25.140625 54.117188 33.359375 Z M 58.40625 45.847656 L 57.546875 45.847656 C 57.554688 45.617188 57.5625 45.382812 57.5625 45.152344 L 57.5625 35.136719 L 58.40625 35.136719 C 61.355469 35.136719 63.761719 37.539062 63.761719 40.492188 C 63.761719 43.441406 61.355469 45.847656 58.40625 45.847656 Z M 39.207031 11.453125 C 50.867188 11.453125 60.425781 20.609375 61.078125 32.109375 C 60.234375 31.839844 59.339844 31.691406 58.40625 31.691406 L 57.484375 31.691406 C 56.636719 22.351562 48.765625 15.007812 39.207031 15.007812 C 29.652344 15.007812 21.78125 22.351562 20.933594 31.691406 L 20.011719 31.691406 C 19.082031 31.691406 18.183594 31.839844 17.339844 32.109375 C 17.992188 20.609375 27.550781 11.457031 39.207031 11.457031 Z M 20.011719 45.847656 C 17.058594 45.847656 14.65625 43.441406 14.65625 40.492188 C 14.65625 37.539062 17.058594 35.136719 20.011719 35.136719 L 20.851562 35.136719 L 20.851562 45.152344 C 20.851562 45.382812 20.863281 45.613281 20.871094 45.847656 L 20.007812 45.847656 Z M 24.300781 45.152344 L 24.300781 40.125 C 33.007812 40.117188 39.75 37.296875 43.480469 32.179688 C 45.617188 36.296875 49.183594 38.855469 54.117188 39.832031 L 54.117188 45.152344 C 54.117188 45.558594 54.097656 45.960938 54.0625 46.359375 L 43.667969 50.609375 L 39.132812 50.609375 C 38.183594 50.609375 37.410156 51.382812 37.410156 52.332031 C 37.410156 53.285156 38.183594 54.058594 39.132812 54.058594 L 44.007812 54.058594 C 44.230469 54.058594 44.453125 54.011719 44.660156 53.925781 L 53.136719 50.460938 C 50.992188 56.066406 45.558594 60.058594 39.207031 60.058594 C 30.988281 60.058594 24.300781 53.371094 24.300781 45.148438 Z M 39.207031 63.507812 C 41.476562 63.507812 43.648438 63.089844 45.65625 62.335938 C 45.785156 63 46.035156 63.617188 46.390625 64.175781 L 39.207031 68.722656 L 32.019531 64.175781 C 32.378906 63.617188 32.628906 63 32.757812 62.335938 C 34.761719 63.089844 36.933594 63.507812 39.203125 63.507812 Z M 25.890625 65.8125 C 26.546875 65.320312 27.347656 65.289062 28.039062 65.730469 L 36.242188 70.921875 L 32.214844 74.125 L 24.8125 66.621094 L 25.894531 65.816406 Z M 3.796875 96.878906 L 3.796875 89.878906 C 3.796875 79.261719 11.386719 70.222656 21.679688 68.269531 C 21.792969 68.4375 21.917969 68.597656 22.0625 68.746094 L 30.847656 77.648438 C 31.183594 77.988281 31.628906 78.164062 32.074219 78.164062 C 32.453125 78.164062 32.832031 78.039062 33.148438 77.789062 L 33.359375 77.621094 L 34.722656 79.976562 L 30.859375 101.035156 L 17.855469 101.035156 L 17.855469 94.640625 C 17.855469 93.691406 17.082031 92.917969 16.132812 92.917969 C 15.183594 92.917969 14.410156 93.691406 14.410156 94.640625 L 14.410156 101.035156 L 7.949219 101.035156 C 5.660156 101.035156 3.796875 99.171875 3.796875 96.882812 Z M 74.621094 96.878906 C 74.621094 99.167969 72.757812 101.03125 70.46875 101.03125 L 64.007812 101.03125 L 64.007812 94.636719 C 64.007812 93.6875 63.234375 92.914062 62.285156 92.914062 C 61.335938 92.914062 60.5625 93.6875 60.5625 94.636719 L 60.5625 101.03125 L 47.558594 101.03125 L 43.695312 79.972656 L 45.058594 77.617188 L 45.269531 77.785156 C 45.582031 78.039062 45.960938 78.160156 46.339844 78.160156 C 46.789062 78.160156 47.230469 77.988281 47.566406 77.648438 L 56.355469 68.742188 C 56.5 68.59375 56.628906 68.433594 56.738281 68.269531 C 67.027344 70.222656 74.621094 79.261719 74.621094 89.878906 Z M 131.089844 60.367188 C 131.089844 61.320312 130.316406 62.089844 129.367188 62.089844 L 99.757812 62.089844 C 98.808594 62.089844 98.035156 61.320312 98.035156 60.367188 C 98.035156 59.417969 98.808594 58.644531 99.757812 58.644531 L 129.367188 58.644531 C 130.316406 58.644531 131.089844 59.417969 131.089844 60.367188 Z M 119.1875 68.992188 C 119.1875 69.941406 118.417969 70.714844 117.464844 70.714844 L 99.761719 70.714844 C 98.8125 70.714844 98.039062 69.941406 98.039062 68.992188 C 98.039062 68.042969 98.8125 67.269531 99.761719 67.269531 L 117.464844 67.269531 C 118.417969 67.269531 119.1875 68.042969 119.1875 68.992188 Z M 113.585938 28.929688 C 116.246094 28.929688 118.417969 26.765625 118.417969 24.101562 L 118.417969 4.871094 C 118.417969 2.210938 116.25 0.0429688 113.585938 0.0429688 L 74.847656 0.0429688 C 72.1875 0.0429688 70.019531 2.207031 70.019531 4.871094 L 70.019531 24.101562 C 70.019531 26.761719 72.183594 28.929688 74.847656 28.929688 L 78.5 28.929688 L 84.183594 34.613281 C 84.519531 34.949219 84.960938 35.117188 85.402344 35.117188 C 85.839844 35.117188 86.28125 34.949219 86.617188 34.613281 L 92.300781 28.929688 Z M 90.375 25.988281 L 85.402344 30.960938 L 80.433594 25.988281 C 80.109375 25.667969 79.671875 25.484375 79.214844 25.484375 L 74.847656 25.484375 C 74.085938 25.484375 73.464844 24.863281 73.464844 24.101562 L 73.464844 4.871094 C 73.464844 4.109375 74.085938 3.488281 74.847656 3.488281 L 113.585938 3.488281 C 114.351562 3.488281 114.96875 4.109375 114.96875 4.871094 L 114.96875 24.101562 C 114.96875 24.863281 114.351562 25.484375 113.585938 25.484375 L 91.59375 25.484375 C 91.136719 25.484375 90.695312 25.664062 90.375 25.988281 Z M 133.929688 50.238281 L 95.195312 50.238281 C 92.53125 50.238281 90.363281 52.402344 90.363281 55.066406 L 90.363281 74.296875 C 90.363281 76.957031 92.527344 79.125 95.195312 79.125 L 116.472656 79.125 L 122.15625 84.808594 C 122.492188 85.144531 122.933594 85.3125 123.371094 85.3125 C 123.8125 85.3125 124.253906 85.144531 124.589844 84.808594 L 130.273438 79.125 L 133.925781 79.125 C 136.585938 79.125 138.753906 76.960938 138.753906 74.296875 L 138.753906 55.066406 C 138.753906 52.40625 136.589844 50.238281 133.925781 50.238281 Z M 135.316406 74.292969 C 135.316406 75.058594 134.695312 75.675781 133.929688 75.675781 L 129.5625 75.675781 C 129.105469 75.675781 128.667969 75.859375 128.347656 76.183594 L 123.375 81.152344 L 118.40625 76.183594 C 118.078125 75.859375 117.644531 75.675781 117.1875 75.675781 L 95.195312 75.675781 C 94.429688 75.675781 93.808594 75.058594 93.808594 74.292969 L 93.808594 55.066406 C 93.808594 54.300781 94.429688 53.679688 95.195312 53.679688 L 133.929688 53.679688 C 134.695312 53.679688 135.316406 54.300781 135.316406 55.066406 Z M 84.535156 14.488281 C 84.535156 15.4375 83.761719 16.210938 82.8125 16.210938 C 81.859375 16.210938 81.089844 15.4375 81.089844 14.488281 C 81.089844 13.539062 81.859375 12.765625 82.8125 12.765625 C 83.761719 12.765625 84.535156 13.539062 84.535156 14.488281 Z M 95.941406 14.488281 C 95.941406 15.4375 95.167969 16.210938 94.21875 16.210938 C 93.265625 16.210938 92.492188 15.4375 92.492188 14.488281 C 92.492188 13.539062 93.265625 12.765625 94.21875 12.765625 C 95.167969 12.765625 95.941406 13.539062 95.941406 14.488281 Z M 107.347656 14.488281 C 107.347656 15.4375 106.578125 16.210938 105.625 16.210938 C 104.675781 16.210938 103.902344 15.4375 103.902344 14.488281 C 103.902344 13.539062 104.675781 12.765625 105.625 12.765625 C 106.578125 12.765625 107.347656 13.539062 107.347656 14.488281 Z M 107.347656 14.488281 " fill-opacity="1" fill-rule="evenodd"/></g><g fill="#1800ad" fill-opacity="1"><g transform="translate(158.901605, 34.588789)"><g><path d="M 10.703125 -4.15625 C 10.703125 -2.800781 10.21875 -1.734375 9.25 -0.953125 C 8.28125 -0.179688 6.925781 0.203125 5.1875 0.203125 C 3.59375 0.203125 2.1875 -0.09375 0.96875 -0.6875 L 0.96875 -3.640625 C 1.96875 -3.191406 2.816406 -2.875 3.515625 -2.6875 C 4.210938 -2.5 4.851562 -2.40625 5.4375 -2.40625 C 6.132812 -2.40625 6.664062 -2.535156 7.03125 -2.796875 C 7.40625 -3.066406 7.59375 -3.46875 7.59375 -4 C 7.59375 -4.289062 7.507812 -4.550781 7.34375 -4.78125 C 7.1875 -5.007812 6.945312 -5.226562 6.625 -5.4375 C 6.3125 -5.644531 5.664062 -5.984375 4.6875 -6.453125 C 3.78125 -6.878906 3.097656 -7.289062 2.640625 -7.6875 C 2.179688 -8.082031 1.816406 -8.539062 1.546875 -9.0625 C 1.273438 -9.59375 1.140625 -10.207031 1.140625 -10.90625 C 1.140625 -12.226562 1.585938 -13.265625 2.484375 -14.015625 C 3.378906 -14.773438 4.617188 -15.15625 6.203125 -15.15625 C 6.972656 -15.15625 7.710938 -15.0625 8.421875 -14.875 C 9.128906 -14.695312 9.863281 -14.441406 10.625 -14.109375 L 9.609375 -11.640625 C 8.804688 -11.972656 8.144531 -12.203125 7.625 -12.328125 C 7.101562 -12.460938 6.59375 -12.53125 6.09375 -12.53125 C 5.488281 -12.53125 5.023438 -12.390625 4.703125 -12.109375 C 4.390625 -11.828125 4.234375 -11.460938 4.234375 -11.015625 C 4.234375 -10.734375 4.296875 -10.488281 4.421875 -10.28125 C 4.554688 -10.070312 4.765625 -9.867188 5.046875 -9.671875 C 5.328125 -9.484375 5.992188 -9.132812 7.046875 -8.625 C 8.453125 -7.957031 9.410156 -7.285156 9.921875 -6.609375 C 10.441406 -5.941406 10.703125 -5.125 10.703125 -4.15625 Z M 10.703125 -4.15625 "/></g></g></g><g fill="#1800ad" fill-opacity="1"><g transform="translate(170.434292, 34.588789)"><g><path d="M 9.734375 0 L 9.3125 -1.46875 L 9.15625 -1.46875 C 8.820312 -0.9375 8.347656 -0.523438 7.734375 -0.234375 C 7.117188 0.0546875 6.421875 0.203125 5.640625 0.203125 C 4.296875 0.203125 3.28125 -0.15625 2.59375 -0.875 C 1.914062 -1.59375 1.578125 -2.628906 1.578125 -3.984375 L 1.578125 -11.4375 L 4.6875 -11.4375 L 4.6875 -4.75 C 4.6875 -3.925781 4.832031 -3.304688 5.125 -2.890625 C 5.425781 -2.484375 5.894531 -2.28125 6.53125 -2.28125 C 7.40625 -2.28125 8.035156 -2.570312 8.421875 -3.15625 C 8.804688 -3.738281 9 -4.703125 9 -6.046875 L 9 -11.4375 L 12.125 -11.4375 L 12.125 0 Z M 9.734375 0 "/></g></g></g><g fill="#1800ad" fill-opacity="1"><g transform="translate(184.195814, 34.588789)"><g><path d="M 7.90625 0.203125 C 6.570312 0.203125 5.519531 -0.28125 4.75 -1.25 L 4.59375 -1.25 C 4.695312 -0.300781 4.75 0.25 4.75 0.40625 L 4.75 5.03125 L 1.640625 5.03125 L 1.640625 -11.4375 L 4.171875 -11.4375 L 4.609375 -9.953125 L 4.75 -9.953125 C 5.476562 -11.078125 6.5625 -11.640625 8 -11.640625 C 9.34375 -11.640625 10.394531 -11.117188 11.15625 -10.078125 C 11.925781 -9.035156 12.3125 -7.585938 12.3125 -5.734375 C 12.3125 -4.515625 12.128906 -3.453125 11.765625 -2.546875 C 11.410156 -1.648438 10.898438 -0.96875 10.234375 -0.5 C 9.578125 -0.03125 8.800781 0.203125 7.90625 0.203125 Z M 7 -9.15625 C 6.226562 -9.15625 5.664062 -8.914062 5.3125 -8.4375 C 4.957031 -7.96875 4.769531 -7.1875 4.75 -6.09375 L 4.75 -5.75 C 4.75 -4.53125 4.929688 -3.65625 5.296875 -3.125 C 5.660156 -2.59375 6.238281 -2.328125 7.03125 -2.328125 C 8.425781 -2.328125 9.125 -3.476562 9.125 -5.78125 C 9.125 -6.90625 8.953125 -7.75 8.609375 -8.3125 C 8.265625 -8.875 7.726562 -9.15625 7 -9.15625 Z M 7 -9.15625 "/></g></g></g><g fill="#1800ad" fill-opacity="1"><g transform="translate(197.446135, 34.588789)"><g><path d="M 4.125 -5.734375 C 4.125 -4.597656 4.304688 -3.738281 4.671875 -3.15625 C 5.046875 -2.582031 5.648438 -2.296875 6.484375 -2.296875 C 7.316406 -2.296875 7.914062 -2.582031 8.28125 -3.15625 C 8.644531 -3.738281 8.828125 -4.597656 8.828125 -5.734375 C 8.828125 -6.867188 8.644531 -7.71875 8.28125 -8.28125 C 7.914062 -8.84375 7.3125 -9.125 6.46875 -9.125 C 5.632812 -9.125 5.035156 -8.84375 4.671875 -8.28125 C 4.304688 -7.71875 4.125 -6.867188 4.125 -5.734375 Z M 12.015625 -5.734375 C 12.015625 -3.867188 11.523438 -2.410156 10.546875 -1.359375 C 9.566406 -0.316406 8.203125 0.203125 6.453125 0.203125 C 5.359375 0.203125 4.390625 -0.0351562 3.546875 -0.515625 C 2.710938 -0.992188 2.066406 -1.679688 1.609375 -2.578125 C 1.160156 -3.484375 0.9375 -4.535156 0.9375 -5.734375 C 0.9375 -7.597656 1.421875 -9.046875 2.390625 -10.078125 C 3.367188 -11.117188 4.742188 -11.640625 6.515625 -11.640625 C 7.609375 -11.640625 8.570312 -11.398438 9.40625 -10.921875 C 10.25 -10.453125 10.894531 -9.769531 11.34375 -8.875 C 11.789062 -7.976562 12.015625 -6.929688 12.015625 -5.734375 Z M 12.015625 -5.734375 "/></g></g></g><g fill="#1800ad" fill-opacity="1"><g transform="translate(210.410183, 34.588789)"><g><path d="M 8.015625 -11.640625 C 8.441406 -11.640625 8.789062 -11.609375 9.0625 -11.546875 L 8.828125 -8.625 C 8.578125 -8.695312 8.269531 -8.734375 7.90625 -8.734375 C 6.914062 -8.734375 6.140625 -8.476562 5.578125 -7.96875 C 5.023438 -7.457031 4.75 -6.738281 4.75 -5.8125 L 4.75 0 L 1.640625 0 L 1.640625 -11.4375 L 4 -11.4375 L 4.453125 -9.5 L 4.609375 -9.5 C 4.960938 -10.144531 5.441406 -10.660156 6.046875 -11.046875 C 6.648438 -11.441406 7.304688 -11.640625 8.015625 -11.640625 Z M 8.015625 -11.640625 "/></g></g></g><g fill="#1800ad" fill-opacity="1"><g transform="translate(219.918515, 34.588789)"><g><path d="M 6.453125 -2.28125 C 6.992188 -2.28125 7.644531 -2.398438 8.40625 -2.640625 L 8.40625 -0.3125 C 7.632812 0.03125 6.679688 0.203125 5.546875 0.203125 C 4.304688 0.203125 3.398438 -0.109375 2.828125 -0.734375 C 2.253906 -1.367188 1.96875 -2.316406 1.96875 -3.578125 L 1.96875 -9.09375 L 0.484375 -9.09375 L 0.484375 -10.40625 L 2.203125 -11.453125 L 3.09375 -13.859375 L 5.09375 -13.859375 L 5.09375 -11.4375 L 8.296875 -11.4375 L 8.296875 -9.09375 L 5.09375 -9.09375 L 5.09375 -3.578125 C 5.09375 -3.128906 5.21875 -2.800781 5.46875 -2.59375 C 5.71875 -2.382812 6.046875 -2.28125 6.453125 -2.28125 Z M 6.453125 -2.28125 "/></g></g></g><g fill="#1800ad" fill-opacity="1"><g transform="translate(229.007669, 34.588789)"><g><path d="M 6.375 -9.421875 C 5.707031 -9.421875 5.1875 -9.210938 4.8125 -8.796875 C 4.4375 -8.378906 4.222656 -7.785156 4.171875 -7.015625 L 8.546875 -7.015625 C 8.535156 -7.785156 8.332031 -8.378906 7.9375 -8.796875 C 7.550781 -9.210938 7.03125 -9.421875 6.375 -9.421875 Z M 6.8125 0.203125 C 4.96875 0.203125 3.523438 -0.300781 2.484375 -1.3125 C 1.453125 -2.332031 0.9375 -3.773438 0.9375 -5.640625 C 0.9375 -7.546875 1.414062 -9.019531 2.375 -10.0625 C 3.332031 -11.113281 4.65625 -11.640625 6.34375 -11.640625 C 7.957031 -11.640625 9.210938 -11.179688 10.109375 -10.265625 C 11.015625 -9.347656 11.46875 -8.078125 11.46875 -6.453125 L 11.46875 -4.9375 L 4.09375 -4.9375 C 4.132812 -4.050781 4.398438 -3.359375 4.890625 -2.859375 C 5.378906 -2.359375 6.066406 -2.109375 6.953125 -2.109375 C 7.640625 -2.109375 8.289062 -2.179688 8.90625 -2.328125 C 9.519531 -2.472656 10.160156 -2.703125 10.828125 -3.015625 L 10.828125 -0.609375 C 10.285156 -0.328125 9.703125 -0.125 9.078125 0 C 8.453125 0.132812 7.695312 0.203125 6.8125 0.203125 Z M 6.8125 0.203125 "/></g></g></g><g fill="#1800ad" fill-opacity="1"><g transform="translate(241.378725, 34.588789)"><g/></g></g><g fill="#1800ad" fill-opacity="1"><g transform="translate(246.8179, 34.588789)"><g><path d="M 6.375 -9.421875 C 5.707031 -9.421875 5.1875 -9.210938 4.8125 -8.796875 C 4.4375 -8.378906 4.222656 -7.785156 4.171875 -7.015625 L 8.546875 -7.015625 C 8.535156 -7.785156 8.332031 -8.378906 7.9375 -8.796875 C 7.550781 -9.210938 7.03125 -9.421875 6.375 -9.421875 Z M 6.8125 0.203125 C 4.96875 0.203125 3.523438 -0.300781 2.484375 -1.3125 C 1.453125 -2.332031 0.9375 -3.773438 0.9375 -5.640625 C 0.9375 -7.546875 1.414062 -9.019531 2.375 -10.0625 C 3.332031 -11.113281 4.65625 -11.640625 6.34375 -11.640625 C 7.957031 -11.640625 9.210938 -11.179688 10.109375 -10.265625 C 11.015625 -9.347656 11.46875 -8.078125 11.46875 -6.453125 L 11.46875 -4.9375 L 4.09375 -4.9375 C 4.132812 -4.050781 4.398438 -3.359375 4.890625 -2.859375 C 5.378906 -2.359375 6.066406 -2.109375 6.953125 -2.109375 C 7.640625 -2.109375 8.289062 -2.179688 8.90625 -2.328125 C 9.519531 -2.472656 10.160156 -2.703125 10.828125 -3.015625 L 10.828125 -0.609375 C 10.285156 -0.328125 9.703125 -0.125 9.078125 0 C 8.453125 0.132812 7.695312 0.203125 6.8125 0.203125 Z M 6.8125 0.203125 "/></g></g></g><g fill="#1800ad" fill-opacity="1"><g transform="translate(259.188956, 34.588789)"><g><path d="M 9.609375 -3.390625 C 9.609375 -2.222656 9.203125 -1.332031 8.390625 -0.71875 C 7.578125 -0.101562 6.359375 0.203125 4.734375 0.203125 C 3.898438 0.203125 3.191406 0.144531 2.609375 0.03125 C 2.023438 -0.0820312 1.476562 -0.242188 0.96875 -0.453125 L 0.96875 -3.03125 C 1.539062 -2.757812 2.1875 -2.53125 2.90625 -2.34375 C 3.632812 -2.164062 4.273438 -2.078125 4.828125 -2.078125 C 5.960938 -2.078125 6.53125 -2.40625 6.53125 -3.0625 C 6.53125 -3.300781 6.453125 -3.5 6.296875 -3.65625 C 6.148438 -3.8125 5.894531 -3.984375 5.53125 -4.171875 C 5.164062 -4.367188 4.675781 -4.597656 4.0625 -4.859375 C 3.175781 -5.222656 2.523438 -5.5625 2.109375 -5.875 C 1.703125 -6.1875 1.40625 -6.546875 1.21875 -6.953125 C 1.03125 -7.359375 0.9375 -7.859375 0.9375 -8.453125 C 0.9375 -9.472656 1.328125 -10.257812 2.109375 -10.8125 C 2.898438 -11.363281 4.019531 -11.640625 5.46875 -11.640625 C 6.84375 -11.640625 8.179688 -11.34375 9.484375 -10.75 L 8.546875 -8.5 C 7.972656 -8.738281 7.4375 -8.9375 6.9375 -9.09375 C 6.445312 -9.25 5.941406 -9.328125 5.421875 -9.328125 C 4.492188 -9.328125 4.03125 -9.082031 4.03125 -8.59375 C 4.03125 -8.3125 4.175781 -8.066406 4.46875 -7.859375 C 4.769531 -7.660156 5.425781 -7.359375 6.4375 -6.953125 C 7.320312 -6.585938 7.972656 -6.25 8.390625 -5.9375 C 8.804688 -5.625 9.113281 -5.265625 9.3125 -4.859375 C 9.507812 -4.453125 9.609375 -3.960938 9.609375 -3.390625 Z M 9.609375 -3.390625 "/></g></g></g><g fill="#1800ad" fill-opacity="1"><g transform="translate(269.597001, 34.588789)"><g><path d="M 7.90625 0.203125 C 6.570312 0.203125 5.519531 -0.28125 4.75 -1.25 L 4.59375 -1.25 C 4.695312 -0.300781 4.75 0.25 4.75 0.40625 L 4.75 5.03125 L 1.640625 5.03125 L 1.640625 -11.4375 L 4.171875 -11.4375 L 4.609375 -9.953125 L 4.75 -9.953125 C 5.476562 -11.078125 6.5625 -11.640625 8 -11.640625 C 9.34375 -11.640625 10.394531 -11.117188 11.15625 -10.078125 C 11.925781 -9.035156 12.3125 -7.585938 12.3125 -5.734375 C 12.3125 -4.515625 12.128906 -3.453125 11.765625 -2.546875 C 11.410156 -1.648438 10.898438 -0.96875 10.234375 -0.5 C 9.578125 -0.03125 8.800781 0.203125 7.90625 0.203125 Z M 7 -9.15625 C 6.226562 -9.15625 5.664062 -8.914062 5.3125 -8.4375 C 4.957031 -7.96875 4.769531 -7.1875 4.75 -6.09375 L 4.75 -5.75 C 4.75 -4.53125 4.929688 -3.65625 5.296875 -3.125 C 5.660156 -2.59375 6.238281 -2.328125 7.03125 -2.328125 C 8.425781 -2.328125 9.125 -3.476562 9.125 -5.78125 C 9.125 -6.90625 8.953125 -7.75 8.609375 -8.3125 C 8.265625 -8.875 7.726562 -9.15625 7 -9.15625 Z M 7 -9.15625 "/></g></g></g><g fill="#1800ad" fill-opacity="1"><g transform="translate(282.847322, 34.588789)"><g><path d="M 6.375 -9.421875 C 5.707031 -9.421875 5.1875 -9.210938 4.8125 -8.796875 C 4.4375 -8.378906 4.222656 -7.785156 4.171875 -7.015625 L 8.546875 -7.015625 C 8.535156 -7.785156 8.332031 -8.378906 7.9375 -8.796875 C 7.550781 -9.210938 7.03125 -9.421875 6.375 -9.421875 Z M 6.8125 0.203125 C 4.96875 0.203125 3.523438 -0.300781 2.484375 -1.3125 C 1.453125 -2.332031 0.9375 -3.773438 0.9375 -5.640625 C 0.9375 -7.546875 1.414062 -9.019531 2.375 -10.0625 C 3.332031 -11.113281 4.65625 -11.640625 6.34375 -11.640625 C 7.957031 -11.640625 9.210938 -11.179688 10.109375 -10.265625 C 11.015625 -9.347656 11.46875 -8.078125 11.46875 -6.453125 L 11.46875 -4.9375 L 4.09375 -4.9375 C 4.132812 -4.050781 4.398438 -3.359375 4.890625 -2.859375 C 5.378906 -2.359375 6.066406 -2.109375 6.953125 -2.109375 C 7.640625 -2.109375 8.289062 -2.179688 8.90625 -2.328125 C 9.519531 -2.472656 10.160156 -2.703125 10.828125 -3.015625 L 10.828125 -0.609375 C 10.285156 -0.328125 9.703125 -0.125 9.078125 0 C 8.453125 0.132812 7.695312 0.203125 6.8125 0.203125 Z M 6.8125 0.203125 "/></g></g></g><g fill="#1800ad" fill-opacity="1"><g transform="translate(295.218378, 34.588789)"><g><path d="M 6.28125 0.203125 C 2.71875 0.203125 0.9375 -1.75 0.9375 -5.65625 C 0.9375 -7.59375 1.421875 -9.070312 2.390625 -10.09375 C 3.359375 -11.125 4.742188 -11.640625 6.546875 -11.640625 C 7.867188 -11.640625 9.054688 -11.382812 10.109375 -10.875 L 9.1875 -8.453125 C 8.695312 -8.648438 8.238281 -8.8125 7.8125 -8.9375 C 7.394531 -9.0625 6.972656 -9.125 6.546875 -9.125 C 4.929688 -9.125 4.125 -7.972656 4.125 -5.671875 C 4.125 -3.441406 4.929688 -2.328125 6.546875 -2.328125 C 7.148438 -2.328125 7.707031 -2.40625 8.21875 -2.5625 C 8.726562 -2.71875 9.238281 -2.96875 9.75 -3.3125 L 9.75 -0.640625 C 9.25 -0.316406 8.738281 -0.0976562 8.21875 0.015625 C 7.707031 0.140625 7.0625 0.203125 6.28125 0.203125 Z M 6.28125 0.203125 "/></g></g></g><g fill="#1800ad" fill-opacity="1"><g transform="translate(305.984269, 34.588789)"><g><path d="M 1.5 -14.390625 C 1.5 -15.398438 2.066406 -15.90625 3.203125 -15.90625 C 4.328125 -15.90625 4.890625 -15.398438 4.890625 -14.390625 C 4.890625 -13.898438 4.75 -13.519531 4.46875 -13.25 C 4.1875 -12.976562 3.765625 -12.84375 3.203125 -12.84375 C 2.066406 -12.84375 1.5 -13.359375 1.5 -14.390625 Z M 4.75 0 L 1.640625 0 L 1.640625 -11.4375 L 4.75 -11.4375 Z M 4.75 0 "/></g></g></g><g fill="#1800ad" fill-opacity="1"><g transform="translate(312.374283, 34.588789)"><g><path d="M 8.890625 0 L 8.296875 -1.546875 L 8.203125 -1.546875 C 7.679688 -0.890625 7.140625 -0.429688 6.578125 -0.171875 C 6.023438 0.078125 5.304688 0.203125 4.421875 0.203125 C 3.316406 0.203125 2.445312 -0.109375 1.8125 -0.734375 C 1.1875 -1.359375 0.875 -2.253906 0.875 -3.421875 C 0.875 -4.628906 1.296875 -5.519531 2.140625 -6.09375 C 2.992188 -6.675781 4.273438 -6.992188 5.984375 -7.046875 L 7.96875 -7.109375 L 7.96875 -7.609375 C 7.96875 -8.773438 7.378906 -9.359375 6.203125 -9.359375 C 5.285156 -9.359375 4.207031 -9.082031 2.96875 -8.53125 L 1.9375 -10.625 C 3.257812 -11.320312 4.71875 -11.671875 6.3125 -11.671875 C 7.851562 -11.671875 9.03125 -11.332031 9.84375 -10.65625 C 10.664062 -9.988281 11.078125 -8.972656 11.078125 -7.609375 L 11.078125 0 Z M 7.96875 -5.296875 L 6.765625 -5.25 C 5.859375 -5.226562 5.179688 -5.066406 4.734375 -4.765625 C 4.296875 -4.460938 4.078125 -4.003906 4.078125 -3.390625 C 4.078125 -2.515625 4.582031 -2.078125 5.59375 -2.078125 C 6.3125 -2.078125 6.882812 -2.285156 7.3125 -2.703125 C 7.75 -3.117188 7.96875 -3.671875 7.96875 -4.359375 Z M 7.96875 -5.296875 "/></g></g></g><g fill="#1800ad" fill-opacity="1"><g transform="translate(325.021393, 34.588789)"><g><path d="M 4.75 0 L 1.640625 0 L 1.640625 -15.90625 L 4.75 -15.90625 Z M 4.75 0 "/></g></g></g><g fill="#1800ad" fill-opacity="1"><g transform="translate(331.411407, 34.588789)"><g><path d="M 1.5 -14.390625 C 1.5 -15.398438 2.066406 -15.90625 3.203125 -15.90625 C 4.328125 -15.90625 4.890625 -15.398438 4.890625 -14.390625 C 4.890625 -13.898438 4.75 -13.519531 4.46875 -13.25 C 4.1875 -12.976562 3.765625 -12.84375 3.203125 -12.84375 C 2.066406 -12.84375 1.5 -13.359375 1.5 -14.390625 Z M 4.75 0 L 1.640625 0 L 1.640625 -11.4375 L 4.75 -11.4375 Z M 4.75 0 "/></g></g></g><g fill="#1800ad" fill-opacity="1"><g transform="translate(337.80142, 34.588789)"><g><path d="M 9.59375 0 L 0.5625 0 L 0.5625 -1.84375 L 5.859375 -9.046875 L 0.875 -9.046875 L 0.875 -11.4375 L 9.40625 -11.4375 L 9.40625 -9.40625 L 4.25 -2.375 L 9.59375 -2.375 Z M 9.59375 0 "/></g></g></g><g fill="#1800ad" fill-opacity="1"><g transform="translate(348.015215, 34.588789)"><g><path d="M 8.890625 0 L 8.296875 -1.546875 L 8.203125 -1.546875 C 7.679688 -0.890625 7.140625 -0.429688 6.578125 -0.171875 C 6.023438 0.078125 5.304688 0.203125 4.421875 0.203125 C 3.316406 0.203125 2.445312 -0.109375 1.8125 -0.734375 C 1.1875 -1.359375 0.875 -2.253906 0.875 -3.421875 C 0.875 -4.628906 1.296875 -5.519531 2.140625 -6.09375 C 2.992188 -6.675781 4.273438 -6.992188 5.984375 -7.046875 L 7.96875 -7.109375 L 7.96875 -7.609375 C 7.96875 -8.773438 7.378906 -9.359375 6.203125 -9.359375 C 5.285156 -9.359375 4.207031 -9.082031 2.96875 -8.53125 L 1.9375 -10.625 C 3.257812 -11.320312 4.71875 -11.671875 6.3125 -11.671875 C 7.851562 -11.671875 9.03125 -11.332031 9.84375 -10.65625 C 10.664062 -9.988281 11.078125 -8.972656 11.078125 -7.609375 L 11.078125 0 Z M 7.96875 -5.296875 L 6.765625 -5.25 C 5.859375 -5.226562 5.179688 -5.066406 4.734375 -4.765625 C 4.296875 -4.460938 4.078125 -4.003906 4.078125 -3.390625 C 4.078125 -2.515625 4.582031 -2.078125 5.59375 -2.078125 C 6.3125 -2.078125 6.882812 -2.285156 7.3125 -2.703125 C 7.75 -3.117188 7.96875 -3.671875 7.96875 -4.359375 Z M 7.96875 -5.296875 "/></g></g></g><g fill="#1800ad" fill-opacity="1"><g transform="translate(360.662314, 34.588789)"><g><path d="M 5.25 0.203125 C 3.90625 0.203125 2.847656 -0.316406 2.078125 -1.359375 C 1.316406 -2.398438 0.9375 -3.84375 0.9375 -5.6875 C 0.9375 -7.5625 1.328125 -9.019531 2.109375 -10.0625 C 2.890625 -11.113281 3.96875 -11.640625 5.34375 -11.640625 C 6.78125 -11.640625 7.875 -11.082031 8.625 -9.96875 L 8.734375 -9.96875 C 8.578125 -10.820312 8.5 -11.582031 8.5 -12.25 L 8.5 -15.90625 L 11.625 -15.90625 L 11.625 0 L 9.234375 0 L 8.625 -1.484375 L 8.5 -1.484375 C 7.789062 -0.359375 6.707031 0.203125 5.25 0.203125 Z M 6.34375 -2.28125 C 7.144531 -2.28125 7.726562 -2.507812 8.09375 -2.96875 C 8.46875 -3.4375 8.671875 -4.226562 8.703125 -5.34375 L 8.703125 -5.671875 C 8.703125 -6.898438 8.515625 -7.78125 8.140625 -8.3125 C 7.765625 -8.84375 7.148438 -9.109375 6.296875 -9.109375 C 5.597656 -9.109375 5.054688 -8.8125 4.671875 -8.21875 C 4.285156 -7.632812 4.09375 -6.78125 4.09375 -5.65625 C 4.09375 -4.53125 4.285156 -3.6875 4.671875 -3.125 C 5.066406 -2.5625 5.625 -2.28125 6.34375 -2.28125 Z M 6.34375 -2.28125 "/></g></g></g><g fill="#1800ad" fill-opacity="1"><g transform="translate(373.912634, 34.588789)"><g><path d="M 4.125 -5.734375 C 4.125 -4.597656 4.304688 -3.738281 4.671875 -3.15625 C 5.046875 -2.582031 5.648438 -2.296875 6.484375 -2.296875 C 7.316406 -2.296875 7.914062 -2.582031 8.28125 -3.15625 C 8.644531 -3.738281 8.828125 -4.597656 8.828125 -5.734375 C 8.828125 -6.867188 8.644531 -7.71875 8.28125 -8.28125 C 7.914062 -8.84375 7.3125 -9.125 6.46875 -9.125 C 5.632812 -9.125 5.035156 -8.84375 4.671875 -8.28125 C 4.304688 -7.71875 4.125 -6.867188 4.125 -5.734375 Z M 12.015625 -5.734375 C 12.015625 -3.867188 11.523438 -2.410156 10.546875 -1.359375 C 9.566406 -0.316406 8.203125 0.203125 6.453125 0.203125 C 5.359375 0.203125 4.390625 -0.0351562 3.546875 -0.515625 C 2.710938 -0.992188 2.066406 -1.679688 1.609375 -2.578125 C 1.160156 -3.484375 0.9375 -4.535156 0.9375 -5.734375 C 0.9375 -7.597656 1.421875 -9.046875 2.390625 -10.078125 C 3.367188 -11.117188 4.742188 -11.640625 6.515625 -11.640625 C 7.609375 -11.640625 8.570312 -11.398438 9.40625 -10.921875 C 10.25 -10.453125 10.894531 -9.769531 11.34375 -8.875 C 11.789062 -7.976562 12.015625 -6.929688 12.015625 -5.734375 Z M 12.015625 -5.734375 "/></g></g></g><g fill="#1800ad" fill-opacity="1"><g transform="translate(165.717523, 63.7698)"><g><path d="M 7.90625 0.203125 C 6.570312 0.203125 5.519531 -0.28125 4.75 -1.25 L 4.59375 -1.25 C 4.695312 -0.300781 4.75 0.25 4.75 0.40625 L 4.75 5.03125 L 1.640625 5.03125 L 1.640625 -11.4375 L 4.171875 -11.4375 L 4.609375 -9.953125 L 4.75 -9.953125 C 5.476562 -11.078125 6.5625 -11.640625 8 -11.640625 C 9.34375 -11.640625 10.394531 -11.117188 11.15625 -10.078125 C 11.925781 -9.035156 12.3125 -7.585938 12.3125 -5.734375 C 12.3125 -4.515625 12.128906 -3.453125 11.765625 -2.546875 C 11.410156 -1.648438 10.898438 -0.96875 10.234375 -0.5 C 9.578125 -0.03125 8.800781 0.203125 7.90625 0.203125 Z M 7 -9.15625 C 6.226562 -9.15625 5.664062 -8.914062 5.3125 -8.4375 C 4.957031 -7.96875 4.769531 -7.1875 4.75 -6.09375 L 4.75 -5.75 C 4.75 -4.53125 4.929688 -3.65625 5.296875 -3.125 C 5.660156 -2.59375 6.238281 -2.328125 7.03125 -2.328125 C 8.425781 -2.328125 9.125 -3.476562 9.125 -5.78125 C 9.125 -6.90625 8.953125 -7.75 8.609375 -8.3125 C 8.265625 -8.875 7.726562 -9.15625 7 -9.15625 Z M 7 -9.15625 "/></g></g></g><g fill="#1800ad" fill-opacity="1"><g transform="translate(178.967844, 63.7698)"><g><path d="M 8.890625 0 L 8.296875 -1.546875 L 8.203125 -1.546875 C 7.679688 -0.890625 7.140625 -0.429688 6.578125 -0.171875 C 6.023438 0.078125 5.304688 0.203125 4.421875 0.203125 C 3.316406 0.203125 2.445312 -0.109375 1.8125 -0.734375 C 1.1875 -1.359375 0.875 -2.253906 0.875 -3.421875 C 0.875 -4.628906 1.296875 -5.519531 2.140625 -6.09375 C 2.992188 -6.675781 4.273438 -6.992188 5.984375 -7.046875 L 7.96875 -7.109375 L 7.96875 -7.609375 C 7.96875 -8.773438 7.378906 -9.359375 6.203125 -9.359375 C 5.285156 -9.359375 4.207031 -9.082031 2.96875 -8.53125 L 1.9375 -10.625 C 3.257812 -11.320312 4.71875 -11.671875 6.3125 -11.671875 C 7.851562 -11.671875 9.03125 -11.332031 9.84375 -10.65625 C 10.664062 -9.988281 11.078125 -8.972656 11.078125 -7.609375 L 11.078125 0 Z M 7.96875 -5.296875 L 6.765625 -5.25 C 5.859375 -5.226562 5.179688 -5.066406 4.734375 -4.765625 C 4.296875 -4.460938 4.078125 -4.003906 4.078125 -3.390625 C 4.078125 -2.515625 4.582031 -2.078125 5.59375 -2.078125 C 6.3125 -2.078125 6.882812 -2.285156 7.3125 -2.703125 C 7.75 -3.117188 7.96875 -3.671875 7.96875 -4.359375 Z M 7.96875 -5.296875 "/></g></g></g><g fill="#1800ad" fill-opacity="1"><g transform="translate(191.614953, 63.7698)"><g><path d="M 8.015625 -11.640625 C 8.441406 -11.640625 8.789062 -11.609375 9.0625 -11.546875 L 8.828125 -8.625 C 8.578125 -8.695312 8.269531 -8.734375 7.90625 -8.734375 C 6.914062 -8.734375 6.140625 -8.476562 5.578125 -7.96875 C 5.023438 -7.457031 4.75 -6.738281 4.75 -5.8125 L 4.75 0 L 1.640625 0 L 1.640625 -11.4375 L 4 -11.4375 L 4.453125 -9.5 L 4.609375 -9.5 C 4.960938 -10.144531 5.441406 -10.660156 6.046875 -11.046875 C 6.648438 -11.441406 7.304688 -11.640625 8.015625 -11.640625 Z M 8.015625 -11.640625 "/></g></g></g><g fill="#1800ad" fill-opacity="1"><g transform="translate(201.123285, 63.7698)"><g><path d="M 8.890625 0 L 8.296875 -1.546875 L 8.203125 -1.546875 C 7.679688 -0.890625 7.140625 -0.429688 6.578125 -0.171875 C 6.023438 0.078125 5.304688 0.203125 4.421875 0.203125 C 3.316406 0.203125 2.445312 -0.109375 1.8125 -0.734375 C 1.1875 -1.359375 0.875 -2.253906 0.875 -3.421875 C 0.875 -4.628906 1.296875 -5.519531 2.140625 -6.09375 C 2.992188 -6.675781 4.273438 -6.992188 5.984375 -7.046875 L 7.96875 -7.109375 L 7.96875 -7.609375 C 7.96875 -8.773438 7.378906 -9.359375 6.203125 -9.359375 C 5.285156 -9.359375 4.207031 -9.082031 2.96875 -8.53125 L 1.9375 -10.625 C 3.257812 -11.320312 4.71875 -11.671875 6.3125 -11.671875 C 7.851562 -11.671875 9.03125 -11.332031 9.84375 -10.65625 C 10.664062 -9.988281 11.078125 -8.972656 11.078125 -7.609375 L 11.078125 0 Z M 7.96875 -5.296875 L 6.765625 -5.25 C 5.859375 -5.226562 5.179688 -5.066406 4.734375 -4.765625 C 4.296875 -4.460938 4.078125 -4.003906 4.078125 -3.390625 C 4.078125 -2.515625 4.582031 -2.078125 5.59375 -2.078125 C 6.3125 -2.078125 6.882812 -2.285156 7.3125 -2.703125 C 7.75 -3.117188 7.96875 -3.671875 7.96875 -4.359375 Z M 7.96875 -5.296875 "/></g></g></g><g fill="#1800ad" fill-opacity="1"><g transform="translate(213.770395, 63.7698)"><g/></g></g><g fill="#1800ad" fill-opacity="1"><g transform="translate(219.20957, 63.7698)"><g><path d="M 6.453125 -2.28125 C 6.992188 -2.28125 7.644531 -2.398438 8.40625 -2.640625 L 8.40625 -0.3125 C 7.632812 0.03125 6.679688 0.203125 5.546875 0.203125 C 4.304688 0.203125 3.398438 -0.109375 2.828125 -0.734375 C 2.253906 -1.367188 1.96875 -2.316406 1.96875 -3.578125 L 1.96875 -9.09375 L 0.484375 -9.09375 L 0.484375 -10.40625 L 2.203125 -11.453125 L 3.09375 -13.859375 L 5.09375 -13.859375 L 5.09375 -11.4375 L 8.296875 -11.4375 L 8.296875 -9.09375 L 5.09375 -9.09375 L 5.09375 -3.578125 C 5.09375 -3.128906 5.21875 -2.800781 5.46875 -2.59375 C 5.71875 -2.382812 6.046875 -2.28125 6.453125 -2.28125 Z M 6.453125 -2.28125 "/></g></g></g><g fill="#1800ad" fill-opacity="1"><g transform="translate(228.298723, 63.7698)"><g><path d="M 8.015625 -11.640625 C 8.441406 -11.640625 8.789062 -11.609375 9.0625 -11.546875 L 8.828125 -8.625 C 8.578125 -8.695312 8.269531 -8.734375 7.90625 -8.734375 C 6.914062 -8.734375 6.140625 -8.476562 5.578125 -7.96875 C 5.023438 -7.457031 4.75 -6.738281 4.75 -5.8125 L 4.75 0 L 1.640625 0 L 1.640625 -11.4375 L 4 -11.4375 L 4.453125 -9.5 L 4.609375 -9.5 C 4.960938 -10.144531 5.441406 -10.660156 6.046875 -11.046875 C 6.648438 -11.441406 7.304688 -11.640625 8.015625 -11.640625 Z M 8.015625 -11.640625 "/></g></g></g><g fill="#1800ad" fill-opacity="1"><g transform="translate(237.807056, 63.7698)"><g><path d="M 8.890625 0 L 8.296875 -1.546875 L 8.203125 -1.546875 C 7.679688 -0.890625 7.140625 -0.429688 6.578125 -0.171875 C 6.023438 0.078125 5.304688 0.203125 4.421875 0.203125 C 3.316406 0.203125 2.445312 -0.109375 1.8125 -0.734375 C 1.1875 -1.359375 0.875 -2.253906 0.875 -3.421875 C 0.875 -4.628906 1.296875 -5.519531 2.140625 -6.09375 C 2.992188 -6.675781 4.273438 -6.992188 5.984375 -7.046875 L 7.96875 -7.109375 L 7.96875 -7.609375 C 7.96875 -8.773438 7.378906 -9.359375 6.203125 -9.359375 C 5.285156 -9.359375 4.207031 -9.082031 2.96875 -8.53125 L 1.9375 -10.625 C 3.257812 -11.320312 4.71875 -11.671875 6.3125 -11.671875 C 7.851562 -11.671875 9.03125 -11.332031 9.84375 -10.65625 C 10.664062 -9.988281 11.078125 -8.972656 11.078125 -7.609375 L 11.078125 0 Z M 7.96875 -5.296875 L 6.765625 -5.25 C 5.859375 -5.226562 5.179688 -5.066406 4.734375 -4.765625 C 4.296875 -4.460938 4.078125 -4.003906 4.078125 -3.390625 C 4.078125 -2.515625 4.582031 -2.078125 5.59375 -2.078125 C 6.3125 -2.078125 6.882812 -2.285156 7.3125 -2.703125 C 7.75 -3.117188 7.96875 -3.671875 7.96875 -4.359375 Z M 7.96875 -5.296875 "/></g></g></g><g fill="#1800ad" fill-opacity="1"><g transform="translate(250.454165, 63.7698)"><g><path d="M 6.453125 -2.28125 C 6.992188 -2.28125 7.644531 -2.398438 8.40625 -2.640625 L 8.40625 -0.3125 C 7.632812 0.03125 6.679688 0.203125 5.546875 0.203125 C 4.304688 0.203125 3.398438 -0.109375 2.828125 -0.734375 C 2.253906 -1.367188 1.96875 -2.316406 1.96875 -3.578125 L 1.96875 -9.09375 L 0.484375 -9.09375 L 0.484375 -10.40625 L 2.203125 -11.453125 L 3.09375 -13.859375 L 5.09375 -13.859375 L 5.09375 -11.4375 L 8.296875 -11.4375 L 8.296875 -9.09375 L 5.09375 -9.09375 L 5.09375 -3.578125 C 5.09375 -3.128906 5.21875 -2.800781 5.46875 -2.59375 C 5.71875 -2.382812 6.046875 -2.28125 6.453125 -2.28125 Z M 6.453125 -2.28125 "/></g></g></g><g fill="#1800ad" fill-opacity="1"><g transform="translate(259.543319, 63.7698)"><g><path d="M 8.890625 0 L 8.296875 -1.546875 L 8.203125 -1.546875 C 7.679688 -0.890625 7.140625 -0.429688 6.578125 -0.171875 C 6.023438 0.078125 5.304688 0.203125 4.421875 0.203125 C 3.316406 0.203125 2.445312 -0.109375 1.8125 -0.734375 C 1.1875 -1.359375 0.875 -2.253906 0.875 -3.421875 C 0.875 -4.628906 1.296875 -5.519531 2.140625 -6.09375 C 2.992188 -6.675781 4.273438 -6.992188 5.984375 -7.046875 L 7.96875 -7.109375 L 7.96875 -7.609375 C 7.96875 -8.773438 7.378906 -9.359375 6.203125 -9.359375 C 5.285156 -9.359375 4.207031 -9.082031 2.96875 -8.53125 L 1.9375 -10.625 C 3.257812 -11.320312 4.71875 -11.671875 6.3125 -11.671875 C 7.851562 -11.671875 9.03125 -11.332031 9.84375 -10.65625 C 10.664062 -9.988281 11.078125 -8.972656 11.078125 -7.609375 L 11.078125 0 Z M 7.96875 -5.296875 L 6.765625 -5.25 C 5.859375 -5.226562 5.179688 -5.066406 4.734375 -4.765625 C 4.296875 -4.460938 4.078125 -4.003906 4.078125 -3.390625 C 4.078125 -2.515625 4.582031 -2.078125 5.59375 -2.078125 C 6.3125 -2.078125 6.882812 -2.285156 7.3125 -2.703125 C 7.75 -3.117188 7.96875 -3.671875 7.96875 -4.359375 Z M 7.96875 -5.296875 "/></g></g></g><g fill="#1800ad" fill-opacity="1"><g transform="translate(272.190428, 63.7698)"><g><path d="M 8.015625 -11.640625 C 8.441406 -11.640625 8.789062 -11.609375 9.0625 -11.546875 L 8.828125 -8.625 C 8.578125 -8.695312 8.269531 -8.734375 7.90625 -8.734375 C 6.914062 -8.734375 6.140625 -8.476562 5.578125 -7.96875 C 5.023438 -7.457031 4.75 -6.738281 4.75 -5.8125 L 4.75 0 L 1.640625 0 L 1.640625 -11.4375 L 4 -11.4375 L 4.453125 -9.5 L 4.609375 -9.5 C 4.960938 -10.144531 5.441406 -10.660156 6.046875 -11.046875 C 6.648438 -11.441406 7.304688 -11.640625 8.015625 -11.640625 Z M 8.015625 -11.640625 "/></g></g></g><g fill="#1800ad" fill-opacity="1"><g transform="translate(281.69876, 63.7698)"><g/></g></g><g fill="#1800ad" fill-opacity="1"><g transform="translate(287.137935, 63.7698)"><g><path d="M 6.453125 -2.28125 C 6.992188 -2.28125 7.644531 -2.398438 8.40625 -2.640625 L 8.40625 -0.3125 C 7.632812 0.03125 6.679688 0.203125 5.546875 0.203125 C 4.304688 0.203125 3.398438 -0.109375 2.828125 -0.734375 C 2.253906 -1.367188 1.96875 -2.316406 1.96875 -3.578125 L 1.96875 -9.09375 L 0.484375 -9.09375 L 0.484375 -10.40625 L 2.203125 -11.453125 L 3.09375 -13.859375 L 5.09375 -13.859375 L 5.09375 -11.4375 L 8.296875 -11.4375 L 8.296875 -9.09375 L 5.09375 -9.09375 L 5.09375 -3.578125 C 5.09375 -3.128906 5.21875 -2.800781 5.46875 -2.59375 C 5.71875 -2.382812 6.046875 -2.28125 6.453125 -2.28125 Z M 6.453125 -2.28125 "/></g></g></g><g fill="#1800ad" fill-opacity="1"><g transform="translate(296.227089, 63.7698)"><g><path d="M 4.125 -5.734375 C 4.125 -4.597656 4.304688 -3.738281 4.671875 -3.15625 C 5.046875 -2.582031 5.648438 -2.296875 6.484375 -2.296875 C 7.316406 -2.296875 7.914062 -2.582031 8.28125 -3.15625 C 8.644531 -3.738281 8.828125 -4.597656 8.828125 -5.734375 C 8.828125 -6.867188 8.644531 -7.71875 8.28125 -8.28125 C 7.914062 -8.84375 7.3125 -9.125 6.46875 -9.125 C 5.632812 -9.125 5.035156 -8.84375 4.671875 -8.28125 C 4.304688 -7.71875 4.125 -6.867188 4.125 -5.734375 Z M 12.015625 -5.734375 C 12.015625 -3.867188 11.523438 -2.410156 10.546875 -1.359375 C 9.566406 -0.316406 8.203125 0.203125 6.453125 0.203125 C 5.359375 0.203125 4.390625 -0.0351562 3.546875 -0.515625 C 2.710938 -0.992188 2.066406 -1.679688 1.609375 -2.578125 C 1.160156 -3.484375 0.9375 -4.535156 0.9375 -5.734375 C 0.9375 -7.597656 1.421875 -9.046875 2.390625 -10.078125 C 3.367188 -11.117188 4.742188 -11.640625 6.515625 -11.640625 C 7.609375 -11.640625 8.570312 -11.398438 9.40625 -10.921875 C 10.25 -10.453125 10.894531 -9.769531 11.34375 -8.875 C 11.789062 -7.976562 12.015625 -6.929688 12.015625 -5.734375 Z M 12.015625 -5.734375 "/></g></g></g><g fill="#1800ad" fill-opacity="1"><g transform="translate(309.191137, 63.7698)"><g><path d="M 5.25 0.203125 C 3.90625 0.203125 2.847656 -0.316406 2.078125 -1.359375 C 1.316406 -2.398438 0.9375 -3.84375 0.9375 -5.6875 C 0.9375 -7.5625 1.328125 -9.019531 2.109375 -10.0625 C 2.890625 -11.113281 3.96875 -11.640625 5.34375 -11.640625 C 6.78125 -11.640625 7.875 -11.082031 8.625 -9.96875 L 8.734375 -9.96875 C 8.578125 -10.820312 8.5 -11.582031 8.5 -12.25 L 8.5 -15.90625 L 11.625 -15.90625 L 11.625 0 L 9.234375 0 L 8.625 -1.484375 L 8.5 -1.484375 C 7.789062 -0.359375 6.707031 0.203125 5.25 0.203125 Z M 6.34375 -2.28125 C 7.144531 -2.28125 7.726562 -2.507812 8.09375 -2.96875 C 8.46875 -3.4375 8.671875 -4.226562 8.703125 -5.34375 L 8.703125 -5.671875 C 8.703125 -6.898438 8.515625 -7.78125 8.140625 -8.3125 C 7.765625 -8.84375 7.148438 -9.109375 6.296875 -9.109375 C 5.597656 -9.109375 5.054688 -8.8125 4.671875 -8.21875 C 4.285156 -7.632812 4.09375 -6.78125 4.09375 -5.65625 C 4.09375 -4.53125 4.285156 -3.6875 4.671875 -3.125 C 5.066406 -2.5625 5.625 -2.28125 6.34375 -2.28125 Z M 6.34375 -2.28125 "/></g></g></g><g fill="#1800ad" fill-opacity="1"><g transform="translate(322.441458, 63.7698)"><g><path d="M 4.125 -5.734375 C 4.125 -4.597656 4.304688 -3.738281 4.671875 -3.15625 C 5.046875 -2.582031 5.648438 -2.296875 6.484375 -2.296875 C 7.316406 -2.296875 7.914062 -2.582031 8.28125 -3.15625 C 8.644531 -3.738281 8.828125 -4.597656 8.828125 -5.734375 C 8.828125 -6.867188 8.644531 -7.71875 8.28125 -8.28125 C 7.914062 -8.84375 7.3125 -9.125 6.46875 -9.125 C 5.632812 -9.125 5.035156 -8.84375 4.671875 -8.28125 C 4.304688 -7.71875 4.125 -6.867188 4.125 -5.734375 Z M 12.015625 -5.734375 C 12.015625 -3.867188 11.523438 -2.410156 10.546875 -1.359375 C 9.566406 -0.316406 8.203125 0.203125 6.453125 0.203125 C 5.359375 0.203125 4.390625 -0.0351562 3.546875 -0.515625 C 2.710938 -0.992188 2.066406 -1.679688 1.609375 -2.578125 C 1.160156 -3.484375 0.9375 -4.535156 0.9375 -5.734375 C 0.9375 -7.597656 1.421875 -9.046875 2.390625 -10.078125 C 3.367188 -11.117188 4.742188 -11.640625 6.515625 -11.640625 C 7.609375 -11.640625 8.570312 -11.398438 9.40625 -10.921875 C 10.25 -10.453125 10.894531 -9.769531 11.34375 -8.875 C 11.789062 -7.976562 12.015625 -6.929688 12.015625 -5.734375 Z M 12.015625 -5.734375 "/></g></g></g><g fill="#1800ad" fill-opacity="1"><g transform="translate(335.405506, 63.7698)"><g><path d="M 9.609375 -3.390625 C 9.609375 -2.222656 9.203125 -1.332031 8.390625 -0.71875 C 7.578125 -0.101562 6.359375 0.203125 4.734375 0.203125 C 3.898438 0.203125 3.191406 0.144531 2.609375 0.03125 C 2.023438 -0.0820312 1.476562 -0.242188 0.96875 -0.453125 L 0.96875 -3.03125 C 1.539062 -2.757812 2.1875 -2.53125 2.90625 -2.34375 C 3.632812 -2.164062 4.273438 -2.078125 4.828125 -2.078125 C 5.960938 -2.078125 6.53125 -2.40625 6.53125 -3.0625 C 6.53125 -3.300781 6.453125 -3.5 6.296875 -3.65625 C 6.148438 -3.8125 5.894531 -3.984375 5.53125 -4.171875 C 5.164062 -4.367188 4.675781 -4.597656 4.0625 -4.859375 C 3.175781 -5.222656 2.523438 -5.5625 2.109375 -5.875 C 1.703125 -6.1875 1.40625 -6.546875 1.21875 -6.953125 C 1.03125 -7.359375 0.9375 -7.859375 0.9375 -8.453125 C 0.9375 -9.472656 1.328125 -10.257812 2.109375 -10.8125 C 2.898438 -11.363281 4.019531 -11.640625 5.46875 -11.640625 C 6.84375 -11.640625 8.179688 -11.34375 9.484375 -10.75 L 8.546875 -8.5 C 7.972656 -8.738281 7.4375 -8.9375 6.9375 -9.09375 C 6.445312 -9.25 5.941406 -9.328125 5.421875 -9.328125 C 4.492188 -9.328125 4.03125 -9.082031 4.03125 -8.59375 C 4.03125 -8.3125 4.175781 -8.066406 4.46875 -7.859375 C 4.769531 -7.660156 5.425781 -7.359375 6.4375 -6.953125 C 7.320312 -6.585938 7.972656 -6.25 8.390625 -5.9375 C 8.804688 -5.625 9.113281 -5.265625 9.3125 -4.859375 C 9.507812 -4.453125 9.609375 -3.960938 9.609375 -3.390625 Z M 9.609375 -3.390625 "/></g></g></g><g fill="#1800ad" fill-opacity="1"><g transform="translate(345.813552, 63.7698)"><g/></g></g><g fill="#1800ad" fill-opacity="1"><g transform="translate(351.252727, 63.7698)"><g><path d="M 4.125 -5.734375 C 4.125 -4.597656 4.304688 -3.738281 4.671875 -3.15625 C 5.046875 -2.582031 5.648438 -2.296875 6.484375 -2.296875 C 7.316406 -2.296875 7.914062 -2.582031 8.28125 -3.15625 C 8.644531 -3.738281 8.828125 -4.597656 8.828125 -5.734375 C 8.828125 -6.867188 8.644531 -7.71875 8.28125 -8.28125 C 7.914062 -8.84375 7.3125 -9.125 6.46875 -9.125 C 5.632812 -9.125 5.035156 -8.84375 4.671875 -8.28125 C 4.304688 -7.71875 4.125 -6.867188 4.125 -5.734375 Z M 12.015625 -5.734375 C 12.015625 -3.867188 11.523438 -2.410156 10.546875 -1.359375 C 9.566406 -0.316406 8.203125 0.203125 6.453125 0.203125 C 5.359375 0.203125 4.390625 -0.0351562 3.546875 -0.515625 C 2.710938 -0.992188 2.066406 -1.679688 1.609375 -2.578125 C 1.160156 -3.484375 0.9375 -4.535156 0.9375 -5.734375 C 0.9375 -7.597656 1.421875 -9.046875 2.390625 -10.078125 C 3.367188 -11.117188 4.742188 -11.640625 6.515625 -11.640625 C 7.609375 -11.640625 8.570312 -11.398438 9.40625 -10.921875 C 10.25 -10.453125 10.894531 -9.769531 11.34375 -8.875 C 11.789062 -7.976562 12.015625 -6.929688 12.015625 -5.734375 Z M 12.015625 -5.734375 "/></g></g></g><g fill="#1800ad" fill-opacity="1"><g transform="translate(364.216775, 63.7698)"><g><path d="M 9.609375 -3.390625 C 9.609375 -2.222656 9.203125 -1.332031 8.390625 -0.71875 C 7.578125 -0.101562 6.359375 0.203125 4.734375 0.203125 C 3.898438 0.203125 3.191406 0.144531 2.609375 0.03125 C 2.023438 -0.0820312 1.476562 -0.242188 0.96875 -0.453125 L 0.96875 -3.03125 C 1.539062 -2.757812 2.1875 -2.53125 2.90625 -2.34375 C 3.632812 -2.164062 4.273438 -2.078125 4.828125 -2.078125 C 5.960938 -2.078125 6.53125 -2.40625 6.53125 -3.0625 C 6.53125 -3.300781 6.453125 -3.5 6.296875 -3.65625 C 6.148438 -3.8125 5.894531 -3.984375 5.53125 -4.171875 C 5.164062 -4.367188 4.675781 -4.597656 4.0625 -4.859375 C 3.175781 -5.222656 2.523438 -5.5625 2.109375 -5.875 C 1.703125 -6.1875 1.40625 -6.546875 1.21875 -6.953125 C 1.03125 -7.359375 0.9375 -7.859375 0.9375 -8.453125 C 0.9375 -9.472656 1.328125 -10.257812 2.109375 -10.8125 C 2.898438 -11.363281 4.019531 -11.640625 5.46875 -11.640625 C 6.84375 -11.640625 8.179688 -11.34375 9.484375 -10.75 L 8.546875 -8.5 C 7.972656 -8.738281 7.4375 -8.9375 6.9375 -9.09375 C 6.445312 -9.25 5.941406 -9.328125 5.421875 -9.328125 C 4.492188 -9.328125 4.03125 -9.082031 4.03125 -8.59375 C 4.03125 -8.3125 4.175781 -8.066406 4.46875 -7.859375 C 4.769531 -7.660156 5.425781 -7.359375 6.4375 -6.953125 C 7.320312 -6.585938 7.972656 -6.25 8.390625 -5.9375 C 8.804688 -5.625 9.113281 -5.265625 9.3125 -4.859375 C 9.507812 -4.453125 9.609375 -3.960938 9.609375 -3.390625 Z M 9.609375 -3.390625 "/></g></g></g><g fill="#1800ad" fill-opacity="1"><g transform="translate(374.62598, 63.7698)"><g/></g></g><g fill="#1800ad" fill-opacity="1"><g transform="translate(214.5396, 92.950812)"><g><path d="M 5.046875 -7.90625 L 6.09375 -7.90625 C 7.070312 -7.90625 7.800781 -8.097656 8.28125 -8.484375 C 8.757812 -8.867188 9 -9.429688 9 -10.171875 C 9 -10.910156 8.796875 -11.457031 8.390625 -11.8125 C 7.992188 -12.164062 7.359375 -12.34375 6.484375 -12.34375 L 5.046875 -12.34375 Z M 12.203125 -10.28125 C 12.203125 -8.675781 11.695312 -7.445312 10.6875 -6.59375 C 9.6875 -5.738281 8.257812 -5.3125 6.40625 -5.3125 L 5.046875 -5.3125 L 5.046875 0 L 1.875 0 L 1.875 -14.953125 L 6.65625 -14.953125 C 8.46875 -14.953125 9.84375 -14.5625 10.78125 -13.78125 C 11.726562 -13 12.203125 -11.832031 12.203125 -10.28125 Z M 12.203125 -10.28125 "/></g></g></g><g fill="#1800ad" fill-opacity="1"><g transform="translate(227.687681, 92.950812)"><g><path d="M 8.015625 -11.640625 C 8.441406 -11.640625 8.789062 -11.609375 9.0625 -11.546875 L 8.828125 -8.625 C 8.578125 -8.695312 8.269531 -8.734375 7.90625 -8.734375 C 6.914062 -8.734375 6.140625 -8.476562 5.578125 -7.96875 C 5.023438 -7.457031 4.75 -6.738281 4.75 -5.8125 L 4.75 0 L 1.640625 0 L 1.640625 -11.4375 L 4 -11.4375 L 4.453125 -9.5 L 4.609375 -9.5 C 4.960938 -10.144531 5.441406 -10.660156 6.046875 -11.046875 C 6.648438 -11.441406 7.304688 -11.640625 8.015625 -11.640625 Z M 8.015625 -11.640625 "/></g></g></g><g fill="#1800ad" fill-opacity="1"><g transform="translate(237.196013, 92.950812)"><g><path d="M 4.125 -5.734375 C 4.125 -4.597656 4.304688 -3.738281 4.671875 -3.15625 C 5.046875 -2.582031 5.648438 -2.296875 6.484375 -2.296875 C 7.316406 -2.296875 7.914062 -2.582031 8.28125 -3.15625 C 8.644531 -3.738281 8.828125 -4.597656 8.828125 -5.734375 C 8.828125 -6.867188 8.644531 -7.71875 8.28125 -8.28125 C 7.914062 -8.84375 7.3125 -9.125 6.46875 -9.125 C 5.632812 -9.125 5.035156 -8.84375 4.671875 -8.28125 C 4.304688 -7.71875 4.125 -6.867188 4.125 -5.734375 Z M 12.015625 -5.734375 C 12.015625 -3.867188 11.523438 -2.410156 10.546875 -1.359375 C 9.566406 -0.316406 8.203125 0.203125 6.453125 0.203125 C 5.359375 0.203125 4.390625 -0.0351562 3.546875 -0.515625 C 2.710938 -0.992188 2.066406 -1.679688 1.609375 -2.578125 C 1.160156 -3.484375 0.9375 -4.535156 0.9375 -5.734375 C 0.9375 -7.597656 1.421875 -9.046875 2.390625 -10.078125 C 3.367188 -11.117188 4.742188 -11.640625 6.515625 -11.640625 C 7.609375 -11.640625 8.570312 -11.398438 9.40625 -10.921875 C 10.25 -10.453125 10.894531 -9.769531 11.34375 -8.875 C 11.789062 -7.976562 12.015625 -6.929688 12.015625 -5.734375 Z M 12.015625 -5.734375 "/></g></g></g><g fill="#1800ad" fill-opacity="1"><g transform="translate(250.160062, 92.950812)"><g><path d="M 8 -11.640625 C 9.34375 -11.640625 10.394531 -11.113281 11.15625 -10.0625 C 11.925781 -9.007812 12.3125 -7.566406 12.3125 -5.734375 C 12.3125 -3.847656 11.914062 -2.382812 11.125 -1.34375 C 10.34375 -0.3125 9.269531 0.203125 7.90625 0.203125 C 6.570312 0.203125 5.519531 -0.28125 4.75 -1.25 L 4.546875 -1.25 L 4.015625 0 L 1.640625 0 L 1.640625 -15.90625 L 4.75 -15.90625 L 4.75 -12.203125 C 4.75 -11.734375 4.707031 -10.984375 4.625 -9.953125 L 4.75 -9.953125 C 5.476562 -11.078125 6.5625 -11.640625 8 -11.640625 Z M 7 -9.15625 C 6.226562 -9.15625 5.664062 -8.914062 5.3125 -8.4375 C 4.957031 -7.96875 4.769531 -7.1875 4.75 -6.09375 L 4.75 -5.75 C 4.75 -4.53125 4.929688 -3.65625 5.296875 -3.125 C 5.660156 -2.59375 6.238281 -2.328125 7.03125 -2.328125 C 7.675781 -2.328125 8.1875 -2.617188 8.5625 -3.203125 C 8.9375 -3.796875 9.125 -4.65625 9.125 -5.78125 C 9.125 -6.90625 8.929688 -7.75 8.546875 -8.3125 C 8.171875 -8.875 7.65625 -9.15625 7 -9.15625 Z M 7 -9.15625 "/></g></g></g><g fill="#1800ad" fill-opacity="1"><g transform="translate(263.410382, 92.950812)"><g><path d="M 4.75 0 L 1.640625 0 L 1.640625 -15.90625 L 4.75 -15.90625 Z M 4.75 0 "/></g></g></g><g fill="#1800ad" fill-opacity="1"><g transform="translate(269.800396, 92.950812)"><g><path d="M 6.375 -9.421875 C 5.707031 -9.421875 5.1875 -9.210938 4.8125 -8.796875 C 4.4375 -8.378906 4.222656 -7.785156 4.171875 -7.015625 L 8.546875 -7.015625 C 8.535156 -7.785156 8.332031 -8.378906 7.9375 -8.796875 C 7.550781 -9.210938 7.03125 -9.421875 6.375 -9.421875 Z M 6.8125 0.203125 C 4.96875 0.203125 3.523438 -0.300781 2.484375 -1.3125 C 1.453125 -2.332031 0.9375 -3.773438 0.9375 -5.640625 C 0.9375 -7.546875 1.414062 -9.019531 2.375 -10.0625 C 3.332031 -11.113281 4.65625 -11.640625 6.34375 -11.640625 C 7.957031 -11.640625 9.210938 -11.179688 10.109375 -10.265625 C 11.015625 -9.347656 11.46875 -8.078125 11.46875 -6.453125 L 11.46875 -4.9375 L 4.09375 -4.9375 C 4.132812 -4.050781 4.398438 -3.359375 4.890625 -2.859375 C 5.378906 -2.359375 6.066406 -2.109375 6.953125 -2.109375 C 7.640625 -2.109375 8.289062 -2.179688 8.90625 -2.328125 C 9.519531 -2.472656 10.160156 -2.703125 10.828125 -3.015625 L 10.828125 -0.609375 C 10.285156 -0.328125 9.703125 -0.125 9.078125 0 C 8.453125 0.132812 7.695312 0.203125 6.8125 0.203125 Z M 6.8125 0.203125 "/></g></g></g><g fill="#1800ad" fill-opacity="1"><g transform="translate(282.171452, 92.950812)"><g><path d="M 11.875 0 L 8.75 0 L 8.75 -6.671875 C 8.75 -7.492188 8.609375 -8.113281 8.328125 -8.53125 C 8.054688 -8.945312 7.625 -9.15625 7.03125 -9.15625 C 6.238281 -9.15625 5.660156 -8.859375 5.296875 -8.265625 C 4.929688 -7.679688 4.75 -6.71875 4.75 -5.375 L 4.75 0 L 1.640625 0 L 1.640625 -11.4375 L 4.015625 -11.4375 L 4.4375 -9.96875 L 4.609375 -9.96875 C 4.921875 -10.488281 5.363281 -10.894531 5.9375 -11.1875 C 6.519531 -11.488281 7.1875 -11.640625 7.9375 -11.640625 C 9.644531 -11.640625 10.800781 -11.082031 11.40625 -9.96875 L 11.6875 -9.96875 C 11.988281 -10.5 12.4375 -10.910156 13.03125 -11.203125 C 13.632812 -11.492188 14.3125 -11.640625 15.0625 -11.640625 C 16.351562 -11.640625 17.332031 -11.304688 18 -10.640625 C 18.664062 -9.984375 19 -8.921875 19 -7.453125 L 19 0 L 15.859375 0 L 15.859375 -6.671875 C 15.859375 -7.492188 15.71875 -8.113281 15.4375 -8.53125 C 15.164062 -8.945312 14.738281 -9.15625 14.15625 -9.15625 C 13.382812 -9.15625 12.8125 -8.878906 12.4375 -8.328125 C 12.0625 -7.785156 11.875 -6.921875 11.875 -5.734375 Z M 11.875 0 "/></g></g></g><g fill="#1800ad" fill-opacity="1"><g transform="translate(302.731949, 92.950812)"><g><path d="M 8.890625 0 L 8.296875 -1.546875 L 8.203125 -1.546875 C 7.679688 -0.890625 7.140625 -0.429688 6.578125 -0.171875 C 6.023438 0.078125 5.304688 0.203125 4.421875 0.203125 C 3.316406 0.203125 2.445312 -0.109375 1.8125 -0.734375 C 1.1875 -1.359375 0.875 -2.253906 0.875 -3.421875 C 0.875 -4.628906 1.296875 -5.519531 2.140625 -6.09375 C 2.992188 -6.675781 4.273438 -6.992188 5.984375 -7.046875 L 7.96875 -7.109375 L 7.96875 -7.609375 C 7.96875 -8.773438 7.378906 -9.359375 6.203125 -9.359375 C 5.285156 -9.359375 4.207031 -9.082031 2.96875 -8.53125 L 1.9375 -10.625 C 3.257812 -11.320312 4.71875 -11.671875 6.3125 -11.671875 C 7.851562 -11.671875 9.03125 -11.332031 9.84375 -10.65625 C 10.664062 -9.988281 11.078125 -8.972656 11.078125 -7.609375 L 11.078125 0 Z M 7.96875 -5.296875 L 6.765625 -5.25 C 5.859375 -5.226562 5.179688 -5.066406 4.734375 -4.765625 C 4.296875 -4.460938 4.078125 -4.003906 4.078125 -3.390625 C 4.078125 -2.515625 4.582031 -2.078125 5.59375 -2.078125 C 6.3125 -2.078125 6.882812 -2.285156 7.3125 -2.703125 C 7.75 -3.117188 7.96875 -3.671875 7.96875 -4.359375 Z M 7.96875 -5.296875 "/></g></g></g><g fill="#1800ad" fill-opacity="1"><g transform="translate(315.379058, 92.950812)"><g><path d="M 9.609375 -3.390625 C 9.609375 -2.222656 9.203125 -1.332031 8.390625 -0.71875 C 7.578125 -0.101562 6.359375 0.203125 4.734375 0.203125 C 3.898438 0.203125 3.191406 0.144531 2.609375 0.03125 C 2.023438 -0.0820312 1.476562 -0.242188 0.96875 -0.453125 L 0.96875 -3.03125 C 1.539062 -2.757812 2.1875 -2.53125 2.90625 -2.34375 C 3.632812 -2.164062 4.273438 -2.078125 4.828125 -2.078125 C 5.960938 -2.078125 6.53125 -2.40625 6.53125 -3.0625 C 6.53125 -3.300781 6.453125 -3.5 6.296875 -3.65625 C 6.148438 -3.8125 5.894531 -3.984375 5.53125 -4.171875 C 5.164062 -4.367188 4.675781 -4.597656 4.0625 -4.859375 C 3.175781 -5.222656 2.523438 -5.5625 2.109375 -5.875 C 1.703125 -6.1875 1.40625 -6.546875 1.21875 -6.953125 C 1.03125 -7.359375 0.9375 -7.859375 0.9375 -8.453125 C 0.9375 -9.472656 1.328125 -10.257812 2.109375 -10.8125 C 2.898438 -11.363281 4.019531 -11.640625 5.46875 -11.640625 C 6.84375 -11.640625 8.179688 -11.34375 9.484375 -10.75 L 8.546875 -8.5 C 7.972656 -8.738281 7.4375 -8.9375 6.9375 -9.09375 C 6.445312 -9.25 5.941406 -9.328125 5.421875 -9.328125 C 4.492188 -9.328125 4.03125 -9.082031 4.03125 -8.59375 C 4.03125 -8.3125 4.175781 -8.066406 4.46875 -7.859375 C 4.769531 -7.660156 5.425781 -7.359375 6.4375 -6.953125 C 7.320312 -6.585938 7.972656 -6.25 8.390625 -5.9375 C 8.804688 -5.625 9.113281 -5.265625 9.3125 -4.859375 C 9.507812 -4.453125 9.609375 -3.960938 9.609375 -3.390625 Z M 9.609375 -3.390625 "/></g></g></g><g fill="#1800ad" fill-opacity="1"><g transform="translate(325.792208, 92.950812)"><g/></g></g></svg>