<svg xmlns="http://www.w3.org/2000/svg" xmlns:xlink="http://www.w3.org/1999/xlink" width="1093" zoomAndPan="magnify" viewBox="0 0 819.75 130.499996" height="174" preserveAspectRatio="xMidYMid meet" version="1.0"><defs><g/><clipPath id="ce0757f2bd"><path d="M 7 6 L 109 6 L 109 130 L 7 130 Z M 7 6 " clip-rule="nonzero"/></clipPath><clipPath id="ed61407710"><path d="M 80 125 L 818.0625 125 L 818.0625 130 L 80 130 Z M 80 125 " clip-rule="nonzero"/></clipPath></defs><g clip-path="url(#ce0757f2bd)"><path stroke-linecap="butt" transform="matrix(0.349127, 0.660549, -0.660549, 0.349127, 34.617933, 30.80401)" fill="none" stroke-linejoin="miter" d="M 0.000475581 2.999597 L 144.783585 3.000732 " stroke="#78ff00" stroke-width="6" stroke-opacity="1" stroke-miterlimit="4"/></g><g clip-path="url(#ed61407710)"><path stroke-linecap="butt" transform="matrix(0.747137, 0.000000000000000345, -0.000000000000000345, 0.747137, 83.183772, 125.245393)" fill="none" stroke-linejoin="miter" d="M -0.000239059 3.001976 L 983.587316 3.001976 " stroke="#78ff00" stroke-width="6" stroke-opacity="1" stroke-miterlimit="4"/></g><g fill="#1800ad" fill-opacity="1"><g transform="translate(58.825097, 59.097505)"><g><path d="M 10.96875 0 L 4.125 0 L 4.125 -32.765625 L 22.90625 -32.765625 L 22.90625 -27.078125 L 10.96875 -27.078125 L 10.96875 -18.625 L 22.078125 -18.625 L 22.078125 -12.953125 L 10.96875 -12.953125 Z M 10.96875 0 "/></g></g></g><g fill="#1800ad" fill-opacity="1"><g transform="translate(84.017544, 59.097505)"><g><path d="M 19.5 0 L 18.171875 -3.40625 L 18 -3.40625 C 16.84375 -1.957031 15.65625 -0.953125 14.4375 -0.390625 C 13.226562 0.171875 11.644531 0.453125 9.6875 0.453125 C 7.28125 0.453125 5.382812 -0.234375 4 -1.609375 C 2.613281 -2.984375 1.921875 -4.941406 1.921875 -7.484375 C 1.921875 -10.148438 2.851562 -12.113281 4.71875 -13.375 C 6.582031 -14.632812 9.390625 -15.332031 13.140625 -15.46875 L 17.484375 -15.59375 L 17.484375 -16.703125 C 17.484375 -19.242188 16.179688 -20.515625 13.578125 -20.515625 C 11.578125 -20.515625 9.222656 -19.90625 6.515625 -18.6875 L 4.265625 -23.3125 C 7.140625 -24.820312 10.335938 -25.578125 13.859375 -25.578125 C 17.210938 -25.578125 19.785156 -24.84375 21.578125 -23.375 C 23.378906 -21.914062 24.28125 -19.691406 24.28125 -16.703125 L 24.28125 0 Z M 17.484375 -11.609375 L 14.84375 -11.515625 C 12.851562 -11.460938 11.367188 -11.101562 10.390625 -10.4375 C 9.421875 -9.78125 8.9375 -8.78125 8.9375 -7.4375 C 8.9375 -5.507812 10.046875 -4.546875 12.265625 -4.546875 C 13.847656 -4.546875 15.113281 -5 16.0625 -5.90625 C 17.007812 -6.820312 17.484375 -8.035156 17.484375 -9.546875 Z M 17.484375 -11.609375 "/></g></g></g><g fill="#1800ad" fill-opacity="1"><g transform="translate(111.742683, 59.097505)"><g><path d="M 10.421875 0 L 3.59375 0 L 3.59375 -34.875 L 10.421875 -34.875 Z M 10.421875 0 "/></g></g></g><g fill="#1800ad" fill-opacity="1"><g transform="translate(125.750938, 59.097505)"><g><path d="M 13.96875 -20.671875 C 12.519531 -20.671875 11.382812 -20.207031 10.5625 -19.28125 C 9.738281 -18.363281 9.265625 -17.0625 9.140625 -15.375 L 18.734375 -15.375 C 18.703125 -17.0625 18.257812 -18.363281 17.40625 -19.28125 C 16.5625 -20.207031 15.414062 -20.671875 13.96875 -20.671875 Z M 14.921875 0.453125 C 10.890625 0.453125 7.738281 -0.660156 5.46875 -2.890625 C 3.195312 -5.117188 2.0625 -8.269531 2.0625 -12.34375 C 2.0625 -16.550781 3.109375 -19.800781 5.203125 -22.09375 C 7.304688 -24.382812 10.210938 -25.53125 13.921875 -25.53125 C 17.460938 -25.53125 20.21875 -24.519531 22.1875 -22.5 C 24.164062 -20.488281 25.15625 -17.703125 25.15625 -14.140625 L 25.15625 -10.828125 L 8.984375 -10.828125 C 9.054688 -8.878906 9.628906 -7.359375 10.703125 -6.265625 C 11.785156 -5.179688 13.300781 -4.640625 15.25 -4.640625 C 16.75 -4.640625 18.171875 -4.796875 19.515625 -5.109375 C 20.867188 -5.421875 22.273438 -5.921875 23.734375 -6.609375 L 23.734375 -1.328125 C 22.535156 -0.722656 21.253906 -0.273438 19.890625 0.015625 C 18.535156 0.304688 16.878906 0.453125 14.921875 0.453125 Z M 14.921875 0.453125 "/></g></g></g><g fill="#1800ad" fill-opacity="1"><g transform="translate(152.87092, 59.097505)"><g/></g></g><g fill="#1800ad" fill-opacity="1"><g transform="translate(164.794747, 59.097505)"><g><path d="M 18.046875 -27.453125 C 15.429688 -27.453125 13.40625 -26.46875 11.96875 -24.5 C 10.53125 -22.539062 9.8125 -19.804688 9.8125 -16.296875 C 9.8125 -8.984375 12.554688 -5.328125 18.046875 -5.328125 C 20.347656 -5.328125 23.132812 -5.90625 26.40625 -7.0625 L 26.40625 -1.234375 C 23.71875 -0.109375 20.710938 0.453125 17.390625 0.453125 C 12.628906 0.453125 8.984375 -0.988281 6.453125 -3.875 C 3.929688 -6.769531 2.671875 -10.925781 2.671875 -16.34375 C 2.671875 -19.75 3.289062 -22.734375 4.53125 -25.296875 C 5.769531 -27.859375 7.550781 -29.820312 9.875 -31.1875 C 12.195312 -32.550781 14.921875 -33.234375 18.046875 -33.234375 C 21.222656 -33.234375 24.421875 -32.46875 27.640625 -30.9375 L 25.390625 -25.28125 C 24.171875 -25.863281 22.941406 -26.367188 21.703125 -26.796875 C 20.460938 -27.234375 19.242188 -27.453125 18.046875 -27.453125 Z M 18.046875 -27.453125 "/></g></g></g><g fill="#1800ad" fill-opacity="1"><g transform="translate(194.043984, 59.097505)"><g><path d="M 9.03125 -12.578125 C 9.03125 -10.097656 9.4375 -8.222656 10.25 -6.953125 C 11.070312 -5.679688 12.398438 -5.046875 14.234375 -5.046875 C 16.054688 -5.046875 17.363281 -5.675781 18.15625 -6.9375 C 18.957031 -8.195312 19.359375 -10.078125 19.359375 -12.578125 C 19.359375 -15.054688 18.957031 -16.914062 18.15625 -18.15625 C 17.351562 -19.394531 16.03125 -20.015625 14.1875 -20.015625 C 12.363281 -20.015625 11.046875 -19.394531 10.234375 -18.15625 C 9.429688 -16.925781 9.03125 -15.066406 9.03125 -12.578125 Z M 26.359375 -12.578125 C 26.359375 -8.492188 25.28125 -5.300781 23.125 -3 C 20.976562 -0.695312 17.984375 0.453125 14.140625 0.453125 C 11.734375 0.453125 9.609375 -0.0703125 7.765625 -1.125 C 5.929688 -2.1875 4.519531 -3.703125 3.53125 -5.671875 C 2.550781 -7.640625 2.0625 -9.941406 2.0625 -12.578125 C 2.0625 -16.671875 3.128906 -19.851562 5.265625 -22.125 C 7.398438 -24.394531 10.40625 -25.53125 14.28125 -25.53125 C 16.6875 -25.53125 18.804688 -25.003906 20.640625 -23.953125 C 22.484375 -22.910156 23.894531 -21.410156 24.875 -19.453125 C 25.863281 -17.492188 26.359375 -15.203125 26.359375 -12.578125 Z M 26.359375 -12.578125 "/></g></g></g><g fill="#1800ad" fill-opacity="1"><g transform="translate(222.463932, 59.097505)"><g><path d="M 26.71875 0 L 19.875 0 L 19.875 -14.640625 C 19.875 -16.441406 19.550781 -17.796875 18.90625 -18.703125 C 18.269531 -19.609375 17.25 -20.0625 15.84375 -20.0625 C 13.9375 -20.0625 12.554688 -19.421875 11.703125 -18.140625 C 10.847656 -16.867188 10.421875 -14.753906 10.421875 -11.796875 L 10.421875 0 L 3.59375 0 L 3.59375 -25.0625 L 8.8125 -25.0625 L 9.734375 -21.859375 L 10.109375 -21.859375 C 10.867188 -23.066406 11.914062 -23.976562 13.25 -24.59375 C 14.59375 -25.21875 16.113281 -25.53125 17.8125 -25.53125 C 20.726562 -25.53125 22.941406 -24.738281 24.453125 -23.15625 C 25.960938 -21.582031 26.71875 -19.3125 26.71875 -16.34375 Z M 26.71875 0 "/></g></g></g><g fill="#1800ad" fill-opacity="1"><g transform="translate(252.632111, 59.097505)"><g><path d="M 9.03125 -12.578125 C 9.03125 -10.097656 9.4375 -8.222656 10.25 -6.953125 C 11.070312 -5.679688 12.398438 -5.046875 14.234375 -5.046875 C 16.054688 -5.046875 17.363281 -5.675781 18.15625 -6.9375 C 18.957031 -8.195312 19.359375 -10.078125 19.359375 -12.578125 C 19.359375 -15.054688 18.957031 -16.914062 18.15625 -18.15625 C 17.351562 -19.394531 16.03125 -20.015625 14.1875 -20.015625 C 12.363281 -20.015625 11.046875 -19.394531 10.234375 -18.15625 C 9.429688 -16.925781 9.03125 -15.066406 9.03125 -12.578125 Z M 26.359375 -12.578125 C 26.359375 -8.492188 25.28125 -5.300781 23.125 -3 C 20.976562 -0.695312 17.984375 0.453125 14.140625 0.453125 C 11.734375 0.453125 9.609375 -0.0703125 7.765625 -1.125 C 5.929688 -2.1875 4.519531 -3.703125 3.53125 -5.671875 C 2.550781 -7.640625 2.0625 -9.941406 2.0625 -12.578125 C 2.0625 -16.671875 3.128906 -19.851562 5.265625 -22.125 C 7.398438 -24.394531 10.40625 -25.53125 14.28125 -25.53125 C 16.6875 -25.53125 18.804688 -25.003906 20.640625 -23.953125 C 22.484375 -22.910156 23.894531 -21.410156 24.875 -19.453125 C 25.863281 -17.492188 26.359375 -15.203125 26.359375 -12.578125 Z M 26.359375 -12.578125 "/></g></g></g><g fill="#1800ad" fill-opacity="1"><g transform="translate(281.052059, 59.097505)"><g><path d="M 21.0625 -7.4375 C 21.0625 -4.875 20.171875 -2.914062 18.390625 -1.5625 C 16.609375 -0.21875 13.9375 0.453125 10.375 0.453125 C 8.550781 0.453125 6.992188 0.328125 5.703125 0.078125 C 4.421875 -0.171875 3.222656 -0.535156 2.109375 -1.015625 L 2.109375 -6.65625 C 3.378906 -6.0625 4.804688 -5.5625 6.390625 -5.15625 C 7.984375 -4.75 9.390625 -4.546875 10.609375 -4.546875 C 13.085938 -4.546875 14.328125 -5.265625 14.328125 -6.703125 C 14.328125 -7.242188 14.160156 -7.679688 13.828125 -8.015625 C 13.503906 -8.347656 12.9375 -8.726562 12.125 -9.15625 C 11.320312 -9.582031 10.25 -10.078125 8.90625 -10.640625 C 6.96875 -11.453125 5.546875 -12.203125 4.640625 -12.890625 C 3.742188 -13.578125 3.085938 -14.363281 2.671875 -15.25 C 2.265625 -16.144531 2.0625 -17.238281 2.0625 -18.53125 C 2.0625 -20.757812 2.921875 -22.484375 4.640625 -23.703125 C 6.367188 -24.921875 8.816406 -25.53125 11.984375 -25.53125 C 15.003906 -25.53125 17.941406 -24.875 20.796875 -23.5625 L 18.734375 -18.625 C 17.484375 -19.164062 16.3125 -19.609375 15.21875 -19.953125 C 14.125 -20.296875 13.007812 -20.46875 11.875 -20.46875 C 9.863281 -20.46875 8.859375 -19.921875 8.859375 -18.828125 C 8.859375 -18.210938 9.179688 -17.679688 9.828125 -17.234375 C 10.472656 -16.785156 11.894531 -16.125 14.09375 -15.25 C 16.050781 -14.445312 17.484375 -13.703125 18.390625 -13.015625 C 19.304688 -12.328125 19.976562 -11.535156 20.40625 -10.640625 C 20.84375 -9.742188 21.0625 -8.675781 21.0625 -7.4375 Z M 21.0625 -7.4375 "/></g></g></g><g fill="#1800ad" fill-opacity="1"><g transform="translate(303.868705, 59.097505)"><g><path d="M 13.765625 0.453125 C 5.960938 0.453125 2.0625 -3.828125 2.0625 -12.390625 C 2.0625 -16.648438 3.117188 -19.90625 5.234375 -22.15625 C 7.359375 -24.40625 10.40625 -25.53125 14.375 -25.53125 C 17.269531 -25.53125 19.867188 -24.960938 22.171875 -23.828125 L 20.15625 -18.53125 C 19.070312 -18.96875 18.066406 -19.320312 17.140625 -19.59375 C 16.222656 -19.875 15.300781 -20.015625 14.375 -20.015625 C 10.8125 -20.015625 9.03125 -17.488281 9.03125 -12.4375 C 9.03125 -7.539062 10.8125 -5.09375 14.375 -5.09375 C 15.6875 -5.09375 16.898438 -5.265625 18.015625 -5.609375 C 19.140625 -5.960938 20.265625 -6.515625 21.390625 -7.265625 L 21.390625 -1.40625 C 20.273438 -0.707031 19.15625 -0.222656 18.03125 0.046875 C 16.90625 0.316406 15.484375 0.453125 13.765625 0.453125 Z M 13.765625 0.453125 "/></g></g></g><g fill="#1800ad" fill-opacity="1"><g transform="translate(327.469814, 59.097505)"><g><path d="M 9.03125 -12.578125 C 9.03125 -10.097656 9.4375 -8.222656 10.25 -6.953125 C 11.070312 -5.679688 12.398438 -5.046875 14.234375 -5.046875 C 16.054688 -5.046875 17.363281 -5.675781 18.15625 -6.9375 C 18.957031 -8.195312 19.359375 -10.078125 19.359375 -12.578125 C 19.359375 -15.054688 18.957031 -16.914062 18.15625 -18.15625 C 17.351562 -19.394531 16.03125 -20.015625 14.1875 -20.015625 C 12.363281 -20.015625 11.046875 -19.394531 10.234375 -18.15625 C 9.429688 -16.925781 9.03125 -15.066406 9.03125 -12.578125 Z M 26.359375 -12.578125 C 26.359375 -8.492188 25.28125 -5.300781 23.125 -3 C 20.976562 -0.695312 17.984375 0.453125 14.140625 0.453125 C 11.734375 0.453125 9.609375 -0.0703125 7.765625 -1.125 C 5.929688 -2.1875 4.519531 -3.703125 3.53125 -5.671875 C 2.550781 -7.640625 2.0625 -9.941406 2.0625 -12.578125 C 2.0625 -16.671875 3.128906 -19.851562 5.265625 -22.125 C 7.398438 -24.394531 10.40625 -25.53125 14.28125 -25.53125 C 16.6875 -25.53125 18.804688 -25.003906 20.640625 -23.953125 C 22.484375 -22.910156 23.894531 -21.410156 24.875 -19.453125 C 25.863281 -17.492188 26.359375 -15.203125 26.359375 -12.578125 Z M 26.359375 -12.578125 "/></g></g></g><g fill="#1800ad" fill-opacity="1"><g transform="translate(80.275773, 109.201566)"><g><path d="M 15.5625 0 L 2.796875 0 L 2.796875 -22.171875 L 15.5625 -22.171875 L 15.5625 -18.328125 L 7.5 -18.328125 L 7.5 -13.453125 L 15 -13.453125 L 15 -9.59375 L 7.5 -9.59375 L 7.5 -3.890625 L 15.5625 -3.890625 Z M 15.5625 0 "/></g></g></g><g fill="#1800ad" fill-opacity="1"><g transform="translate(97.667214, 109.201566)"><g><path d="M 14.25 -5.03125 C 14.25 -3.289062 13.644531 -1.96875 12.4375 -1.0625 C 11.226562 -0.15625 9.421875 0.296875 7.015625 0.296875 C 5.785156 0.296875 4.734375 0.210938 3.859375 0.046875 C 2.992188 -0.117188 2.179688 -0.363281 1.421875 -0.6875 L 1.421875 -4.5 C 2.285156 -4.09375 3.253906 -3.753906 4.328125 -3.484375 C 5.410156 -3.210938 6.359375 -3.078125 7.171875 -3.078125 C 8.847656 -3.078125 9.6875 -3.5625 9.6875 -4.53125 C 9.6875 -4.894531 9.578125 -5.191406 9.359375 -5.421875 C 9.140625 -5.648438 8.753906 -5.90625 8.203125 -6.1875 C 7.660156 -6.476562 6.929688 -6.816406 6.015625 -7.203125 C 4.710938 -7.753906 3.753906 -8.257812 3.140625 -8.71875 C 2.535156 -9.1875 2.09375 -9.71875 1.8125 -10.3125 C 1.53125 -10.914062 1.390625 -11.660156 1.390625 -12.546875 C 1.390625 -14.046875 1.972656 -15.207031 3.140625 -16.03125 C 4.316406 -16.863281 5.972656 -17.28125 8.109375 -17.28125 C 10.148438 -17.28125 12.140625 -16.832031 14.078125 -15.9375 L 12.6875 -12.609375 C 11.832031 -12.972656 11.035156 -13.269531 10.296875 -13.5 C 9.554688 -13.726562 8.800781 -13.84375 8.03125 -13.84375 C 6.664062 -13.84375 5.984375 -13.472656 5.984375 -12.734375 C 5.984375 -12.328125 6.203125 -11.96875 6.640625 -11.65625 C 7.085938 -11.351562 8.054688 -10.90625 9.546875 -10.3125 C 10.867188 -9.78125 11.835938 -9.28125 12.453125 -8.8125 C 13.066406 -8.34375 13.519531 -7.804688 13.8125 -7.203125 C 14.101562 -6.597656 14.25 -5.875 14.25 -5.03125 Z M 14.25 -5.03125 "/></g></g></g><g fill="#1800ad" fill-opacity="1"><g transform="translate(113.102687, 109.201566)"><g><path d="M 9.578125 -3.375 C 10.378906 -3.375 11.347656 -3.550781 12.484375 -3.90625 L 12.484375 -0.46875 C 11.328125 0.0390625 9.910156 0.296875 8.234375 0.296875 C 6.378906 0.296875 5.03125 -0.164062 4.1875 -1.09375 C 3.34375 -2.03125 2.921875 -3.4375 2.921875 -5.3125 L 2.921875 -13.484375 L 0.71875 -13.484375 L 0.71875 -15.4375 L 3.265625 -16.984375 L 4.59375 -20.5625 L 7.546875 -20.5625 L 7.546875 -16.953125 L 12.296875 -16.953125 L 12.296875 -13.484375 L 7.546875 -13.484375 L 7.546875 -5.3125 C 7.546875 -4.65625 7.726562 -4.164062 8.09375 -3.84375 C 8.46875 -3.53125 8.960938 -3.375 9.578125 -3.375 Z M 9.578125 -3.375 "/></g></g></g><g fill="#1800ad" fill-opacity="1"><g transform="translate(126.582191, 109.201566)"><g><path d="M 13.203125 0 L 12.296875 -2.3125 L 12.171875 -2.3125 C 11.398438 -1.320312 10.601562 -0.640625 9.78125 -0.265625 C 8.957031 0.109375 7.878906 0.296875 6.546875 0.296875 C 4.921875 0.296875 3.640625 -0.164062 2.703125 -1.09375 C 1.765625 -2.019531 1.296875 -3.34375 1.296875 -5.0625 C 1.296875 -6.863281 1.925781 -8.191406 3.1875 -9.046875 C 4.445312 -9.898438 6.347656 -10.375 8.890625 -10.46875 L 11.828125 -10.5625 L 11.828125 -11.296875 C 11.828125 -13.015625 10.945312 -13.875 9.1875 -13.875 C 7.832031 -13.875 6.238281 -13.46875 4.40625 -12.65625 L 2.875 -15.78125 C 4.832031 -16.800781 7 -17.3125 9.375 -17.3125 C 11.644531 -17.3125 13.382812 -16.8125 14.59375 -15.8125 C 15.8125 -14.820312 16.421875 -13.316406 16.421875 -11.296875 L 16.421875 0 Z M 11.828125 -7.859375 L 10.046875 -7.796875 C 8.703125 -7.753906 7.695312 -7.507812 7.03125 -7.0625 C 6.375 -6.625 6.046875 -5.945312 6.046875 -5.03125 C 6.046875 -3.726562 6.796875 -3.078125 8.296875 -3.078125 C 9.367188 -3.078125 10.222656 -3.382812 10.859375 -4 C 11.503906 -4.613281 11.828125 -5.4375 11.828125 -6.46875 Z M 11.828125 -7.859375 "/></g></g></g><g fill="#1800ad" fill-opacity="1"><g transform="translate(145.338261, 109.201566)"><g><path d="M 17.609375 0 L 12.984375 0 L 12.984375 -9.90625 C 12.984375 -11.125 12.773438 -12.039062 12.359375 -12.65625 C 11.953125 -13.269531 11.3125 -13.578125 10.4375 -13.578125 C 9.25 -13.578125 8.382812 -13.140625 7.84375 -12.265625 C 7.3125 -11.398438 7.046875 -9.972656 7.046875 -7.984375 L 7.046875 0 L 2.421875 0 L 2.421875 -16.953125 L 5.953125 -16.953125 L 6.578125 -14.78125 L 6.84375 -14.78125 C 7.289062 -15.5625 7.941406 -16.171875 8.796875 -16.609375 C 9.660156 -17.054688 10.648438 -17.28125 11.765625 -17.28125 C 14.304688 -17.28125 16.023438 -16.445312 16.921875 -14.78125 L 17.34375 -14.78125 C 17.789062 -15.570312 18.457031 -16.1875 19.34375 -16.625 C 20.226562 -17.0625 21.226562 -17.28125 22.34375 -17.28125 C 24.257812 -17.28125 25.710938 -16.785156 26.703125 -15.796875 C 27.691406 -14.804688 28.1875 -13.226562 28.1875 -11.0625 L 28.1875 0 L 23.546875 0 L 23.546875 -9.90625 C 23.546875 -11.125 23.335938 -12.039062 22.921875 -12.65625 C 22.515625 -13.269531 21.867188 -13.578125 20.984375 -13.578125 C 19.859375 -13.578125 19.015625 -13.171875 18.453125 -12.359375 C 17.890625 -11.546875 17.609375 -10.265625 17.609375 -8.515625 Z M 17.609375 0 "/></g></g></g><g fill="#1800ad" fill-opacity="1"><g transform="translate(175.830143, 109.201566)"><g><path d="M 6.109375 -8.515625 C 6.109375 -6.828125 6.382812 -5.550781 6.9375 -4.6875 C 7.488281 -3.832031 8.382812 -3.40625 9.625 -3.40625 C 10.863281 -3.40625 11.753906 -3.832031 12.296875 -4.6875 C 12.835938 -5.539062 13.109375 -6.816406 13.109375 -8.515625 C 13.109375 -10.191406 12.832031 -11.445312 12.28125 -12.28125 C 11.738281 -13.125 10.84375 -13.546875 9.59375 -13.546875 C 8.363281 -13.546875 7.472656 -13.128906 6.921875 -12.296875 C 6.378906 -11.460938 6.109375 -10.203125 6.109375 -8.515625 Z M 17.84375 -8.515625 C 17.84375 -5.753906 17.113281 -3.59375 15.65625 -2.03125 C 14.195312 -0.476562 12.171875 0.296875 9.578125 0.296875 C 7.941406 0.296875 6.5 -0.0546875 5.25 -0.765625 C 4.007812 -1.472656 3.054688 -2.492188 2.390625 -3.828125 C 1.722656 -5.171875 1.390625 -6.734375 1.390625 -8.515625 C 1.390625 -11.285156 2.113281 -13.4375 3.5625 -14.96875 C 5.007812 -16.507812 7.039062 -17.28125 9.65625 -17.28125 C 11.289062 -17.28125 12.726562 -16.925781 13.96875 -16.21875 C 15.207031 -15.507812 16.160156 -14.488281 16.828125 -13.15625 C 17.503906 -11.832031 17.84375 -10.285156 17.84375 -8.515625 Z M 17.84375 -8.515625 "/></g></g></g><g fill="#1800ad" fill-opacity="1"><g transform="translate(195.056252, 109.201566)"><g><path d="M 14.25 -5.03125 C 14.25 -3.289062 13.644531 -1.96875 12.4375 -1.0625 C 11.226562 -0.15625 9.421875 0.296875 7.015625 0.296875 C 5.785156 0.296875 4.734375 0.210938 3.859375 0.046875 C 2.992188 -0.117188 2.179688 -0.363281 1.421875 -0.6875 L 1.421875 -4.5 C 2.285156 -4.09375 3.253906 -3.753906 4.328125 -3.484375 C 5.410156 -3.210938 6.359375 -3.078125 7.171875 -3.078125 C 8.847656 -3.078125 9.6875 -3.5625 9.6875 -4.53125 C 9.6875 -4.894531 9.578125 -5.191406 9.359375 -5.421875 C 9.140625 -5.648438 8.753906 -5.90625 8.203125 -6.1875 C 7.660156 -6.476562 6.929688 -6.816406 6.015625 -7.203125 C 4.710938 -7.753906 3.753906 -8.257812 3.140625 -8.71875 C 2.535156 -9.1875 2.09375 -9.71875 1.8125 -10.3125 C 1.53125 -10.914062 1.390625 -11.660156 1.390625 -12.546875 C 1.390625 -14.046875 1.972656 -15.207031 3.140625 -16.03125 C 4.316406 -16.863281 5.972656 -17.28125 8.109375 -17.28125 C 10.148438 -17.28125 12.140625 -16.832031 14.078125 -15.9375 L 12.6875 -12.609375 C 11.832031 -12.972656 11.035156 -13.269531 10.296875 -13.5 C 9.554688 -13.726562 8.800781 -13.84375 8.03125 -13.84375 C 6.664062 -13.84375 5.984375 -13.472656 5.984375 -12.734375 C 5.984375 -12.328125 6.203125 -11.96875 6.640625 -11.65625 C 7.085938 -11.351562 8.054688 -10.90625 9.546875 -10.3125 C 10.867188 -9.78125 11.835938 -9.28125 12.453125 -8.8125 C 13.066406 -8.34375 13.519531 -7.804688 13.8125 -7.203125 C 14.101562 -6.597656 14.25 -5.875 14.25 -5.03125 Z M 14.25 -5.03125 "/></g></g></g><g fill="#1800ad" fill-opacity="1"><g transform="translate(210.491725, 109.201566)"><g/></g></g><g fill="#1800ad" fill-opacity="1"><g transform="translate(218.5582, 109.201566)"><g><path d="M 16.359375 0 L 14.75 -5.28125 L 6.671875 -5.28125 L 5.0625 0 L 0 0 L 7.828125 -22.265625 L 13.578125 -22.265625 L 21.4375 0 Z M 13.640625 -9.21875 C 12.148438 -14 11.3125 -16.703125 11.125 -17.328125 C 10.9375 -17.960938 10.800781 -18.460938 10.71875 -18.828125 C 10.382812 -17.523438 9.429688 -14.320312 7.859375 -9.21875 Z M 13.640625 -9.21875 "/></g></g></g><g fill="#1800ad" fill-opacity="1"><g transform="translate(239.982879, 109.201566)"><g><path d="M 9.453125 -3.328125 C 10.617188 -3.328125 11.472656 -3.660156 12.015625 -4.328125 C 12.566406 -5.003906 12.867188 -6.179688 12.921875 -7.859375 L 12.921875 -8.421875 C 12.921875 -10.234375 12.640625 -11.535156 12.078125 -12.328125 C 11.515625 -13.117188 10.613281 -13.515625 9.375 -13.515625 C 7.195312 -13.515625 6.109375 -11.804688 6.109375 -8.390625 C 6.109375 -6.691406 6.378906 -5.421875 6.921875 -4.578125 C 7.460938 -3.742188 8.304688 -3.328125 9.453125 -3.328125 Z M 7.796875 0.296875 C 5.796875 0.296875 4.226562 -0.472656 3.09375 -2.015625 C 1.957031 -3.554688 1.390625 -5.703125 1.390625 -8.453125 C 1.390625 -11.222656 1.96875 -13.382812 3.125 -14.9375 C 4.289062 -16.5 5.878906 -17.28125 7.890625 -17.28125 C 8.960938 -17.28125 9.894531 -17.078125 10.6875 -16.671875 C 11.488281 -16.265625 12.191406 -15.632812 12.796875 -14.78125 L 12.921875 -14.78125 L 13.328125 -16.953125 L 17.25 -16.953125 L 17.25 7.46875 L 12.609375 7.46875 L 12.609375 0.34375 C 12.609375 -0.269531 12.671875 -1.117188 12.796875 -2.203125 L 12.609375 -2.203125 C 12.109375 -1.378906 11.445312 -0.753906 10.625 -0.328125 C 9.8125 0.0859375 8.867188 0.296875 7.796875 0.296875 Z M 7.796875 0.296875 "/></g></g></g><g fill="#1800ad" fill-opacity="1"><g transform="translate(259.63354, 109.201566)"><g><path d="M 14.4375 0 L 13.8125 -2.171875 L 13.578125 -2.171875 C 13.078125 -1.378906 12.367188 -0.769531 11.453125 -0.34375 C 10.546875 0.0820312 9.515625 0.296875 8.359375 0.296875 C 6.367188 0.296875 4.863281 -0.234375 3.84375 -1.296875 C 2.832031 -2.359375 2.328125 -3.894531 2.328125 -5.90625 L 2.328125 -16.953125 L 6.96875 -16.953125 L 6.96875 -7.046875 C 6.96875 -5.828125 7.179688 -4.910156 7.609375 -4.296875 C 8.046875 -3.679688 8.738281 -3.375 9.6875 -3.375 C 10.988281 -3.375 11.925781 -3.804688 12.5 -4.671875 C 13.070312 -5.535156 13.359375 -6.972656 13.359375 -8.984375 L 13.359375 -16.953125 L 17.984375 -16.953125 L 17.984375 0 Z M 14.4375 0 "/></g></g></g><g fill="#1800ad" fill-opacity="1"><g transform="translate(280.042328, 109.201566)"><g><path d="M 2.234375 -21.34375 C 2.234375 -22.84375 3.070312 -23.59375 4.75 -23.59375 C 6.425781 -23.59375 7.265625 -22.84375 7.265625 -21.34375 C 7.265625 -20.625 7.050781 -20.0625 6.625 -19.65625 C 6.207031 -19.257812 5.582031 -19.0625 4.75 -19.0625 C 3.070312 -19.0625 2.234375 -19.820312 2.234375 -21.34375 Z M 7.046875 0 L 2.421875 0 L 2.421875 -16.953125 L 7.046875 -16.953125 Z M 7.046875 0 "/></g></g></g><g fill="#1800ad" fill-opacity="1"><g transform="translate(289.51892, 109.201566)"><g/></g></g><g fill="#1800ad" fill-opacity="1"><g transform="translate(297.585395, 109.201566)"><g><path d="M 11.734375 0.296875 C 9.742188 0.296875 8.179688 -0.421875 7.046875 -1.859375 L 6.8125 -1.859375 C 6.96875 -0.441406 7.046875 0.375 7.046875 0.59375 L 7.046875 7.46875 L 2.421875 7.46875 L 2.421875 -16.953125 L 6.1875 -16.953125 L 6.84375 -14.75 L 7.046875 -14.75 C 8.128906 -16.4375 9.734375 -17.28125 11.859375 -17.28125 C 13.859375 -17.28125 15.425781 -16.503906 16.5625 -14.953125 C 17.695312 -13.410156 18.265625 -11.265625 18.265625 -8.515625 C 18.265625 -6.703125 18 -5.128906 17.46875 -3.796875 C 16.9375 -2.460938 16.175781 -1.445312 15.1875 -0.75 C 14.207031 -0.0507812 13.054688 0.296875 11.734375 0.296875 Z M 10.375 -13.578125 C 9.226562 -13.578125 8.390625 -13.222656 7.859375 -12.515625 C 7.335938 -11.816406 7.066406 -10.660156 7.046875 -9.046875 L 7.046875 -8.546875 C 7.046875 -6.722656 7.316406 -5.414062 7.859375 -4.625 C 8.398438 -3.832031 9.257812 -3.4375 10.4375 -3.4375 C 12.507812 -3.4375 13.546875 -5.144531 13.546875 -8.5625 C 13.546875 -10.238281 13.289062 -11.492188 12.78125 -12.328125 C 12.269531 -13.160156 11.46875 -13.578125 10.375 -13.578125 Z M 10.375 -13.578125 "/></g></g></g><g fill="#1800ad" fill-opacity="1"><g transform="translate(317.236056, 109.201566)"><g><path d="M 13.203125 0 L 12.296875 -2.3125 L 12.171875 -2.3125 C 11.398438 -1.320312 10.601562 -0.640625 9.78125 -0.265625 C 8.957031 0.109375 7.878906 0.296875 6.546875 0.296875 C 4.921875 0.296875 3.640625 -0.164062 2.703125 -1.09375 C 1.765625 -2.019531 1.296875 -3.34375 1.296875 -5.0625 C 1.296875 -6.863281 1.925781 -8.191406 3.1875 -9.046875 C 4.445312 -9.898438 6.347656 -10.375 8.890625 -10.46875 L 11.828125 -10.5625 L 11.828125 -11.296875 C 11.828125 -13.015625 10.945312 -13.875 9.1875 -13.875 C 7.832031 -13.875 6.238281 -13.46875 4.40625 -12.65625 L 2.875 -15.78125 C 4.832031 -16.800781 7 -17.3125 9.375 -17.3125 C 11.644531 -17.3125 13.382812 -16.8125 14.59375 -15.8125 C 15.8125 -14.820312 16.421875 -13.316406 16.421875 -11.296875 L 16.421875 0 Z M 11.828125 -7.859375 L 10.046875 -7.796875 C 8.703125 -7.753906 7.695312 -7.507812 7.03125 -7.0625 C 6.375 -6.625 6.046875 -5.945312 6.046875 -5.03125 C 6.046875 -3.726562 6.796875 -3.078125 8.296875 -3.078125 C 9.367188 -3.078125 10.222656 -3.382812 10.859375 -4 C 11.503906 -4.613281 11.828125 -5.4375 11.828125 -6.46875 Z M 11.828125 -7.859375 "/></g></g></g><g fill="#1800ad" fill-opacity="1"><g transform="translate(335.992127, 109.201566)"><g><path d="M 11.890625 -17.28125 C 12.515625 -17.28125 13.035156 -17.234375 13.453125 -17.140625 L 13.109375 -12.796875 C 12.734375 -12.898438 12.273438 -12.953125 11.734375 -12.953125 C 10.265625 -12.953125 9.113281 -12.570312 8.28125 -11.8125 C 7.457031 -11.050781 7.046875 -9.988281 7.046875 -8.625 L 7.046875 0 L 2.421875 0 L 2.421875 -16.953125 L 5.9375 -16.953125 L 6.609375 -14.109375 L 6.84375 -14.109375 C 7.363281 -15.054688 8.070312 -15.820312 8.96875 -16.40625 C 9.863281 -16.988281 10.835938 -17.28125 11.890625 -17.28125 Z M 11.890625 -17.28125 "/></g></g></g><g fill="#1800ad" fill-opacity="1"><g transform="translate(350.093295, 109.201566)"><g><path d="M 13.203125 0 L 12.296875 -2.3125 L 12.171875 -2.3125 C 11.398438 -1.320312 10.601562 -0.640625 9.78125 -0.265625 C 8.957031 0.109375 7.878906 0.296875 6.546875 0.296875 C 4.921875 0.296875 3.640625 -0.164062 2.703125 -1.09375 C 1.765625 -2.019531 1.296875 -3.34375 1.296875 -5.0625 C 1.296875 -6.863281 1.925781 -8.191406 3.1875 -9.046875 C 4.445312 -9.898438 6.347656 -10.375 8.890625 -10.46875 L 11.828125 -10.5625 L 11.828125 -11.296875 C 11.828125 -13.015625 10.945312 -13.875 9.1875 -13.875 C 7.832031 -13.875 6.238281 -13.46875 4.40625 -12.65625 L 2.875 -15.78125 C 4.832031 -16.800781 7 -17.3125 9.375 -17.3125 C 11.644531 -17.3125 13.382812 -16.8125 14.59375 -15.8125 C 15.8125 -14.820312 16.421875 -13.316406 16.421875 -11.296875 L 16.421875 0 Z M 11.828125 -7.859375 L 10.046875 -7.796875 C 8.703125 -7.753906 7.695312 -7.507812 7.03125 -7.0625 C 6.375 -6.625 6.046875 -5.945312 6.046875 -5.03125 C 6.046875 -3.726562 6.796875 -3.078125 8.296875 -3.078125 C 9.367188 -3.078125 10.222656 -3.382812 10.859375 -4 C 11.503906 -4.613281 11.828125 -5.4375 11.828125 -6.46875 Z M 11.828125 -7.859375 "/></g></g></g><g fill="#1800ad" fill-opacity="1"><g transform="translate(368.849366, 109.201566)"><g/></g></g><g fill="#1800ad" fill-opacity="1"><g transform="translate(376.915841, 109.201566)"><g><path d="M 16.359375 0 L 14.75 -5.28125 L 6.671875 -5.28125 L 5.0625 0 L 0 0 L 7.828125 -22.265625 L 13.578125 -22.265625 L 21.4375 0 Z M 13.640625 -9.21875 C 12.148438 -14 11.3125 -16.703125 11.125 -17.328125 C 10.9375 -17.960938 10.800781 -18.460938 10.71875 -18.828125 C 10.382812 -17.523438 9.429688 -14.320312 7.859375 -9.21875 Z M 13.640625 -9.21875 "/></g></g></g><g fill="#1800ad" fill-opacity="1"><g transform="translate(398.34052, 109.201566)"><g><path d="M 1.0625 7.46875 C -0.125 7.46875 -1.140625 7.335938 -1.984375 7.078125 L -1.984375 3.4375 C -1.273438 3.632812 -0.550781 3.734375 0.1875 3.734375 C 0.957031 3.734375 1.519531 3.515625 1.875 3.078125 C 2.238281 2.640625 2.421875 2 2.421875 1.15625 L 2.421875 -16.953125 L 7.046875 -16.953125 L 7.046875 1.828125 C 7.046875 3.628906 6.523438 5.019531 5.484375 6 C 4.441406 6.976562 2.96875 7.46875 1.0625 7.46875 Z M 2.234375 -21.34375 C 2.234375 -22.84375 3.070312 -23.59375 4.75 -23.59375 C 6.425781 -23.59375 7.265625 -22.84375 7.265625 -21.34375 C 7.265625 -20.625 7.050781 -20.0625 6.625 -19.65625 C 6.207031 -19.257812 5.582031 -19.0625 4.75 -19.0625 C 3.070312 -19.0625 2.234375 -19.820312 2.234375 -21.34375 Z M 2.234375 -21.34375 "/></g></g></g><g fill="#1800ad" fill-opacity="1"><g transform="translate(407.817111, 109.201566)"><g><path d="M 14.4375 0 L 13.8125 -2.171875 L 13.578125 -2.171875 C 13.078125 -1.378906 12.367188 -0.769531 11.453125 -0.34375 C 10.546875 0.0820312 9.515625 0.296875 8.359375 0.296875 C 6.367188 0.296875 4.863281 -0.234375 3.84375 -1.296875 C 2.832031 -2.359375 2.328125 -3.894531 2.328125 -5.90625 L 2.328125 -16.953125 L 6.96875 -16.953125 L 6.96875 -7.046875 C 6.96875 -5.828125 7.179688 -4.910156 7.609375 -4.296875 C 8.046875 -3.679688 8.738281 -3.375 9.6875 -3.375 C 10.988281 -3.375 11.925781 -3.804688 12.5 -4.671875 C 13.070312 -5.535156 13.359375 -6.972656 13.359375 -8.984375 L 13.359375 -16.953125 L 17.984375 -16.953125 L 17.984375 0 Z M 14.4375 0 "/></g></g></g><g fill="#1800ad" fill-opacity="1"><g transform="translate(428.2259, 109.201566)"><g><path d="M 7.796875 0.296875 C 5.804688 0.296875 4.238281 -0.472656 3.09375 -2.015625 C 1.957031 -3.566406 1.390625 -5.710938 1.390625 -8.453125 C 1.390625 -11.234375 1.96875 -13.398438 3.125 -14.953125 C 4.289062 -16.503906 5.890625 -17.28125 7.921875 -17.28125 C 10.054688 -17.28125 11.679688 -16.445312 12.796875 -14.78125 L 12.953125 -14.78125 C 12.722656 -16.050781 12.609375 -17.179688 12.609375 -18.171875 L 12.609375 -23.59375 L 17.25 -23.59375 L 17.25 0 L 13.703125 0 L 12.796875 -2.203125 L 12.609375 -2.203125 C 11.554688 -0.535156 9.953125 0.296875 7.796875 0.296875 Z M 9.421875 -3.375 C 10.597656 -3.375 11.460938 -3.71875 12.015625 -4.40625 C 12.566406 -5.09375 12.867188 -6.265625 12.921875 -7.921875 L 12.921875 -8.421875 C 12.921875 -10.234375 12.640625 -11.535156 12.078125 -12.328125 C 11.515625 -13.117188 10.601562 -13.515625 9.34375 -13.515625 C 8.3125 -13.515625 7.507812 -13.078125 6.9375 -12.203125 C 6.363281 -11.328125 6.078125 -10.054688 6.078125 -8.390625 C 6.078125 -6.722656 6.363281 -5.46875 6.9375 -4.625 C 7.519531 -3.789062 8.347656 -3.375 9.421875 -3.375 Z M 9.421875 -3.375 "/></g></g></g><g fill="#1800ad" fill-opacity="1"><g transform="translate(447.876561, 109.201566)"><g><path d="M 13.203125 0 L 12.296875 -2.3125 L 12.171875 -2.3125 C 11.398438 -1.320312 10.601562 -0.640625 9.78125 -0.265625 C 8.957031 0.109375 7.878906 0.296875 6.546875 0.296875 C 4.921875 0.296875 3.640625 -0.164062 2.703125 -1.09375 C 1.765625 -2.019531 1.296875 -3.34375 1.296875 -5.0625 C 1.296875 -6.863281 1.925781 -8.191406 3.1875 -9.046875 C 4.445312 -9.898438 6.347656 -10.375 8.890625 -10.46875 L 11.828125 -10.5625 L 11.828125 -11.296875 C 11.828125 -13.015625 10.945312 -13.875 9.1875 -13.875 C 7.832031 -13.875 6.238281 -13.46875 4.40625 -12.65625 L 2.875 -15.78125 C 4.832031 -16.800781 7 -17.3125 9.375 -17.3125 C 11.644531 -17.3125 13.382812 -16.8125 14.59375 -15.8125 C 15.8125 -14.820312 16.421875 -13.316406 16.421875 -11.296875 L 16.421875 0 Z M 11.828125 -7.859375 L 10.046875 -7.796875 C 8.703125 -7.753906 7.695312 -7.507812 7.03125 -7.0625 C 6.375 -6.625 6.046875 -5.945312 6.046875 -5.03125 C 6.046875 -3.726562 6.796875 -3.078125 8.296875 -3.078125 C 9.367188 -3.078125 10.222656 -3.382812 10.859375 -4 C 11.503906 -4.613281 11.828125 -5.4375 11.828125 -6.46875 Z M 11.828125 -7.859375 "/></g></g></g><g fill="#1800ad" fill-opacity="1"><g transform="translate(466.632609, 109.201566)"><g><path d="M 11.890625 -17.28125 C 12.515625 -17.28125 13.035156 -17.234375 13.453125 -17.140625 L 13.109375 -12.796875 C 12.734375 -12.898438 12.273438 -12.953125 11.734375 -12.953125 C 10.265625 -12.953125 9.113281 -12.570312 8.28125 -11.8125 C 7.457031 -11.050781 7.046875 -9.988281 7.046875 -8.625 L 7.046875 0 L 2.421875 0 L 2.421875 -16.953125 L 5.9375 -16.953125 L 6.609375 -14.109375 L 6.84375 -14.109375 C 7.363281 -15.054688 8.070312 -15.820312 8.96875 -16.40625 C 9.863281 -16.988281 10.835938 -17.28125 11.890625 -17.28125 Z M 11.890625 -17.28125 "/></g></g></g><g fill="#1800ad" fill-opacity="1"><g transform="translate(480.733823, 109.201566)"><g><path d="M 6.3125 -7.359375 L 2.609375 -7.359375 L 1.828125 -22.171875 L 7.078125 -22.171875 Z M 1.78125 -2.171875 C 1.78125 -3.015625 2.003906 -3.65625 2.453125 -4.09375 C 2.910156 -4.53125 3.570312 -4.75 4.4375 -4.75 C 5.28125 -4.75 5.929688 -4.523438 6.390625 -4.078125 C 6.847656 -3.628906 7.078125 -2.992188 7.078125 -2.171875 C 7.078125 -1.367188 6.84375 -0.738281 6.375 -0.28125 C 5.914062 0.175781 5.269531 0.40625 4.4375 0.40625 C 3.59375 0.40625 2.9375 0.179688 2.46875 -0.265625 C 2.007812 -0.710938 1.78125 -1.347656 1.78125 -2.171875 Z M 1.78125 -2.171875 "/></g></g></g><g fill="#1800ad" fill-opacity="1"><g transform="translate(489.61903, 109.201566)"><g/></g></g><g fill="#1800ad" fill-opacity="1"><g transform="translate(497.685505, 109.201566)"><g><path d="M 15.5625 0 L 2.796875 0 L 2.796875 -22.171875 L 15.5625 -22.171875 L 15.5625 -18.328125 L 7.5 -18.328125 L 7.5 -13.453125 L 15 -13.453125 L 15 -9.59375 L 7.5 -9.59375 L 7.5 -3.890625 L 15.5625 -3.890625 Z M 15.5625 0 "/></g></g></g><g fill="#1800ad" fill-opacity="1"><g transform="translate(515.076969, 109.201566)"><g><path d="M 18.078125 0 L 13.453125 0 L 13.453125 -9.90625 C 13.453125 -11.125 13.234375 -12.039062 12.796875 -12.65625 C 12.367188 -13.269531 11.675781 -13.578125 10.71875 -13.578125 C 9.425781 -13.578125 8.488281 -13.144531 7.90625 -12.28125 C 7.332031 -11.414062 7.046875 -9.984375 7.046875 -7.984375 L 7.046875 0 L 2.421875 0 L 2.421875 -16.953125 L 5.953125 -16.953125 L 6.578125 -14.78125 L 6.84375 -14.78125 C 7.351562 -15.601562 8.0625 -16.222656 8.96875 -16.640625 C 9.875 -17.066406 10.90625 -17.28125 12.0625 -17.28125 C 14.03125 -17.28125 15.523438 -16.742188 16.546875 -15.671875 C 17.566406 -14.609375 18.078125 -13.070312 18.078125 -11.0625 Z M 18.078125 0 "/></g></g></g><g fill="#1800ad" fill-opacity="1"><g transform="translate(535.485757, 109.201566)"><g><path d="M 9.578125 -3.375 C 10.378906 -3.375 11.347656 -3.550781 12.484375 -3.90625 L 12.484375 -0.46875 C 11.328125 0.0390625 9.910156 0.296875 8.234375 0.296875 C 6.378906 0.296875 5.03125 -0.164062 4.1875 -1.09375 C 3.34375 -2.03125 2.921875 -3.4375 2.921875 -5.3125 L 2.921875 -13.484375 L 0.71875 -13.484375 L 0.71875 -15.4375 L 3.265625 -16.984375 L 4.59375 -20.5625 L 7.546875 -20.5625 L 7.546875 -16.953125 L 12.296875 -16.953125 L 12.296875 -13.484375 L 7.546875 -13.484375 L 7.546875 -5.3125 C 7.546875 -4.65625 7.726562 -4.164062 8.09375 -3.84375 C 8.46875 -3.53125 8.960938 -3.375 9.578125 -3.375 Z M 9.578125 -3.375 "/></g></g></g><g fill="#1800ad" fill-opacity="1"><g transform="translate(548.965284, 109.201566)"><g><path d="M 11.890625 -17.28125 C 12.515625 -17.28125 13.035156 -17.234375 13.453125 -17.140625 L 13.109375 -12.796875 C 12.734375 -12.898438 12.273438 -12.953125 11.734375 -12.953125 C 10.265625 -12.953125 9.113281 -12.570312 8.28125 -11.8125 C 7.457031 -11.050781 7.046875 -9.988281 7.046875 -8.625 L 7.046875 0 L 2.421875 0 L 2.421875 -16.953125 L 5.9375 -16.953125 L 6.609375 -14.109375 L 6.84375 -14.109375 C 7.363281 -15.054688 8.070312 -15.820312 8.96875 -16.40625 C 9.863281 -16.988281 10.835938 -17.28125 11.890625 -17.28125 Z M 11.890625 -17.28125 "/></g></g></g><g fill="#1800ad" fill-opacity="1"><g transform="translate(563.066407, 109.201566)"><g><path d="M 9.453125 -13.984375 C 8.472656 -13.984375 7.703125 -13.671875 7.140625 -13.046875 C 6.585938 -12.429688 6.269531 -11.550781 6.1875 -10.40625 L 12.6875 -10.40625 C 12.664062 -11.550781 12.363281 -12.429688 11.78125 -13.046875 C 11.207031 -13.671875 10.429688 -13.984375 9.453125 -13.984375 Z M 10.09375 0.296875 C 7.363281 0.296875 5.226562 -0.453125 3.6875 -1.953125 C 2.15625 -3.460938 1.390625 -5.597656 1.390625 -8.359375 C 1.390625 -11.203125 2.097656 -13.398438 3.515625 -14.953125 C 4.941406 -16.503906 6.910156 -17.28125 9.421875 -17.28125 C 11.816406 -17.28125 13.679688 -16.597656 15.015625 -15.234375 C 16.347656 -13.867188 17.015625 -11.984375 17.015625 -9.578125 L 17.015625 -7.328125 L 6.078125 -7.328125 C 6.128906 -6.015625 6.519531 -4.988281 7.25 -4.25 C 7.976562 -3.507812 9 -3.140625 10.3125 -3.140625 C 11.332031 -3.140625 12.296875 -3.242188 13.203125 -3.453125 C 14.117188 -3.671875 15.070312 -4.007812 16.0625 -4.46875 L 16.0625 -0.890625 C 15.25 -0.484375 14.382812 -0.1875 13.46875 0 C 12.550781 0.195312 11.425781 0.296875 10.09375 0.296875 Z M 10.09375 0.296875 "/></g></g></g><g fill="#1800ad" fill-opacity="1"><g transform="translate(581.413134, 109.201566)"><g/></g></g><g fill="#1800ad" fill-opacity="1"><g transform="translate(589.479609, 109.201566)"><g><path d="M 9.453125 -13.984375 C 8.472656 -13.984375 7.703125 -13.671875 7.140625 -13.046875 C 6.585938 -12.429688 6.269531 -11.550781 6.1875 -10.40625 L 12.6875 -10.40625 C 12.664062 -11.550781 12.363281 -12.429688 11.78125 -13.046875 C 11.207031 -13.671875 10.429688 -13.984375 9.453125 -13.984375 Z M 10.09375 0.296875 C 7.363281 0.296875 5.226562 -0.453125 3.6875 -1.953125 C 2.15625 -3.460938 1.390625 -5.597656 1.390625 -8.359375 C 1.390625 -11.203125 2.097656 -13.398438 3.515625 -14.953125 C 4.941406 -16.503906 6.910156 -17.28125 9.421875 -17.28125 C 11.816406 -17.28125 13.679688 -16.597656 15.015625 -15.234375 C 16.347656 -13.867188 17.015625 -11.984375 17.015625 -9.578125 L 17.015625 -7.328125 L 6.078125 -7.328125 C 6.128906 -6.015625 6.519531 -4.988281 7.25 -4.25 C 7.976562 -3.507812 9 -3.140625 10.3125 -3.140625 C 11.332031 -3.140625 12.296875 -3.242188 13.203125 -3.453125 C 14.117188 -3.671875 15.070312 -4.007812 16.0625 -4.46875 L 16.0625 -0.890625 C 15.25 -0.484375 14.382812 -0.1875 13.46875 0 C 12.550781 0.195312 11.425781 0.296875 10.09375 0.296875 Z M 10.09375 0.296875 "/></g></g></g><g fill="#1800ad" fill-opacity="1"><g transform="translate(607.826245, 109.201566)"><g><path d="M 17.609375 0 L 12.984375 0 L 12.984375 -9.90625 C 12.984375 -11.125 12.773438 -12.039062 12.359375 -12.65625 C 11.953125 -13.269531 11.3125 -13.578125 10.4375 -13.578125 C 9.25 -13.578125 8.382812 -13.140625 7.84375 -12.265625 C 7.3125 -11.398438 7.046875 -9.972656 7.046875 -7.984375 L 7.046875 0 L 2.421875 0 L 2.421875 -16.953125 L 5.953125 -16.953125 L 6.578125 -14.78125 L 6.84375 -14.78125 C 7.289062 -15.5625 7.941406 -16.171875 8.796875 -16.609375 C 9.660156 -17.054688 10.648438 -17.28125 11.765625 -17.28125 C 14.304688 -17.28125 16.023438 -16.445312 16.921875 -14.78125 L 17.34375 -14.78125 C 17.789062 -15.570312 18.457031 -16.1875 19.34375 -16.625 C 20.226562 -17.0625 21.226562 -17.28125 22.34375 -17.28125 C 24.257812 -17.28125 25.710938 -16.785156 26.703125 -15.796875 C 27.691406 -14.804688 28.1875 -13.226562 28.1875 -11.0625 L 28.1875 0 L 23.546875 0 L 23.546875 -9.90625 C 23.546875 -11.125 23.335938 -12.039062 22.921875 -12.65625 C 22.515625 -13.269531 21.867188 -13.578125 20.984375 -13.578125 C 19.859375 -13.578125 19.015625 -13.171875 18.453125 -12.359375 C 17.890625 -11.546875 17.609375 -10.265625 17.609375 -8.515625 Z M 17.609375 0 "/></g></g></g><g fill="#1800ad" fill-opacity="1"><g transform="translate(638.31815, 109.201566)"><g/></g></g><g fill="#1800ad" fill-opacity="1"><g transform="translate(646.384625, 109.201566)"><g><path d="M 12.203125 -18.578125 C 10.441406 -18.578125 9.070312 -17.910156 8.09375 -16.578125 C 7.125 -15.253906 6.640625 -13.40625 6.640625 -11.03125 C 6.640625 -6.082031 8.492188 -3.609375 12.203125 -3.609375 C 13.765625 -3.609375 15.648438 -4 17.859375 -4.78125 L 17.859375 -0.828125 C 16.046875 -0.078125 14.015625 0.296875 11.765625 0.296875 C 8.546875 0.296875 6.082031 -0.675781 4.375 -2.625 C 2.664062 -4.582031 1.8125 -7.394531 1.8125 -11.0625 C 1.8125 -13.363281 2.226562 -15.378906 3.0625 -17.109375 C 3.90625 -18.847656 5.113281 -20.179688 6.6875 -21.109375 C 8.257812 -22.035156 10.097656 -22.5 12.203125 -22.5 C 14.359375 -22.5 16.523438 -21.976562 18.703125 -20.9375 L 17.1875 -17.109375 C 16.351562 -17.503906 15.515625 -17.847656 14.671875 -18.140625 C 13.835938 -18.429688 13.015625 -18.578125 12.203125 -18.578125 Z M 12.203125 -18.578125 "/></g></g></g><g fill="#1800ad" fill-opacity="1"><g transform="translate(666.171727, 109.201566)"><g><path d="M 6.109375 -8.515625 C 6.109375 -6.828125 6.382812 -5.550781 6.9375 -4.6875 C 7.488281 -3.832031 8.382812 -3.40625 9.625 -3.40625 C 10.863281 -3.40625 11.753906 -3.832031 12.296875 -4.6875 C 12.835938 -5.539062 13.109375 -6.816406 13.109375 -8.515625 C 13.109375 -10.191406 12.832031 -11.445312 12.28125 -12.28125 C 11.738281 -13.125 10.84375 -13.546875 9.59375 -13.546875 C 8.363281 -13.546875 7.472656 -13.128906 6.921875 -12.296875 C 6.378906 -11.460938 6.109375 -10.203125 6.109375 -8.515625 Z M 17.84375 -8.515625 C 17.84375 -5.753906 17.113281 -3.59375 15.65625 -2.03125 C 14.195312 -0.476562 12.171875 0.296875 9.578125 0.296875 C 7.941406 0.296875 6.5 -0.0546875 5.25 -0.765625 C 4.007812 -1.472656 3.054688 -2.492188 2.390625 -3.828125 C 1.722656 -5.171875 1.390625 -6.734375 1.390625 -8.515625 C 1.390625 -11.285156 2.113281 -13.4375 3.5625 -14.96875 C 5.007812 -16.507812 7.039062 -17.28125 9.65625 -17.28125 C 11.289062 -17.28125 12.726562 -16.925781 13.96875 -16.21875 C 15.207031 -15.507812 16.160156 -14.488281 16.828125 -13.15625 C 17.503906 -11.832031 17.84375 -10.285156 17.84375 -8.515625 Z M 17.84375 -8.515625 "/></g></g></g><g fill="#1800ad" fill-opacity="1"><g transform="translate(685.397836, 109.201566)"><g><path d="M 18.078125 0 L 13.453125 0 L 13.453125 -9.90625 C 13.453125 -11.125 13.234375 -12.039062 12.796875 -12.65625 C 12.367188 -13.269531 11.675781 -13.578125 10.71875 -13.578125 C 9.425781 -13.578125 8.488281 -13.144531 7.90625 -12.28125 C 7.332031 -11.414062 7.046875 -9.984375 7.046875 -7.984375 L 7.046875 0 L 2.421875 0 L 2.421875 -16.953125 L 5.953125 -16.953125 L 6.578125 -14.78125 L 6.84375 -14.78125 C 7.351562 -15.601562 8.0625 -16.222656 8.96875 -16.640625 C 9.875 -17.066406 10.90625 -17.28125 12.0625 -17.28125 C 14.03125 -17.28125 15.523438 -16.742188 16.546875 -15.671875 C 17.566406 -14.609375 18.078125 -13.070312 18.078125 -11.0625 Z M 18.078125 0 "/></g></g></g><g fill="#1800ad" fill-opacity="1"><g transform="translate(705.80667, 109.201566)"><g><path d="M 9.578125 -3.375 C 10.378906 -3.375 11.347656 -3.550781 12.484375 -3.90625 L 12.484375 -0.46875 C 11.328125 0.0390625 9.910156 0.296875 8.234375 0.296875 C 6.378906 0.296875 5.03125 -0.164062 4.1875 -1.09375 C 3.34375 -2.03125 2.921875 -3.4375 2.921875 -5.3125 L 2.921875 -13.484375 L 0.71875 -13.484375 L 0.71875 -15.4375 L 3.265625 -16.984375 L 4.59375 -20.5625 L 7.546875 -20.5625 L 7.546875 -16.953125 L 12.296875 -16.953125 L 12.296875 -13.484375 L 7.546875 -13.484375 L 7.546875 -5.3125 C 7.546875 -4.65625 7.726562 -4.164062 8.09375 -3.84375 C 8.46875 -3.53125 8.960938 -3.375 9.578125 -3.375 Z M 9.578125 -3.375 "/></g></g></g><g fill="#1800ad" fill-opacity="1"><g transform="translate(719.286151, 109.201566)"><g><path d="M 13.203125 0 L 12.296875 -2.3125 L 12.171875 -2.3125 C 11.398438 -1.320312 10.601562 -0.640625 9.78125 -0.265625 C 8.957031 0.109375 7.878906 0.296875 6.546875 0.296875 C 4.921875 0.296875 3.640625 -0.164062 2.703125 -1.09375 C 1.765625 -2.019531 1.296875 -3.34375 1.296875 -5.0625 C 1.296875 -6.863281 1.925781 -8.191406 3.1875 -9.046875 C 4.445312 -9.898438 6.347656 -10.375 8.890625 -10.46875 L 11.828125 -10.5625 L 11.828125 -11.296875 C 11.828125 -13.015625 10.945312 -13.875 9.1875 -13.875 C 7.832031 -13.875 6.238281 -13.46875 4.40625 -12.65625 L 2.875 -15.78125 C 4.832031 -16.800781 7 -17.3125 9.375 -17.3125 C 11.644531 -17.3125 13.382812 -16.8125 14.59375 -15.8125 C 15.8125 -14.820312 16.421875 -13.316406 16.421875 -11.296875 L 16.421875 0 Z M 11.828125 -7.859375 L 10.046875 -7.796875 C 8.703125 -7.753906 7.695312 -7.507812 7.03125 -7.0625 C 6.375 -6.625 6.046875 -5.945312 6.046875 -5.03125 C 6.046875 -3.726562 6.796875 -3.078125 8.296875 -3.078125 C 9.367188 -3.078125 10.222656 -3.382812 10.859375 -4 C 11.503906 -4.613281 11.828125 -5.4375 11.828125 -6.46875 Z M 11.828125 -7.859375 "/></g></g></g><g fill="#1800ad" fill-opacity="1"><g transform="translate(738.042199, 109.201566)"><g><path d="M 9.578125 -3.375 C 10.378906 -3.375 11.347656 -3.550781 12.484375 -3.90625 L 12.484375 -0.46875 C 11.328125 0.0390625 9.910156 0.296875 8.234375 0.296875 C 6.378906 0.296875 5.03125 -0.164062 4.1875 -1.09375 C 3.34375 -2.03125 2.921875 -3.4375 2.921875 -5.3125 L 2.921875 -13.484375 L 0.71875 -13.484375 L 0.71875 -15.4375 L 3.265625 -16.984375 L 4.59375 -20.5625 L 7.546875 -20.5625 L 7.546875 -16.953125 L 12.296875 -16.953125 L 12.296875 -13.484375 L 7.546875 -13.484375 L 7.546875 -5.3125 C 7.546875 -4.65625 7.726562 -4.164062 8.09375 -3.84375 C 8.46875 -3.53125 8.960938 -3.375 9.578125 -3.375 Z M 9.578125 -3.375 "/></g></g></g><g fill="#1800ad" fill-opacity="1"><g transform="translate(751.521726, 109.201566)"><g><path d="M 6.109375 -8.515625 C 6.109375 -6.828125 6.382812 -5.550781 6.9375 -4.6875 C 7.488281 -3.832031 8.382812 -3.40625 9.625 -3.40625 C 10.863281 -3.40625 11.753906 -3.832031 12.296875 -4.6875 C 12.835938 -5.539062 13.109375 -6.816406 13.109375 -8.515625 C 13.109375 -10.191406 12.832031 -11.445312 12.28125 -12.28125 C 11.738281 -13.125 10.84375 -13.546875 9.59375 -13.546875 C 8.363281 -13.546875 7.472656 -13.128906 6.921875 -12.296875 C 6.378906 -11.460938 6.109375 -10.203125 6.109375 -8.515625 Z M 17.84375 -8.515625 C 17.84375 -5.753906 17.113281 -3.59375 15.65625 -2.03125 C 14.195312 -0.476562 12.171875 0.296875 9.578125 0.296875 C 7.941406 0.296875 6.5 -0.0546875 5.25 -0.765625 C 4.007812 -1.472656 3.054688 -2.492188 2.390625 -3.828125 C 1.722656 -5.171875 1.390625 -6.734375 1.390625 -8.515625 C 1.390625 -11.285156 2.113281 -13.4375 3.5625 -14.96875 C 5.007812 -16.507812 7.039062 -17.28125 9.65625 -17.28125 C 11.289062 -17.28125 12.726562 -16.925781 13.96875 -16.21875 C 15.207031 -15.507812 16.160156 -14.488281 16.828125 -13.15625 C 17.503906 -11.832031 17.84375 -10.285156 17.84375 -8.515625 Z M 17.84375 -8.515625 "/></g></g></g><g fill="#1800ad" fill-opacity="1"><g transform="translate(770.747835, 109.201566)"><g><path d="M 1.78125 -2.171875 C 1.78125 -3.015625 2.003906 -3.65625 2.453125 -4.09375 C 2.910156 -4.53125 3.570312 -4.75 4.4375 -4.75 C 5.28125 -4.75 5.929688 -4.523438 6.390625 -4.078125 C 6.847656 -3.628906 7.078125 -2.992188 7.078125 -2.171875 C 7.078125 -1.367188 6.84375 -0.738281 6.375 -0.28125 C 5.914062 0.175781 5.269531 0.40625 4.4375 0.40625 C 3.59375 0.40625 2.9375 0.179688 2.46875 -0.265625 C 2.007812 -0.710938 1.78125 -1.347656 1.78125 -2.171875 Z M 1.78125 -2.171875 "/></g></g></g></svg>