<svg xmlns="http://www.w3.org/2000/svg" xmlns:xlink="http://www.w3.org/1999/xlink" width="512" zoomAndPan="magnify" viewBox="0 0 384 128.249994" height="171" preserveAspectRatio="xMidYMid meet" version="1.0"><defs><g/><clipPath id="e11fa793bb"><path d="M 1.117188 18 L 110 18 L 110 126.757812 L 1.117188 126.757812 Z M 1.117188 18 " clip-rule="nonzero"/></clipPath><clipPath id="a6f599a233"><path d="M 54 14 L 127.875 14 L 127.875 73 L 54 73 Z M 54 14 " clip-rule="nonzero"/></clipPath></defs><path fill="#1800ad" d="M 55.488281 81.222656 C 50.601562 81.222656 46.640625 77.261719 46.640625 72.375 C 46.640625 67.488281 50.601562 63.527344 55.488281 63.527344 C 60.375 63.527344 64.332031 67.488281 64.332031 72.375 C 64.332031 77.261719 60.375 81.222656 55.488281 81.222656 Z M 55.488281 66.898438 C 52.453125 66.898438 50.011719 69.34375 50.011719 72.375 C 50.011719 75.410156 52.453125 77.851562 55.488281 77.851562 C 58.519531 77.851562 60.964844 75.410156 60.964844 72.375 C 60.964844 69.34375 58.492188 66.898438 55.488281 66.898438 Z M 55.488281 66.898438 " fill-opacity="1" fill-rule="nonzero"/><path fill="#1800ad" d="M 55.488281 96.414062 C 42.230469 96.414062 31.476562 85.632812 31.476562 72.402344 C 31.476562 59.148438 42.257812 48.390625 55.488281 48.390625 C 68.742188 48.390625 79.5 59.175781 79.5 72.402344 C 79.5 85.632812 68.714844 96.414062 55.488281 96.414062 Z M 55.488281 51.734375 C 44.113281 51.734375 34.84375 61 34.84375 72.375 C 34.84375 83.75 44.113281 93.015625 55.488281 93.015625 C 66.859375 93.015625 76.128906 83.75 76.128906 72.375 C 76.128906 61 66.859375 51.734375 55.488281 51.734375 Z M 55.488281 51.734375 " fill-opacity="1" fill-rule="nonzero"/><path fill="#1800ad" d="M 55.488281 112.421875 C 33.414062 112.421875 15.4375 94.449219 15.4375 72.375 C 15.4375 50.300781 33.414062 32.328125 55.488281 32.328125 C 77.5625 32.328125 95.535156 50.300781 95.535156 72.375 C 95.535156 94.476562 77.5625 112.421875 55.488281 112.421875 Z M 55.488281 35.726562 C 35.265625 35.726562 18.808594 52.183594 18.808594 72.402344 C 18.808594 92.625 35.265625 109.082031 55.488281 109.082031 C 75.707031 109.082031 92.164062 92.597656 92.164062 72.375 C 92.164062 52.15625 75.707031 35.726562 55.488281 35.726562 Z M 55.488281 35.726562 " fill-opacity="1" fill-rule="nonzero"/><g clip-path="url(#e11fa793bb)"><path fill="#1800ad" d="M 55.488281 126.746094 C 25.519531 126.746094 1.117188 102.371094 1.117188 72.375 C 1.117188 42.410156 25.492188 18.003906 55.488281 18.003906 C 85.480469 18.003906 109.859375 42.410156 109.859375 72.375 C 109.859375 102.371094 85.453125 126.746094 55.488281 126.746094 Z M 55.488281 21.402344 C 27.375 21.402344 4.488281 44.292969 4.488281 72.402344 C 4.488281 100.515625 27.375 123.40625 55.488281 123.40625 C 83.597656 123.40625 106.488281 100.515625 106.488281 72.402344 C 106.488281 44.261719 83.597656 21.402344 55.488281 21.402344 Z M 55.488281 21.402344 " fill-opacity="1" fill-rule="nonzero"/></g><path fill="#1800ad" d="M 56.414062 72.9375 C 55.992188 72.9375 55.542969 72.769531 55.234375 72.433594 C 54.589844 71.785156 54.589844 70.71875 55.234375 70.042969 L 95.113281 30.164062 C 94.832031 29.855469 94.664062 29.464844 94.664062 29.015625 L 94.664062 16.65625 C 94.664062 16.207031 94.832031 15.785156 95.167969 15.476562 L 110.109375 0.535156 C 110.589844 0.0585938 111.316406 -0.0820312 111.9375 0.171875 C 112.554688 0.425781 112.976562 1.042969 112.976562 1.714844 L 112.976562 16.402344 C 112.976562 16.851562 112.808594 17.273438 112.46875 17.582031 L 57.621094 72.460938 C 57.285156 72.769531 56.863281 72.9375 56.414062 72.9375 Z M 98.035156 17.332031 L 98.035156 27.273438 L 109.605469 15.703125 L 109.605469 5.789062 Z M 98.035156 17.332031 " fill-opacity="1" fill-rule="nonzero"/><g clip-path="url(#a6f599a233)"><path fill="#1800ad" d="M 56.414062 72.9375 C 55.992188 72.9375 55.542969 72.769531 55.234375 72.433594 C 54.589844 71.785156 54.589844 70.71875 55.234375 70.042969 L 110.082031 15.222656 C 110.390625 14.914062 110.839844 14.71875 111.261719 14.71875 L 125.949219 14.71875 C 126.625 14.71875 127.242188 15.140625 127.496094 15.757812 C 127.746094 16.375 127.605469 17.105469 127.128906 17.582031 L 112.1875 32.523438 C 111.878906 32.832031 111.429688 33.03125 111.007812 33.03125 L 98.652344 33.03125 C 98.203125 33.03125 97.808594 32.859375 97.5 32.582031 L 57.621094 72.460938 C 57.285156 72.769531 56.863281 72.9375 56.414062 72.9375 Z M 100.394531 29.660156 L 110.335938 29.660156 L 121.90625 18.089844 L 111.964844 18.089844 Z M 100.394531 29.660156 " fill-opacity="1" fill-rule="nonzero"/></g><g fill="#1800ad" fill-opacity="1"><g transform="translate(156.882702, 50.628922)"><g><path d="M 4.984375 0 L 1.875 0 L 1.875 -14.90625 L 10.421875 -14.90625 L 10.421875 -12.3125 L 4.984375 -12.3125 L 4.984375 -8.46875 L 10.046875 -8.46875 L 10.046875 -5.890625 L 4.984375 -5.890625 Z M 4.984375 0 "/></g></g></g><g fill="#1800ad" fill-opacity="1"><g transform="translate(168.33469, 50.628922)"><g><path d="M 4.109375 -5.71875 C 4.109375 -4.59375 4.289062 -3.738281 4.65625 -3.15625 C 5.03125 -2.582031 5.632812 -2.296875 6.46875 -2.296875 C 7.300781 -2.296875 7.898438 -2.582031 8.265625 -3.15625 C 8.628906 -3.726562 8.8125 -4.582031 8.8125 -5.71875 C 8.8125 -6.84375 8.625 -7.6875 8.25 -8.25 C 7.882812 -8.820312 7.285156 -9.109375 6.453125 -9.109375 C 5.617188 -9.109375 5.019531 -8.828125 4.65625 -8.265625 C 4.289062 -7.703125 4.109375 -6.851562 4.109375 -5.71875 Z M 11.984375 -5.71875 C 11.984375 -3.863281 11.492188 -2.410156 10.515625 -1.359375 C 9.535156 -0.316406 8.175781 0.203125 6.4375 0.203125 C 5.34375 0.203125 4.375 -0.0351562 3.53125 -0.515625 C 2.695312 -0.992188 2.054688 -1.679688 1.609375 -2.578125 C 1.160156 -3.472656 0.9375 -4.519531 0.9375 -5.71875 C 0.9375 -7.582031 1.421875 -9.03125 2.390625 -10.0625 C 3.367188 -11.09375 4.738281 -11.609375 6.5 -11.609375 C 7.59375 -11.609375 8.554688 -11.367188 9.390625 -10.890625 C 10.222656 -10.421875 10.863281 -9.738281 11.3125 -8.84375 C 11.757812 -7.957031 11.984375 -6.914062 11.984375 -5.71875 Z M 11.984375 -5.71875 "/></g></g></g><g fill="#1800ad" fill-opacity="1"><g transform="translate(181.253835, 50.628922)"><g><path d="M 6.265625 0.203125 C 2.710938 0.203125 0.9375 -1.742188 0.9375 -5.640625 C 0.9375 -7.578125 1.414062 -9.054688 2.375 -10.078125 C 3.34375 -11.097656 4.726562 -11.609375 6.53125 -11.609375 C 7.851562 -11.609375 9.035156 -11.347656 10.078125 -10.828125 L 9.15625 -8.421875 C 8.664062 -8.617188 8.210938 -8.78125 7.796875 -8.90625 C 7.378906 -9.039062 6.957031 -9.109375 6.53125 -9.109375 C 4.914062 -9.109375 4.109375 -7.957031 4.109375 -5.65625 C 4.109375 -3.425781 4.914062 -2.3125 6.53125 -2.3125 C 7.132812 -2.3125 7.6875 -2.390625 8.1875 -2.546875 C 8.695312 -2.710938 9.207031 -2.960938 9.71875 -3.296875 L 9.71875 -0.640625 C 9.21875 -0.316406 8.710938 -0.0976562 8.203125 0.015625 C 7.691406 0.140625 7.046875 0.203125 6.265625 0.203125 Z M 6.265625 0.203125 "/></g></g></g><g fill="#1800ad" fill-opacity="1"><g transform="translate(191.982438, 50.628922)"><g><path d="M 4.109375 -5.71875 C 4.109375 -4.59375 4.289062 -3.738281 4.65625 -3.15625 C 5.03125 -2.582031 5.632812 -2.296875 6.46875 -2.296875 C 7.300781 -2.296875 7.898438 -2.582031 8.265625 -3.15625 C 8.628906 -3.726562 8.8125 -4.582031 8.8125 -5.71875 C 8.8125 -6.84375 8.625 -7.6875 8.25 -8.25 C 7.882812 -8.820312 7.285156 -9.109375 6.453125 -9.109375 C 5.617188 -9.109375 5.019531 -8.828125 4.65625 -8.265625 C 4.289062 -7.703125 4.109375 -6.851562 4.109375 -5.71875 Z M 11.984375 -5.71875 C 11.984375 -3.863281 11.492188 -2.410156 10.515625 -1.359375 C 9.535156 -0.316406 8.175781 0.203125 6.4375 0.203125 C 5.34375 0.203125 4.375 -0.0351562 3.53125 -0.515625 C 2.695312 -0.992188 2.054688 -1.679688 1.609375 -2.578125 C 1.160156 -3.472656 0.9375 -4.519531 0.9375 -5.71875 C 0.9375 -7.582031 1.421875 -9.03125 2.390625 -10.0625 C 3.367188 -11.09375 4.738281 -11.609375 6.5 -11.609375 C 7.59375 -11.609375 8.554688 -11.367188 9.390625 -10.890625 C 10.222656 -10.421875 10.863281 -9.738281 11.3125 -8.84375 C 11.757812 -7.957031 11.984375 -6.914062 11.984375 -5.71875 Z M 11.984375 -5.71875 "/></g></g></g><g fill="#1800ad" fill-opacity="1"><g transform="translate(204.901583, 50.628922)"><g/></g></g><g fill="#1800ad" fill-opacity="1"><g transform="translate(210.321919, 50.628922)"><g><path d="M 7.890625 0.203125 C 6.546875 0.203125 5.492188 -0.28125 4.734375 -1.25 L 4.578125 -1.25 C 4.679688 -0.300781 4.734375 0.242188 4.734375 0.390625 L 4.734375 5.015625 L 1.625 5.015625 L 1.625 -11.390625 L 4.15625 -11.390625 L 4.59375 -9.921875 L 4.734375 -9.921875 C 5.460938 -11.046875 6.539062 -11.609375 7.96875 -11.609375 C 9.3125 -11.609375 10.363281 -11.085938 11.125 -10.046875 C 11.882812 -9.003906 12.265625 -7.5625 12.265625 -5.71875 C 12.265625 -4.5 12.085938 -3.441406 11.734375 -2.546875 C 11.378906 -1.648438 10.867188 -0.96875 10.203125 -0.5 C 9.546875 -0.03125 8.773438 0.203125 7.890625 0.203125 Z M 6.96875 -9.125 C 6.195312 -9.125 5.632812 -8.882812 5.28125 -8.40625 C 4.9375 -7.9375 4.753906 -7.160156 4.734375 -6.078125 L 4.734375 -5.734375 C 4.734375 -4.515625 4.914062 -3.640625 5.28125 -3.109375 C 5.644531 -2.578125 6.222656 -2.3125 7.015625 -2.3125 C 8.410156 -2.3125 9.109375 -3.460938 9.109375 -5.765625 C 9.109375 -6.878906 8.9375 -7.71875 8.59375 -8.28125 C 8.25 -8.84375 7.707031 -9.125 6.96875 -9.125 Z M 6.96875 -9.125 "/></g></g></g><g fill="#1800ad" fill-opacity="1"><g transform="translate(223.526346, 50.628922)"><g><path d="M 8.875 0 L 8.265625 -1.546875 L 8.1875 -1.546875 C 7.664062 -0.890625 7.125 -0.429688 6.5625 -0.171875 C 6.007812 0.078125 5.289062 0.203125 4.40625 0.203125 C 3.3125 0.203125 2.445312 -0.109375 1.8125 -0.734375 C 1.1875 -1.359375 0.875 -2.25 0.875 -3.40625 C 0.875 -4.613281 1.296875 -5.503906 2.140625 -6.078125 C 2.992188 -6.648438 4.269531 -6.96875 5.96875 -7.03125 L 7.953125 -7.09375 L 7.953125 -7.59375 C 7.953125 -8.75 7.359375 -9.328125 6.171875 -9.328125 C 5.265625 -9.328125 4.195312 -9.050781 2.96875 -8.5 L 1.9375 -10.59375 C 3.25 -11.28125 4.703125 -11.625 6.296875 -11.625 C 7.828125 -11.625 9 -11.289062 9.8125 -10.625 C 10.625 -9.957031 11.03125 -8.945312 11.03125 -7.59375 L 11.03125 0 Z M 7.953125 -5.28125 L 6.75 -5.234375 C 5.84375 -5.210938 5.164062 -5.050781 4.71875 -4.75 C 4.28125 -4.445312 4.0625 -3.992188 4.0625 -3.390625 C 4.0625 -2.503906 4.566406 -2.0625 5.578125 -2.0625 C 6.296875 -2.0625 6.867188 -2.269531 7.296875 -2.6875 C 7.734375 -3.101562 7.953125 -3.65625 7.953125 -4.34375 Z M 7.953125 -5.28125 "/></g></g></g><g fill="#1800ad" fill-opacity="1"><g transform="translate(236.12965, 50.628922)"><g><path d="M 7.984375 -11.609375 C 8.410156 -11.609375 8.765625 -11.578125 9.046875 -11.515625 L 8.8125 -8.609375 C 8.550781 -8.671875 8.242188 -8.703125 7.890625 -8.703125 C 6.898438 -8.703125 6.125 -8.445312 5.5625 -7.9375 C 5.007812 -7.425781 4.734375 -6.710938 4.734375 -5.796875 L 4.734375 0 L 1.625 0 L 1.625 -11.390625 L 3.984375 -11.390625 L 4.4375 -9.484375 L 4.59375 -9.484375 C 4.945312 -10.117188 5.425781 -10.628906 6.03125 -11.015625 C 6.632812 -11.410156 7.285156 -11.609375 7.984375 -11.609375 Z M 7.984375 -11.609375 "/></g></g></g><g fill="#1800ad" fill-opacity="1"><g transform="translate(245.605049, 50.628922)"><g><path d="M 8.875 0 L 8.265625 -1.546875 L 8.1875 -1.546875 C 7.664062 -0.890625 7.125 -0.429688 6.5625 -0.171875 C 6.007812 0.078125 5.289062 0.203125 4.40625 0.203125 C 3.3125 0.203125 2.445312 -0.109375 1.8125 -0.734375 C 1.1875 -1.359375 0.875 -2.25 0.875 -3.40625 C 0.875 -4.613281 1.296875 -5.503906 2.140625 -6.078125 C 2.992188 -6.648438 4.269531 -6.96875 5.96875 -7.03125 L 7.953125 -7.09375 L 7.953125 -7.59375 C 7.953125 -8.75 7.359375 -9.328125 6.171875 -9.328125 C 5.265625 -9.328125 4.195312 -9.050781 2.96875 -8.5 L 1.9375 -10.59375 C 3.25 -11.28125 4.703125 -11.625 6.296875 -11.625 C 7.828125 -11.625 9 -11.289062 9.8125 -10.625 C 10.625 -9.957031 11.03125 -8.945312 11.03125 -7.59375 L 11.03125 0 Z M 7.953125 -5.28125 L 6.75 -5.234375 C 5.84375 -5.210938 5.164062 -5.050781 4.71875 -4.75 C 4.28125 -4.445312 4.0625 -3.992188 4.0625 -3.390625 C 4.0625 -2.503906 4.566406 -2.0625 5.578125 -2.0625 C 6.296875 -2.0625 6.867188 -2.269531 7.296875 -2.6875 C 7.734375 -3.101562 7.953125 -3.65625 7.953125 -4.34375 Z M 7.953125 -5.28125 "/></g></g></g><g fill="#1800ad" fill-opacity="1"><g transform="translate(258.208354, 50.628922)"><g/></g></g><g fill="#1800ad" fill-opacity="1"><g transform="translate(263.628689, 50.628922)"><g><path d="M 8.875 0 L 8.265625 -1.546875 L 8.1875 -1.546875 C 7.664062 -0.890625 7.125 -0.429688 6.5625 -0.171875 C 6.007812 0.078125 5.289062 0.203125 4.40625 0.203125 C 3.3125 0.203125 2.445312 -0.109375 1.8125 -0.734375 C 1.1875 -1.359375 0.875 -2.25 0.875 -3.40625 C 0.875 -4.613281 1.296875 -5.503906 2.140625 -6.078125 C 2.992188 -6.648438 4.269531 -6.96875 5.96875 -7.03125 L 7.953125 -7.09375 L 7.953125 -7.59375 C 7.953125 -8.75 7.359375 -9.328125 6.171875 -9.328125 C 5.265625 -9.328125 4.195312 -9.050781 2.96875 -8.5 L 1.9375 -10.59375 C 3.25 -11.28125 4.703125 -11.625 6.296875 -11.625 C 7.828125 -11.625 9 -11.289062 9.8125 -10.625 C 10.625 -9.957031 11.03125 -8.945312 11.03125 -7.59375 L 11.03125 0 Z M 7.953125 -5.28125 L 6.75 -5.234375 C 5.84375 -5.210938 5.164062 -5.050781 4.71875 -4.75 C 4.28125 -4.445312 4.0625 -3.992188 4.0625 -3.390625 C 4.0625 -2.503906 4.566406 -2.0625 5.578125 -2.0625 C 6.296875 -2.0625 6.867188 -2.269531 7.296875 -2.6875 C 7.734375 -3.101562 7.953125 -3.65625 7.953125 -4.34375 Z M 7.953125 -5.28125 "/></g></g></g><g fill="#1800ad" fill-opacity="1"><g transform="translate(276.231994, 50.628922)"><g><path d="M 6.4375 -2.265625 C 6.976562 -2.265625 7.628906 -2.382812 8.390625 -2.625 L 8.390625 -0.3125 C 7.617188 0.03125 6.664062 0.203125 5.53125 0.203125 C 4.289062 0.203125 3.382812 -0.109375 2.8125 -0.734375 C 2.25 -1.367188 1.96875 -2.3125 1.96875 -3.5625 L 1.96875 -9.0625 L 0.484375 -9.0625 L 0.484375 -10.375 L 2.1875 -11.421875 L 3.09375 -13.828125 L 5.078125 -13.828125 L 5.078125 -11.390625 L 8.265625 -11.390625 L 8.265625 -9.0625 L 5.078125 -9.0625 L 5.078125 -3.5625 C 5.078125 -3.125 5.195312 -2.796875 5.4375 -2.578125 C 5.6875 -2.367188 6.019531 -2.265625 6.4375 -2.265625 Z M 6.4375 -2.265625 "/></g></g></g><g fill="#1800ad" fill-opacity="1"><g transform="translate(285.289666, 50.628922)"><g><path d="M 6.34375 -9.390625 C 5.6875 -9.390625 5.171875 -9.179688 4.796875 -8.765625 C 4.421875 -8.347656 4.207031 -7.757812 4.15625 -7 L 8.515625 -7 C 8.503906 -7.757812 8.304688 -8.347656 7.921875 -8.765625 C 7.535156 -9.179688 7.007812 -9.390625 6.34375 -9.390625 Z M 6.78125 0.203125 C 4.945312 0.203125 3.515625 -0.300781 2.484375 -1.3125 C 1.453125 -2.320312 0.9375 -3.753906 0.9375 -5.609375 C 0.9375 -7.523438 1.410156 -9.003906 2.359375 -10.046875 C 3.316406 -11.085938 4.640625 -11.609375 6.328125 -11.609375 C 7.941406 -11.609375 9.195312 -11.148438 10.09375 -10.234375 C 10.988281 -9.316406 11.4375 -8.050781 11.4375 -6.4375 L 11.4375 -4.921875 L 4.09375 -4.921875 C 4.125 -4.035156 4.382812 -3.34375 4.875 -2.84375 C 5.363281 -2.351562 6.050781 -2.109375 6.9375 -2.109375 C 7.613281 -2.109375 8.257812 -2.175781 8.875 -2.3125 C 9.488281 -2.457031 10.128906 -2.6875 10.796875 -3 L 10.796875 -0.59375 C 10.253906 -0.320312 9.671875 -0.125 9.046875 0 C 8.429688 0.132812 7.675781 0.203125 6.78125 0.203125 Z M 6.78125 0.203125 "/></g></g></g><g fill="#1800ad" fill-opacity="1"><g transform="translate(297.617873, 50.628922)"><g><path d="M 12.15625 0 L 9.046875 0 L 9.046875 -6.65625 C 9.046875 -7.476562 8.898438 -8.09375 8.609375 -8.5 C 8.316406 -8.914062 7.847656 -9.125 7.203125 -9.125 C 6.335938 -9.125 5.707031 -8.832031 5.3125 -8.25 C 4.925781 -7.664062 4.734375 -6.703125 4.734375 -5.359375 L 4.734375 0 L 1.625 0 L 1.625 -11.390625 L 4 -11.390625 L 4.421875 -9.9375 L 4.59375 -9.9375 C 4.9375 -10.488281 5.410156 -10.90625 6.015625 -11.1875 C 6.628906 -11.46875 7.328125 -11.609375 8.109375 -11.609375 C 9.429688 -11.609375 10.4375 -11.25 11.125 -10.53125 C 11.8125 -9.8125 12.15625 -8.78125 12.15625 -7.4375 Z M 12.15625 0 "/></g></g></g><g fill="#1800ad" fill-opacity="1"><g transform="translate(311.33173, 50.628922)"><g><path d="M 5.234375 0.203125 C 3.898438 0.203125 2.847656 -0.316406 2.078125 -1.359375 C 1.316406 -2.398438 0.9375 -3.835938 0.9375 -5.671875 C 0.9375 -7.546875 1.320312 -9.003906 2.09375 -10.046875 C 2.875 -11.085938 3.953125 -11.609375 5.328125 -11.609375 C 6.753906 -11.609375 7.847656 -11.050781 8.609375 -9.9375 L 8.703125 -9.9375 C 8.546875 -10.789062 8.46875 -11.550781 8.46875 -12.21875 L 8.46875 -15.859375 L 11.59375 -15.859375 L 11.59375 0 L 9.203125 0 L 8.609375 -1.484375 L 8.46875 -1.484375 C 7.757812 -0.359375 6.679688 0.203125 5.234375 0.203125 Z M 6.328125 -2.265625 C 7.117188 -2.265625 7.703125 -2.492188 8.078125 -2.953125 C 8.453125 -3.421875 8.65625 -4.210938 8.6875 -5.328125 L 8.6875 -5.65625 C 8.6875 -6.875 8.492188 -7.75 8.109375 -8.28125 C 7.734375 -8.8125 7.125 -9.078125 6.28125 -9.078125 C 5.582031 -9.078125 5.039062 -8.78125 4.65625 -8.1875 C 4.28125 -7.601562 4.09375 -6.753906 4.09375 -5.640625 C 4.09375 -4.515625 4.285156 -3.671875 4.671875 -3.109375 C 5.054688 -2.546875 5.609375 -2.265625 6.328125 -2.265625 Z M 6.328125 -2.265625 "/></g></g></g><g fill="#1800ad" fill-opacity="1"><g transform="translate(324.536157, 50.628922)"><g><path d="M 6.34375 -9.390625 C 5.6875 -9.390625 5.171875 -9.179688 4.796875 -8.765625 C 4.421875 -8.347656 4.207031 -7.757812 4.15625 -7 L 8.515625 -7 C 8.503906 -7.757812 8.304688 -8.347656 7.921875 -8.765625 C 7.535156 -9.179688 7.007812 -9.390625 6.34375 -9.390625 Z M 6.78125 0.203125 C 4.945312 0.203125 3.515625 -0.300781 2.484375 -1.3125 C 1.453125 -2.320312 0.9375 -3.753906 0.9375 -5.609375 C 0.9375 -7.523438 1.410156 -9.003906 2.359375 -10.046875 C 3.316406 -11.085938 4.640625 -11.609375 6.328125 -11.609375 C 7.941406 -11.609375 9.195312 -11.148438 10.09375 -10.234375 C 10.988281 -9.316406 11.4375 -8.050781 11.4375 -6.4375 L 11.4375 -4.921875 L 4.09375 -4.921875 C 4.125 -4.035156 4.382812 -3.34375 4.875 -2.84375 C 5.363281 -2.351562 6.050781 -2.109375 6.9375 -2.109375 C 7.613281 -2.109375 8.257812 -2.175781 8.875 -2.3125 C 9.488281 -2.457031 10.128906 -2.6875 10.796875 -3 L 10.796875 -0.59375 C 10.253906 -0.320312 9.671875 -0.125 9.046875 0 C 8.429688 0.132812 7.675781 0.203125 6.78125 0.203125 Z M 6.78125 0.203125 "/></g></g></g><g fill="#1800ad" fill-opacity="1"><g transform="translate(336.864364, 50.628922)"><g><path d="M 7.984375 -11.609375 C 8.410156 -11.609375 8.765625 -11.578125 9.046875 -11.515625 L 8.8125 -8.609375 C 8.550781 -8.671875 8.242188 -8.703125 7.890625 -8.703125 C 6.898438 -8.703125 6.125 -8.445312 5.5625 -7.9375 C 5.007812 -7.425781 4.734375 -6.710938 4.734375 -5.796875 L 4.734375 0 L 1.625 0 L 1.625 -11.390625 L 3.984375 -11.390625 L 4.4375 -9.484375 L 4.59375 -9.484375 C 4.945312 -10.117188 5.425781 -10.628906 6.03125 -11.015625 C 6.632812 -11.410156 7.285156 -11.609375 7.984375 -11.609375 Z M 7.984375 -11.609375 "/></g></g></g><g fill="#1800ad" fill-opacity="1"><g transform="translate(346.345036, 50.628922)"><g/></g></g><g fill="#1800ad" fill-opacity="1"><g transform="translate(139.383476, 79.708861)"><g><path d="M 6.4375 -2.265625 C 6.976562 -2.265625 7.628906 -2.382812 8.390625 -2.625 L 8.390625 -0.3125 C 7.617188 0.03125 6.664062 0.203125 5.53125 0.203125 C 4.289062 0.203125 3.382812 -0.109375 2.8125 -0.734375 C 2.25 -1.367188 1.96875 -2.3125 1.96875 -3.5625 L 1.96875 -9.0625 L 0.484375 -9.0625 L 0.484375 -10.375 L 2.1875 -11.421875 L 3.09375 -13.828125 L 5.078125 -13.828125 L 5.078125 -11.390625 L 8.265625 -11.390625 L 8.265625 -9.0625 L 5.078125 -9.0625 L 5.078125 -3.5625 C 5.078125 -3.125 5.195312 -2.796875 5.4375 -2.578125 C 5.6875 -2.367188 6.019531 -2.265625 6.4375 -2.265625 Z M 6.4375 -2.265625 "/></g></g></g><g fill="#1800ad" fill-opacity="1"><g transform="translate(148.441148, 79.708861)"><g><path d="M 4.109375 -5.71875 C 4.109375 -4.59375 4.289062 -3.738281 4.65625 -3.15625 C 5.03125 -2.582031 5.632812 -2.296875 6.46875 -2.296875 C 7.300781 -2.296875 7.898438 -2.582031 8.265625 -3.15625 C 8.628906 -3.726562 8.8125 -4.582031 8.8125 -5.71875 C 8.8125 -6.84375 8.625 -7.6875 8.25 -8.25 C 7.882812 -8.820312 7.285156 -9.109375 6.453125 -9.109375 C 5.617188 -9.109375 5.019531 -8.828125 4.65625 -8.265625 C 4.289062 -7.703125 4.109375 -6.851562 4.109375 -5.71875 Z M 11.984375 -5.71875 C 11.984375 -3.863281 11.492188 -2.410156 10.515625 -1.359375 C 9.535156 -0.316406 8.175781 0.203125 6.4375 0.203125 C 5.34375 0.203125 4.375 -0.0351562 3.53125 -0.515625 C 2.695312 -0.992188 2.054688 -1.679688 1.609375 -2.578125 C 1.160156 -3.472656 0.9375 -4.519531 0.9375 -5.71875 C 0.9375 -7.582031 1.421875 -9.03125 2.390625 -10.0625 C 3.367188 -11.09375 4.738281 -11.609375 6.5 -11.609375 C 7.59375 -11.609375 8.554688 -11.367188 9.390625 -10.890625 C 10.222656 -10.421875 10.863281 -9.738281 11.3125 -8.84375 C 11.757812 -7.957031 11.984375 -6.914062 11.984375 -5.71875 Z M 11.984375 -5.71875 "/></g></g></g><g fill="#1800ad" fill-opacity="1"><g transform="translate(161.360294, 79.708861)"><g><path d="M 5.234375 0.203125 C 3.898438 0.203125 2.847656 -0.316406 2.078125 -1.359375 C 1.316406 -2.398438 0.9375 -3.835938 0.9375 -5.671875 C 0.9375 -7.546875 1.320312 -9.003906 2.09375 -10.046875 C 2.875 -11.085938 3.953125 -11.609375 5.328125 -11.609375 C 6.753906 -11.609375 7.847656 -11.050781 8.609375 -9.9375 L 8.703125 -9.9375 C 8.546875 -10.789062 8.46875 -11.550781 8.46875 -12.21875 L 8.46875 -15.859375 L 11.59375 -15.859375 L 11.59375 0 L 9.203125 0 L 8.609375 -1.484375 L 8.46875 -1.484375 C 7.757812 -0.359375 6.679688 0.203125 5.234375 0.203125 Z M 6.328125 -2.265625 C 7.117188 -2.265625 7.703125 -2.492188 8.078125 -2.953125 C 8.453125 -3.421875 8.65625 -4.210938 8.6875 -5.328125 L 8.6875 -5.65625 C 8.6875 -6.875 8.492188 -7.75 8.109375 -8.28125 C 7.734375 -8.8125 7.125 -9.078125 6.28125 -9.078125 C 5.582031 -9.078125 5.039062 -8.78125 4.65625 -8.1875 C 4.28125 -7.601562 4.09375 -6.753906 4.09375 -5.640625 C 4.09375 -4.515625 4.285156 -3.671875 4.671875 -3.109375 C 5.054688 -2.546875 5.609375 -2.265625 6.328125 -2.265625 Z M 6.328125 -2.265625 "/></g></g></g><g fill="#1800ad" fill-opacity="1"><g transform="translate(174.56472, 79.708861)"><g><path d="M 8.875 0 L 8.265625 -1.546875 L 8.1875 -1.546875 C 7.664062 -0.890625 7.125 -0.429688 6.5625 -0.171875 C 6.007812 0.078125 5.289062 0.203125 4.40625 0.203125 C 3.3125 0.203125 2.445312 -0.109375 1.8125 -0.734375 C 1.1875 -1.359375 0.875 -2.25 0.875 -3.40625 C 0.875 -4.613281 1.296875 -5.503906 2.140625 -6.078125 C 2.992188 -6.648438 4.269531 -6.96875 5.96875 -7.03125 L 7.953125 -7.09375 L 7.953125 -7.59375 C 7.953125 -8.75 7.359375 -9.328125 6.171875 -9.328125 C 5.265625 -9.328125 4.195312 -9.050781 2.96875 -8.5 L 1.9375 -10.59375 C 3.25 -11.28125 4.703125 -11.625 6.296875 -11.625 C 7.828125 -11.625 9 -11.289062 9.8125 -10.625 C 10.625 -9.957031 11.03125 -8.945312 11.03125 -7.59375 L 11.03125 0 Z M 7.953125 -5.28125 L 6.75 -5.234375 C 5.84375 -5.210938 5.164062 -5.050781 4.71875 -4.75 C 4.28125 -4.445312 4.0625 -3.992188 4.0625 -3.390625 C 4.0625 -2.503906 4.566406 -2.0625 5.578125 -2.0625 C 6.296875 -2.0625 6.867188 -2.269531 7.296875 -2.6875 C 7.734375 -3.101562 7.953125 -3.65625 7.953125 -4.34375 Z M 7.953125 -5.28125 "/></g></g></g><g fill="#1800ad" fill-opacity="1"><g transform="translate(187.168025, 79.708861)"><g><path d="M 9.578125 -3.390625 C 9.578125 -2.210938 9.171875 -1.316406 8.359375 -0.703125 C 7.546875 -0.0976562 6.332031 0.203125 4.71875 0.203125 C 3.882812 0.203125 3.175781 0.144531 2.59375 0.03125 C 2.007812 -0.0703125 1.460938 -0.234375 0.953125 -0.453125 L 0.953125 -3.03125 C 1.535156 -2.757812 2.1875 -2.53125 2.90625 -2.34375 C 3.632812 -2.15625 4.273438 -2.0625 4.828125 -2.0625 C 5.953125 -2.0625 6.515625 -2.390625 6.515625 -3.046875 C 6.515625 -3.296875 6.4375 -3.492188 6.28125 -3.640625 C 6.132812 -3.796875 5.878906 -3.96875 5.515625 -4.15625 C 5.148438 -4.351562 4.660156 -4.582031 4.046875 -4.84375 C 3.171875 -5.207031 2.523438 -5.546875 2.109375 -5.859375 C 1.703125 -6.171875 1.40625 -6.53125 1.21875 -6.9375 C 1.03125 -7.34375 0.9375 -7.835938 0.9375 -8.421875 C 0.9375 -9.441406 1.328125 -10.226562 2.109375 -10.78125 C 2.898438 -11.332031 4.015625 -11.609375 5.453125 -11.609375 C 6.828125 -11.609375 8.160156 -11.3125 9.453125 -10.71875 L 8.515625 -8.46875 C 7.953125 -8.71875 7.421875 -8.921875 6.921875 -9.078125 C 6.421875 -9.234375 5.914062 -9.3125 5.40625 -9.3125 C 4.488281 -9.3125 4.03125 -9.0625 4.03125 -8.5625 C 4.03125 -8.28125 4.175781 -8.035156 4.46875 -7.828125 C 4.757812 -7.628906 5.40625 -7.332031 6.40625 -6.9375 C 7.300781 -6.570312 7.953125 -6.234375 8.359375 -5.921875 C 8.773438 -5.609375 9.082031 -5.25 9.28125 -4.84375 C 9.476562 -4.4375 9.578125 -3.953125 9.578125 -3.390625 Z M 9.578125 -3.390625 "/></g></g></g><g fill="#1800ad" fill-opacity="1"><g transform="translate(197.54002, 79.708861)"><g/></g></g><g fill="#1800ad" fill-opacity="1"><g transform="translate(202.960356, 79.708861)"><g><path d="M 8.875 0 L 8.265625 -1.546875 L 8.1875 -1.546875 C 7.664062 -0.890625 7.125 -0.429688 6.5625 -0.171875 C 6.007812 0.078125 5.289062 0.203125 4.40625 0.203125 C 3.3125 0.203125 2.445312 -0.109375 1.8125 -0.734375 C 1.1875 -1.359375 0.875 -2.25 0.875 -3.40625 C 0.875 -4.613281 1.296875 -5.503906 2.140625 -6.078125 C 2.992188 -6.648438 4.269531 -6.96875 5.96875 -7.03125 L 7.953125 -7.09375 L 7.953125 -7.59375 C 7.953125 -8.75 7.359375 -9.328125 6.171875 -9.328125 C 5.265625 -9.328125 4.195312 -9.050781 2.96875 -8.5 L 1.9375 -10.59375 C 3.25 -11.28125 4.703125 -11.625 6.296875 -11.625 C 7.828125 -11.625 9 -11.289062 9.8125 -10.625 C 10.625 -9.957031 11.03125 -8.945312 11.03125 -7.59375 L 11.03125 0 Z M 7.953125 -5.28125 L 6.75 -5.234375 C 5.84375 -5.210938 5.164062 -5.050781 4.71875 -4.75 C 4.28125 -4.445312 4.0625 -3.992188 4.0625 -3.390625 C 4.0625 -2.503906 4.566406 -2.0625 5.578125 -2.0625 C 6.296875 -2.0625 6.867188 -2.269531 7.296875 -2.6875 C 7.734375 -3.101562 7.953125 -3.65625 7.953125 -4.34375 Z M 7.953125 -5.28125 "/></g></g></g><g fill="#1800ad" fill-opacity="1"><g transform="translate(215.563661, 79.708861)"><g><path d="M 9.578125 -3.390625 C 9.578125 -2.210938 9.171875 -1.316406 8.359375 -0.703125 C 7.546875 -0.0976562 6.332031 0.203125 4.71875 0.203125 C 3.882812 0.203125 3.175781 0.144531 2.59375 0.03125 C 2.007812 -0.0703125 1.460938 -0.234375 0.953125 -0.453125 L 0.953125 -3.03125 C 1.535156 -2.757812 2.1875 -2.53125 2.90625 -2.34375 C 3.632812 -2.15625 4.273438 -2.0625 4.828125 -2.0625 C 5.953125 -2.0625 6.515625 -2.390625 6.515625 -3.046875 C 6.515625 -3.296875 6.4375 -3.492188 6.28125 -3.640625 C 6.132812 -3.796875 5.878906 -3.96875 5.515625 -4.15625 C 5.148438 -4.351562 4.660156 -4.582031 4.046875 -4.84375 C 3.171875 -5.207031 2.523438 -5.546875 2.109375 -5.859375 C 1.703125 -6.171875 1.40625 -6.53125 1.21875 -6.9375 C 1.03125 -7.34375 0.9375 -7.835938 0.9375 -8.421875 C 0.9375 -9.441406 1.328125 -10.226562 2.109375 -10.78125 C 2.898438 -11.332031 4.015625 -11.609375 5.453125 -11.609375 C 6.828125 -11.609375 8.160156 -11.3125 9.453125 -10.71875 L 8.515625 -8.46875 C 7.953125 -8.71875 7.421875 -8.921875 6.921875 -9.078125 C 6.421875 -9.234375 5.914062 -9.3125 5.40625 -9.3125 C 4.488281 -9.3125 4.03125 -9.0625 4.03125 -8.5625 C 4.03125 -8.28125 4.175781 -8.035156 4.46875 -7.828125 C 4.757812 -7.628906 5.40625 -7.332031 6.40625 -6.9375 C 7.300781 -6.570312 7.953125 -6.234375 8.359375 -5.921875 C 8.773438 -5.609375 9.082031 -5.25 9.28125 -4.84375 C 9.476562 -4.4375 9.578125 -3.953125 9.578125 -3.390625 Z M 9.578125 -3.390625 "/></g></g></g><g fill="#1800ad" fill-opacity="1"><g transform="translate(225.935656, 79.708861)"><g/></g></g><g fill="#1800ad" fill-opacity="1"><g transform="translate(231.355992, 79.708861)"><g><path d="M 12.15625 0 L 9.046875 0 L 9.046875 -6.65625 C 9.046875 -7.476562 8.898438 -8.09375 8.609375 -8.5 C 8.316406 -8.914062 7.847656 -9.125 7.203125 -9.125 C 6.335938 -9.125 5.707031 -8.832031 5.3125 -8.25 C 4.925781 -7.664062 4.734375 -6.703125 4.734375 -5.359375 L 4.734375 0 L 1.625 0 L 1.625 -11.390625 L 4 -11.390625 L 4.421875 -9.9375 L 4.59375 -9.9375 C 4.9375 -10.488281 5.410156 -10.90625 6.015625 -11.1875 C 6.628906 -11.46875 7.328125 -11.609375 8.109375 -11.609375 C 9.429688 -11.609375 10.4375 -11.25 11.125 -10.53125 C 11.8125 -9.8125 12.15625 -8.78125 12.15625 -7.4375 Z M 12.15625 0 "/></g></g></g><g fill="#1800ad" fill-opacity="1"><g transform="translate(245.069849, 79.708861)"><g><path d="M 6.34375 -9.390625 C 5.6875 -9.390625 5.171875 -9.179688 4.796875 -8.765625 C 4.421875 -8.347656 4.207031 -7.757812 4.15625 -7 L 8.515625 -7 C 8.503906 -7.757812 8.304688 -8.347656 7.921875 -8.765625 C 7.535156 -9.179688 7.007812 -9.390625 6.34375 -9.390625 Z M 6.78125 0.203125 C 4.945312 0.203125 3.515625 -0.300781 2.484375 -1.3125 C 1.453125 -2.320312 0.9375 -3.753906 0.9375 -5.609375 C 0.9375 -7.523438 1.410156 -9.003906 2.359375 -10.046875 C 3.316406 -11.085938 4.640625 -11.609375 6.328125 -11.609375 C 7.941406 -11.609375 9.195312 -11.148438 10.09375 -10.234375 C 10.988281 -9.316406 11.4375 -8.050781 11.4375 -6.4375 L 11.4375 -4.921875 L 4.09375 -4.921875 C 4.125 -4.035156 4.382812 -3.34375 4.875 -2.84375 C 5.363281 -2.351562 6.050781 -2.109375 6.9375 -2.109375 C 7.613281 -2.109375 8.257812 -2.175781 8.875 -2.3125 C 9.488281 -2.457031 10.128906 -2.6875 10.796875 -3 L 10.796875 -0.59375 C 10.253906 -0.320312 9.671875 -0.125 9.046875 0 C 8.429688 0.132812 7.675781 0.203125 6.78125 0.203125 Z M 6.78125 0.203125 "/></g></g></g><g fill="#1800ad" fill-opacity="1"><g transform="translate(257.398056, 79.708861)"><g><path d="M 6.265625 0.203125 C 2.710938 0.203125 0.9375 -1.742188 0.9375 -5.640625 C 0.9375 -7.578125 1.414062 -9.054688 2.375 -10.078125 C 3.34375 -11.097656 4.726562 -11.609375 6.53125 -11.609375 C 7.851562 -11.609375 9.035156 -11.347656 10.078125 -10.828125 L 9.15625 -8.421875 C 8.664062 -8.617188 8.210938 -8.78125 7.796875 -8.90625 C 7.378906 -9.039062 6.957031 -9.109375 6.53125 -9.109375 C 4.914062 -9.109375 4.109375 -7.957031 4.109375 -5.65625 C 4.109375 -3.425781 4.914062 -2.3125 6.53125 -2.3125 C 7.132812 -2.3125 7.6875 -2.390625 8.1875 -2.546875 C 8.695312 -2.710938 9.207031 -2.960938 9.71875 -3.296875 L 9.71875 -0.640625 C 9.21875 -0.316406 8.710938 -0.0976562 8.203125 0.015625 C 7.691406 0.140625 7.046875 0.203125 6.265625 0.203125 Z M 6.265625 0.203125 "/></g></g></g><g fill="#1800ad" fill-opacity="1"><g transform="translate(268.126659, 79.708861)"><g><path d="M 6.34375 -9.390625 C 5.6875 -9.390625 5.171875 -9.179688 4.796875 -8.765625 C 4.421875 -8.347656 4.207031 -7.757812 4.15625 -7 L 8.515625 -7 C 8.503906 -7.757812 8.304688 -8.347656 7.921875 -8.765625 C 7.535156 -9.179688 7.007812 -9.390625 6.34375 -9.390625 Z M 6.78125 0.203125 C 4.945312 0.203125 3.515625 -0.300781 2.484375 -1.3125 C 1.453125 -2.320312 0.9375 -3.753906 0.9375 -5.609375 C 0.9375 -7.523438 1.410156 -9.003906 2.359375 -10.046875 C 3.316406 -11.085938 4.640625 -11.609375 6.328125 -11.609375 C 7.941406 -11.609375 9.195312 -11.148438 10.09375 -10.234375 C 10.988281 -9.316406 11.4375 -8.050781 11.4375 -6.4375 L 11.4375 -4.921875 L 4.09375 -4.921875 C 4.125 -4.035156 4.382812 -3.34375 4.875 -2.84375 C 5.363281 -2.351562 6.050781 -2.109375 6.9375 -2.109375 C 7.613281 -2.109375 8.257812 -2.175781 8.875 -2.3125 C 9.488281 -2.457031 10.128906 -2.6875 10.796875 -3 L 10.796875 -0.59375 C 10.253906 -0.320312 9.671875 -0.125 9.046875 0 C 8.429688 0.132812 7.675781 0.203125 6.78125 0.203125 Z M 6.78125 0.203125 "/></g></g></g><g fill="#1800ad" fill-opacity="1"><g transform="translate(280.454866, 79.708861)"><g><path d="M 9.578125 -3.390625 C 9.578125 -2.210938 9.171875 -1.316406 8.359375 -0.703125 C 7.546875 -0.0976562 6.332031 0.203125 4.71875 0.203125 C 3.882812 0.203125 3.175781 0.144531 2.59375 0.03125 C 2.007812 -0.0703125 1.460938 -0.234375 0.953125 -0.453125 L 0.953125 -3.03125 C 1.535156 -2.757812 2.1875 -2.53125 2.90625 -2.34375 C 3.632812 -2.15625 4.273438 -2.0625 4.828125 -2.0625 C 5.953125 -2.0625 6.515625 -2.390625 6.515625 -3.046875 C 6.515625 -3.296875 6.4375 -3.492188 6.28125 -3.640625 C 6.132812 -3.796875 5.878906 -3.96875 5.515625 -4.15625 C 5.148438 -4.351562 4.660156 -4.582031 4.046875 -4.84375 C 3.171875 -5.207031 2.523438 -5.546875 2.109375 -5.859375 C 1.703125 -6.171875 1.40625 -6.53125 1.21875 -6.9375 C 1.03125 -7.34375 0.9375 -7.835938 0.9375 -8.421875 C 0.9375 -9.441406 1.328125 -10.226562 2.109375 -10.78125 C 2.898438 -11.332031 4.015625 -11.609375 5.453125 -11.609375 C 6.828125 -11.609375 8.160156 -11.3125 9.453125 -10.71875 L 8.515625 -8.46875 C 7.953125 -8.71875 7.421875 -8.921875 6.921875 -9.078125 C 6.421875 -9.234375 5.914062 -9.3125 5.40625 -9.3125 C 4.488281 -9.3125 4.03125 -9.0625 4.03125 -8.5625 C 4.03125 -8.28125 4.175781 -8.035156 4.46875 -7.828125 C 4.757812 -7.628906 5.40625 -7.332031 6.40625 -6.9375 C 7.300781 -6.570312 7.953125 -6.234375 8.359375 -5.921875 C 8.773438 -5.609375 9.082031 -5.25 9.28125 -4.84375 C 9.476562 -4.4375 9.578125 -3.953125 9.578125 -3.390625 Z M 9.578125 -3.390625 "/></g></g></g><g fill="#1800ad" fill-opacity="1"><g transform="translate(290.826861, 79.708861)"><g><path d="M 9.578125 -3.390625 C 9.578125 -2.210938 9.171875 -1.316406 8.359375 -0.703125 C 7.546875 -0.0976562 6.332031 0.203125 4.71875 0.203125 C 3.882812 0.203125 3.175781 0.144531 2.59375 0.03125 C 2.007812 -0.0703125 1.460938 -0.234375 0.953125 -0.453125 L 0.953125 -3.03125 C 1.535156 -2.757812 2.1875 -2.53125 2.90625 -2.34375 C 3.632812 -2.15625 4.273438 -2.0625 4.828125 -2.0625 C 5.953125 -2.0625 6.515625 -2.390625 6.515625 -3.046875 C 6.515625 -3.296875 6.4375 -3.492188 6.28125 -3.640625 C 6.132812 -3.796875 5.878906 -3.96875 5.515625 -4.15625 C 5.148438 -4.351562 4.660156 -4.582031 4.046875 -4.84375 C 3.171875 -5.207031 2.523438 -5.546875 2.109375 -5.859375 C 1.703125 -6.171875 1.40625 -6.53125 1.21875 -6.9375 C 1.03125 -7.34375 0.9375 -7.835938 0.9375 -8.421875 C 0.9375 -9.441406 1.328125 -10.226562 2.109375 -10.78125 C 2.898438 -11.332031 4.015625 -11.609375 5.453125 -11.609375 C 6.828125 -11.609375 8.160156 -11.3125 9.453125 -10.71875 L 8.515625 -8.46875 C 7.953125 -8.71875 7.421875 -8.921875 6.921875 -9.078125 C 6.421875 -9.234375 5.914062 -9.3125 5.40625 -9.3125 C 4.488281 -9.3125 4.03125 -9.0625 4.03125 -8.5625 C 4.03125 -8.28125 4.175781 -8.035156 4.46875 -7.828125 C 4.757812 -7.628906 5.40625 -7.332031 6.40625 -6.9375 C 7.300781 -6.570312 7.953125 -6.234375 8.359375 -5.921875 C 8.773438 -5.609375 9.082031 -5.25 9.28125 -4.84375 C 9.476562 -4.4375 9.578125 -3.953125 9.578125 -3.390625 Z M 9.578125 -3.390625 "/></g></g></g><g fill="#1800ad" fill-opacity="1"><g transform="translate(301.198857, 79.708861)"><g><path d="M 1.5 -14.34375 C 1.5 -15.351562 2.0625 -15.859375 3.1875 -15.859375 C 4.3125 -15.859375 4.875 -15.351562 4.875 -14.34375 C 4.875 -13.863281 4.734375 -13.488281 4.453125 -13.21875 C 4.171875 -12.945312 3.75 -12.8125 3.1875 -12.8125 C 2.0625 -12.8125 1.5 -13.320312 1.5 -14.34375 Z M 4.734375 0 L 1.625 0 L 1.625 -11.390625 L 4.734375 -11.390625 Z M 4.734375 0 "/></g></g></g><g fill="#1800ad" fill-opacity="1"><g transform="translate(307.566738, 79.708861)"><g><path d="M 5.234375 0.203125 C 3.898438 0.203125 2.847656 -0.316406 2.078125 -1.359375 C 1.316406 -2.398438 0.9375 -3.835938 0.9375 -5.671875 C 0.9375 -7.546875 1.320312 -9.003906 2.09375 -10.046875 C 2.875 -11.085938 3.953125 -11.609375 5.328125 -11.609375 C 6.753906 -11.609375 7.847656 -11.050781 8.609375 -9.9375 L 8.703125 -9.9375 C 8.546875 -10.789062 8.46875 -11.550781 8.46875 -12.21875 L 8.46875 -15.859375 L 11.59375 -15.859375 L 11.59375 0 L 9.203125 0 L 8.609375 -1.484375 L 8.46875 -1.484375 C 7.757812 -0.359375 6.679688 0.203125 5.234375 0.203125 Z M 6.328125 -2.265625 C 7.117188 -2.265625 7.703125 -2.492188 8.078125 -2.953125 C 8.453125 -3.421875 8.65625 -4.210938 8.6875 -5.328125 L 8.6875 -5.65625 C 8.6875 -6.875 8.492188 -7.75 8.109375 -8.28125 C 7.734375 -8.8125 7.125 -9.078125 6.28125 -9.078125 C 5.582031 -9.078125 5.039062 -8.78125 4.65625 -8.1875 C 4.28125 -7.601562 4.09375 -6.753906 4.09375 -5.640625 C 4.09375 -4.515625 4.285156 -3.671875 4.671875 -3.109375 C 5.054688 -2.546875 5.609375 -2.265625 6.328125 -2.265625 Z M 6.328125 -2.265625 "/></g></g></g><g fill="#1800ad" fill-opacity="1"><g transform="translate(320.771165, 79.708861)"><g><path d="M 8.875 0 L 8.265625 -1.546875 L 8.1875 -1.546875 C 7.664062 -0.890625 7.125 -0.429688 6.5625 -0.171875 C 6.007812 0.078125 5.289062 0.203125 4.40625 0.203125 C 3.3125 0.203125 2.445312 -0.109375 1.8125 -0.734375 C 1.1875 -1.359375 0.875 -2.25 0.875 -3.40625 C 0.875 -4.613281 1.296875 -5.503906 2.140625 -6.078125 C 2.992188 -6.648438 4.269531 -6.96875 5.96875 -7.03125 L 7.953125 -7.09375 L 7.953125 -7.59375 C 7.953125 -8.75 7.359375 -9.328125 6.171875 -9.328125 C 5.265625 -9.328125 4.195312 -9.050781 2.96875 -8.5 L 1.9375 -10.59375 C 3.25 -11.28125 4.703125 -11.625 6.296875 -11.625 C 7.828125 -11.625 9 -11.289062 9.8125 -10.625 C 10.625 -9.957031 11.03125 -8.945312 11.03125 -7.59375 L 11.03125 0 Z M 7.953125 -5.28125 L 6.75 -5.234375 C 5.84375 -5.210938 5.164062 -5.050781 4.71875 -4.75 C 4.28125 -4.445312 4.0625 -3.992188 4.0625 -3.390625 C 4.0625 -2.503906 4.566406 -2.0625 5.578125 -2.0625 C 6.296875 -2.0625 6.867188 -2.269531 7.296875 -2.6875 C 7.734375 -3.101562 7.953125 -3.65625 7.953125 -4.34375 Z M 7.953125 -5.28125 "/></g></g></g><g fill="#1800ad" fill-opacity="1"><g transform="translate(333.374481, 79.708861)"><g><path d="M 5.234375 0.203125 C 3.898438 0.203125 2.847656 -0.316406 2.078125 -1.359375 C 1.316406 -2.398438 0.9375 -3.835938 0.9375 -5.671875 C 0.9375 -7.546875 1.320312 -9.003906 2.09375 -10.046875 C 2.875 -11.085938 3.953125 -11.609375 5.328125 -11.609375 C 6.753906 -11.609375 7.847656 -11.050781 8.609375 -9.9375 L 8.703125 -9.9375 C 8.546875 -10.789062 8.46875 -11.550781 8.46875 -12.21875 L 8.46875 -15.859375 L 11.59375 -15.859375 L 11.59375 0 L 9.203125 0 L 8.609375 -1.484375 L 8.46875 -1.484375 C 7.757812 -0.359375 6.679688 0.203125 5.234375 0.203125 Z M 6.328125 -2.265625 C 7.117188 -2.265625 7.703125 -2.492188 8.078125 -2.953125 C 8.453125 -3.421875 8.65625 -4.210938 8.6875 -5.328125 L 8.6875 -5.65625 C 8.6875 -6.875 8.492188 -7.75 8.109375 -8.28125 C 7.734375 -8.8125 7.125 -9.078125 6.28125 -9.078125 C 5.582031 -9.078125 5.039062 -8.78125 4.65625 -8.1875 C 4.28125 -7.601562 4.09375 -6.753906 4.09375 -5.640625 C 4.09375 -4.515625 4.285156 -3.671875 4.671875 -3.109375 C 5.054688 -2.546875 5.609375 -2.265625 6.328125 -2.265625 Z M 6.328125 -2.265625 "/></g></g></g><g fill="#1800ad" fill-opacity="1"><g transform="translate(346.578908, 79.708861)"><g><path d="M 6.34375 -9.390625 C 5.6875 -9.390625 5.171875 -9.179688 4.796875 -8.765625 C 4.421875 -8.347656 4.207031 -7.757812 4.15625 -7 L 8.515625 -7 C 8.503906 -7.757812 8.304688 -8.347656 7.921875 -8.765625 C 7.535156 -9.179688 7.007812 -9.390625 6.34375 -9.390625 Z M 6.78125 0.203125 C 4.945312 0.203125 3.515625 -0.300781 2.484375 -1.3125 C 1.453125 -2.320312 0.9375 -3.753906 0.9375 -5.609375 C 0.9375 -7.523438 1.410156 -9.003906 2.359375 -10.046875 C 3.316406 -11.085938 4.640625 -11.609375 6.328125 -11.609375 C 7.941406 -11.609375 9.195312 -11.148438 10.09375 -10.234375 C 10.988281 -9.316406 11.4375 -8.050781 11.4375 -6.4375 L 11.4375 -4.921875 L 4.09375 -4.921875 C 4.125 -4.035156 4.382812 -3.34375 4.875 -2.84375 C 5.363281 -2.351562 6.050781 -2.109375 6.9375 -2.109375 C 7.613281 -2.109375 8.257812 -2.175781 8.875 -2.3125 C 9.488281 -2.457031 10.128906 -2.6875 10.796875 -3 L 10.796875 -0.59375 C 10.253906 -0.320312 9.671875 -0.125 9.046875 0 C 8.429688 0.132812 7.675781 0.203125 6.78125 0.203125 Z M 6.78125 0.203125 "/></g></g></g><g fill="#1800ad" fill-opacity="1"><g transform="translate(358.907103, 79.708861)"><g><path d="M 9.578125 -3.390625 C 9.578125 -2.210938 9.171875 -1.316406 8.359375 -0.703125 C 7.546875 -0.0976562 6.332031 0.203125 4.71875 0.203125 C 3.882812 0.203125 3.175781 0.144531 2.59375 0.03125 C 2.007812 -0.0703125 1.460938 -0.234375 0.953125 -0.453125 L 0.953125 -3.03125 C 1.535156 -2.757812 2.1875 -2.53125 2.90625 -2.34375 C 3.632812 -2.15625 4.273438 -2.0625 4.828125 -2.0625 C 5.953125 -2.0625 6.515625 -2.390625 6.515625 -3.046875 C 6.515625 -3.296875 6.4375 -3.492188 6.28125 -3.640625 C 6.132812 -3.796875 5.878906 -3.96875 5.515625 -4.15625 C 5.148438 -4.351562 4.660156 -4.582031 4.046875 -4.84375 C 3.171875 -5.207031 2.523438 -5.546875 2.109375 -5.859375 C 1.703125 -6.171875 1.40625 -6.53125 1.21875 -6.9375 C 1.03125 -7.34375 0.9375 -7.835938 0.9375 -8.421875 C 0.9375 -9.441406 1.328125 -10.226562 2.109375 -10.78125 C 2.898438 -11.332031 4.015625 -11.609375 5.453125 -11.609375 C 6.828125 -11.609375 8.160156 -11.3125 9.453125 -10.71875 L 8.515625 -8.46875 C 7.953125 -8.71875 7.421875 -8.921875 6.921875 -9.078125 C 6.421875 -9.234375 5.914062 -9.3125 5.40625 -9.3125 C 4.488281 -9.3125 4.03125 -9.0625 4.03125 -8.5625 C 4.03125 -8.28125 4.175781 -8.035156 4.46875 -7.828125 C 4.757812 -7.628906 5.40625 -7.332031 6.40625 -6.9375 C 7.300781 -6.570312 7.953125 -6.234375 8.359375 -5.921875 C 8.773438 -5.609375 9.082031 -5.25 9.28125 -4.84375 C 9.476562 -4.4375 9.578125 -3.953125 9.578125 -3.390625 Z M 9.578125 -3.390625 "/></g></g></g><g fill="#1800ad" fill-opacity="1"><g transform="translate(165.364351, 108.7888)"><g><path d="M 5.234375 0.203125 C 3.898438 0.203125 2.847656 -0.316406 2.078125 -1.359375 C 1.316406 -2.398438 0.9375 -3.835938 0.9375 -5.671875 C 0.9375 -7.546875 1.320312 -9.003906 2.09375 -10.046875 C 2.875 -11.085938 3.953125 -11.609375 5.328125 -11.609375 C 6.753906 -11.609375 7.847656 -11.050781 8.609375 -9.9375 L 8.703125 -9.9375 C 8.546875 -10.789062 8.46875 -11.550781 8.46875 -12.21875 L 8.46875 -15.859375 L 11.59375 -15.859375 L 11.59375 0 L 9.203125 0 L 8.609375 -1.484375 L 8.46875 -1.484375 C 7.757812 -0.359375 6.679688 0.203125 5.234375 0.203125 Z M 6.328125 -2.265625 C 7.117188 -2.265625 7.703125 -2.492188 8.078125 -2.953125 C 8.453125 -3.421875 8.65625 -4.210938 8.6875 -5.328125 L 8.6875 -5.65625 C 8.6875 -6.875 8.492188 -7.75 8.109375 -8.28125 C 7.734375 -8.8125 7.125 -9.078125 6.28125 -9.078125 C 5.582031 -9.078125 5.039062 -8.78125 4.65625 -8.1875 C 4.28125 -7.601562 4.09375 -6.753906 4.09375 -5.640625 C 4.09375 -4.515625 4.285156 -3.671875 4.671875 -3.109375 C 5.054688 -2.546875 5.609375 -2.265625 6.328125 -2.265625 Z M 6.328125 -2.265625 "/></g></g></g><g fill="#1800ad" fill-opacity="1"><g transform="translate(178.568778, 108.7888)"><g><path d="M 6.34375 -9.390625 C 5.6875 -9.390625 5.171875 -9.179688 4.796875 -8.765625 C 4.421875 -8.347656 4.207031 -7.757812 4.15625 -7 L 8.515625 -7 C 8.503906 -7.757812 8.304688 -8.347656 7.921875 -8.765625 C 7.535156 -9.179688 7.007812 -9.390625 6.34375 -9.390625 Z M 6.78125 0.203125 C 4.945312 0.203125 3.515625 -0.300781 2.484375 -1.3125 C 1.453125 -2.320312 0.9375 -3.753906 0.9375 -5.609375 C 0.9375 -7.523438 1.410156 -9.003906 2.359375 -10.046875 C 3.316406 -11.085938 4.640625 -11.609375 6.328125 -11.609375 C 7.941406 -11.609375 9.195312 -11.148438 10.09375 -10.234375 C 10.988281 -9.316406 11.4375 -8.050781 11.4375 -6.4375 L 11.4375 -4.921875 L 4.09375 -4.921875 C 4.125 -4.035156 4.382812 -3.34375 4.875 -2.84375 C 5.363281 -2.351562 6.050781 -2.109375 6.9375 -2.109375 C 7.613281 -2.109375 8.257812 -2.175781 8.875 -2.3125 C 9.488281 -2.457031 10.128906 -2.6875 10.796875 -3 L 10.796875 -0.59375 C 10.253906 -0.320312 9.671875 -0.125 9.046875 0 C 8.429688 0.132812 7.675781 0.203125 6.78125 0.203125 Z M 6.78125 0.203125 "/></g></g></g><g fill="#1800ad" fill-opacity="1"><g transform="translate(190.896985, 108.7888)"><g/></g></g><g fill="#1800ad" fill-opacity="1"><g transform="translate(196.317321, 108.7888)"><g><path d="M 12.15625 0 L 9.046875 0 L 9.046875 -6.65625 C 9.046875 -7.476562 8.898438 -8.09375 8.609375 -8.5 C 8.316406 -8.914062 7.847656 -9.125 7.203125 -9.125 C 6.335938 -9.125 5.707031 -8.832031 5.3125 -8.25 C 4.925781 -7.664062 4.734375 -6.703125 4.734375 -5.359375 L 4.734375 0 L 1.625 0 L 1.625 -11.390625 L 4 -11.390625 L 4.421875 -9.9375 L 4.59375 -9.9375 C 4.9375 -10.488281 5.410156 -10.90625 6.015625 -11.1875 C 6.628906 -11.46875 7.328125 -11.609375 8.109375 -11.609375 C 9.429688 -11.609375 10.4375 -11.25 11.125 -10.53125 C 11.8125 -9.8125 12.15625 -8.78125 12.15625 -7.4375 Z M 12.15625 0 "/></g></g></g><g fill="#1800ad" fill-opacity="1"><g transform="translate(210.031178, 108.7888)"><g><path d="M 4.109375 -5.71875 C 4.109375 -4.59375 4.289062 -3.738281 4.65625 -3.15625 C 5.03125 -2.582031 5.632812 -2.296875 6.46875 -2.296875 C 7.300781 -2.296875 7.898438 -2.582031 8.265625 -3.15625 C 8.628906 -3.726562 8.8125 -4.582031 8.8125 -5.71875 C 8.8125 -6.84375 8.625 -7.6875 8.25 -8.25 C 7.882812 -8.820312 7.285156 -9.109375 6.453125 -9.109375 C 5.617188 -9.109375 5.019531 -8.828125 4.65625 -8.265625 C 4.289062 -7.703125 4.109375 -6.851562 4.109375 -5.71875 Z M 11.984375 -5.71875 C 11.984375 -3.863281 11.492188 -2.410156 10.515625 -1.359375 C 9.535156 -0.316406 8.175781 0.203125 6.4375 0.203125 C 5.34375 0.203125 4.375 -0.0351562 3.53125 -0.515625 C 2.695312 -0.992188 2.054688 -1.679688 1.609375 -2.578125 C 1.160156 -3.472656 0.9375 -4.519531 0.9375 -5.71875 C 0.9375 -7.582031 1.421875 -9.03125 2.390625 -10.0625 C 3.367188 -11.09375 4.738281 -11.609375 6.5 -11.609375 C 7.59375 -11.609375 8.554688 -11.367188 9.390625 -10.890625 C 10.222656 -10.421875 10.863281 -9.738281 11.3125 -8.84375 C 11.757812 -7.957031 11.984375 -6.914062 11.984375 -5.71875 Z M 11.984375 -5.71875 "/></g></g></g><g fill="#1800ad" fill-opacity="1"><g transform="translate(222.950323, 108.7888)"><g><path d="M 9.578125 -3.390625 C 9.578125 -2.210938 9.171875 -1.316406 8.359375 -0.703125 C 7.546875 -0.0976562 6.332031 0.203125 4.71875 0.203125 C 3.882812 0.203125 3.175781 0.144531 2.59375 0.03125 C 2.007812 -0.0703125 1.460938 -0.234375 0.953125 -0.453125 L 0.953125 -3.03125 C 1.535156 -2.757812 2.1875 -2.53125 2.90625 -2.34375 C 3.632812 -2.15625 4.273438 -2.0625 4.828125 -2.0625 C 5.953125 -2.0625 6.515625 -2.390625 6.515625 -3.046875 C 6.515625 -3.296875 6.4375 -3.492188 6.28125 -3.640625 C 6.132812 -3.796875 5.878906 -3.96875 5.515625 -4.15625 C 5.148438 -4.351562 4.660156 -4.582031 4.046875 -4.84375 C 3.171875 -5.207031 2.523438 -5.546875 2.109375 -5.859375 C 1.703125 -6.171875 1.40625 -6.53125 1.21875 -6.9375 C 1.03125 -7.34375 0.9375 -7.835938 0.9375 -8.421875 C 0.9375 -9.441406 1.328125 -10.226562 2.109375 -10.78125 C 2.898438 -11.332031 4.015625 -11.609375 5.453125 -11.609375 C 6.828125 -11.609375 8.160156 -11.3125 9.453125 -10.71875 L 8.515625 -8.46875 C 7.953125 -8.71875 7.421875 -8.921875 6.921875 -9.078125 C 6.421875 -9.234375 5.914062 -9.3125 5.40625 -9.3125 C 4.488281 -9.3125 4.03125 -9.0625 4.03125 -8.5625 C 4.03125 -8.28125 4.175781 -8.035156 4.46875 -7.828125 C 4.757812 -7.628906 5.40625 -7.332031 6.40625 -6.9375 C 7.300781 -6.570312 7.953125 -6.234375 8.359375 -5.921875 C 8.773438 -5.609375 9.082031 -5.25 9.28125 -4.84375 C 9.476562 -4.4375 9.578125 -3.953125 9.578125 -3.390625 Z M 9.578125 -3.390625 "/></g></g></g><g fill="#1800ad" fill-opacity="1"><g transform="translate(233.322319, 108.7888)"><g><path d="M 9.578125 -3.390625 C 9.578125 -2.210938 9.171875 -1.316406 8.359375 -0.703125 C 7.546875 -0.0976562 6.332031 0.203125 4.71875 0.203125 C 3.882812 0.203125 3.175781 0.144531 2.59375 0.03125 C 2.007812 -0.0703125 1.460938 -0.234375 0.953125 -0.453125 L 0.953125 -3.03125 C 1.535156 -2.757812 2.1875 -2.53125 2.90625 -2.34375 C 3.632812 -2.15625 4.273438 -2.0625 4.828125 -2.0625 C 5.953125 -2.0625 6.515625 -2.390625 6.515625 -3.046875 C 6.515625 -3.296875 6.4375 -3.492188 6.28125 -3.640625 C 6.132812 -3.796875 5.878906 -3.96875 5.515625 -4.15625 C 5.148438 -4.351562 4.660156 -4.582031 4.046875 -4.84375 C 3.171875 -5.207031 2.523438 -5.546875 2.109375 -5.859375 C 1.703125 -6.171875 1.40625 -6.53125 1.21875 -6.9375 C 1.03125 -7.34375 0.9375 -7.835938 0.9375 -8.421875 C 0.9375 -9.441406 1.328125 -10.226562 2.109375 -10.78125 C 2.898438 -11.332031 4.015625 -11.609375 5.453125 -11.609375 C 6.828125 -11.609375 8.160156 -11.3125 9.453125 -10.71875 L 8.515625 -8.46875 C 7.953125 -8.71875 7.421875 -8.921875 6.921875 -9.078125 C 6.421875 -9.234375 5.914062 -9.3125 5.40625 -9.3125 C 4.488281 -9.3125 4.03125 -9.0625 4.03125 -8.5625 C 4.03125 -8.28125 4.175781 -8.035156 4.46875 -7.828125 C 4.757812 -7.628906 5.40625 -7.332031 6.40625 -6.9375 C 7.300781 -6.570312 7.953125 -6.234375 8.359375 -5.921875 C 8.773438 -5.609375 9.082031 -5.25 9.28125 -4.84375 C 9.476562 -4.4375 9.578125 -3.953125 9.578125 -3.390625 Z M 9.578125 -3.390625 "/></g></g></g><g fill="#1800ad" fill-opacity="1"><g transform="translate(243.694315, 108.7888)"><g><path d="M 4.109375 -5.71875 C 4.109375 -4.59375 4.289062 -3.738281 4.65625 -3.15625 C 5.03125 -2.582031 5.632812 -2.296875 6.46875 -2.296875 C 7.300781 -2.296875 7.898438 -2.582031 8.265625 -3.15625 C 8.628906 -3.726562 8.8125 -4.582031 8.8125 -5.71875 C 8.8125 -6.84375 8.625 -7.6875 8.25 -8.25 C 7.882812 -8.820312 7.285156 -9.109375 6.453125 -9.109375 C 5.617188 -9.109375 5.019531 -8.828125 4.65625 -8.265625 C 4.289062 -7.703125 4.109375 -6.851562 4.109375 -5.71875 Z M 11.984375 -5.71875 C 11.984375 -3.863281 11.492188 -2.410156 10.515625 -1.359375 C 9.535156 -0.316406 8.175781 0.203125 6.4375 0.203125 C 5.34375 0.203125 4.375 -0.0351562 3.53125 -0.515625 C 2.695312 -0.992188 2.054688 -1.679688 1.609375 -2.578125 C 1.160156 -3.472656 0.9375 -4.519531 0.9375 -5.71875 C 0.9375 -7.582031 1.421875 -9.03125 2.390625 -10.0625 C 3.367188 -11.09375 4.738281 -11.609375 6.5 -11.609375 C 7.59375 -11.609375 8.554688 -11.367188 9.390625 -10.890625 C 10.222656 -10.421875 10.863281 -9.738281 11.3125 -8.84375 C 11.757812 -7.957031 11.984375 -6.914062 11.984375 -5.71875 Z M 11.984375 -5.71875 "/></g></g></g><g fill="#1800ad" fill-opacity="1"><g transform="translate(256.61346, 108.7888)"><g><path d="M 9.578125 -3.390625 C 9.578125 -2.210938 9.171875 -1.316406 8.359375 -0.703125 C 7.546875 -0.0976562 6.332031 0.203125 4.71875 0.203125 C 3.882812 0.203125 3.175781 0.144531 2.59375 0.03125 C 2.007812 -0.0703125 1.460938 -0.234375 0.953125 -0.453125 L 0.953125 -3.03125 C 1.535156 -2.757812 2.1875 -2.53125 2.90625 -2.34375 C 3.632812 -2.15625 4.273438 -2.0625 4.828125 -2.0625 C 5.953125 -2.0625 6.515625 -2.390625 6.515625 -3.046875 C 6.515625 -3.296875 6.4375 -3.492188 6.28125 -3.640625 C 6.132812 -3.796875 5.878906 -3.96875 5.515625 -4.15625 C 5.148438 -4.351562 4.660156 -4.582031 4.046875 -4.84375 C 3.171875 -5.207031 2.523438 -5.546875 2.109375 -5.859375 C 1.703125 -6.171875 1.40625 -6.53125 1.21875 -6.9375 C 1.03125 -7.34375 0.9375 -7.835938 0.9375 -8.421875 C 0.9375 -9.441406 1.328125 -10.226562 2.109375 -10.78125 C 2.898438 -11.332031 4.015625 -11.609375 5.453125 -11.609375 C 6.828125 -11.609375 8.160156 -11.3125 9.453125 -10.71875 L 8.515625 -8.46875 C 7.953125 -8.71875 7.421875 -8.921875 6.921875 -9.078125 C 6.421875 -9.234375 5.914062 -9.3125 5.40625 -9.3125 C 4.488281 -9.3125 4.03125 -9.0625 4.03125 -8.5625 C 4.03125 -8.28125 4.175781 -8.035156 4.46875 -7.828125 C 4.757812 -7.628906 5.40625 -7.332031 6.40625 -6.9375 C 7.300781 -6.570312 7.953125 -6.234375 8.359375 -5.921875 C 8.773438 -5.609375 9.082031 -5.25 9.28125 -4.84375 C 9.476562 -4.4375 9.578125 -3.953125 9.578125 -3.390625 Z M 9.578125 -3.390625 "/></g></g></g><g fill="#1800ad" fill-opacity="1"><g transform="translate(266.985456, 108.7888)"><g/></g></g><g fill="#1800ad" fill-opacity="1"><g transform="translate(272.405792, 108.7888)"><g><path d="M 6.265625 0.203125 C 2.710938 0.203125 0.9375 -1.742188 0.9375 -5.640625 C 0.9375 -7.578125 1.414062 -9.054688 2.375 -10.078125 C 3.34375 -11.097656 4.726562 -11.609375 6.53125 -11.609375 C 7.851562 -11.609375 9.035156 -11.347656 10.078125 -10.828125 L 9.15625 -8.421875 C 8.664062 -8.617188 8.210938 -8.78125 7.796875 -8.90625 C 7.378906 -9.039062 6.957031 -9.109375 6.53125 -9.109375 C 4.914062 -9.109375 4.109375 -7.957031 4.109375 -5.65625 C 4.109375 -3.425781 4.914062 -2.3125 6.53125 -2.3125 C 7.132812 -2.3125 7.6875 -2.390625 8.1875 -2.546875 C 8.695312 -2.710938 9.207031 -2.960938 9.71875 -3.296875 L 9.71875 -0.640625 C 9.21875 -0.316406 8.710938 -0.0976562 8.203125 0.015625 C 7.691406 0.140625 7.046875 0.203125 6.265625 0.203125 Z M 6.265625 0.203125 "/></g></g></g><g fill="#1800ad" fill-opacity="1"><g transform="translate(283.134394, 108.7888)"><g><path d="M 4.734375 0 L 1.625 0 L 1.625 -15.859375 L 4.734375 -15.859375 Z M 4.734375 0 "/></g></g></g><g fill="#1800ad" fill-opacity="1"><g transform="translate(289.502275, 108.7888)"><g><path d="M 1.5 -14.34375 C 1.5 -15.351562 2.0625 -15.859375 3.1875 -15.859375 C 4.3125 -15.859375 4.875 -15.351562 4.875 -14.34375 C 4.875 -13.863281 4.734375 -13.488281 4.453125 -13.21875 C 4.171875 -12.945312 3.75 -12.8125 3.1875 -12.8125 C 2.0625 -12.8125 1.5 -13.320312 1.5 -14.34375 Z M 4.734375 0 L 1.625 0 L 1.625 -11.390625 L 4.734375 -11.390625 Z M 4.734375 0 "/></g></g></g><g fill="#1800ad" fill-opacity="1"><g transform="translate(295.870156, 108.7888)"><g><path d="M 6.34375 -9.390625 C 5.6875 -9.390625 5.171875 -9.179688 4.796875 -8.765625 C 4.421875 -8.347656 4.207031 -7.757812 4.15625 -7 L 8.515625 -7 C 8.503906 -7.757812 8.304688 -8.347656 7.921875 -8.765625 C 7.535156 -9.179688 7.007812 -9.390625 6.34375 -9.390625 Z M 6.78125 0.203125 C 4.945312 0.203125 3.515625 -0.300781 2.484375 -1.3125 C 1.453125 -2.320312 0.9375 -3.753906 0.9375 -5.609375 C 0.9375 -7.523438 1.410156 -9.003906 2.359375 -10.046875 C 3.316406 -11.085938 4.640625 -11.609375 6.328125 -11.609375 C 7.941406 -11.609375 9.195312 -11.148438 10.09375 -10.234375 C 10.988281 -9.316406 11.4375 -8.050781 11.4375 -6.4375 L 11.4375 -4.921875 L 4.09375 -4.921875 C 4.125 -4.035156 4.382812 -3.34375 4.875 -2.84375 C 5.363281 -2.351562 6.050781 -2.109375 6.9375 -2.109375 C 7.613281 -2.109375 8.257812 -2.175781 8.875 -2.3125 C 9.488281 -2.457031 10.128906 -2.6875 10.796875 -3 L 10.796875 -0.59375 C 10.253906 -0.320312 9.671875 -0.125 9.046875 0 C 8.429688 0.132812 7.675781 0.203125 6.78125 0.203125 Z M 6.78125 0.203125 "/></g></g></g><g fill="#1800ad" fill-opacity="1"><g transform="translate(308.198364, 108.7888)"><g><path d="M 12.15625 0 L 9.046875 0 L 9.046875 -6.65625 C 9.046875 -7.476562 8.898438 -8.09375 8.609375 -8.5 C 8.316406 -8.914062 7.847656 -9.125 7.203125 -9.125 C 6.335938 -9.125 5.707031 -8.832031 5.3125 -8.25 C 4.925781 -7.664062 4.734375 -6.703125 4.734375 -5.359375 L 4.734375 0 L 1.625 0 L 1.625 -11.390625 L 4 -11.390625 L 4.421875 -9.9375 L 4.59375 -9.9375 C 4.9375 -10.488281 5.410156 -10.90625 6.015625 -11.1875 C 6.628906 -11.46875 7.328125 -11.609375 8.109375 -11.609375 C 9.429688 -11.609375 10.4375 -11.25 11.125 -10.53125 C 11.8125 -9.8125 12.15625 -8.78125 12.15625 -7.4375 Z M 12.15625 0 "/></g></g></g><g fill="#1800ad" fill-opacity="1"><g transform="translate(321.912221, 108.7888)"><g><path d="M 6.4375 -2.265625 C 6.976562 -2.265625 7.628906 -2.382812 8.390625 -2.625 L 8.390625 -0.3125 C 7.617188 0.03125 6.664062 0.203125 5.53125 0.203125 C 4.289062 0.203125 3.382812 -0.109375 2.8125 -0.734375 C 2.25 -1.367188 1.96875 -2.3125 1.96875 -3.5625 L 1.96875 -9.0625 L 0.484375 -9.0625 L 0.484375 -10.375 L 2.1875 -11.421875 L 3.09375 -13.828125 L 5.078125 -13.828125 L 5.078125 -11.390625 L 8.265625 -11.390625 L 8.265625 -9.0625 L 5.078125 -9.0625 L 5.078125 -3.5625 C 5.078125 -3.125 5.195312 -2.796875 5.4375 -2.578125 C 5.6875 -2.367188 6.019531 -2.265625 6.4375 -2.265625 Z M 6.4375 -2.265625 "/></g></g></g><g fill="#1800ad" fill-opacity="1"><g transform="translate(330.969893, 108.7888)"><g><path d="M 6.34375 -9.390625 C 5.6875 -9.390625 5.171875 -9.179688 4.796875 -8.765625 C 4.421875 -8.347656 4.207031 -7.757812 4.15625 -7 L 8.515625 -7 C 8.503906 -7.757812 8.304688 -8.347656 7.921875 -8.765625 C 7.535156 -9.179688 7.007812 -9.390625 6.34375 -9.390625 Z M 6.78125 0.203125 C 4.945312 0.203125 3.515625 -0.300781 2.484375 -1.3125 C 1.453125 -2.320312 0.9375 -3.753906 0.9375 -5.609375 C 0.9375 -7.523438 1.410156 -9.003906 2.359375 -10.046875 C 3.316406 -11.085938 4.640625 -11.609375 6.328125 -11.609375 C 7.941406 -11.609375 9.195312 -11.148438 10.09375 -10.234375 C 10.988281 -9.316406 11.4375 -8.050781 11.4375 -6.4375 L 11.4375 -4.921875 L 4.09375 -4.921875 C 4.125 -4.035156 4.382812 -3.34375 4.875 -2.84375 C 5.363281 -2.351562 6.050781 -2.109375 6.9375 -2.109375 C 7.613281 -2.109375 8.257812 -2.175781 8.875 -2.3125 C 9.488281 -2.457031 10.128906 -2.6875 10.796875 -3 L 10.796875 -0.59375 C 10.253906 -0.320312 9.671875 -0.125 9.046875 0 C 8.429688 0.132812 7.675781 0.203125 6.78125 0.203125 Z M 6.78125 0.203125 "/></g></g></g></svg>