<svg xmlns="http://www.w3.org/2000/svg" xmlns:xlink="http://www.w3.org/1999/xlink" width="236" zoomAndPan="magnify" viewBox="0 0 177 155.999997" height="208" preserveAspectRatio="xMidYMid meet" version="1.0"><path fill="#ffffff" d="M 43.917969 0.515625 C 35.941406 0.890625 30.496094 2.167969 25.734375 4.035156 C 20.800781 5.957031 16.625 8.527344 12.46875 12.703125 C 8.308594 16.878906 5.75 21.0625 3.851562 26 C 2.007812 30.777344 0.757812 36.226562 0.402344 44.207031 C 0.0507812 52.199219 -0.0273438 54.75 0.0078125 75.113281 C 0.0429688 95.46875 0.132812 98.027344 0.515625 106.023438 C 0.898438 114 2.167969 119.441406 4.035156 124.210938 C 5.957031 129.144531 8.527344 133.3125 12.703125 137.472656 C 16.878906 141.632812 21.0625 144.183594 26 146.09375 C 30.769531 147.9375 36.226562 149.195312 44.203125 149.539062 C 52.199219 149.894531 54.75 149.972656 75.105469 149.929688 C 95.46875 149.894531 98.019531 149.800781 106.015625 149.421875 C 113.996094 149.039062 119.433594 147.761719 124.203125 145.902344 C 129.136719 143.972656 133.3125 141.410156 137.464844 137.234375 C 141.621094 133.058594 144.179688 128.875 146.085938 123.933594 C 147.929688 119.167969 149.1875 113.710938 149.535156 105.742188 C 149.878906 97.742188 149.964844 95.1875 149.929688 74.832031 C 149.894531 54.476562 149.796875 51.925781 149.421875 43.925781 C 149.039062 35.941406 147.765625 30.5 145.902344 25.734375 C 143.972656 20.800781 141.410156 16.632812 137.234375 12.46875 C 133.058594 8.316406 128.875 5.75 123.933594 3.851562 C 119.167969 2.007812 113.710938 0.75 105.734375 0.402344 C 97.738281 0.0507812 95.179688 -0.0273438 74.824219 0.0078125 C 54.46875 0.0429688 51.917969 0.132812 43.917969 0.515625 M 44.796875 136.039062 C 37.488281 135.71875 33.519531 134.503906 30.867188 133.488281 C 27.363281 132.132812 24.871094 130.507812 22.234375 127.898438 C 19.605469 125.277344 17.980469 122.785156 16.609375 119.292969 C 15.585938 116.652344 14.351562 112.6875 14.003906 105.375 C 13.628906 97.476562 13.542969 95.101562 13.507812 75.085938 C 13.472656 55.074219 13.542969 52.703125 13.890625 44.796875 C 14.203125 37.488281 15.425781 33.519531 16.441406 30.875 C 17.796875 27.371094 19.414062 24.878906 22.03125 22.242188 C 24.652344 19.613281 27.144531 17.988281 30.644531 16.617188 C 33.285156 15.585938 37.25 14.355469 44.554688 14.011719 C 52.460938 13.636719 54.828125 13.558594 74.84375 13.515625 C 94.859375 13.472656 97.234375 13.542969 105.140625 13.898438 C 112.445312 14.214844 116.417969 15.425781 119.058594 16.449219 C 122.566406 17.804688 125.066406 19.414062 127.695312 22.039062 C 130.324219 24.660156 131.953125 27.144531 133.320312 30.648438 C 134.351562 33.285156 135.578125 37.257812 135.925781 44.554688 C 136.300781 52.460938 136.386719 54.835938 136.421875 74.84375 C 136.457031 94.859375 136.386719 97.234375 136.039062 105.132812 C 135.71875 112.441406 134.503906 116.417969 133.488281 119.058594 C 132.132812 122.558594 130.511719 125.058594 127.890625 127.6875 C 125.269531 130.308594 122.785156 131.941406 119.28125 133.3125 C 116.644531 134.34375 112.671875 135.574219 105.375 135.917969 C 97.46875 136.292969 95.101562 136.378906 75.078125 136.414062 C 55.066406 136.449219 52.695312 136.378906 44.789062 136.03125 M 105.910156 34.894531 C 105.917969 39.863281 109.960938 43.882812 114.917969 43.871094 C 119.886719 43.863281 123.90625 39.828125 123.898438 34.859375 C 123.894531 29.894531 119.851562 25.875 114.882812 25.878906 C 109.917969 25.886719 105.898438 29.929688 105.90625 34.890625 M 36.472656 75.042969 C 36.515625 96.300781 53.78125 113.5 75.035156 113.457031 C 96.296875 113.414062 113.5 96.152344 113.457031 74.894531 C 113.414062 53.640625 96.148438 36.4375 74.886719 36.472656 C 53.632812 36.515625 36.429688 53.78125 36.472656 75.042969 M 49.972656 75.015625 C 49.953125 61.214844 61.117188 50.003906 74.914062 49.980469 C 88.714844 49.953125 99.925781 61.117188 99.957031 74.921875 C 99.984375 88.722656 88.8125 99.933594 75.015625 99.957031 C 61.214844 99.984375 50.003906 88.8125 49.980469 75.015625 " fill-opacity="1" fill-rule="nonzero"/></svg>