<svg xmlns="http://www.w3.org/2000/svg" xmlns:xlink="http://www.w3.org/1999/xlink" width="589" zoomAndPan="magnify" viewBox="0 0 441.75 117.749996" height="157" preserveAspectRatio="xMidYMid meet" version="1.0"><defs><g/><clipPath id="2e9529c984"><path d="M 0.34375 0 L 142.542969 0 L 142.542969 116.753906 L 0.34375 116.753906 Z M 0.34375 0 " clip-rule="nonzero"/></clipPath><clipPath id="6a5685c7fd"><rect x="0" width="207" y="0" height="87"/></clipPath></defs><g clip-path="url(#2e9529c984)"><path fill="#1800ad" d="M 114.527344 99.1875 L 114.527344 99.183594 Z M 97.425781 91.199219 Z M 133.066406 82.003906 C 133.855469 82.371094 134.195312 83.308594 133.828125 84.09375 C 133.460938 84.882812 132.523438 85.222656 131.738281 84.855469 C 130.949219 84.488281 130.609375 83.550781 130.976562 82.765625 C 131.34375 81.976562 132.28125 81.636719 133.066406 82.003906 Z M 120.328125 94.414062 C 120.703125 93.605469 120.71875 92.71875 120.433594 91.941406 C 120.152344 91.164062 119.570312 90.492188 118.765625 90.117188 C 117.957031 89.738281 117.070312 89.726562 116.292969 90.007812 C 115.515625 90.292969 114.84375 90.871094 114.464844 91.679688 C 114.089844 92.488281 114.078125 93.371094 114.359375 94.152344 C 114.644531 94.929688 115.222656 95.597656 116.027344 95.976562 L 116.03125 95.976562 C 116.835938 96.351562 117.722656 96.367188 118.503906 96.082031 C 119.28125 95.800781 119.949219 95.222656 120.328125 94.414062 Z M 122.976562 96.894531 C 123.5 97.515625 123.933594 98.21875 124.28125 99.003906 C 124.875 100.335938 125.203125 101.894531 125.265625 103.671875 L 125.265625 103.980469 L 125.257812 104.160156 L 125.257812 104.195312 L 124.835938 111.042969 C 124.804688 111.546875 124.957031 112.015625 125.234375 112.378906 C 125.511719 112.742188 125.925781 113.007812 126.421875 113.109375 L 126.421875 113.113281 L 126.84375 113.199219 C 127.171875 113.265625 127.492188 113.253906 127.785156 113.171875 C 128.070312 113.089844 128.34375 112.933594 128.589844 112.699219 C 131.902344 109.609375 135.863281 101.742188 137.855469 94.222656 C 139.394531 88.402344 139.757812 82.945312 137.640625 80.519531 C 135.324219 77.859375 132.210938 76.535156 128.898438 75.539062 L 126.691406 78.664062 C 125.992188 79.65625 125.210938 80.558594 124.1875 81.144531 C 123.011719 81.816406 121.652344 82.03125 119.996094 81.453125 L 119.832031 81.382812 L 114.574219 78.929688 L 109.320312 76.476562 L 109.167969 76.398438 C 107.660156 75.503906 106.949219 74.320312 106.710938 72.984375 C 106.5 71.816406 106.691406 70.640625 107 69.476562 L 107.976562 65.785156 C 105.070312 63.867188 102.046875 62.3125 98.503906 62.242188 C 95.28125 62.179688 91.328125 65.960938 87.859375 70.875 C 87.199219 71.8125 86.5625 72.785156 85.949219 73.777344 C 85.910156 73.859375 85.859375 73.9375 85.808594 74.015625 C 82.34375 79.714844 79.84375 86.039062 79.636719 89.84375 C 79.621094 90.1875 79.671875 90.503906 79.792969 90.773438 C 79.917969 91.046875 80.113281 91.296875 80.371094 91.503906 L 80.378906 91.503906 L 80.714844 91.777344 C 81.105469 92.085938 81.578125 92.230469 82.039062 92.214844 C 82.496094 92.195312 82.953125 92.011719 83.3125 91.667969 L 88.292969 86.945312 C 88.347656 86.894531 88.410156 86.835938 88.488281 86.769531 C 88.546875 86.71875 88.617188 86.660156 88.699219 86.597656 C 89.78125 85.75 90.863281 85.113281 91.9375 84.683594 C 92.484375 84.464844 93.027344 84.300781 93.570312 84.1875 C 93.660156 83.511719 93.851562 82.84375 94.152344 82.195312 L 94.152344 82.191406 C 94.945312 80.496094 96.351562 79.28125 97.980469 78.6875 C 99.605469 78.097656 101.464844 78.128906 103.160156 78.921875 C 104.859375 79.710938 106.074219 81.117188 106.664062 82.746094 C 107.257812 84.375 107.226562 86.230469 106.433594 87.929688 C 106.382812 88.035156 106.332031 88.140625 106.277344 88.242188 L 109.496094 89.746094 L 111.113281 90.503906 C 111.160156 90.394531 111.207031 90.289062 111.257812 90.179688 C 112.046875 88.480469 113.453125 87.265625 115.082031 86.675781 C 116.710938 86.082031 118.566406 86.113281 120.265625 86.90625 C 121.960938 87.699219 123.175781 89.101562 123.769531 90.730469 C 124.359375 92.359375 124.328125 94.214844 123.535156 95.914062 C 123.375 96.261719 123.1875 96.589844 122.976562 96.894531 Z M 125.253906 74.542969 L 123.785156 76.621094 C 123.347656 77.242188 122.898438 77.789062 122.421875 78.0625 C 122.113281 78.238281 121.730469 78.289062 121.226562 78.125 L 116.074219 75.71875 L 110.933594 73.320312 C 110.472656 73.035156 110.261719 72.707031 110.199219 72.355469 C 110.101562 71.828125 110.234375 71.125 110.429688 70.382812 L 111.078125 67.9375 C 112.511719 68.953125 113.953125 69.964844 115.503906 70.871094 C 116.296875 71.339844 117.066406 71.746094 117.835938 72.097656 C 118.609375 72.457031 119.417969 72.78125 120.277344 73.085938 C 121.605469 73.550781 122.960938 73.933594 124.324219 74.296875 C 124.402344 74.324219 124.480469 74.347656 124.5625 74.363281 Z M 94.054688 87.714844 C 93.792969 87.78125 93.527344 87.867188 93.257812 87.976562 C 92.484375 88.285156 91.691406 88.757812 90.878906 89.390625 L 90.808594 89.449219 L 90.738281 89.515625 L 85.757812 94.238281 C 85.316406 94.660156 84.820312 94.992188 84.292969 95.242188 C 85.53125 96.726562 86.964844 98.085938 88.589844 99.308594 L 88.597656 99.308594 C 90.996094 101.117188 93.820312 102.640625 97.0625 103.886719 C 98.367188 103.96875 99.546875 104.539062 100.421875 105.410156 C 100.460938 105.449219 100.496094 105.492188 100.53125 105.53125 C 101.414062 106.472656 101.957031 107.730469 101.957031 109.113281 L 101.957031 112.574219 C 101.957031 113.554688 101.160156 114.351562 100.179688 114.351562 L 34.746094 114.351562 C 33.765625 114.351562 32.96875 113.554688 32.96875 112.574219 L 32.96875 109.113281 C 32.96875 107.675781 33.558594 106.367188 34.503906 105.417969 L 34.511719 105.410156 C 35.386719 104.539062 36.5625 103.96875 37.863281 103.886719 C 42.53125 102.09375 46.324219 99.726562 49.234375 96.78125 C 51.636719 94.351562 53.457031 91.515625 54.691406 88.273438 L 9.492188 88.273438 C 6.984375 88.273438 4.699219 87.242188 3.039062 85.589844 L 3.039062 85.585938 L 3.035156 85.582031 C 1.378906 83.921875 0.351562 81.636719 0.351562 79.132812 L 0.351562 9.195312 C 0.351562 6.6875 1.378906 4.402344 3.039062 2.742188 L 3.035156 2.738281 C 4.6875 1.085938 6.976562 0.0546875 9.492188 0.0546875 L 125.4375 0.0546875 C 127.949219 0.0546875 130.238281 1.085938 131.894531 2.738281 C 133.546875 4.394531 134.578125 6.679688 134.578125 9.195312 L 134.578125 73.886719 C 136.660156 74.890625 138.609375 76.230469 140.308594 78.183594 C 143.316406 81.632812 143.097656 88.285156 141.285156 95.125 C 139.144531 103.21875 134.746094 111.808594 131.007812 115.300781 C 130.34375 115.921875 129.574219 116.355469 128.746094 116.589844 C 127.925781 116.824219 127.046875 116.855469 126.148438 116.675781 L 125.726562 116.589844 L 125.726562 116.597656 C 124.367188 116.324219 123.21875 115.574219 122.425781 114.546875 C 121.636719 113.519531 121.207031 112.214844 121.292969 110.835938 L 121.714844 103.988281 L 121.71875 103.988281 L 121.722656 103.855469 L 121.722656 103.785156 C 121.675781 102.464844 121.449219 101.347656 121.042969 100.433594 C 120.835938 99.96875 120.578125 99.550781 120.273438 99.183594 C 120.089844 99.269531 119.902344 99.347656 119.710938 99.417969 C 118.085938 100.007812 116.230469 99.980469 114.53125 99.1875 L 114.527344 99.183594 C 112.832031 98.394531 111.617188 96.988281 111.027344 95.359375 C 110.890625 94.992188 110.789062 94.613281 110.722656 94.230469 L 107.996094 92.957031 L 103.671875 90.9375 C 103.332031 91.132812 102.976562 91.296875 102.609375 91.433594 C 100.980469 92.023438 99.125 91.992188 97.425781 91.203125 L 97.425781 91.199219 C 95.847656 90.464844 94.6875 89.199219 94.054688 87.714844 Z M 79.964844 95.390625 C 81.703125 97.9375 83.867188 100.1875 86.460938 102.140625 L 86.457031 102.140625 C 87.261719 102.75 88.109375 103.324219 88.996094 103.875 L 45.925781 103.875 C 48.121094 102.519531 50.066406 100.984375 51.761719 99.265625 C 54.824219 96.171875 57.054688 92.503906 58.460938 88.273438 L 76.242188 88.273438 C 76.167969 88.761719 76.117188 89.226562 76.09375 89.664062 C 76.046875 90.566406 76.203125 91.433594 76.554688 92.21875 C 76.90625 93 77.445312 93.695312 78.15625 94.265625 L 78.15625 94.269531 L 78.492188 94.539062 C 78.949219 94.90625 79.449219 95.191406 79.964844 95.390625 Z M 77.0625 84.714844 C 77.972656 81.660156 79.460938 78.160156 81.300781 74.753906 L 11.542969 74.753906 C 10.109375 74.753906 8.8125 74.167969 7.871094 73.230469 C 6.929688 72.289062 6.347656 70.992188 6.347656 69.558594 L 6.347656 11.246094 C 6.347656 9.820312 6.929688 8.523438 7.871094 7.585938 L 7.875 7.582031 L 7.871094 7.578125 C 8.8125 6.636719 10.109375 6.054688 11.542969 6.054688 L 123.382812 6.054688 C 124.808594 6.054688 126.105469 6.636719 127.046875 7.578125 L 127.058594 7.589844 C 127.996094 8.53125 128.578125 9.828125 128.578125 11.246094 L 128.578125 69.558594 C 128.578125 70.296875 128.421875 71 128.136719 71.640625 C 129.105469 71.902344 130.070312 72.175781 131.019531 72.484375 L 131.019531 9.195312 C 131.019531 7.664062 130.390625 6.265625 129.378906 5.253906 C 128.367188 4.242188 126.96875 3.613281 125.4375 3.613281 L 9.492188 3.613281 C 7.957031 3.613281 6.558594 4.242188 5.546875 5.253906 L 5.542969 5.253906 C 4.535156 6.261719 3.90625 7.65625 3.90625 9.195312 L 3.90625 79.132812 C 3.90625 80.671875 4.53125 82.066406 5.542969 83.074219 L 5.546875 83.082031 C 6.554688 84.089844 7.953125 84.714844 9.492188 84.714844 Z M 83.378906 71.195312 L 11.542969 71.195312 C 11.09375 71.195312 10.683594 71.011719 10.386719 70.714844 C 10.089844 70.417969 9.90625 70.007812 9.90625 69.558594 L 9.90625 11.246094 C 9.90625 10.792969 10.089844 10.382812 10.382812 10.089844 L 10.386719 10.09375 C 10.683594 9.796875 11.089844 9.613281 11.542969 9.613281 L 123.382812 9.613281 C 123.839844 9.613281 124.25 9.792969 124.539062 10.085938 L 124.546875 10.09375 C 124.839844 10.382812 125.019531 10.792969 125.019531 11.246094 L 125.019531 69.558594 C 125.019531 69.875 124.929688 70.171875 124.78125 70.414062 L 124.738281 70.488281 C 124.6875 70.558594 124.628906 70.628906 124.566406 70.691406 C 123.507812 70.402344 122.460938 70.09375 121.445312 69.734375 C 120.71875 69.480469 120.019531 69.199219 119.324219 68.875 C 118.621094 68.550781 117.949219 68.203125 117.296875 67.816406 C 115.789062 66.933594 114.292969 65.871094 112.800781 64.8125 C 108.570312 61.808594 104.347656 58.8125 98.570312 58.699219 C 93.996094 58.609375 89.035156 63.050781 84.957031 68.832031 C 84.417969 69.597656 83.890625 70.386719 83.378906 71.195312 Z M 96.71875 107.433594 C 97.179688 107.433594 97.601562 107.621094 97.90625 107.925781 L 97.96875 107.988281 C 98.234375 108.285156 98.398438 108.679688 98.398438 109.113281 L 98.398438 110.792969 L 36.527344 110.792969 L 36.527344 109.113281 C 36.527344 108.648438 36.714844 108.230469 37.011719 107.925781 C 37.320312 107.621094 37.742188 107.433594 38.207031 107.433594 Z M 103.222656 86.425781 L 103.222656 86.429688 C 102.847656 87.234375 102.175781 87.816406 101.398438 88.097656 C 100.621094 88.378906 99.734375 88.367188 98.929688 87.992188 L 98.925781 87.992188 C 98.121094 87.613281 97.539062 86.945312 97.257812 86.164062 C 96.972656 85.386719 96.988281 84.5 97.363281 83.695312 C 97.738281 82.886719 98.410156 82.304688 99.1875 82.023438 C 99.96875 81.742188 100.855469 81.753906 101.660156 82.128906 C 102.46875 82.507812 103.046875 83.175781 103.332031 83.957031 C 103.613281 84.734375 103.601562 85.621094 103.222656 86.425781 Z M 67.464844 77.191406 C 66.074219 77.191406 64.949219 78.316406 64.949219 79.703125 C 64.949219 81.09375 66.074219 82.21875 67.464844 82.21875 C 68.851562 82.21875 69.976562 81.09375 69.976562 79.703125 C 69.976562 78.316406 68.851562 77.191406 67.464844 77.191406 Z M 100.296875 66.703125 C 101.082031 67.070312 101.421875 68.007812 101.054688 68.796875 C 100.6875 69.582031 99.75 69.921875 98.964844 69.554688 C 98.175781 69.1875 97.835938 68.25 98.203125 67.464844 C 98.570312 66.675781 99.507812 66.335938 100.296875 66.703125 Z M 102.382812 72.445312 C 102.015625 73.230469 101.078125 73.574219 100.289062 73.203125 C 99.503906 72.835938 99.164062 71.902344 99.53125 71.113281 C 99.898438 70.324219 100.835938 69.984375 101.621094 70.351562 C 102.410156 70.71875 102.75 71.65625 102.382812 72.445312 Z M 97.40625 70.121094 C 97.039062 70.910156 96.101562 71.25 95.316406 70.882812 C 94.527344 70.515625 94.1875 69.578125 94.554688 68.789062 C 94.921875 68.003906 95.859375 67.664062 96.648438 68.03125 C 97.433594 68.398438 97.773438 69.335938 97.40625 70.121094 Z M 97.972656 71.679688 C 98.757812 72.046875 99.101562 72.984375 98.734375 73.769531 C 98.363281 74.558594 97.429688 74.898438 96.640625 74.53125 C 95.855469 74.164062 95.515625 73.226562 95.882812 72.4375 C 96.25 71.652344 97.183594 71.3125 97.972656 71.679688 Z M 135.152344 87.746094 C 134.785156 88.53125 133.851562 88.871094 133.0625 88.503906 C 132.277344 88.136719 131.933594 87.199219 132.300781 86.414062 C 132.671875 85.625 133.605469 85.285156 134.394531 85.652344 C 135.183594 86.019531 135.523438 86.957031 135.152344 87.746094 Z M 130.179688 85.421875 C 129.8125 86.210938 128.875 86.550781 128.085938 86.183594 C 127.300781 85.816406 126.960938 84.878906 127.328125 84.089844 C 127.695312 83.304688 128.632812 82.964844 129.417969 83.332031 C 130.207031 83.699219 130.546875 84.636719 130.179688 85.421875 Z M 130.746094 86.980469 C 131.53125 87.347656 131.875 88.285156 131.503906 89.070312 C 131.136719 89.859375 130.199219 90.199219 129.414062 89.832031 C 128.625 89.464844 128.285156 88.527344 128.652344 87.738281 C 129.019531 86.953125 129.957031 86.613281 130.746094 86.980469 Z M 130.746094 86.980469 " fill-opacity="1" fill-rule="evenodd"/></g><g transform="matrix(1, 0, 0, 1, 188, 15)"><g clip-path="url(#6a5685c7fd)"><g fill="#1800ad" fill-opacity="1"><g transform="translate(0.969096, 21.582921)"><g><path d="M 1.859375 -14.796875 L 6.46875 -14.796875 C 8.5625 -14.796875 10.082031 -14.492188 11.03125 -13.890625 C 11.976562 -13.296875 12.453125 -12.347656 12.453125 -11.046875 C 12.453125 -10.160156 12.242188 -9.429688 11.828125 -8.859375 C 11.410156 -8.296875 10.859375 -7.957031 10.171875 -7.84375 L 10.171875 -7.75 C 11.109375 -7.539062 11.785156 -7.148438 12.203125 -6.578125 C 12.617188 -6.003906 12.828125 -5.242188 12.828125 -4.296875 C 12.828125 -2.941406 12.335938 -1.882812 11.359375 -1.125 C 10.390625 -0.375 9.066406 0 7.390625 0 L 1.859375 0 Z M 5 -8.9375 L 6.8125 -8.9375 C 7.664062 -8.9375 8.28125 -9.066406 8.65625 -9.328125 C 9.039062 -9.585938 9.234375 -10.019531 9.234375 -10.625 C 9.234375 -11.195312 9.023438 -11.601562 8.609375 -11.84375 C 8.191406 -12.09375 7.535156 -12.21875 6.640625 -12.21875 L 5 -12.21875 Z M 5 -6.4375 L 5 -2.59375 L 7.046875 -2.59375 C 7.910156 -2.59375 8.546875 -2.753906 8.953125 -3.078125 C 9.359375 -3.410156 9.5625 -3.921875 9.5625 -4.609375 C 9.5625 -5.828125 8.6875 -6.4375 6.9375 -6.4375 Z M 5 -6.4375 "/></g></g></g><g fill="#1800ad" fill-opacity="1"><g transform="translate(14.889714, 21.582921)"><g><path d="M 8.796875 0 L 8.203125 -1.53125 L 8.125 -1.53125 C 7.601562 -0.882812 7.066406 -0.429688 6.515625 -0.171875 C 5.972656 0.078125 5.257812 0.203125 4.375 0.203125 C 3.28125 0.203125 2.421875 -0.101562 1.796875 -0.71875 C 1.179688 -1.34375 0.875 -2.226562 0.875 -3.375 C 0.875 -4.582031 1.289062 -5.46875 2.125 -6.03125 C 2.96875 -6.601562 4.234375 -6.921875 5.921875 -6.984375 L 7.890625 -7.046875 L 7.890625 -7.53125 C 7.890625 -8.675781 7.300781 -9.25 6.125 -9.25 C 5.226562 -9.25 4.164062 -8.976562 2.9375 -8.4375 L 1.921875 -10.515625 C 3.222656 -11.203125 4.664062 -11.546875 6.25 -11.546875 C 7.769531 -11.546875 8.929688 -11.210938 9.734375 -10.546875 C 10.546875 -9.890625 10.953125 -8.882812 10.953125 -7.53125 L 10.953125 0 Z M 7.890625 -5.234375 L 6.703125 -5.203125 C 5.804688 -5.171875 5.132812 -5.003906 4.6875 -4.703125 C 4.25 -4.410156 4.03125 -3.960938 4.03125 -3.359375 C 4.03125 -2.484375 4.53125 -2.046875 5.53125 -2.046875 C 6.25 -2.046875 6.820312 -2.25 7.25 -2.65625 C 7.675781 -3.070312 7.890625 -3.625 7.890625 -4.3125 Z M 7.890625 -5.234375 "/></g></g></g><g fill="#1800ad" fill-opacity="1"><g transform="translate(27.404112, 21.582921)"><g><path d="M 1.484375 -14.234375 C 1.484375 -15.234375 2.046875 -15.734375 3.171875 -15.734375 C 4.285156 -15.734375 4.84375 -15.234375 4.84375 -14.234375 C 4.84375 -13.753906 4.703125 -13.378906 4.421875 -13.109375 C 4.140625 -12.847656 3.722656 -12.71875 3.171875 -12.71875 C 2.046875 -12.71875 1.484375 -13.222656 1.484375 -14.234375 Z M 4.703125 0 L 1.625 0 L 1.625 -11.3125 L 4.703125 -11.3125 Z M 4.703125 0 "/></g></g></g><g fill="#1800ad" fill-opacity="1"><g transform="translate(33.727073, 21.582921)"><g><path d="M 3.9375 -5.78125 L 0.296875 -11.3125 L 3.796875 -11.3125 L 5.984375 -7.703125 L 8.203125 -11.3125 L 11.703125 -11.3125 L 8.015625 -5.78125 L 11.875 0 L 8.359375 0 L 5.984375 -3.875 L 3.59375 0 L 0.09375 0 Z M 3.9375 -5.78125 "/></g></g></g><g fill="#1800ad" fill-opacity="1"><g transform="translate(45.705279, 21.582921)"><g><path d="M 8.796875 0 L 8.203125 -1.53125 L 8.125 -1.53125 C 7.601562 -0.882812 7.066406 -0.429688 6.515625 -0.171875 C 5.972656 0.078125 5.257812 0.203125 4.375 0.203125 C 3.28125 0.203125 2.421875 -0.101562 1.796875 -0.71875 C 1.179688 -1.34375 0.875 -2.226562 0.875 -3.375 C 0.875 -4.582031 1.289062 -5.46875 2.125 -6.03125 C 2.96875 -6.601562 4.234375 -6.921875 5.921875 -6.984375 L 7.890625 -7.046875 L 7.890625 -7.53125 C 7.890625 -8.675781 7.300781 -9.25 6.125 -9.25 C 5.226562 -9.25 4.164062 -8.976562 2.9375 -8.4375 L 1.921875 -10.515625 C 3.222656 -11.203125 4.664062 -11.546875 6.25 -11.546875 C 7.769531 -11.546875 8.929688 -11.210938 9.734375 -10.546875 C 10.546875 -9.890625 10.953125 -8.882812 10.953125 -7.53125 L 10.953125 0 Z M 7.890625 -5.234375 L 6.703125 -5.203125 C 5.804688 -5.171875 5.132812 -5.003906 4.6875 -4.703125 C 4.25 -4.410156 4.03125 -3.960938 4.03125 -3.359375 C 4.03125 -2.484375 4.53125 -2.046875 5.53125 -2.046875 C 6.25 -2.046875 6.820312 -2.25 7.25 -2.65625 C 7.675781 -3.070312 7.890625 -3.625 7.890625 -4.3125 Z M 7.890625 -5.234375 "/></g></g></g><g fill="#1800ad" fill-opacity="1"><g transform="translate(58.219677, 21.582921)"><g/></g></g><g fill="#1800ad" fill-opacity="1"><g transform="translate(63.601777, 21.582921)"><g><path d="M 1.859375 0 L 1.859375 -14.796875 L 5 -14.796875 L 5 -2.59375 L 11 -2.59375 L 11 0 Z M 1.859375 0 "/></g></g></g><g fill="#1800ad" fill-opacity="1"><g transform="translate(75.306837, 21.582921)"><g><path d="M 8.796875 0 L 8.203125 -1.53125 L 8.125 -1.53125 C 7.601562 -0.882812 7.066406 -0.429688 6.515625 -0.171875 C 5.972656 0.078125 5.257812 0.203125 4.375 0.203125 C 3.28125 0.203125 2.421875 -0.101562 1.796875 -0.71875 C 1.179688 -1.34375 0.875 -2.226562 0.875 -3.375 C 0.875 -4.582031 1.289062 -5.46875 2.125 -6.03125 C 2.96875 -6.601562 4.234375 -6.921875 5.921875 -6.984375 L 7.890625 -7.046875 L 7.890625 -7.53125 C 7.890625 -8.675781 7.300781 -9.25 6.125 -9.25 C 5.226562 -9.25 4.164062 -8.976562 2.9375 -8.4375 L 1.921875 -10.515625 C 3.222656 -11.203125 4.664062 -11.546875 6.25 -11.546875 C 7.769531 -11.546875 8.929688 -11.210938 9.734375 -10.546875 C 10.546875 -9.890625 10.953125 -8.882812 10.953125 -7.53125 L 10.953125 0 Z M 7.890625 -5.234375 L 6.703125 -5.203125 C 5.804688 -5.171875 5.132812 -5.003906 4.6875 -4.703125 C 4.25 -4.410156 4.03125 -3.960938 4.03125 -3.359375 C 4.03125 -2.484375 4.53125 -2.046875 5.53125 -2.046875 C 6.25 -2.046875 6.820312 -2.25 7.25 -2.65625 C 7.675781 -3.070312 7.890625 -3.625 7.890625 -4.3125 Z M 7.890625 -5.234375 "/></g></g></g><g fill="#1800ad" fill-opacity="1"><g transform="translate(87.821235, 21.582921)"><g><path d="M 6.390625 -2.25 C 6.921875 -2.25 7.566406 -2.367188 8.328125 -2.609375 L 8.328125 -0.3125 C 7.554688 0.03125 6.613281 0.203125 5.5 0.203125 C 4.257812 0.203125 3.359375 -0.109375 2.796875 -0.734375 C 2.234375 -1.359375 1.953125 -2.296875 1.953125 -3.546875 L 1.953125 -9 L 0.46875 -9 L 0.46875 -10.296875 L 2.171875 -11.328125 L 3.0625 -13.71875 L 5.03125 -13.71875 L 5.03125 -11.3125 L 8.203125 -11.3125 L 8.203125 -9 L 5.03125 -9 L 5.03125 -3.546875 C 5.03125 -3.109375 5.15625 -2.78125 5.40625 -2.5625 C 5.65625 -2.351562 5.984375 -2.25 6.390625 -2.25 Z M 6.390625 -2.25 "/></g></g></g><g fill="#1800ad" fill-opacity="1"><g transform="translate(96.815012, 21.582921)"><g><path d="M 6.296875 -9.328125 C 5.648438 -9.328125 5.140625 -9.117188 4.765625 -8.703125 C 4.390625 -8.285156 4.175781 -7.695312 4.125 -6.9375 L 8.453125 -6.9375 C 8.441406 -7.695312 8.242188 -8.285156 7.859375 -8.703125 C 7.472656 -9.117188 6.953125 -9.328125 6.296875 -9.328125 Z M 6.734375 0.203125 C 4.910156 0.203125 3.488281 -0.296875 2.46875 -1.296875 C 1.445312 -2.304688 0.9375 -3.734375 0.9375 -5.578125 C 0.9375 -7.472656 1.410156 -8.9375 2.359375 -9.96875 C 3.304688 -11 4.613281 -11.515625 6.28125 -11.515625 C 7.882812 -11.515625 9.128906 -11.0625 10.015625 -10.15625 C 10.898438 -9.25 11.34375 -7.992188 11.34375 -6.390625 L 11.34375 -4.890625 L 4.0625 -4.890625 C 4.09375 -4.015625 4.347656 -3.328125 4.828125 -2.828125 C 5.316406 -2.335938 6 -2.09375 6.875 -2.09375 C 7.5625 -2.09375 8.207031 -2.160156 8.8125 -2.296875 C 9.414062 -2.441406 10.050781 -2.671875 10.71875 -2.984375 L 10.71875 -0.59375 C 10.175781 -0.320312 9.597656 -0.125 8.984375 0 C 8.367188 0.132812 7.617188 0.203125 6.734375 0.203125 Z M 8.703125 -12.546875 C 7.640625 -13.179688 6.847656 -13.773438 6.328125 -14.328125 C 5.804688 -13.785156 5.035156 -13.191406 4.015625 -12.546875 L 1.953125 -12.546875 L 1.953125 -12.828125 C 3.234375 -14.097656 4.097656 -15.113281 4.546875 -15.875 L 8.15625 -15.875 C 8.363281 -15.519531 8.722656 -15.039062 9.234375 -14.4375 C 9.753906 -13.832031 10.257812 -13.296875 10.75 -12.828125 L 10.75 -12.546875 Z M 8.703125 -12.546875 "/></g></g></g><g fill="#1800ad" fill-opacity="1"><g transform="translate(109.056253, 21.582921)"><g><path d="M 12.0625 0 L 8.96875 0 L 8.96875 -6.609375 C 8.96875 -7.421875 8.820312 -8.03125 8.53125 -8.4375 C 8.25 -8.84375 7.789062 -9.046875 7.15625 -9.046875 C 6.289062 -9.046875 5.664062 -8.757812 5.28125 -8.1875 C 4.894531 -7.613281 4.703125 -6.660156 4.703125 -5.328125 L 4.703125 0 L 1.625 0 L 1.625 -11.3125 L 3.96875 -11.3125 L 4.390625 -9.859375 L 4.5625 -9.859375 C 4.90625 -10.410156 5.378906 -10.820312 5.984375 -11.09375 C 6.585938 -11.375 7.273438 -11.515625 8.046875 -11.515625 C 9.359375 -11.515625 10.351562 -11.160156 11.03125 -10.453125 C 11.71875 -9.742188 12.0625 -8.71875 12.0625 -7.375 Z M 12.0625 0 "/></g></g></g><g fill="#1800ad" fill-opacity="1"><g transform="translate(122.67337, 21.582921)"><g><path d="M 6.21875 0.203125 C 2.695312 0.203125 0.9375 -1.726562 0.9375 -5.59375 C 0.9375 -7.519531 1.410156 -8.988281 2.359375 -10 C 3.316406 -11.007812 4.691406 -11.515625 6.484375 -11.515625 C 7.796875 -11.515625 8.96875 -11.257812 10 -10.75 L 9.09375 -8.359375 C 8.601562 -8.554688 8.148438 -8.71875 7.734375 -8.84375 C 7.316406 -8.96875 6.898438 -9.03125 6.484375 -9.03125 C 4.878906 -9.03125 4.078125 -7.890625 4.078125 -5.609375 C 4.078125 -3.398438 4.878906 -2.296875 6.484375 -2.296875 C 7.078125 -2.296875 7.625 -2.375 8.125 -2.53125 C 8.632812 -2.6875 9.144531 -2.9375 9.65625 -3.28125 L 9.65625 -0.640625 C 9.15625 -0.316406 8.648438 -0.0976562 8.140625 0.015625 C 7.628906 0.140625 6.988281 0.203125 6.21875 0.203125 Z M 6.21875 0.203125 "/></g></g></g><g fill="#1800ad" fill-opacity="1"><g transform="translate(133.32629, 21.582921)"><g><path d="M 1.484375 -14.234375 C 1.484375 -15.234375 2.046875 -15.734375 3.171875 -15.734375 C 4.285156 -15.734375 4.84375 -15.234375 4.84375 -14.234375 C 4.84375 -13.753906 4.703125 -13.378906 4.421875 -13.109375 C 4.140625 -12.847656 3.722656 -12.71875 3.171875 -12.71875 C 2.046875 -12.71875 1.484375 -13.222656 1.484375 -14.234375 Z M 4.703125 0 L 1.625 0 L 1.625 -11.3125 L 4.703125 -11.3125 Z M 4.703125 0 "/></g></g></g><g fill="#1800ad" fill-opacity="1"><g transform="translate(139.649251, 21.582921)"><g><path d="M 8.796875 0 L 8.203125 -1.53125 L 8.125 -1.53125 C 7.601562 -0.882812 7.066406 -0.429688 6.515625 -0.171875 C 5.972656 0.078125 5.257812 0.203125 4.375 0.203125 C 3.28125 0.203125 2.421875 -0.101562 1.796875 -0.71875 C 1.179688 -1.34375 0.875 -2.226562 0.875 -3.375 C 0.875 -4.582031 1.289062 -5.46875 2.125 -6.03125 C 2.96875 -6.601562 4.234375 -6.921875 5.921875 -6.984375 L 7.890625 -7.046875 L 7.890625 -7.53125 C 7.890625 -8.675781 7.300781 -9.25 6.125 -9.25 C 5.226562 -9.25 4.164062 -8.976562 2.9375 -8.4375 L 1.921875 -10.515625 C 3.222656 -11.203125 4.664062 -11.546875 6.25 -11.546875 C 7.769531 -11.546875 8.929688 -11.210938 9.734375 -10.546875 C 10.546875 -9.890625 10.953125 -8.882812 10.953125 -7.53125 L 10.953125 0 Z M 7.890625 -5.234375 L 6.703125 -5.203125 C 5.804688 -5.171875 5.132812 -5.003906 4.6875 -4.703125 C 4.25 -4.410156 4.03125 -3.960938 4.03125 -3.359375 C 4.03125 -2.484375 4.53125 -2.046875 5.53125 -2.046875 C 6.25 -2.046875 6.820312 -2.25 7.25 -2.65625 C 7.675781 -3.070312 7.890625 -3.625 7.890625 -4.3125 Z M 7.890625 -5.234375 "/></g></g></g><g fill="#1800ad" fill-opacity="1"><g transform="translate(152.163649, 21.582921)"><g/></g></g><g fill="#1800ad" fill-opacity="1"><g transform="translate(157.545748, 21.582921)"><g><path d="M 7.828125 0.203125 C 6.503906 0.203125 5.460938 -0.28125 4.703125 -1.25 L 4.546875 -1.25 C 4.648438 -0.300781 4.703125 0.242188 4.703125 0.390625 L 4.703125 4.984375 L 1.625 4.984375 L 1.625 -11.3125 L 4.125 -11.3125 L 4.5625 -9.84375 L 4.703125 -9.84375 C 5.421875 -10.957031 6.488281 -11.515625 7.90625 -11.515625 C 9.25 -11.515625 10.296875 -11 11.046875 -9.96875 C 11.804688 -8.9375 12.1875 -7.503906 12.1875 -5.671875 C 12.1875 -4.460938 12.007812 -3.410156 11.65625 -2.515625 C 11.300781 -1.628906 10.796875 -0.953125 10.140625 -0.484375 C 9.484375 -0.0234375 8.710938 0.203125 7.828125 0.203125 Z M 6.921875 -9.046875 C 6.160156 -9.046875 5.601562 -8.8125 5.25 -8.34375 C 4.894531 -7.875 4.710938 -7.101562 4.703125 -6.03125 L 4.703125 -5.703125 C 4.703125 -4.484375 4.878906 -3.609375 5.234375 -3.078125 C 5.597656 -2.554688 6.171875 -2.296875 6.953125 -2.296875 C 8.335938 -2.296875 9.03125 -3.4375 9.03125 -5.71875 C 9.03125 -6.832031 8.859375 -7.664062 8.515625 -8.21875 C 8.179688 -8.769531 7.648438 -9.046875 6.921875 -9.046875 Z M 6.921875 -9.046875 "/></g></g></g><g fill="#1800ad" fill-opacity="1"><g transform="translate(170.657028, 21.582921)"><g><path d="M 8.796875 0 L 8.203125 -1.53125 L 8.125 -1.53125 C 7.601562 -0.882812 7.066406 -0.429688 6.515625 -0.171875 C 5.972656 0.078125 5.257812 0.203125 4.375 0.203125 C 3.28125 0.203125 2.421875 -0.101562 1.796875 -0.71875 C 1.179688 -1.34375 0.875 -2.226562 0.875 -3.375 C 0.875 -4.582031 1.289062 -5.46875 2.125 -6.03125 C 2.96875 -6.601562 4.234375 -6.921875 5.921875 -6.984375 L 7.890625 -7.046875 L 7.890625 -7.53125 C 7.890625 -8.675781 7.300781 -9.25 6.125 -9.25 C 5.226562 -9.25 4.164062 -8.976562 2.9375 -8.4375 L 1.921875 -10.515625 C 3.222656 -11.203125 4.664062 -11.546875 6.25 -11.546875 C 7.769531 -11.546875 8.929688 -11.210938 9.734375 -10.546875 C 10.546875 -9.890625 10.953125 -8.882812 10.953125 -7.53125 L 10.953125 0 Z M 7.890625 -5.234375 L 6.703125 -5.203125 C 5.804688 -5.171875 5.132812 -5.003906 4.6875 -4.703125 C 4.25 -4.410156 4.03125 -3.960938 4.03125 -3.359375 C 4.03125 -2.484375 4.53125 -2.046875 5.53125 -2.046875 C 6.25 -2.046875 6.820312 -2.25 7.25 -2.65625 C 7.675781 -3.070312 7.890625 -3.625 7.890625 -4.3125 Z M 7.890625 -5.234375 "/></g></g></g><g fill="#1800ad" fill-opacity="1"><g transform="translate(183.171426, 21.582921)"><g><path d="M 7.9375 -11.515625 C 8.351562 -11.515625 8.695312 -11.488281 8.96875 -11.4375 L 8.734375 -8.53125 C 8.484375 -8.601562 8.179688 -8.640625 7.828125 -8.640625 C 6.847656 -8.640625 6.082031 -8.382812 5.53125 -7.875 C 4.976562 -7.375 4.703125 -6.664062 4.703125 -5.75 L 4.703125 0 L 1.625 0 L 1.625 -11.3125 L 3.953125 -11.3125 L 4.40625 -9.40625 L 4.5625 -9.40625 C 4.914062 -10.039062 5.390625 -10.550781 5.984375 -10.9375 C 6.578125 -11.320312 7.226562 -11.515625 7.9375 -11.515625 Z M 7.9375 -11.515625 "/></g></g></g><g fill="#1800ad" fill-opacity="1"><g transform="translate(192.579995, 21.582921)"><g><path d="M 8.796875 0 L 8.203125 -1.53125 L 8.125 -1.53125 C 7.601562 -0.882812 7.066406 -0.429688 6.515625 -0.171875 C 5.972656 0.078125 5.257812 0.203125 4.375 0.203125 C 3.28125 0.203125 2.421875 -0.101562 1.796875 -0.71875 C 1.179688 -1.34375 0.875 -2.226562 0.875 -3.375 C 0.875 -4.582031 1.289062 -5.46875 2.125 -6.03125 C 2.96875 -6.601562 4.234375 -6.921875 5.921875 -6.984375 L 7.890625 -7.046875 L 7.890625 -7.53125 C 7.890625 -8.675781 7.300781 -9.25 6.125 -9.25 C 5.226562 -9.25 4.164062 -8.976562 2.9375 -8.4375 L 1.921875 -10.515625 C 3.222656 -11.203125 4.664062 -11.546875 6.25 -11.546875 C 7.769531 -11.546875 8.929688 -11.210938 9.734375 -10.546875 C 10.546875 -9.890625 10.953125 -8.882812 10.953125 -7.53125 L 10.953125 0 Z M 7.890625 -5.234375 L 6.703125 -5.203125 C 5.804688 -5.171875 5.132812 -5.003906 4.6875 -4.703125 C 4.25 -4.410156 4.03125 -3.960938 4.03125 -3.359375 C 4.03125 -2.484375 4.53125 -2.046875 5.53125 -2.046875 C 6.25 -2.046875 6.820312 -2.25 7.25 -2.65625 C 7.675781 -3.070312 7.890625 -3.625 7.890625 -4.3125 Z M 7.890625 -5.234375 "/></g></g></g><g fill="#1800ad" fill-opacity="1"><g transform="translate(5.839406, 50.457724)"><g><path d="M 0.3125 4.34375 C -0.394531 4.34375 -1.007812 4.269531 -1.53125 4.125 L -1.53125 1.515625 C -1 1.648438 -0.507812 1.71875 -0.0625 1.71875 C 0.625 1.71875 1.113281 1.503906 1.40625 1.078125 C 1.707031 0.648438 1.859375 -0.0195312 1.859375 -0.9375 L 1.859375 -14.796875 L 5 -14.796875 L 5 -0.953125 C 5 0.773438 4.601562 2.085938 3.8125 2.984375 C 3.019531 3.890625 1.851562 4.34375 0.3125 4.34375 Z M 0.3125 4.34375 "/></g></g></g><g fill="#1800ad" fill-opacity="1"><g transform="translate(12.698547, 50.457724)"><g><path d="M 4.078125 -5.671875 C 4.078125 -4.554688 4.257812 -3.710938 4.625 -3.140625 C 5 -2.566406 5.597656 -2.28125 6.421875 -2.28125 C 7.242188 -2.28125 7.832031 -2.5625 8.1875 -3.125 C 8.550781 -3.695312 8.734375 -4.546875 8.734375 -5.671875 C 8.734375 -6.796875 8.550781 -7.632812 8.1875 -8.1875 C 7.820312 -8.75 7.226562 -9.03125 6.40625 -9.03125 C 5.582031 -9.03125 4.988281 -8.75 4.625 -8.1875 C 4.257812 -7.632812 4.078125 -6.796875 4.078125 -5.671875 Z M 11.890625 -5.671875 C 11.890625 -3.828125 11.40625 -2.382812 10.4375 -1.34375 C 9.46875 -0.3125 8.117188 0.203125 6.390625 0.203125 C 5.296875 0.203125 4.332031 -0.03125 3.5 -0.5 C 2.675781 -0.976562 2.039062 -1.660156 1.59375 -2.546875 C 1.15625 -3.441406 0.9375 -4.484375 0.9375 -5.671875 C 0.9375 -7.523438 1.414062 -8.960938 2.375 -9.984375 C 3.34375 -11.003906 4.695312 -11.515625 6.4375 -11.515625 C 7.53125 -11.515625 8.488281 -11.28125 9.3125 -10.8125 C 10.144531 -10.34375 10.78125 -9.664062 11.21875 -8.78125 C 11.664062 -7.894531 11.890625 -6.859375 11.890625 -5.671875 Z M 11.890625 -5.671875 "/></g></g></g><g fill="#1800ad" fill-opacity="1"><g transform="translate(25.526558, 50.457724)"><g><path d="M 11.46875 -11.3125 L 11.46875 -9.75 L 9.6875 -9.28125 C 10.007812 -8.78125 10.171875 -8.21875 10.171875 -7.59375 C 10.171875 -6.375 9.75 -5.425781 8.90625 -4.75 C 8.0625 -4.070312 6.882812 -3.734375 5.375 -3.734375 L 4.828125 -3.765625 L 4.375 -3.8125 C 4.050781 -3.570312 3.890625 -3.300781 3.890625 -3 C 3.890625 -2.5625 4.457031 -2.34375 5.59375 -2.34375 L 7.515625 -2.34375 C 8.753906 -2.34375 9.695312 -2.070312 10.34375 -1.53125 C 11 -1 11.328125 -0.21875 11.328125 0.8125 C 11.328125 2.132812 10.773438 3.160156 9.671875 3.890625 C 8.566406 4.617188 6.984375 4.984375 4.921875 4.984375 C 3.347656 4.984375 2.144531 4.707031 1.3125 4.15625 C 0.476562 3.601562 0.0625 2.832031 0.0625 1.84375 C 0.0625 1.15625 0.269531 0.582031 0.6875 0.125 C 1.113281 -0.332031 1.738281 -0.65625 2.5625 -0.84375 C 2.25 -0.976562 1.972656 -1.195312 1.734375 -1.5 C 1.503906 -1.8125 1.390625 -2.140625 1.390625 -2.484375 C 1.390625 -2.921875 1.515625 -3.28125 1.765625 -3.5625 C 2.015625 -3.851562 2.375 -4.132812 2.84375 -4.40625 C 2.25 -4.664062 1.773438 -5.078125 1.421875 -5.640625 C 1.078125 -6.210938 0.90625 -6.878906 0.90625 -7.640625 C 0.90625 -8.878906 1.304688 -9.832031 2.109375 -10.5 C 2.910156 -11.175781 4.054688 -11.515625 5.546875 -11.515625 C 5.867188 -11.515625 6.242188 -11.484375 6.671875 -11.421875 C 7.109375 -11.367188 7.390625 -11.332031 7.515625 -11.3125 Z M 2.734375 1.59375 C 2.734375 2.019531 2.9375 2.351562 3.34375 2.59375 C 3.75 2.84375 4.320312 2.96875 5.0625 2.96875 C 6.164062 2.96875 7.03125 2.8125 7.65625 2.5 C 8.28125 2.195312 8.59375 1.785156 8.59375 1.265625 C 8.59375 0.835938 8.40625 0.539062 8.03125 0.375 C 7.664062 0.21875 7.097656 0.140625 6.328125 0.140625 L 4.71875 0.140625 C 4.15625 0.140625 3.679688 0.269531 3.296875 0.53125 C 2.921875 0.800781 2.734375 1.15625 2.734375 1.59375 Z M 3.859375 -7.609375 C 3.859375 -6.992188 3.992188 -6.503906 4.265625 -6.140625 C 4.546875 -5.785156 4.972656 -5.609375 5.546875 -5.609375 C 6.128906 -5.609375 6.554688 -5.785156 6.828125 -6.140625 C 7.097656 -6.503906 7.234375 -6.992188 7.234375 -7.609375 C 7.234375 -8.972656 6.671875 -9.65625 5.546875 -9.65625 C 4.421875 -9.65625 3.859375 -8.972656 3.859375 -7.609375 Z M 3.859375 -7.609375 "/></g></g></g><g fill="#1800ad" fill-opacity="1"><g transform="translate(37.231618, 50.457724)"><g><path d="M 4.078125 -5.671875 C 4.078125 -4.554688 4.257812 -3.710938 4.625 -3.140625 C 5 -2.566406 5.597656 -2.28125 6.421875 -2.28125 C 7.242188 -2.28125 7.832031 -2.5625 8.1875 -3.125 C 8.550781 -3.695312 8.734375 -4.546875 8.734375 -5.671875 C 8.734375 -6.796875 8.550781 -7.632812 8.1875 -8.1875 C 7.820312 -8.75 7.226562 -9.03125 6.40625 -9.03125 C 5.582031 -9.03125 4.988281 -8.75 4.625 -8.1875 C 4.257812 -7.632812 4.078125 -6.796875 4.078125 -5.671875 Z M 11.890625 -5.671875 C 11.890625 -3.828125 11.40625 -2.382812 10.4375 -1.34375 C 9.46875 -0.3125 8.117188 0.203125 6.390625 0.203125 C 5.296875 0.203125 4.332031 -0.03125 3.5 -0.5 C 2.675781 -0.976562 2.039062 -1.660156 1.59375 -2.546875 C 1.15625 -3.441406 0.9375 -4.484375 0.9375 -5.671875 C 0.9375 -7.523438 1.414062 -8.960938 2.375 -9.984375 C 3.34375 -11.003906 4.695312 -11.515625 6.4375 -11.515625 C 7.53125 -11.515625 8.488281 -11.28125 9.3125 -10.8125 C 10.144531 -10.34375 10.78125 -9.664062 11.21875 -8.78125 C 11.664062 -7.894531 11.890625 -6.859375 11.890625 -5.671875 Z M 11.890625 -5.671875 "/></g></g></g><g fill="#1800ad" fill-opacity="1"><g transform="translate(50.05963, 50.457724)"><g><path d="M 9.515625 -3.359375 C 9.515625 -2.203125 9.109375 -1.316406 8.296875 -0.703125 C 7.492188 -0.0976562 6.289062 0.203125 4.6875 0.203125 C 3.863281 0.203125 3.160156 0.144531 2.578125 0.03125 C 1.992188 -0.0703125 1.453125 -0.234375 0.953125 -0.453125 L 0.953125 -3 C 1.523438 -2.726562 2.171875 -2.5 2.890625 -2.3125 C 3.609375 -2.132812 4.238281 -2.046875 4.78125 -2.046875 C 5.90625 -2.046875 6.46875 -2.375 6.46875 -3.03125 C 6.46875 -3.269531 6.390625 -3.460938 6.234375 -3.609375 C 6.085938 -3.765625 5.832031 -3.9375 5.46875 -4.125 C 5.101562 -4.320312 4.617188 -4.550781 4.015625 -4.8125 C 3.148438 -5.175781 2.507812 -5.507812 2.09375 -5.8125 C 1.6875 -6.125 1.390625 -6.476562 1.203125 -6.875 C 1.023438 -7.28125 0.9375 -7.773438 0.9375 -8.359375 C 0.9375 -9.367188 1.320312 -10.144531 2.09375 -10.6875 C 2.875 -11.238281 3.976562 -11.515625 5.40625 -11.515625 C 6.769531 -11.515625 8.097656 -11.21875 9.390625 -10.625 L 8.453125 -8.40625 C 7.890625 -8.644531 7.359375 -8.84375 6.859375 -9 C 6.367188 -9.15625 5.867188 -9.234375 5.359375 -9.234375 C 4.453125 -9.234375 4 -8.988281 4 -8.5 C 4 -8.21875 4.144531 -7.972656 4.4375 -7.765625 C 4.726562 -7.566406 5.367188 -7.269531 6.359375 -6.875 C 7.242188 -6.519531 7.890625 -6.1875 8.296875 -5.875 C 8.710938 -5.5625 9.019531 -5.203125 9.21875 -4.796875 C 9.414062 -4.398438 9.515625 -3.921875 9.515625 -3.359375 Z M 9.515625 -3.359375 "/></g></g></g><g fill="#1800ad" fill-opacity="1"><g transform="translate(60.358459, 50.457724)"><g/></g></g><g fill="#1800ad" fill-opacity="1"><g transform="translate(65.740558, 50.457724)"><g><path d="M 6.296875 -9.328125 C 5.648438 -9.328125 5.140625 -9.117188 4.765625 -8.703125 C 4.390625 -8.285156 4.175781 -7.695312 4.125 -6.9375 L 8.453125 -6.9375 C 8.441406 -7.695312 8.242188 -8.285156 7.859375 -8.703125 C 7.472656 -9.117188 6.953125 -9.328125 6.296875 -9.328125 Z M 6.734375 0.203125 C 4.910156 0.203125 3.488281 -0.296875 2.46875 -1.296875 C 1.445312 -2.304688 0.9375 -3.734375 0.9375 -5.578125 C 0.9375 -7.472656 1.410156 -8.9375 2.359375 -9.96875 C 3.304688 -11 4.613281 -11.515625 6.28125 -11.515625 C 7.882812 -11.515625 9.128906 -11.0625 10.015625 -10.15625 C 10.898438 -9.25 11.34375 -7.992188 11.34375 -6.390625 L 11.34375 -4.890625 L 4.0625 -4.890625 C 4.09375 -4.015625 4.347656 -3.328125 4.828125 -2.828125 C 5.316406 -2.335938 6 -2.09375 6.875 -2.09375 C 7.5625 -2.09375 8.207031 -2.160156 8.8125 -2.296875 C 9.414062 -2.441406 10.050781 -2.671875 10.71875 -2.984375 L 10.71875 -0.59375 C 10.175781 -0.320312 9.597656 -0.125 8.984375 0 C 8.367188 0.132812 7.617188 0.203125 6.734375 0.203125 Z M 6.734375 0.203125 "/></g></g></g><g fill="#1800ad" fill-opacity="1"><g transform="translate(77.981799, 50.457724)"><g/></g></g><g fill="#1800ad" fill-opacity="1"><g transform="translate(83.363899, 50.457724)"><g><path d="M 10.59375 -4.109375 C 10.59375 -2.773438 10.109375 -1.722656 9.140625 -0.953125 C 8.179688 -0.179688 6.847656 0.203125 5.140625 0.203125 C 3.554688 0.203125 2.160156 -0.09375 0.953125 -0.6875 L 0.953125 -3.59375 C 1.953125 -3.15625 2.796875 -2.84375 3.484375 -2.65625 C 4.171875 -2.476562 4.800781 -2.390625 5.375 -2.390625 C 6.0625 -2.390625 6.585938 -2.519531 6.953125 -2.78125 C 7.328125 -3.039062 7.515625 -3.429688 7.515625 -3.953125 C 7.515625 -4.242188 7.429688 -4.5 7.265625 -4.71875 C 7.109375 -4.945312 6.875 -5.164062 6.5625 -5.375 C 6.25 -5.59375 5.609375 -5.929688 4.640625 -6.390625 C 3.734375 -6.804688 3.054688 -7.207031 2.609375 -7.59375 C 2.160156 -7.988281 1.800781 -8.445312 1.53125 -8.96875 C 1.257812 -9.488281 1.125 -10.097656 1.125 -10.796875 C 1.125 -12.097656 1.566406 -13.125 2.453125 -13.875 C 3.335938 -14.625 4.5625 -15 6.125 -15 C 6.894531 -15 7.628906 -14.90625 8.328125 -14.71875 C 9.023438 -14.539062 9.753906 -14.285156 10.515625 -13.953125 L 9.515625 -11.515625 C 8.722656 -11.847656 8.066406 -12.078125 7.546875 -12.203125 C 7.035156 -12.328125 6.53125 -12.390625 6.03125 -12.390625 C 5.4375 -12.390625 4.976562 -12.25 4.65625 -11.96875 C 4.34375 -11.695312 4.1875 -11.335938 4.1875 -10.890625 C 4.1875 -10.617188 4.25 -10.378906 4.375 -10.171875 C 4.507812 -9.960938 4.710938 -9.757812 4.984375 -9.5625 C 5.265625 -9.375 5.929688 -9.03125 6.984375 -8.53125 C 8.359375 -7.875 9.300781 -7.210938 9.8125 -6.546875 C 10.332031 -5.878906 10.59375 -5.066406 10.59375 -4.109375 Z M 10.59375 -4.109375 "/></g></g></g><g fill="#1800ad" fill-opacity="1"><g transform="translate(94.775568, 50.457724)"><g><path d="M 6.390625 -2.25 C 6.921875 -2.25 7.566406 -2.367188 8.328125 -2.609375 L 8.328125 -0.3125 C 7.554688 0.03125 6.613281 0.203125 5.5 0.203125 C 4.257812 0.203125 3.359375 -0.109375 2.796875 -0.734375 C 2.234375 -1.359375 1.953125 -2.296875 1.953125 -3.546875 L 1.953125 -9 L 0.46875 -9 L 0.46875 -10.296875 L 2.171875 -11.328125 L 3.0625 -13.71875 L 5.03125 -13.71875 L 5.03125 -11.3125 L 8.203125 -11.3125 L 8.203125 -9 L 5.03125 -9 L 5.03125 -3.546875 C 5.03125 -3.109375 5.15625 -2.78125 5.40625 -2.5625 C 5.65625 -2.351562 5.984375 -2.25 6.390625 -2.25 Z M 6.390625 -2.25 "/></g></g></g><g fill="#1800ad" fill-opacity="1"><g transform="translate(103.769345, 50.457724)"><g><path d="M 7.9375 -11.515625 C 8.351562 -11.515625 8.695312 -11.488281 8.96875 -11.4375 L 8.734375 -8.53125 C 8.484375 -8.601562 8.179688 -8.640625 7.828125 -8.640625 C 6.847656 -8.640625 6.082031 -8.382812 5.53125 -7.875 C 4.976562 -7.375 4.703125 -6.664062 4.703125 -5.75 L 4.703125 0 L 1.625 0 L 1.625 -11.3125 L 3.953125 -11.3125 L 4.40625 -9.40625 L 4.5625 -9.40625 C 4.914062 -10.039062 5.390625 -10.550781 5.984375 -10.9375 C 6.578125 -11.320312 7.226562 -11.515625 7.9375 -11.515625 Z M 7.9375 -11.515625 "/></g></g></g><g fill="#1800ad" fill-opacity="1"><g transform="translate(113.177902, 50.457724)"><g><path d="M 6.296875 -9.328125 C 5.648438 -9.328125 5.140625 -9.117188 4.765625 -8.703125 C 4.390625 -8.285156 4.175781 -7.695312 4.125 -6.9375 L 8.453125 -6.9375 C 8.441406 -7.695312 8.242188 -8.285156 7.859375 -8.703125 C 7.472656 -9.117188 6.953125 -9.328125 6.296875 -9.328125 Z M 6.734375 0.203125 C 4.910156 0.203125 3.488281 -0.296875 2.46875 -1.296875 C 1.445312 -2.304688 0.9375 -3.734375 0.9375 -5.578125 C 0.9375 -7.472656 1.410156 -8.9375 2.359375 -9.96875 C 3.304688 -11 4.613281 -11.515625 6.28125 -11.515625 C 7.882812 -11.515625 9.128906 -11.0625 10.015625 -10.15625 C 10.898438 -9.25 11.34375 -7.992188 11.34375 -6.390625 L 11.34375 -4.890625 L 4.0625 -4.890625 C 4.09375 -4.015625 4.347656 -3.328125 4.828125 -2.828125 C 5.316406 -2.335938 6 -2.09375 6.875 -2.09375 C 7.5625 -2.09375 8.207031 -2.160156 8.8125 -2.296875 C 9.414062 -2.441406 10.050781 -2.671875 10.71875 -2.984375 L 10.71875 -0.59375 C 10.175781 -0.320312 9.597656 -0.125 8.984375 0 C 8.367188 0.132812 7.617188 0.203125 6.734375 0.203125 Z M 6.734375 0.203125 "/></g></g></g><g fill="#1800ad" fill-opacity="1"><g transform="translate(125.419143, 50.457724)"><g><path d="M 8.796875 0 L 8.203125 -1.53125 L 8.125 -1.53125 C 7.601562 -0.882812 7.066406 -0.429688 6.515625 -0.171875 C 5.972656 0.078125 5.257812 0.203125 4.375 0.203125 C 3.28125 0.203125 2.421875 -0.101562 1.796875 -0.71875 C 1.179688 -1.34375 0.875 -2.226562 0.875 -3.375 C 0.875 -4.582031 1.289062 -5.46875 2.125 -6.03125 C 2.96875 -6.601562 4.234375 -6.921875 5.921875 -6.984375 L 7.890625 -7.046875 L 7.890625 -7.53125 C 7.890625 -8.675781 7.300781 -9.25 6.125 -9.25 C 5.226562 -9.25 4.164062 -8.976562 2.9375 -8.4375 L 1.921875 -10.515625 C 3.222656 -11.203125 4.664062 -11.546875 6.25 -11.546875 C 7.769531 -11.546875 8.929688 -11.210938 9.734375 -10.546875 C 10.546875 -9.890625 10.953125 -8.882812 10.953125 -7.53125 L 10.953125 0 Z M 7.890625 -5.234375 L 6.703125 -5.203125 C 5.804688 -5.171875 5.132812 -5.003906 4.6875 -4.703125 C 4.25 -4.410156 4.03125 -3.960938 4.03125 -3.359375 C 4.03125 -2.484375 4.53125 -2.046875 5.53125 -2.046875 C 6.25 -2.046875 6.820312 -2.25 7.25 -2.65625 C 7.675781 -3.070312 7.890625 -3.625 7.890625 -4.3125 Z M 7.890625 -5.234375 "/></g></g></g><g fill="#1800ad" fill-opacity="1"><g transform="translate(137.933542, 50.457724)"><g><path d="M 11.75 0 L 8.65625 0 L 8.65625 -6.609375 C 8.65625 -7.421875 8.519531 -8.03125 8.25 -8.4375 C 7.976562 -8.84375 7.546875 -9.046875 6.953125 -9.046875 C 6.171875 -9.046875 5.597656 -8.753906 5.234375 -8.171875 C 4.878906 -7.597656 4.703125 -6.648438 4.703125 -5.328125 L 4.703125 0 L 1.625 0 L 1.625 -11.3125 L 3.96875 -11.3125 L 4.390625 -9.859375 L 4.5625 -9.859375 C 4.863281 -10.378906 5.300781 -10.785156 5.875 -11.078125 C 6.445312 -11.367188 7.101562 -11.515625 7.84375 -11.515625 C 9.539062 -11.515625 10.691406 -10.960938 11.296875 -9.859375 L 11.5625 -9.859375 C 11.863281 -10.390625 12.304688 -10.796875 12.890625 -11.078125 C 13.484375 -11.367188 14.15625 -11.515625 14.90625 -11.515625 C 16.1875 -11.515625 17.15625 -11.1875 17.8125 -10.53125 C 18.46875 -9.875 18.796875 -8.820312 18.796875 -7.375 L 18.796875 0 L 15.703125 0 L 15.703125 -6.609375 C 15.703125 -7.421875 15.5625 -8.03125 15.28125 -8.4375 C 15.007812 -8.84375 14.582031 -9.046875 14 -9.046875 C 13.25 -9.046875 12.6875 -8.773438 12.3125 -8.234375 C 11.9375 -7.703125 11.75 -6.847656 11.75 -5.671875 Z M 11.75 0 "/></g></g></g><g fill="#1800ad" fill-opacity="1"><g transform="translate(158.278288, 50.457724)"><g><path d="M 1.484375 -14.234375 C 1.484375 -15.234375 2.046875 -15.734375 3.171875 -15.734375 C 4.285156 -15.734375 4.84375 -15.234375 4.84375 -14.234375 C 4.84375 -13.753906 4.703125 -13.378906 4.421875 -13.109375 C 4.140625 -12.847656 3.722656 -12.71875 3.171875 -12.71875 C 2.046875 -12.71875 1.484375 -13.222656 1.484375 -14.234375 Z M 4.703125 0 L 1.625 0 L 1.625 -11.3125 L 4.703125 -11.3125 Z M 4.703125 0 "/></g></g></g><g fill="#1800ad" fill-opacity="1"><g transform="translate(164.601249, 50.457724)"><g><path d="M 12.0625 0 L 8.96875 0 L 8.96875 -6.609375 C 8.96875 -7.421875 8.820312 -8.03125 8.53125 -8.4375 C 8.25 -8.84375 7.789062 -9.046875 7.15625 -9.046875 C 6.289062 -9.046875 5.664062 -8.757812 5.28125 -8.1875 C 4.894531 -7.613281 4.703125 -6.660156 4.703125 -5.328125 L 4.703125 0 L 1.625 0 L 1.625 -11.3125 L 3.96875 -11.3125 L 4.390625 -9.859375 L 4.5625 -9.859375 C 4.90625 -10.410156 5.378906 -10.820312 5.984375 -11.09375 C 6.585938 -11.375 7.273438 -11.515625 8.046875 -11.515625 C 9.359375 -11.515625 10.351562 -11.160156 11.03125 -10.453125 C 11.71875 -9.742188 12.0625 -8.71875 12.0625 -7.375 Z M 12.0625 0 "/></g></g></g><g fill="#1800ad" fill-opacity="1"><g transform="translate(178.218365, 50.457724)"><g><path d="M 11.46875 -11.3125 L 11.46875 -9.75 L 9.6875 -9.28125 C 10.007812 -8.78125 10.171875 -8.21875 10.171875 -7.59375 C 10.171875 -6.375 9.75 -5.425781 8.90625 -4.75 C 8.0625 -4.070312 6.882812 -3.734375 5.375 -3.734375 L 4.828125 -3.765625 L 4.375 -3.8125 C 4.050781 -3.570312 3.890625 -3.300781 3.890625 -3 C 3.890625 -2.5625 4.457031 -2.34375 5.59375 -2.34375 L 7.515625 -2.34375 C 8.753906 -2.34375 9.695312 -2.070312 10.34375 -1.53125 C 11 -1 11.328125 -0.21875 11.328125 0.8125 C 11.328125 2.132812 10.773438 3.160156 9.671875 3.890625 C 8.566406 4.617188 6.984375 4.984375 4.921875 4.984375 C 3.347656 4.984375 2.144531 4.707031 1.3125 4.15625 C 0.476562 3.601562 0.0625 2.832031 0.0625 1.84375 C 0.0625 1.15625 0.269531 0.582031 0.6875 0.125 C 1.113281 -0.332031 1.738281 -0.65625 2.5625 -0.84375 C 2.25 -0.976562 1.972656 -1.195312 1.734375 -1.5 C 1.503906 -1.8125 1.390625 -2.140625 1.390625 -2.484375 C 1.390625 -2.921875 1.515625 -3.28125 1.765625 -3.5625 C 2.015625 -3.851562 2.375 -4.132812 2.84375 -4.40625 C 2.25 -4.664062 1.773438 -5.078125 1.421875 -5.640625 C 1.078125 -6.210938 0.90625 -6.878906 0.90625 -7.640625 C 0.90625 -8.878906 1.304688 -9.832031 2.109375 -10.5 C 2.910156 -11.175781 4.054688 -11.515625 5.546875 -11.515625 C 5.867188 -11.515625 6.242188 -11.484375 6.671875 -11.421875 C 7.109375 -11.367188 7.390625 -11.332031 7.515625 -11.3125 Z M 2.734375 1.59375 C 2.734375 2.019531 2.9375 2.351562 3.34375 2.59375 C 3.75 2.84375 4.320312 2.96875 5.0625 2.96875 C 6.164062 2.96875 7.03125 2.8125 7.65625 2.5 C 8.28125 2.195312 8.59375 1.785156 8.59375 1.265625 C 8.59375 0.835938 8.40625 0.539062 8.03125 0.375 C 7.664062 0.21875 7.097656 0.140625 6.328125 0.140625 L 4.71875 0.140625 C 4.15625 0.140625 3.679688 0.269531 3.296875 0.53125 C 2.921875 0.800781 2.734375 1.15625 2.734375 1.59375 Z M 3.859375 -7.609375 C 3.859375 -6.992188 3.992188 -6.503906 4.265625 -6.140625 C 4.546875 -5.785156 4.972656 -5.609375 5.546875 -5.609375 C 6.128906 -5.609375 6.554688 -5.785156 6.828125 -6.140625 C 7.097656 -6.503906 7.234375 -6.992188 7.234375 -7.609375 C 7.234375 -8.972656 6.671875 -9.65625 5.546875 -9.65625 C 4.421875 -9.65625 3.859375 -8.972656 3.859375 -7.609375 Z M 3.859375 -7.609375 "/></g></g></g><g fill="#1800ad" fill-opacity="1"><g transform="translate(189.923425, 50.457724)"><g><path d="M 9.515625 -3.359375 C 9.515625 -2.203125 9.109375 -1.316406 8.296875 -0.703125 C 7.492188 -0.0976562 6.289062 0.203125 4.6875 0.203125 C 3.863281 0.203125 3.160156 0.144531 2.578125 0.03125 C 1.992188 -0.0703125 1.453125 -0.234375 0.953125 -0.453125 L 0.953125 -3 C 1.523438 -2.726562 2.171875 -2.5 2.890625 -2.3125 C 3.609375 -2.132812 4.238281 -2.046875 4.78125 -2.046875 C 5.90625 -2.046875 6.46875 -2.375 6.46875 -3.03125 C 6.46875 -3.269531 6.390625 -3.460938 6.234375 -3.609375 C 6.085938 -3.765625 5.832031 -3.9375 5.46875 -4.125 C 5.101562 -4.320312 4.617188 -4.550781 4.015625 -4.8125 C 3.148438 -5.175781 2.507812 -5.507812 2.09375 -5.8125 C 1.6875 -6.125 1.390625 -6.476562 1.203125 -6.875 C 1.023438 -7.28125 0.9375 -7.773438 0.9375 -8.359375 C 0.9375 -9.367188 1.320312 -10.144531 2.09375 -10.6875 C 2.875 -11.238281 3.976562 -11.515625 5.40625 -11.515625 C 6.769531 -11.515625 8.097656 -11.21875 9.390625 -10.625 L 8.453125 -8.40625 C 7.890625 -8.644531 7.359375 -8.84375 6.859375 -9 C 6.367188 -9.15625 5.867188 -9.234375 5.359375 -9.234375 C 4.453125 -9.234375 4 -8.988281 4 -8.5 C 4 -8.21875 4.144531 -7.972656 4.4375 -7.765625 C 4.726562 -7.566406 5.367188 -7.269531 6.359375 -6.875 C 7.242188 -6.519531 7.890625 -6.1875 8.296875 -5.875 C 8.710938 -5.5625 9.019531 -5.203125 9.21875 -4.796875 C 9.414062 -4.398438 9.515625 -3.921875 9.515625 -3.359375 Z M 9.515625 -3.359375 "/></g></g></g><g fill="#1800ad" fill-opacity="1"><g transform="translate(11.912832, 79.332527)"><g><path d="M 14.984375 0 L 11 0 L 4.5625 -11.1875 L 4.46875 -11.1875 C 4.59375 -9.207031 4.65625 -7.796875 4.65625 -6.953125 L 4.65625 0 L 1.859375 0 L 1.859375 -14.796875 L 5.8125 -14.796875 L 12.234375 -3.71875 L 12.3125 -3.71875 C 12.207031 -5.632812 12.15625 -6.992188 12.15625 -7.796875 L 12.15625 -14.796875 L 14.984375 -14.796875 Z M 14.984375 0 "/></g></g></g><g fill="#1800ad" fill-opacity="1"><g transform="translate(28.75719, 79.332527)"><g><path d="M 8.796875 0 L 8.203125 -1.53125 L 8.125 -1.53125 C 7.601562 -0.882812 7.066406 -0.429688 6.515625 -0.171875 C 5.972656 0.078125 5.257812 0.203125 4.375 0.203125 C 3.28125 0.203125 2.421875 -0.101562 1.796875 -0.71875 C 1.179688 -1.34375 0.875 -2.226562 0.875 -3.375 C 0.875 -4.582031 1.289062 -5.46875 2.125 -6.03125 C 2.96875 -6.601562 4.234375 -6.921875 5.921875 -6.984375 L 7.890625 -7.046875 L 7.890625 -7.53125 C 7.890625 -8.675781 7.300781 -9.25 6.125 -9.25 C 5.226562 -9.25 4.164062 -8.976562 2.9375 -8.4375 L 1.921875 -10.515625 C 3.222656 -11.203125 4.664062 -11.546875 6.25 -11.546875 C 7.769531 -11.546875 8.929688 -11.210938 9.734375 -10.546875 C 10.546875 -9.890625 10.953125 -8.882812 10.953125 -7.53125 L 10.953125 0 Z M 7.890625 -5.234375 L 6.703125 -5.203125 C 5.804688 -5.171875 5.132812 -5.003906 4.6875 -4.703125 C 4.25 -4.410156 4.03125 -3.960938 4.03125 -3.359375 C 4.03125 -2.484375 4.53125 -2.046875 5.53125 -2.046875 C 6.25 -2.046875 6.820312 -2.25 7.25 -2.65625 C 7.675781 -3.070312 7.890625 -3.625 7.890625 -4.3125 Z M 7.890625 -5.234375 "/></g></g></g><g fill="#1800ad" fill-opacity="1"><g transform="translate(41.271588, 79.332527)"><g><path d="M 4.3125 0 L 0 -11.3125 L 3.234375 -11.3125 L 5.40625 -4.859375 C 5.65625 -4.046875 5.8125 -3.273438 5.875 -2.546875 L 5.921875 -2.546875 C 5.960938 -3.191406 6.117188 -3.960938 6.390625 -4.859375 L 8.5625 -11.3125 L 11.78125 -11.3125 L 7.46875 0 Z M 4.3125 0 "/></g></g></g><g fill="#1800ad" fill-opacity="1"><g transform="translate(53.057582, 79.332527)"><g><path d="M 6.296875 -9.328125 C 5.648438 -9.328125 5.140625 -9.117188 4.765625 -8.703125 C 4.390625 -8.285156 4.175781 -7.695312 4.125 -6.9375 L 8.453125 -6.9375 C 8.441406 -7.695312 8.242188 -8.285156 7.859375 -8.703125 C 7.472656 -9.117188 6.953125 -9.328125 6.296875 -9.328125 Z M 6.734375 0.203125 C 4.910156 0.203125 3.488281 -0.296875 2.46875 -1.296875 C 1.445312 -2.304688 0.9375 -3.734375 0.9375 -5.578125 C 0.9375 -7.472656 1.410156 -8.9375 2.359375 -9.96875 C 3.304688 -11 4.613281 -11.515625 6.28125 -11.515625 C 7.882812 -11.515625 9.128906 -11.0625 10.015625 -10.15625 C 10.898438 -9.25 11.34375 -7.992188 11.34375 -6.390625 L 11.34375 -4.890625 L 4.0625 -4.890625 C 4.09375 -4.015625 4.347656 -3.328125 4.828125 -2.828125 C 5.316406 -2.335938 6 -2.09375 6.875 -2.09375 C 7.5625 -2.09375 8.207031 -2.160156 8.8125 -2.296875 C 9.414062 -2.441406 10.050781 -2.671875 10.71875 -2.984375 L 10.71875 -0.59375 C 10.175781 -0.320312 9.597656 -0.125 8.984375 0 C 8.367188 0.132812 7.617188 0.203125 6.734375 0.203125 Z M 6.734375 0.203125 "/></g></g></g><g fill="#1800ad" fill-opacity="1"><g transform="translate(65.298823, 79.332527)"><g><path d="M 11.46875 -11.3125 L 11.46875 -9.75 L 9.6875 -9.28125 C 10.007812 -8.78125 10.171875 -8.21875 10.171875 -7.59375 C 10.171875 -6.375 9.75 -5.425781 8.90625 -4.75 C 8.0625 -4.070312 6.882812 -3.734375 5.375 -3.734375 L 4.828125 -3.765625 L 4.375 -3.8125 C 4.050781 -3.570312 3.890625 -3.300781 3.890625 -3 C 3.890625 -2.5625 4.457031 -2.34375 5.59375 -2.34375 L 7.515625 -2.34375 C 8.753906 -2.34375 9.695312 -2.070312 10.34375 -1.53125 C 11 -1 11.328125 -0.21875 11.328125 0.8125 C 11.328125 2.132812 10.773438 3.160156 9.671875 3.890625 C 8.566406 4.617188 6.984375 4.984375 4.921875 4.984375 C 3.347656 4.984375 2.144531 4.707031 1.3125 4.15625 C 0.476562 3.601562 0.0625 2.832031 0.0625 1.84375 C 0.0625 1.15625 0.269531 0.582031 0.6875 0.125 C 1.113281 -0.332031 1.738281 -0.65625 2.5625 -0.84375 C 2.25 -0.976562 1.972656 -1.195312 1.734375 -1.5 C 1.503906 -1.8125 1.390625 -2.140625 1.390625 -2.484375 C 1.390625 -2.921875 1.515625 -3.28125 1.765625 -3.5625 C 2.015625 -3.851562 2.375 -4.132812 2.84375 -4.40625 C 2.25 -4.664062 1.773438 -5.078125 1.421875 -5.640625 C 1.078125 -6.210938 0.90625 -6.878906 0.90625 -7.640625 C 0.90625 -8.878906 1.304688 -9.832031 2.109375 -10.5 C 2.910156 -11.175781 4.054688 -11.515625 5.546875 -11.515625 C 5.867188 -11.515625 6.242188 -11.484375 6.671875 -11.421875 C 7.109375 -11.367188 7.390625 -11.332031 7.515625 -11.3125 Z M 2.734375 1.59375 C 2.734375 2.019531 2.9375 2.351562 3.34375 2.59375 C 3.75 2.84375 4.320312 2.96875 5.0625 2.96875 C 6.164062 2.96875 7.03125 2.8125 7.65625 2.5 C 8.28125 2.195312 8.59375 1.785156 8.59375 1.265625 C 8.59375 0.835938 8.40625 0.539062 8.03125 0.375 C 7.664062 0.21875 7.097656 0.140625 6.328125 0.140625 L 4.71875 0.140625 C 4.15625 0.140625 3.679688 0.269531 3.296875 0.53125 C 2.921875 0.800781 2.734375 1.15625 2.734375 1.59375 Z M 3.859375 -7.609375 C 3.859375 -6.992188 3.992188 -6.503906 4.265625 -6.140625 C 4.546875 -5.785156 4.972656 -5.609375 5.546875 -5.609375 C 6.128906 -5.609375 6.554688 -5.785156 6.828125 -6.140625 C 7.097656 -6.503906 7.234375 -6.992188 7.234375 -7.609375 C 7.234375 -8.972656 6.671875 -9.65625 5.546875 -9.65625 C 4.421875 -9.65625 3.859375 -8.972656 3.859375 -7.609375 Z M 3.859375 -7.609375 "/></g></g></g><g fill="#1800ad" fill-opacity="1"><g transform="translate(77.003884, 79.332527)"><g><path d="M 8.796875 0 L 8.203125 -1.53125 L 8.125 -1.53125 C 7.601562 -0.882812 7.066406 -0.429688 6.515625 -0.171875 C 5.972656 0.078125 5.257812 0.203125 4.375 0.203125 C 3.28125 0.203125 2.421875 -0.101562 1.796875 -0.71875 C 1.179688 -1.34375 0.875 -2.226562 0.875 -3.375 C 0.875 -4.582031 1.289062 -5.46875 2.125 -6.03125 C 2.96875 -6.601562 4.234375 -6.921875 5.921875 -6.984375 L 7.890625 -7.046875 L 7.890625 -7.53125 C 7.890625 -8.675781 7.300781 -9.25 6.125 -9.25 C 5.226562 -9.25 4.164062 -8.976562 2.9375 -8.4375 L 1.921875 -10.515625 C 3.222656 -11.203125 4.664062 -11.546875 6.25 -11.546875 C 7.769531 -11.546875 8.929688 -11.210938 9.734375 -10.546875 C 10.546875 -9.890625 10.953125 -8.882812 10.953125 -7.53125 L 10.953125 0 Z M 7.890625 -5.234375 L 6.703125 -5.203125 C 5.804688 -5.171875 5.132812 -5.003906 4.6875 -4.703125 C 4.25 -4.410156 4.03125 -3.960938 4.03125 -3.359375 C 4.03125 -2.484375 4.53125 -2.046875 5.53125 -2.046875 C 6.25 -2.046875 6.820312 -2.25 7.25 -2.65625 C 7.675781 -3.070312 7.890625 -3.625 7.890625 -4.3125 Z M 7.890625 -5.234375 "/></g></g></g><g fill="#1800ad" fill-opacity="1"><g transform="translate(89.518282, 79.332527)"><g><path d="M 6.21875 0.203125 C 2.695312 0.203125 0.9375 -1.726562 0.9375 -5.59375 C 0.9375 -7.519531 1.410156 -8.988281 2.359375 -10 C 3.316406 -11.007812 4.691406 -11.515625 6.484375 -11.515625 C 7.796875 -11.515625 8.96875 -11.257812 10 -10.75 L 9.09375 -8.359375 C 8.601562 -8.554688 8.148438 -8.71875 7.734375 -8.84375 C 7.316406 -8.96875 6.898438 -9.03125 6.484375 -9.03125 C 4.878906 -9.03125 4.078125 -7.890625 4.078125 -5.609375 C 4.078125 -3.398438 4.878906 -2.296875 6.484375 -2.296875 C 7.078125 -2.296875 7.625 -2.375 8.125 -2.53125 C 8.632812 -2.6875 9.144531 -2.9375 9.65625 -3.28125 L 9.65625 -0.640625 C 9.15625 -0.316406 8.648438 -0.0976562 8.140625 0.015625 C 7.628906 0.140625 6.988281 0.203125 6.21875 0.203125 Z M 8.15625 2.53125 C 8.15625 3.394531 7.898438 4.019531 7.390625 4.40625 C 6.878906 4.789062 6.09375 4.984375 5.03125 4.984375 C 4.5 4.984375 4.003906 4.910156 3.546875 4.765625 L 3.546875 3.0625 C 3.734375 3.113281 3.976562 3.160156 4.28125 3.203125 C 4.582031 3.253906 4.820312 3.28125 5 3.28125 C 5.476562 3.28125 5.71875 3.070312 5.71875 2.65625 C 5.71875 2.09375 5.160156 1.726562 4.046875 1.5625 L 4.828125 0 L 6.78125 0 L 6.515625 0.609375 C 7.015625 0.773438 7.410156 1.023438 7.703125 1.359375 C 8.003906 1.703125 8.15625 2.09375 8.15625 2.53125 Z M 8.15625 2.53125 "/></g></g></g><g fill="#1800ad" fill-opacity="1"><g transform="translate(100.171202, 79.332527)"><g><path d="M 8.796875 0 L 8.203125 -1.53125 L 8.125 -1.53125 C 7.601562 -0.882812 7.066406 -0.429688 6.515625 -0.171875 C 5.972656 0.078125 5.257812 0.203125 4.375 0.203125 C 3.28125 0.203125 2.421875 -0.101562 1.796875 -0.71875 C 1.179688 -1.34375 0.875 -2.226562 0.875 -3.375 C 0.875 -4.582031 1.289062 -5.46875 2.125 -6.03125 C 2.96875 -6.601562 4.234375 -6.921875 5.921875 -6.984375 L 7.890625 -7.046875 L 7.890625 -7.53125 C 7.890625 -8.675781 7.300781 -9.25 6.125 -9.25 C 5.226562 -9.25 4.164062 -8.976562 2.9375 -8.4375 L 1.921875 -10.515625 C 3.222656 -11.203125 4.664062 -11.546875 6.25 -11.546875 C 7.769531 -11.546875 8.929688 -11.210938 9.734375 -10.546875 C 10.546875 -9.890625 10.953125 -8.882812 10.953125 -7.53125 L 10.953125 0 Z M 7.890625 -5.234375 L 6.703125 -5.203125 C 5.804688 -5.171875 5.132812 -5.003906 4.6875 -4.703125 C 4.25 -4.410156 4.03125 -3.960938 4.03125 -3.359375 C 4.03125 -2.484375 4.53125 -2.046875 5.53125 -2.046875 C 6.25 -2.046875 6.820312 -2.25 7.25 -2.65625 C 7.675781 -3.070312 7.890625 -3.625 7.890625 -4.3125 Z M 4.71875 -13.609375 C 4.507812 -13.609375 4.304688 -13.519531 4.109375 -13.34375 C 3.921875 -13.164062 3.78125 -12.894531 3.6875 -12.53125 L 2.1875 -12.53125 C 2.257812 -13.507812 2.535156 -14.273438 3.015625 -14.828125 C 3.503906 -15.378906 4.144531 -15.65625 4.9375 -15.65625 C 5.21875 -15.65625 5.488281 -15.597656 5.75 -15.484375 C 6.019531 -15.378906 6.285156 -15.257812 6.546875 -15.125 C 6.804688 -15 7.0625 -14.878906 7.3125 -14.765625 C 7.5625 -14.660156 7.804688 -14.609375 8.046875 -14.609375 C 8.253906 -14.609375 8.453125 -14.695312 8.640625 -14.875 C 8.835938 -15.050781 8.976562 -15.320312 9.0625 -15.6875 L 10.578125 -15.6875 C 10.503906 -14.707031 10.222656 -13.9375 9.734375 -13.375 C 9.242188 -12.820312 8.609375 -12.546875 7.828125 -12.546875 C 7.546875 -12.546875 7.269531 -12.601562 7 -12.71875 C 6.738281 -12.832031 6.476562 -12.953125 6.21875 -13.078125 C 5.957031 -13.210938 5.703125 -13.332031 5.453125 -13.4375 C 5.203125 -13.550781 4.957031 -13.609375 4.71875 -13.609375 Z M 4.71875 -13.609375 "/></g></g></g><g fill="#1800ad" fill-opacity="1"><g transform="translate(112.6856, 79.332527)"><g><path d="M 4.078125 -5.671875 C 4.078125 -4.554688 4.257812 -3.710938 4.625 -3.140625 C 5 -2.566406 5.597656 -2.28125 6.421875 -2.28125 C 7.242188 -2.28125 7.832031 -2.5625 8.1875 -3.125 C 8.550781 -3.695312 8.734375 -4.546875 8.734375 -5.671875 C 8.734375 -6.796875 8.550781 -7.632812 8.1875 -8.1875 C 7.820312 -8.75 7.226562 -9.03125 6.40625 -9.03125 C 5.582031 -9.03125 4.988281 -8.75 4.625 -8.1875 C 4.257812 -7.632812 4.078125 -6.796875 4.078125 -5.671875 Z M 11.890625 -5.671875 C 11.890625 -3.828125 11.40625 -2.382812 10.4375 -1.34375 C 9.46875 -0.3125 8.117188 0.203125 6.390625 0.203125 C 5.296875 0.203125 4.332031 -0.03125 3.5 -0.5 C 2.675781 -0.976562 2.039062 -1.660156 1.59375 -2.546875 C 1.15625 -3.441406 0.9375 -4.484375 0.9375 -5.671875 C 0.9375 -7.523438 1.414062 -8.960938 2.375 -9.984375 C 3.34375 -11.003906 4.695312 -11.515625 6.4375 -11.515625 C 7.53125 -11.515625 8.488281 -11.28125 9.3125 -10.8125 C 10.144531 -10.34375 10.78125 -9.664062 11.21875 -8.78125 C 11.664062 -7.894531 11.890625 -6.859375 11.890625 -5.671875 Z M 11.890625 -5.671875 "/></g></g></g><g fill="#1800ad" fill-opacity="1"><g transform="translate(125.513611, 79.332527)"><g/></g></g><g fill="#1800ad" fill-opacity="1"><g transform="translate(130.895711, 79.332527)"><g><path d="M 4.953125 0 L 1.859375 0 L 1.859375 -14.796875 L 10.34375 -14.796875 L 10.34375 -12.21875 L 4.953125 -12.21875 L 4.953125 -8.40625 L 9.96875 -8.40625 L 9.96875 -5.84375 L 4.953125 -5.84375 Z M 4.953125 0 "/></g></g></g><g fill="#1800ad" fill-opacity="1"><g transform="translate(142.266913, 79.332527)"><g><path d="M 4.703125 0 L 1.625 0 L 1.625 -15.734375 L 4.703125 -15.734375 Z M 4.703125 0 "/></g></g></g><g fill="#1800ad" fill-opacity="1"><g transform="translate(148.589874, 79.332527)"><g><path d="M 9.625 0 L 9.21875 -1.453125 L 9.046875 -1.453125 C 8.722656 -0.921875 8.253906 -0.507812 7.640625 -0.21875 C 7.035156 0.0625 6.347656 0.203125 5.578125 0.203125 C 4.242188 0.203125 3.238281 -0.148438 2.5625 -0.859375 C 1.894531 -1.578125 1.5625 -2.601562 1.5625 -3.9375 L 1.5625 -11.3125 L 4.640625 -11.3125 L 4.640625 -4.703125 C 4.640625 -3.890625 4.785156 -3.273438 5.078125 -2.859375 C 5.367188 -2.453125 5.832031 -2.25 6.46875 -2.25 C 7.332031 -2.25 7.953125 -2.535156 8.328125 -3.109375 C 8.710938 -3.691406 8.90625 -4.648438 8.90625 -5.984375 L 8.90625 -11.3125 L 12 -11.3125 L 12 0 Z M 9.625 0 "/></g></g></g><g fill="#1800ad" fill-opacity="1"><g transform="translate(162.20699, 79.332527)"><g><path d="M 4.703125 0 L 1.625 0 L 1.625 -11.3125 L 4.703125 -11.3125 Z M 1.46875 -12.546875 L 1.46875 -12.828125 C 2.625 -14.171875 3.414062 -15.1875 3.84375 -15.875 L 7.3125 -15.875 L 7.3125 -15.65625 C 6.957031 -15.3125 6.351562 -14.789062 5.5 -14.09375 C 4.65625 -13.40625 3.992188 -12.890625 3.515625 -12.546875 Z M 1.46875 -12.546875 "/></g></g></g><g fill="#1800ad" fill-opacity="1"><g transform="translate(168.529951, 79.332527)"><g><path d="M 5.203125 0.203125 C 3.867188 0.203125 2.820312 -0.3125 2.0625 -1.34375 C 1.3125 -2.375 0.9375 -3.804688 0.9375 -5.640625 C 0.9375 -7.492188 1.320312 -8.9375 2.09375 -9.96875 C 2.863281 -11 3.925781 -11.515625 5.28125 -11.515625 C 6.707031 -11.515625 7.789062 -10.960938 8.53125 -9.859375 L 8.640625 -9.859375 C 8.484375 -10.703125 8.40625 -11.457031 8.40625 -12.125 L 8.40625 -15.734375 L 11.5 -15.734375 L 11.5 0 L 9.140625 0 L 8.53125 -1.46875 L 8.40625 -1.46875 C 7.707031 -0.351562 6.640625 0.203125 5.203125 0.203125 Z M 6.28125 -2.25 C 7.070312 -2.25 7.648438 -2.476562 8.015625 -2.9375 C 8.378906 -3.394531 8.582031 -4.175781 8.625 -5.28125 L 8.625 -5.609375 C 8.625 -6.828125 8.4375 -7.695312 8.0625 -8.21875 C 7.6875 -8.75 7.078125 -9.015625 6.234375 -9.015625 C 5.546875 -9.015625 5.007812 -8.722656 4.625 -8.140625 C 4.25 -7.554688 4.0625 -6.707031 4.0625 -5.59375 C 4.0625 -4.476562 4.25 -3.640625 4.625 -3.078125 C 5.007812 -2.523438 5.5625 -2.25 6.28125 -2.25 Z M 6.28125 -2.25 "/></g></g></g><g fill="#1800ad" fill-opacity="1"><g transform="translate(181.641231, 79.332527)"><g><path d="M 8.796875 0 L 8.203125 -1.53125 L 8.125 -1.53125 C 7.601562 -0.882812 7.066406 -0.429688 6.515625 -0.171875 C 5.972656 0.078125 5.257812 0.203125 4.375 0.203125 C 3.28125 0.203125 2.421875 -0.101562 1.796875 -0.71875 C 1.179688 -1.34375 0.875 -2.226562 0.875 -3.375 C 0.875 -4.582031 1.289062 -5.46875 2.125 -6.03125 C 2.96875 -6.601562 4.234375 -6.921875 5.921875 -6.984375 L 7.890625 -7.046875 L 7.890625 -7.53125 C 7.890625 -8.675781 7.300781 -9.25 6.125 -9.25 C 5.226562 -9.25 4.164062 -8.976562 2.9375 -8.4375 L 1.921875 -10.515625 C 3.222656 -11.203125 4.664062 -11.546875 6.25 -11.546875 C 7.769531 -11.546875 8.929688 -11.210938 9.734375 -10.546875 C 10.546875 -9.890625 10.953125 -8.882812 10.953125 -7.53125 L 10.953125 0 Z M 7.890625 -5.234375 L 6.703125 -5.203125 C 5.804688 -5.171875 5.132812 -5.003906 4.6875 -4.703125 C 4.25 -4.410156 4.03125 -3.960938 4.03125 -3.359375 C 4.03125 -2.484375 4.53125 -2.046875 5.53125 -2.046875 C 6.25 -2.046875 6.820312 -2.25 7.25 -2.65625 C 7.675781 -3.070312 7.890625 -3.625 7.890625 -4.3125 Z M 7.890625 -5.234375 "/></g></g></g></g></g></svg>