<svg xmlns="http://www.w3.org/2000/svg" xmlns:xlink="http://www.w3.org/1999/xlink" width="537" zoomAndPan="magnify" viewBox="0 0 402.75 114.749999" height="153" preserveAspectRatio="xMidYMid meet" version="1.0"><defs><g/><clipPath id="514d999b51"><path d="M 16 18 L 96.851562 18 L 96.851562 84 L 16 84 Z M 16 18 " clip-rule="nonzero"/></clipPath><clipPath id="7e6e1a2116"><path d="M 0.3125 0 L 92 0 L 92 113.753906 L 0.3125 113.753906 Z M 0.3125 0 " clip-rule="nonzero"/></clipPath></defs><g clip-path="url(#514d999b51)"><path fill="#1800ad" d="M 45.710938 83.03125 C 44.699219 83.03125 43.730469 82.632812 43.011719 81.917969 L 17.601562 56.503906 C 16.113281 55.015625 16.113281 52.601562 17.601562 51.113281 L 27.625 41.09375 C 28.339844 40.378906 29.308594 39.976562 30.320312 39.976562 C 31.332031 39.976562 32.300781 40.378906 33.015625 41.09375 L 45.710938 53.785156 L 80.265625 19.230469 C 80.980469 18.515625 81.949219 18.113281 82.960938 18.113281 C 83.972656 18.113281 84.941406 18.515625 85.660156 19.230469 L 95.679688 29.25 C 97.167969 30.738281 97.167969 33.152344 95.679688 34.640625 L 48.40625 81.917969 C 47.691406 82.632812 46.722656 83.03125 45.710938 83.03125 Z M 25.691406 53.808594 L 45.710938 73.828125 L 87.589844 31.945312 L 82.960938 27.316406 L 48.40625 61.875 C 46.917969 63.363281 44.503906 63.363281 43.015625 61.875 L 30.320312 49.179688 Z M 25.691406 53.808594 " fill-opacity="1" fill-rule="nonzero"/></g><g clip-path="url(#7e6e1a2116)"><path fill="#1800ad" d="M 45.875 114 C 45.363281 114 44.851562 113.894531 44.375 113.691406 L 38.289062 111.089844 C 26.984375 106.257812 17.433594 98.277344 10.660156 88.019531 C 3.890625 77.757812 0.308594 65.839844 0.308594 53.546875 L 0.308594 14.777344 C 0.308594 13.699219 0.765625 12.667969 1.566406 11.945312 C 2.367188 11.222656 3.433594 10.875 4.507812 10.980469 C 16.820312 12.234375 27.636719 9.511719 37.574219 2.664062 C 40.023438 0.972656 42.894531 0.078125 45.875 0.078125 C 48.851562 0.078125 51.722656 0.972656 54.171875 2.664062 C 61.328125 7.59375 68.851562 10.347656 77.175781 11.078125 L 76.507812 18.675781 C 71.667969 18.25 66.9375 17.191406 62.453125 15.535156 C 58.101562 13.925781 53.859375 11.707031 49.84375 8.941406 C 47.46875 7.304688 44.277344 7.304688 41.902344 8.941406 C 36.339844 12.773438 30.371094 15.535156 24.164062 17.144531 C 19.003906 18.480469 13.558594 19.054688 7.9375 18.855469 L 7.9375 53.546875 C 7.9375 75.578125 21.027344 95.414062 41.285156 104.078125 L 45.875 106.039062 L 50.460938 104.078125 C 70.71875 95.414062 83.808594 75.578125 83.808594 53.546875 L 83.808594 48.765625 L 91.4375 48.765625 L 91.4375 53.546875 C 91.4375 65.839844 87.855469 77.757812 81.085938 88.019531 C 74.316406 98.277344 64.761719 106.253906 53.457031 111.089844 L 47.371094 113.691406 C 46.894531 113.894531 46.382812 113.996094 45.875 113.996094 Z M 45.875 114 " fill-opacity="1" fill-rule="nonzero"/></g><g fill="#1800ad" fill-opacity="1"><g transform="translate(129.035863, 34.964541)"><g><path d="M 8.234375 -12.53125 C 7.046875 -12.53125 6.125 -12.082031 5.46875 -11.1875 C 4.8125 -10.289062 4.484375 -9.039062 4.484375 -7.4375 C 4.484375 -4.101562 5.734375 -2.4375 8.234375 -2.4375 C 9.285156 -2.4375 10.554688 -2.695312 12.046875 -3.21875 L 12.046875 -0.5625 C 10.816406 -0.0507812 9.445312 0.203125 7.9375 0.203125 C 5.757812 0.203125 4.09375 -0.453125 2.9375 -1.765625 C 1.789062 -3.085938 1.21875 -4.984375 1.21875 -7.453125 C 1.21875 -9.015625 1.5 -10.378906 2.0625 -11.546875 C 2.632812 -12.710938 3.445312 -13.609375 4.5 -14.234375 C 5.5625 -14.859375 6.804688 -15.171875 8.234375 -15.171875 C 9.691406 -15.171875 11.148438 -14.820312 12.609375 -14.125 L 11.59375 -11.546875 C 11.03125 -11.804688 10.460938 -12.035156 9.890625 -12.234375 C 9.328125 -12.429688 8.773438 -12.53125 8.234375 -12.53125 Z M 8.234375 -12.53125 "/></g></g></g><g fill="#1800ad" fill-opacity="1"><g transform="translate(142.380674, 34.964541)"><g><path d="M 4.125 -5.734375 C 4.125 -4.609375 4.304688 -3.753906 4.671875 -3.171875 C 5.046875 -2.585938 5.65625 -2.296875 6.5 -2.296875 C 7.332031 -2.296875 7.929688 -2.582031 8.296875 -3.15625 C 8.660156 -3.738281 8.84375 -4.597656 8.84375 -5.734375 C 8.84375 -6.867188 8.65625 -7.71875 8.28125 -8.28125 C 7.914062 -8.851562 7.3125 -9.140625 6.46875 -9.140625 C 5.644531 -9.140625 5.046875 -8.859375 4.671875 -8.296875 C 4.304688 -7.734375 4.125 -6.878906 4.125 -5.734375 Z M 12.03125 -5.734375 C 12.03125 -3.878906 11.535156 -2.425781 10.546875 -1.375 C 9.566406 -0.320312 8.203125 0.203125 6.453125 0.203125 C 5.359375 0.203125 4.390625 -0.0351562 3.546875 -0.515625 C 2.710938 -0.992188 2.066406 -1.679688 1.609375 -2.578125 C 1.160156 -3.484375 0.9375 -4.535156 0.9375 -5.734375 C 0.9375 -7.609375 1.425781 -9.0625 2.40625 -10.09375 C 3.382812 -11.132812 4.753906 -11.65625 6.515625 -11.65625 C 7.617188 -11.65625 8.585938 -11.414062 9.421875 -10.9375 C 10.265625 -10.457031 10.910156 -9.769531 11.359375 -8.875 C 11.804688 -7.988281 12.03125 -6.941406 12.03125 -5.734375 Z M 12.03125 -5.734375 "/></g></g></g><g fill="#1800ad" fill-opacity="1"><g transform="translate(155.347122, 34.964541)"><g><path d="M 12.203125 0 L 9.078125 0 L 9.078125 -6.6875 C 9.078125 -7.507812 8.925781 -8.125 8.625 -8.53125 C 8.332031 -8.945312 7.867188 -9.15625 7.234375 -9.15625 C 6.359375 -9.15625 5.722656 -8.863281 5.328125 -8.28125 C 4.941406 -7.695312 4.75 -6.726562 4.75 -5.375 L 4.75 0 L 1.640625 0 L 1.640625 -11.4375 L 4.015625 -11.4375 L 4.4375 -9.96875 L 4.609375 -9.96875 C 4.960938 -10.519531 5.441406 -10.9375 6.046875 -11.21875 C 6.660156 -11.507812 7.359375 -11.65625 8.140625 -11.65625 C 9.460938 -11.65625 10.46875 -11.296875 11.15625 -10.578125 C 11.851562 -9.859375 12.203125 -8.816406 12.203125 -7.453125 Z M 12.203125 0 "/></g></g></g><g fill="#1800ad" fill-opacity="1"><g transform="translate(169.11119, 34.964541)"><g><path d="M 6.375 -9.4375 C 5.707031 -9.4375 5.1875 -9.222656 4.8125 -8.796875 C 4.4375 -8.378906 4.222656 -7.785156 4.171875 -7.015625 L 8.546875 -7.015625 C 8.535156 -7.785156 8.332031 -8.378906 7.9375 -8.796875 C 7.550781 -9.222656 7.03125 -9.4375 6.375 -9.4375 Z M 6.8125 0.203125 C 4.96875 0.203125 3.523438 -0.300781 2.484375 -1.3125 C 1.453125 -2.332031 0.9375 -3.773438 0.9375 -5.640625 C 0.9375 -7.554688 1.414062 -9.035156 2.375 -10.078125 C 3.332031 -11.128906 4.660156 -11.65625 6.359375 -11.65625 C 7.972656 -11.65625 9.226562 -11.191406 10.125 -10.265625 C 11.03125 -9.347656 11.484375 -8.078125 11.484375 -6.453125 L 11.484375 -4.9375 L 4.109375 -4.9375 C 4.140625 -4.050781 4.398438 -3.359375 4.890625 -2.859375 C 5.378906 -2.367188 6.066406 -2.125 6.953125 -2.125 C 7.640625 -2.125 8.289062 -2.191406 8.90625 -2.328125 C 9.519531 -2.472656 10.160156 -2.703125 10.828125 -3.015625 L 10.828125 -0.609375 C 10.285156 -0.328125 9.703125 -0.125 9.078125 0 C 8.460938 0.132812 7.707031 0.203125 6.8125 0.203125 Z M 6.8125 0.203125 "/></g></g></g><g fill="#1800ad" fill-opacity="1"><g transform="translate(181.484535, 34.964541)"><g><path d="M 3.984375 -5.84375 L 0.296875 -11.4375 L 3.84375 -11.4375 L 6.0625 -7.796875 L 8.296875 -11.4375 L 11.84375 -11.4375 L 8.109375 -5.84375 L 12.015625 0 L 8.46875 0 L 6.0625 -3.921875 L 3.640625 0 L 0.109375 0 Z M 3.984375 -5.84375 "/></g></g></g><g fill="#1800ad" fill-opacity="1"><g transform="translate(193.592007, 34.964541)"><g><path d="M 8.90625 0 L 8.296875 -1.5625 L 8.21875 -1.5625 C 7.6875 -0.894531 7.144531 -0.429688 6.59375 -0.171875 C 6.039062 0.078125 5.316406 0.203125 4.421875 0.203125 C 3.316406 0.203125 2.445312 -0.109375 1.8125 -0.734375 C 1.1875 -1.359375 0.875 -2.253906 0.875 -3.421875 C 0.875 -4.628906 1.296875 -5.519531 2.140625 -6.09375 C 2.992188 -6.675781 4.28125 -7 6 -7.0625 L 7.984375 -7.125 L 7.984375 -7.625 C 7.984375 -8.78125 7.390625 -9.359375 6.203125 -9.359375 C 5.285156 -9.359375 4.210938 -9.082031 2.984375 -8.53125 L 1.9375 -10.640625 C 3.257812 -11.328125 4.722656 -11.671875 6.328125 -11.671875 C 7.859375 -11.671875 9.03125 -11.335938 9.84375 -10.671875 C 10.664062 -10.003906 11.078125 -8.988281 11.078125 -7.625 L 11.078125 0 Z M 7.984375 -5.296875 L 6.765625 -5.265625 C 5.859375 -5.234375 5.179688 -5.066406 4.734375 -4.765625 C 4.296875 -4.460938 4.078125 -4.003906 4.078125 -3.390625 C 4.078125 -2.515625 4.582031 -2.078125 5.59375 -2.078125 C 6.320312 -2.078125 6.898438 -2.285156 7.328125 -2.703125 C 7.765625 -3.117188 7.984375 -3.671875 7.984375 -4.359375 Z M 4.78125 -13.765625 C 4.570312 -13.765625 4.367188 -13.675781 4.171875 -13.5 C 3.984375 -13.320312 3.84375 -13.046875 3.75 -12.671875 L 2.234375 -12.671875 C 2.304688 -13.660156 2.582031 -14.4375 3.0625 -15 C 3.550781 -15.5625 4.203125 -15.84375 5.015625 -15.84375 C 5.285156 -15.84375 5.554688 -15.785156 5.828125 -15.671875 C 6.097656 -15.554688 6.363281 -15.429688 6.625 -15.296875 C 6.894531 -15.160156 7.15625 -15.039062 7.40625 -14.9375 C 7.65625 -14.832031 7.90625 -14.78125 8.15625 -14.78125 C 8.363281 -14.78125 8.5625 -14.867188 8.75 -15.046875 C 8.945312 -15.222656 9.09375 -15.492188 9.1875 -15.859375 L 10.703125 -15.859375 C 10.628906 -14.867188 10.34375 -14.09375 9.84375 -13.53125 C 9.351562 -12.976562 8.710938 -12.703125 7.921875 -12.703125 C 7.640625 -12.703125 7.363281 -12.753906 7.09375 -12.859375 C 6.832031 -12.972656 6.566406 -13.097656 6.296875 -13.234375 C 6.035156 -13.367188 5.78125 -13.488281 5.53125 -13.59375 C 5.28125 -13.707031 5.03125 -13.765625 4.78125 -13.765625 Z M 4.78125 -13.765625 "/></g></g></g><g fill="#1800ad" fill-opacity="1"><g transform="translate(206.241456, 34.964541)"><g><path d="M 4.125 -5.734375 C 4.125 -4.609375 4.304688 -3.753906 4.671875 -3.171875 C 5.046875 -2.585938 5.65625 -2.296875 6.5 -2.296875 C 7.332031 -2.296875 7.929688 -2.582031 8.296875 -3.15625 C 8.660156 -3.738281 8.84375 -4.597656 8.84375 -5.734375 C 8.84375 -6.867188 8.65625 -7.71875 8.28125 -8.28125 C 7.914062 -8.851562 7.3125 -9.140625 6.46875 -9.140625 C 5.644531 -9.140625 5.046875 -8.859375 4.671875 -8.296875 C 4.304688 -7.734375 4.125 -6.878906 4.125 -5.734375 Z M 12.03125 -5.734375 C 12.03125 -3.878906 11.535156 -2.425781 10.546875 -1.375 C 9.566406 -0.320312 8.203125 0.203125 6.453125 0.203125 C 5.359375 0.203125 4.390625 -0.0351562 3.546875 -0.515625 C 2.710938 -0.992188 2.066406 -1.679688 1.609375 -2.578125 C 1.160156 -3.484375 0.9375 -4.535156 0.9375 -5.734375 C 0.9375 -7.609375 1.425781 -9.0625 2.40625 -10.09375 C 3.382812 -11.132812 4.753906 -11.65625 6.515625 -11.65625 C 7.617188 -11.65625 8.585938 -11.414062 9.421875 -10.9375 C 10.265625 -10.457031 10.910156 -9.769531 11.359375 -8.875 C 11.804688 -7.988281 12.03125 -6.941406 12.03125 -5.734375 Z M 12.03125 -5.734375 "/></g></g></g><g fill="#1800ad" fill-opacity="1"><g transform="translate(219.207904, 34.964541)"><g/></g></g><g fill="#1800ad" fill-opacity="1"><g transform="translate(224.648085, 34.964541)"><g><path d="M 10.71875 -4.15625 C 10.71875 -2.800781 10.226562 -1.734375 9.25 -0.953125 C 8.28125 -0.179688 6.929688 0.203125 5.203125 0.203125 C 3.597656 0.203125 2.1875 -0.0976562 0.96875 -0.703125 L 0.96875 -3.640625 C 1.96875 -3.191406 2.816406 -2.875 3.515625 -2.6875 C 4.222656 -2.507812 4.863281 -2.421875 5.4375 -2.421875 C 6.132812 -2.421875 6.671875 -2.550781 7.046875 -2.8125 C 7.421875 -3.082031 7.609375 -3.476562 7.609375 -4 C 7.609375 -4.289062 7.523438 -4.550781 7.359375 -4.78125 C 7.191406 -5.007812 6.945312 -5.226562 6.625 -5.4375 C 6.3125 -5.65625 5.671875 -5.992188 4.703125 -6.453125 C 3.785156 -6.878906 3.097656 -7.289062 2.640625 -7.6875 C 2.179688 -8.082031 1.816406 -8.539062 1.546875 -9.0625 C 1.273438 -9.59375 1.140625 -10.210938 1.140625 -10.921875 C 1.140625 -12.242188 1.585938 -13.28125 2.484375 -14.03125 C 3.378906 -14.789062 4.617188 -15.171875 6.203125 -15.171875 C 6.972656 -15.171875 7.710938 -15.078125 8.421875 -14.890625 C 9.128906 -14.710938 9.867188 -14.457031 10.640625 -14.125 L 9.609375 -11.65625 C 8.816406 -11.976562 8.160156 -12.203125 7.640625 -12.328125 C 7.117188 -12.460938 6.601562 -12.53125 6.09375 -12.53125 C 5.5 -12.53125 5.039062 -12.390625 4.71875 -12.109375 C 4.394531 -11.828125 4.234375 -11.460938 4.234375 -11.015625 C 4.234375 -10.734375 4.296875 -10.488281 4.421875 -10.28125 C 4.554688 -10.070312 4.765625 -9.867188 5.046875 -9.671875 C 5.328125 -9.484375 6 -9.140625 7.0625 -8.640625 C 8.457031 -7.960938 9.414062 -7.285156 9.9375 -6.609375 C 10.457031 -5.941406 10.71875 -5.125 10.71875 -4.15625 Z M 10.71875 -4.15625 "/></g></g></g><g fill="#1800ad" fill-opacity="1"><g transform="translate(236.182906, 34.964541)"><g><path d="M 6.375 -9.4375 C 5.707031 -9.4375 5.1875 -9.222656 4.8125 -8.796875 C 4.4375 -8.378906 4.222656 -7.785156 4.171875 -7.015625 L 8.546875 -7.015625 C 8.535156 -7.785156 8.332031 -8.378906 7.9375 -8.796875 C 7.550781 -9.222656 7.03125 -9.4375 6.375 -9.4375 Z M 6.8125 0.203125 C 4.96875 0.203125 3.523438 -0.300781 2.484375 -1.3125 C 1.453125 -2.332031 0.9375 -3.773438 0.9375 -5.640625 C 0.9375 -7.554688 1.414062 -9.035156 2.375 -10.078125 C 3.332031 -11.128906 4.660156 -11.65625 6.359375 -11.65625 C 7.972656 -11.65625 9.226562 -11.191406 10.125 -10.265625 C 11.03125 -9.347656 11.484375 -8.078125 11.484375 -6.453125 L 11.484375 -4.9375 L 4.109375 -4.9375 C 4.140625 -4.050781 4.398438 -3.359375 4.890625 -2.859375 C 5.378906 -2.367188 6.066406 -2.125 6.953125 -2.125 C 7.640625 -2.125 8.289062 -2.191406 8.90625 -2.328125 C 9.519531 -2.472656 10.160156 -2.703125 10.828125 -3.015625 L 10.828125 -0.609375 C 10.285156 -0.328125 9.703125 -0.125 9.078125 0 C 8.460938 0.132812 7.707031 0.203125 6.8125 0.203125 Z M 6.8125 0.203125 "/></g></g></g><g fill="#1800ad" fill-opacity="1"><g transform="translate(248.556251, 34.964541)"><g><path d="M 11.59375 -11.4375 L 11.59375 -9.859375 L 9.796875 -9.390625 C 10.128906 -8.878906 10.296875 -8.304688 10.296875 -7.671875 C 10.296875 -6.441406 9.863281 -5.484375 9 -4.796875 C 8.144531 -4.117188 6.957031 -3.78125 5.4375 -3.78125 L 4.875 -3.8125 L 4.421875 -3.859375 C 4.097656 -3.609375 3.9375 -3.332031 3.9375 -3.03125 C 3.9375 -2.582031 4.507812 -2.359375 5.65625 -2.359375 L 7.609375 -2.359375 C 8.859375 -2.359375 9.8125 -2.085938 10.46875 -1.546875 C 11.125 -1.015625 11.453125 -0.226562 11.453125 0.8125 C 11.453125 2.15625 10.894531 3.191406 9.78125 3.921875 C 8.664062 4.660156 7.066406 5.03125 4.984375 5.03125 C 3.390625 5.03125 2.171875 4.75 1.328125 4.1875 C 0.484375 3.632812 0.0625 2.859375 0.0625 1.859375 C 0.0625 1.171875 0.273438 0.59375 0.703125 0.125 C 1.128906 -0.332031 1.757812 -0.660156 2.59375 -0.859375 C 2.28125 -0.992188 2.003906 -1.21875 1.765625 -1.53125 C 1.523438 -1.84375 1.40625 -2.171875 1.40625 -2.515625 C 1.40625 -2.953125 1.53125 -3.316406 1.78125 -3.609375 C 2.03125 -3.898438 2.394531 -4.179688 2.875 -4.453125 C 2.269531 -4.710938 1.789062 -5.128906 1.4375 -5.703125 C 1.09375 -6.273438 0.921875 -6.953125 0.921875 -7.734375 C 0.921875 -8.984375 1.328125 -9.945312 2.140625 -10.625 C 2.953125 -11.3125 4.109375 -11.65625 5.609375 -11.65625 C 5.929688 -11.65625 6.3125 -11.625 6.75 -11.5625 C 7.195312 -11.507812 7.484375 -11.46875 7.609375 -11.4375 Z M 2.765625 1.609375 C 2.765625 2.046875 2.96875 2.382812 3.375 2.625 C 3.789062 2.875 4.367188 3 5.109375 3 C 6.234375 3 7.113281 2.84375 7.75 2.53125 C 8.382812 2.226562 8.703125 1.8125 8.703125 1.28125 C 8.703125 0.851562 8.515625 0.554688 8.140625 0.390625 C 7.765625 0.222656 7.179688 0.140625 6.390625 0.140625 L 4.78125 0.140625 C 4.207031 0.140625 3.726562 0.273438 3.34375 0.546875 C 2.957031 0.816406 2.765625 1.171875 2.765625 1.609375 Z M 3.890625 -7.6875 C 3.890625 -7.070312 4.03125 -6.582031 4.3125 -6.21875 C 4.601562 -5.851562 5.035156 -5.671875 5.609375 -5.671875 C 6.203125 -5.671875 6.632812 -5.851562 6.90625 -6.21875 C 7.175781 -6.582031 7.3125 -7.070312 7.3125 -7.6875 C 7.3125 -9.070312 6.742188 -9.765625 5.609375 -9.765625 C 4.460938 -9.765625 3.890625 -9.070312 3.890625 -7.6875 Z M 3.890625 -7.6875 "/></g></g></g><g fill="#1800ad" fill-opacity="1"><g transform="translate(260.387629, 34.964541)"><g><path d="M 9.734375 0 L 9.328125 -1.46875 L 9.15625 -1.46875 C 8.820312 -0.9375 8.347656 -0.523438 7.734375 -0.234375 C 7.117188 0.0546875 6.421875 0.203125 5.640625 0.203125 C 4.296875 0.203125 3.28125 -0.15625 2.59375 -0.875 C 1.914062 -1.59375 1.578125 -2.628906 1.578125 -3.984375 L 1.578125 -11.4375 L 4.703125 -11.4375 L 4.703125 -4.75 C 4.703125 -3.925781 4.847656 -3.304688 5.140625 -2.890625 C 5.429688 -2.484375 5.894531 -2.28125 6.53125 -2.28125 C 7.40625 -2.28125 8.035156 -2.570312 8.421875 -3.15625 C 8.816406 -3.738281 9.015625 -4.707031 9.015625 -6.0625 L 9.015625 -11.4375 L 12.140625 -11.4375 L 12.140625 0 Z M 9.734375 0 "/></g></g></g><g fill="#1800ad" fill-opacity="1"><g transform="translate(274.151697, 34.964541)"><g><path d="M 8.015625 -11.65625 C 8.441406 -11.65625 8.796875 -11.625 9.078125 -11.5625 L 8.84375 -8.640625 C 8.59375 -8.703125 8.285156 -8.734375 7.921875 -8.734375 C 6.921875 -8.734375 6.140625 -8.476562 5.578125 -7.96875 C 5.023438 -7.457031 4.75 -6.742188 4.75 -5.828125 L 4.75 0 L 1.640625 0 L 1.640625 -11.4375 L 4 -11.4375 L 4.453125 -9.515625 L 4.609375 -9.515625 C 4.960938 -10.160156 5.441406 -10.675781 6.046875 -11.0625 C 6.648438 -11.457031 7.304688 -11.65625 8.015625 -11.65625 Z M 8.015625 -11.65625 "/></g></g></g><g fill="#1800ad" fill-opacity="1"><g transform="translate(283.661789, 34.964541)"><g><path d="M 8.90625 0 L 8.296875 -1.5625 L 8.21875 -1.5625 C 7.6875 -0.894531 7.144531 -0.429688 6.59375 -0.171875 C 6.039062 0.078125 5.316406 0.203125 4.421875 0.203125 C 3.316406 0.203125 2.445312 -0.109375 1.8125 -0.734375 C 1.1875 -1.359375 0.875 -2.253906 0.875 -3.421875 C 0.875 -4.628906 1.296875 -5.519531 2.140625 -6.09375 C 2.992188 -6.675781 4.28125 -7 6 -7.0625 L 7.984375 -7.125 L 7.984375 -7.625 C 7.984375 -8.78125 7.390625 -9.359375 6.203125 -9.359375 C 5.285156 -9.359375 4.210938 -9.082031 2.984375 -8.53125 L 1.9375 -10.640625 C 3.257812 -11.328125 4.722656 -11.671875 6.328125 -11.671875 C 7.859375 -11.671875 9.03125 -11.335938 9.84375 -10.671875 C 10.664062 -10.003906 11.078125 -8.988281 11.078125 -7.625 L 11.078125 0 Z M 7.984375 -5.296875 L 6.765625 -5.265625 C 5.859375 -5.234375 5.179688 -5.066406 4.734375 -4.765625 C 4.296875 -4.460938 4.078125 -4.003906 4.078125 -3.390625 C 4.078125 -2.515625 4.582031 -2.078125 5.59375 -2.078125 C 6.320312 -2.078125 6.898438 -2.285156 7.328125 -2.703125 C 7.765625 -3.117188 7.984375 -3.671875 7.984375 -4.359375 Z M 7.984375 -5.296875 "/></g></g></g><g fill="#1800ad" fill-opacity="1"><g transform="translate(296.311239, 34.964541)"><g/></g></g><g fill="#1800ad" fill-opacity="1"><g transform="translate(301.75142, 34.964541)"><g><path d="M 6.375 -9.4375 C 5.707031 -9.4375 5.1875 -9.222656 4.8125 -8.796875 C 4.4375 -8.378906 4.222656 -7.785156 4.171875 -7.015625 L 8.546875 -7.015625 C 8.535156 -7.785156 8.332031 -8.378906 7.9375 -8.796875 C 7.550781 -9.222656 7.03125 -9.4375 6.375 -9.4375 Z M 6.8125 0.203125 C 4.96875 0.203125 3.523438 -0.300781 2.484375 -1.3125 C 1.453125 -2.332031 0.9375 -3.773438 0.9375 -5.640625 C 0.9375 -7.554688 1.414062 -9.035156 2.375 -10.078125 C 3.332031 -11.128906 4.660156 -11.65625 6.359375 -11.65625 C 7.972656 -11.65625 9.226562 -11.191406 10.125 -10.265625 C 11.03125 -9.347656 11.484375 -8.078125 11.484375 -6.453125 L 11.484375 -4.9375 L 4.109375 -4.9375 C 4.140625 -4.050781 4.398438 -3.359375 4.890625 -2.859375 C 5.378906 -2.367188 6.066406 -2.125 6.953125 -2.125 C 7.640625 -2.125 8.289062 -2.191406 8.90625 -2.328125 C 9.519531 -2.472656 10.160156 -2.703125 10.828125 -3.015625 L 10.828125 -0.609375 C 10.285156 -0.328125 9.703125 -0.125 9.078125 0 C 8.460938 0.132812 7.707031 0.203125 6.8125 0.203125 Z M 6.8125 0.203125 "/></g></g></g><g fill="#1800ad" fill-opacity="1"><g transform="translate(314.124765, 34.964541)"><g/></g></g><g fill="#1800ad" fill-opacity="1"><g transform="translate(319.564947, 34.964541)"><g><path d="M 10.5 0 L 1.875 0 L 1.875 -14.953125 L 10.5 -14.953125 L 10.5 -12.359375 L 5.046875 -12.359375 L 5.046875 -9.078125 L 10.125 -9.078125 L 10.125 -6.46875 L 5.046875 -6.46875 L 5.046875 -2.625 L 10.5 -2.625 Z M 10.5 0 "/></g></g></g><g fill="#1800ad" fill-opacity="1"><g transform="translate(331.294054, 34.964541)"><g><path d="M 9.609375 -3.390625 C 9.609375 -2.222656 9.203125 -1.332031 8.390625 -0.71875 C 7.578125 -0.101562 6.359375 0.203125 4.734375 0.203125 C 3.898438 0.203125 3.191406 0.144531 2.609375 0.03125 C 2.023438 -0.0820312 1.476562 -0.242188 0.96875 -0.453125 L 0.96875 -3.03125 C 1.539062 -2.757812 2.191406 -2.53125 2.921875 -2.34375 C 3.648438 -2.164062 4.289062 -2.078125 4.84375 -2.078125 C 5.96875 -2.078125 6.53125 -2.40625 6.53125 -3.0625 C 6.53125 -3.300781 6.457031 -3.5 6.3125 -3.65625 C 6.164062 -3.8125 5.90625 -3.984375 5.53125 -4.171875 C 5.164062 -4.367188 4.675781 -4.597656 4.0625 -4.859375 C 3.175781 -5.222656 2.523438 -5.5625 2.109375 -5.875 C 1.703125 -6.195312 1.40625 -6.5625 1.21875 -6.96875 C 1.03125 -7.375 0.9375 -7.875 0.9375 -8.46875 C 0.9375 -9.476562 1.328125 -10.257812 2.109375 -10.8125 C 2.898438 -11.375 4.019531 -11.65625 5.46875 -11.65625 C 6.851562 -11.65625 8.195312 -11.351562 9.5 -10.75 L 8.546875 -8.5 C 7.972656 -8.75 7.4375 -8.953125 6.9375 -9.109375 C 6.445312 -9.265625 5.941406 -9.34375 5.421875 -9.34375 C 4.503906 -9.34375 4.046875 -9.09375 4.046875 -8.59375 C 4.046875 -8.3125 4.191406 -8.066406 4.484375 -7.859375 C 4.785156 -7.660156 5.4375 -7.359375 6.4375 -6.953125 C 7.332031 -6.597656 7.988281 -6.257812 8.40625 -5.9375 C 8.820312 -5.625 9.125 -5.265625 9.3125 -4.859375 C 9.507812 -4.453125 9.609375 -3.960938 9.609375 -3.390625 Z M 9.609375 -3.390625 "/></g></g></g><g fill="#1800ad" fill-opacity="1"><g transform="translate(341.704037, 34.964541)"><g><path d="M 6.453125 -2.28125 C 7.003906 -2.28125 7.660156 -2.398438 8.421875 -2.640625 L 8.421875 -0.3125 C 7.640625 0.03125 6.6875 0.203125 5.5625 0.203125 C 4.3125 0.203125 3.398438 -0.109375 2.828125 -0.734375 C 2.253906 -1.367188 1.96875 -2.316406 1.96875 -3.578125 L 1.96875 -9.09375 L 0.484375 -9.09375 L 0.484375 -10.421875 L 2.203125 -11.453125 L 3.09375 -13.875 L 5.09375 -13.875 L 5.09375 -11.4375 L 8.296875 -11.4375 L 8.296875 -9.09375 L 5.09375 -9.09375 L 5.09375 -3.578125 C 5.09375 -3.140625 5.21875 -2.8125 5.46875 -2.59375 C 5.71875 -2.382812 6.046875 -2.28125 6.453125 -2.28125 Z M 6.453125 -2.28125 "/></g></g></g><g fill="#1800ad" fill-opacity="1"><g transform="translate(350.794872, 34.964541)"><g><path d="M 8.90625 0 L 8.296875 -1.5625 L 8.21875 -1.5625 C 7.6875 -0.894531 7.144531 -0.429688 6.59375 -0.171875 C 6.039062 0.078125 5.316406 0.203125 4.421875 0.203125 C 3.316406 0.203125 2.445312 -0.109375 1.8125 -0.734375 C 1.1875 -1.359375 0.875 -2.253906 0.875 -3.421875 C 0.875 -4.628906 1.296875 -5.519531 2.140625 -6.09375 C 2.992188 -6.675781 4.28125 -7 6 -7.0625 L 7.984375 -7.125 L 7.984375 -7.625 C 7.984375 -8.78125 7.390625 -9.359375 6.203125 -9.359375 C 5.285156 -9.359375 4.210938 -9.082031 2.984375 -8.53125 L 1.9375 -10.640625 C 3.257812 -11.328125 4.722656 -11.671875 6.328125 -11.671875 C 7.859375 -11.671875 9.03125 -11.335938 9.84375 -10.671875 C 10.664062 -10.003906 11.078125 -8.988281 11.078125 -7.625 L 11.078125 0 Z M 7.984375 -5.296875 L 6.765625 -5.265625 C 5.859375 -5.234375 5.179688 -5.066406 4.734375 -4.765625 C 4.296875 -4.460938 4.078125 -4.003906 4.078125 -3.390625 C 4.078125 -2.515625 4.582031 -2.078125 5.59375 -2.078125 C 6.320312 -2.078125 6.898438 -2.285156 7.328125 -2.703125 C 7.765625 -3.117188 7.984375 -3.671875 7.984375 -4.359375 Z M 4.5 -12.703125 L 4.5 -12.96875 C 5.675781 -14.332031 6.476562 -15.359375 6.90625 -16.046875 L 10.40625 -16.046875 L 10.40625 -15.84375 C 10.050781 -15.488281 9.445312 -14.957031 8.59375 -14.25 C 7.738281 -13.550781 7.066406 -13.035156 6.578125 -12.703125 Z M 4.5 -12.703125 "/></g></g></g><g fill="#1800ad" fill-opacity="1"><g transform="translate(363.444322, 34.964541)"><g><path d="M 4.359375 0 L 0 -11.4375 L 3.265625 -11.4375 L 5.46875 -4.921875 C 5.71875 -4.097656 5.875 -3.316406 5.9375 -2.578125 L 6 -2.578125 C 6.03125 -3.234375 6.179688 -4.015625 6.453125 -4.921875 L 8.65625 -11.4375 L 11.921875 -11.4375 L 7.5625 0 Z M 4.359375 0 "/></g></g></g><g fill="#1800ad" fill-opacity="1"><g transform="translate(375.357507, 34.964541)"><g><path d="M 6.375 -9.4375 C 5.707031 -9.4375 5.1875 -9.222656 4.8125 -8.796875 C 4.4375 -8.378906 4.222656 -7.785156 4.171875 -7.015625 L 8.546875 -7.015625 C 8.535156 -7.785156 8.332031 -8.378906 7.9375 -8.796875 C 7.550781 -9.222656 7.03125 -9.4375 6.375 -9.4375 Z M 6.8125 0.203125 C 4.96875 0.203125 3.523438 -0.300781 2.484375 -1.3125 C 1.453125 -2.332031 0.9375 -3.773438 0.9375 -5.640625 C 0.9375 -7.554688 1.414062 -9.035156 2.375 -10.078125 C 3.332031 -11.128906 4.660156 -11.65625 6.359375 -11.65625 C 7.972656 -11.65625 9.226562 -11.191406 10.125 -10.265625 C 11.03125 -9.347656 11.484375 -8.078125 11.484375 -6.453125 L 11.484375 -4.9375 L 4.109375 -4.9375 C 4.140625 -4.050781 4.398438 -3.359375 4.890625 -2.859375 C 5.378906 -2.367188 6.066406 -2.125 6.953125 -2.125 C 7.640625 -2.125 8.289062 -2.191406 8.90625 -2.328125 C 9.519531 -2.472656 10.160156 -2.703125 10.828125 -3.015625 L 10.828125 -0.609375 C 10.285156 -0.328125 9.703125 -0.125 9.078125 0 C 8.460938 0.132812 7.707031 0.203125 6.8125 0.203125 Z M 6.8125 0.203125 "/></g></g></g><g fill="#1800ad" fill-opacity="1"><g transform="translate(387.730863, 34.964541)"><g><path d="M 4.75 0 L 1.640625 0 L 1.640625 -15.921875 L 4.75 -15.921875 Z M 4.75 0 "/></g></g></g><g fill="#1800ad" fill-opacity="1"><g transform="translate(208.082394, 64.150952)"><g><path d="M 7.921875 0.203125 C 6.578125 0.203125 5.519531 -0.285156 4.75 -1.265625 L 4.59375 -1.265625 C 4.695312 -0.304688 4.75 0.25 4.75 0.40625 L 4.75 5.03125 L 1.640625 5.03125 L 1.640625 -11.4375 L 4.171875 -11.4375 L 4.609375 -9.953125 L 4.75 -9.953125 C 5.488281 -11.085938 6.570312 -11.65625 8 -11.65625 C 9.351562 -11.65625 10.410156 -11.128906 11.171875 -10.078125 C 11.929688 -9.035156 12.3125 -7.585938 12.3125 -5.734375 C 12.3125 -4.515625 12.132812 -3.453125 11.78125 -2.546875 C 11.425781 -1.648438 10.914062 -0.96875 10.25 -0.5 C 9.59375 -0.03125 8.816406 0.203125 7.921875 0.203125 Z M 7 -9.15625 C 6.226562 -9.15625 5.664062 -8.914062 5.3125 -8.4375 C 4.957031 -7.96875 4.769531 -7.1875 4.75 -6.09375 L 4.75 -5.765625 C 4.75 -4.535156 4.929688 -3.65625 5.296875 -3.125 C 5.671875 -2.59375 6.25 -2.328125 7.03125 -2.328125 C 8.4375 -2.328125 9.140625 -3.476562 9.140625 -5.78125 C 9.140625 -6.90625 8.96875 -7.75 8.625 -8.3125 C 8.28125 -8.875 7.738281 -9.15625 7 -9.15625 Z M 7 -9.15625 "/></g></g></g><g fill="#1800ad" fill-opacity="1"><g transform="translate(221.335166, 64.150952)"><g><path d="M 8.90625 0 L 8.296875 -1.5625 L 8.21875 -1.5625 C 7.6875 -0.894531 7.144531 -0.429688 6.59375 -0.171875 C 6.039062 0.078125 5.316406 0.203125 4.421875 0.203125 C 3.316406 0.203125 2.445312 -0.109375 1.8125 -0.734375 C 1.1875 -1.359375 0.875 -2.253906 0.875 -3.421875 C 0.875 -4.628906 1.296875 -5.519531 2.140625 -6.09375 C 2.992188 -6.675781 4.28125 -7 6 -7.0625 L 7.984375 -7.125 L 7.984375 -7.625 C 7.984375 -8.78125 7.390625 -9.359375 6.203125 -9.359375 C 5.285156 -9.359375 4.210938 -9.082031 2.984375 -8.53125 L 1.9375 -10.640625 C 3.257812 -11.328125 4.722656 -11.671875 6.328125 -11.671875 C 7.859375 -11.671875 9.03125 -11.335938 9.84375 -10.671875 C 10.664062 -10.003906 11.078125 -8.988281 11.078125 -7.625 L 11.078125 0 Z M 7.984375 -5.296875 L 6.765625 -5.265625 C 5.859375 -5.234375 5.179688 -5.066406 4.734375 -4.765625 C 4.296875 -4.460938 4.078125 -4.003906 4.078125 -3.390625 C 4.078125 -2.515625 4.582031 -2.078125 5.59375 -2.078125 C 6.320312 -2.078125 6.898438 -2.285156 7.328125 -2.703125 C 7.765625 -3.117188 7.984375 -3.671875 7.984375 -4.359375 Z M 7.984375 -5.296875 "/></g></g></g><g fill="#1800ad" fill-opacity="1"><g transform="translate(233.984616, 64.150952)"><g><path d="M 8.015625 -11.65625 C 8.441406 -11.65625 8.796875 -11.625 9.078125 -11.5625 L 8.84375 -8.640625 C 8.59375 -8.703125 8.285156 -8.734375 7.921875 -8.734375 C 6.921875 -8.734375 6.140625 -8.476562 5.578125 -7.96875 C 5.023438 -7.457031 4.75 -6.742188 4.75 -5.828125 L 4.75 0 L 1.640625 0 L 1.640625 -11.4375 L 4 -11.4375 L 4.453125 -9.515625 L 4.609375 -9.515625 C 4.960938 -10.160156 5.441406 -10.675781 6.046875 -11.0625 C 6.648438 -11.457031 7.304688 -11.65625 8.015625 -11.65625 Z M 8.015625 -11.65625 "/></g></g></g><g fill="#1800ad" fill-opacity="1"><g transform="translate(243.494708, 64.150952)"><g><path d="M 8.90625 0 L 8.296875 -1.5625 L 8.21875 -1.5625 C 7.6875 -0.894531 7.144531 -0.429688 6.59375 -0.171875 C 6.039062 0.078125 5.316406 0.203125 4.421875 0.203125 C 3.316406 0.203125 2.445312 -0.109375 1.8125 -0.734375 C 1.1875 -1.359375 0.875 -2.253906 0.875 -3.421875 C 0.875 -4.628906 1.296875 -5.519531 2.140625 -6.09375 C 2.992188 -6.675781 4.28125 -7 6 -7.0625 L 7.984375 -7.125 L 7.984375 -7.625 C 7.984375 -8.78125 7.390625 -9.359375 6.203125 -9.359375 C 5.285156 -9.359375 4.210938 -9.082031 2.984375 -8.53125 L 1.9375 -10.640625 C 3.257812 -11.328125 4.722656 -11.671875 6.328125 -11.671875 C 7.859375 -11.671875 9.03125 -11.335938 9.84375 -10.671875 C 10.664062 -10.003906 11.078125 -8.988281 11.078125 -7.625 L 11.078125 0 Z M 7.984375 -5.296875 L 6.765625 -5.265625 C 5.859375 -5.234375 5.179688 -5.066406 4.734375 -4.765625 C 4.296875 -4.460938 4.078125 -4.003906 4.078125 -3.390625 C 4.078125 -2.515625 4.582031 -2.078125 5.59375 -2.078125 C 6.320312 -2.078125 6.898438 -2.285156 7.328125 -2.703125 C 7.765625 -3.117188 7.984375 -3.671875 7.984375 -4.359375 Z M 7.984375 -5.296875 "/></g></g></g><g fill="#1800ad" fill-opacity="1"><g transform="translate(256.144158, 64.150952)"><g/></g></g><g fill="#1800ad" fill-opacity="1"><g transform="translate(261.584339, 64.150952)"><g><path d="M 4.359375 0 L 0 -11.4375 L 3.265625 -11.4375 L 5.46875 -4.921875 C 5.71875 -4.097656 5.875 -3.316406 5.9375 -2.578125 L 6 -2.578125 C 6.03125 -3.234375 6.179688 -4.015625 6.453125 -4.921875 L 8.65625 -11.4375 L 11.921875 -11.4375 L 7.5625 0 Z M 4.359375 0 "/></g></g></g><g fill="#1800ad" fill-opacity="1"><g transform="translate(273.497524, 64.150952)"><g><path d="M 4.125 -5.734375 C 4.125 -4.609375 4.304688 -3.753906 4.671875 -3.171875 C 5.046875 -2.585938 5.65625 -2.296875 6.5 -2.296875 C 7.332031 -2.296875 7.929688 -2.582031 8.296875 -3.15625 C 8.660156 -3.738281 8.84375 -4.597656 8.84375 -5.734375 C 8.84375 -6.867188 8.65625 -7.71875 8.28125 -8.28125 C 7.914062 -8.851562 7.3125 -9.140625 6.46875 -9.140625 C 5.644531 -9.140625 5.046875 -8.859375 4.671875 -8.296875 C 4.304688 -7.734375 4.125 -6.878906 4.125 -5.734375 Z M 12.03125 -5.734375 C 12.03125 -3.878906 11.535156 -2.425781 10.546875 -1.375 C 9.566406 -0.320312 8.203125 0.203125 6.453125 0.203125 C 5.359375 0.203125 4.390625 -0.0351562 3.546875 -0.515625 C 2.710938 -0.992188 2.066406 -1.679688 1.609375 -2.578125 C 1.160156 -3.484375 0.9375 -4.535156 0.9375 -5.734375 C 0.9375 -7.609375 1.425781 -9.0625 2.40625 -10.09375 C 3.382812 -11.132812 4.753906 -11.65625 6.515625 -11.65625 C 7.617188 -11.65625 8.585938 -11.414062 9.421875 -10.9375 C 10.265625 -10.457031 10.910156 -9.769531 11.359375 -8.875 C 11.804688 -7.988281 12.03125 -6.941406 12.03125 -5.734375 Z M 12.03125 -5.734375 "/></g></g></g><g fill="#1800ad" fill-opacity="1"><g transform="translate(286.463971, 64.150952)"><g><path d="M 6.28125 0.203125 C 2.71875 0.203125 0.9375 -1.75 0.9375 -5.65625 C 0.9375 -7.601562 1.421875 -9.085938 2.390625 -10.109375 C 3.359375 -11.140625 4.75 -11.65625 6.5625 -11.65625 C 7.882812 -11.65625 9.070312 -11.394531 10.125 -10.875 L 9.203125 -8.46875 C 8.710938 -8.65625 8.253906 -8.8125 7.828125 -8.9375 C 7.398438 -9.070312 6.976562 -9.140625 6.5625 -9.140625 C 4.9375 -9.140625 4.125 -7.984375 4.125 -5.671875 C 4.125 -3.441406 4.9375 -2.328125 6.5625 -2.328125 C 7.15625 -2.328125 7.707031 -2.40625 8.21875 -2.5625 C 8.738281 -2.71875 9.253906 -2.96875 9.765625 -3.3125 L 9.765625 -0.640625 C 9.253906 -0.316406 8.738281 -0.0976562 8.21875 0.015625 C 7.707031 0.140625 7.0625 0.203125 6.28125 0.203125 Z M 6.28125 0.203125 "/></g></g></g><g fill="#1800ad" fill-opacity="1"><g transform="translate(297.231855, 64.150952)"><g><path d="M 6.375 -9.4375 C 5.707031 -9.4375 5.1875 -9.222656 4.8125 -8.796875 C 4.4375 -8.378906 4.222656 -7.785156 4.171875 -7.015625 L 8.546875 -7.015625 C 8.535156 -7.785156 8.332031 -8.378906 7.9375 -8.796875 C 7.550781 -9.222656 7.03125 -9.4375 6.375 -9.4375 Z M 6.8125 0.203125 C 4.96875 0.203125 3.523438 -0.300781 2.484375 -1.3125 C 1.453125 -2.332031 0.9375 -3.773438 0.9375 -5.640625 C 0.9375 -7.554688 1.414062 -9.035156 2.375 -10.078125 C 3.332031 -11.128906 4.660156 -11.65625 6.359375 -11.65625 C 7.972656 -11.65625 9.226562 -11.191406 10.125 -10.265625 C 11.03125 -9.347656 11.484375 -8.078125 11.484375 -6.453125 L 11.484375 -4.9375 L 4.109375 -4.9375 C 4.140625 -4.050781 4.398438 -3.359375 4.890625 -2.859375 C 5.378906 -2.367188 6.066406 -2.125 6.953125 -2.125 C 7.640625 -2.125 8.289062 -2.191406 8.90625 -2.328125 C 9.519531 -2.472656 10.160156 -2.703125 10.828125 -3.015625 L 10.828125 -0.609375 C 10.285156 -0.328125 9.703125 -0.125 9.078125 0 C 8.460938 0.132812 7.707031 0.203125 6.8125 0.203125 Z M 8.796875 -12.703125 C 7.722656 -13.328125 6.925781 -13.925781 6.40625 -14.5 C 5.875 -13.945312 5.09375 -13.347656 4.0625 -12.703125 L 1.984375 -12.703125 L 1.984375 -12.96875 C 3.273438 -14.257812 4.144531 -15.285156 4.59375 -16.046875 L 8.25 -16.046875 C 8.457031 -15.691406 8.820312 -15.207031 9.34375 -14.59375 C 9.875 -13.988281 10.382812 -13.445312 10.875 -12.96875 L 10.875 -12.703125 Z M 8.796875 -12.703125 "/></g></g></g><g fill="#1800ad" fill-opacity="1"><g transform="translate(309.61509, 64.150952)"><g/></g></g><g fill="#1800ad" fill-opacity="1"><g transform="translate(164.466482, 93.337363)"><g><path d="M 15.15625 0 L 11.125 0 L 4.609375 -11.3125 L 4.515625 -11.3125 C 4.648438 -9.3125 4.71875 -7.882812 4.71875 -7.03125 L 4.71875 0 L 1.875 0 L 1.875 -14.953125 L 5.890625 -14.953125 L 12.375 -3.75 L 12.453125 -3.75 C 12.347656 -5.695312 12.296875 -7.070312 12.296875 -7.875 L 12.296875 -14.953125 L 15.15625 -14.953125 Z M 15.15625 0 "/></g></g></g><g fill="#1800ad" fill-opacity="1"><g transform="translate(181.49262, 93.337363)"><g><path d="M 8.90625 0 L 8.296875 -1.5625 L 8.21875 -1.5625 C 7.6875 -0.894531 7.144531 -0.429688 6.59375 -0.171875 C 6.039062 0.078125 5.316406 0.203125 4.421875 0.203125 C 3.316406 0.203125 2.445312 -0.109375 1.8125 -0.734375 C 1.1875 -1.359375 0.875 -2.253906 0.875 -3.421875 C 0.875 -4.628906 1.296875 -5.519531 2.140625 -6.09375 C 2.992188 -6.675781 4.28125 -7 6 -7.0625 L 7.984375 -7.125 L 7.984375 -7.625 C 7.984375 -8.78125 7.390625 -9.359375 6.203125 -9.359375 C 5.285156 -9.359375 4.210938 -9.082031 2.984375 -8.53125 L 1.9375 -10.640625 C 3.257812 -11.328125 4.722656 -11.671875 6.328125 -11.671875 C 7.859375 -11.671875 9.03125 -11.335938 9.84375 -10.671875 C 10.664062 -10.003906 11.078125 -8.988281 11.078125 -7.625 L 11.078125 0 Z M 7.984375 -5.296875 L 6.765625 -5.265625 C 5.859375 -5.234375 5.179688 -5.066406 4.734375 -4.765625 C 4.296875 -4.460938 4.078125 -4.003906 4.078125 -3.390625 C 4.078125 -2.515625 4.582031 -2.078125 5.59375 -2.078125 C 6.320312 -2.078125 6.898438 -2.285156 7.328125 -2.703125 C 7.765625 -3.117188 7.984375 -3.671875 7.984375 -4.359375 Z M 7.984375 -5.296875 "/></g></g></g><g fill="#1800ad" fill-opacity="1"><g transform="translate(194.14207, 93.337363)"><g><path d="M 4.359375 0 L 0 -11.4375 L 3.265625 -11.4375 L 5.46875 -4.921875 C 5.71875 -4.097656 5.875 -3.316406 5.9375 -2.578125 L 6 -2.578125 C 6.03125 -3.234375 6.179688 -4.015625 6.453125 -4.921875 L 8.65625 -11.4375 L 11.921875 -11.4375 L 7.5625 0 Z M 4.359375 0 "/></g></g></g><g fill="#1800ad" fill-opacity="1"><g transform="translate(206.055255, 93.337363)"><g><path d="M 6.375 -9.4375 C 5.707031 -9.4375 5.1875 -9.222656 4.8125 -8.796875 C 4.4375 -8.378906 4.222656 -7.785156 4.171875 -7.015625 L 8.546875 -7.015625 C 8.535156 -7.785156 8.332031 -8.378906 7.9375 -8.796875 C 7.550781 -9.222656 7.03125 -9.4375 6.375 -9.4375 Z M 6.8125 0.203125 C 4.96875 0.203125 3.523438 -0.300781 2.484375 -1.3125 C 1.453125 -2.332031 0.9375 -3.773438 0.9375 -5.640625 C 0.9375 -7.554688 1.414062 -9.035156 2.375 -10.078125 C 3.332031 -11.128906 4.660156 -11.65625 6.359375 -11.65625 C 7.972656 -11.65625 9.226562 -11.191406 10.125 -10.265625 C 11.03125 -9.347656 11.484375 -8.078125 11.484375 -6.453125 L 11.484375 -4.9375 L 4.109375 -4.9375 C 4.140625 -4.050781 4.398438 -3.359375 4.890625 -2.859375 C 5.378906 -2.367188 6.066406 -2.125 6.953125 -2.125 C 7.640625 -2.125 8.289062 -2.191406 8.90625 -2.328125 C 9.519531 -2.472656 10.160156 -2.703125 10.828125 -3.015625 L 10.828125 -0.609375 C 10.285156 -0.328125 9.703125 -0.125 9.078125 0 C 8.460938 0.132812 7.707031 0.203125 6.8125 0.203125 Z M 6.8125 0.203125 "/></g></g></g><g fill="#1800ad" fill-opacity="1"><g transform="translate(218.4286, 93.337363)"><g><path d="M 11.59375 -11.4375 L 11.59375 -9.859375 L 9.796875 -9.390625 C 10.128906 -8.878906 10.296875 -8.304688 10.296875 -7.671875 C 10.296875 -6.441406 9.863281 -5.484375 9 -4.796875 C 8.144531 -4.117188 6.957031 -3.78125 5.4375 -3.78125 L 4.875 -3.8125 L 4.421875 -3.859375 C 4.097656 -3.609375 3.9375 -3.332031 3.9375 -3.03125 C 3.9375 -2.582031 4.507812 -2.359375 5.65625 -2.359375 L 7.609375 -2.359375 C 8.859375 -2.359375 9.8125 -2.085938 10.46875 -1.546875 C 11.125 -1.015625 11.453125 -0.226562 11.453125 0.8125 C 11.453125 2.15625 10.894531 3.191406 9.78125 3.921875 C 8.664062 4.660156 7.066406 5.03125 4.984375 5.03125 C 3.390625 5.03125 2.171875 4.75 1.328125 4.1875 C 0.484375 3.632812 0.0625 2.859375 0.0625 1.859375 C 0.0625 1.171875 0.273438 0.59375 0.703125 0.125 C 1.128906 -0.332031 1.757812 -0.660156 2.59375 -0.859375 C 2.28125 -0.992188 2.003906 -1.21875 1.765625 -1.53125 C 1.523438 -1.84375 1.40625 -2.171875 1.40625 -2.515625 C 1.40625 -2.953125 1.53125 -3.316406 1.78125 -3.609375 C 2.03125 -3.898438 2.394531 -4.179688 2.875 -4.453125 C 2.269531 -4.710938 1.789062 -5.128906 1.4375 -5.703125 C 1.09375 -6.273438 0.921875 -6.953125 0.921875 -7.734375 C 0.921875 -8.984375 1.328125 -9.945312 2.140625 -10.625 C 2.953125 -11.3125 4.109375 -11.65625 5.609375 -11.65625 C 5.929688 -11.65625 6.3125 -11.625 6.75 -11.5625 C 7.195312 -11.507812 7.484375 -11.46875 7.609375 -11.4375 Z M 2.765625 1.609375 C 2.765625 2.046875 2.96875 2.382812 3.375 2.625 C 3.789062 2.875 4.367188 3 5.109375 3 C 6.234375 3 7.113281 2.84375 7.75 2.53125 C 8.382812 2.226562 8.703125 1.8125 8.703125 1.28125 C 8.703125 0.851562 8.515625 0.554688 8.140625 0.390625 C 7.765625 0.222656 7.179688 0.140625 6.390625 0.140625 L 4.78125 0.140625 C 4.207031 0.140625 3.726562 0.273438 3.34375 0.546875 C 2.957031 0.816406 2.765625 1.171875 2.765625 1.609375 Z M 3.890625 -7.6875 C 3.890625 -7.070312 4.03125 -6.582031 4.3125 -6.21875 C 4.601562 -5.851562 5.035156 -5.671875 5.609375 -5.671875 C 6.203125 -5.671875 6.632812 -5.851562 6.90625 -6.21875 C 7.175781 -6.582031 7.3125 -7.070312 7.3125 -7.6875 C 7.3125 -9.070312 6.742188 -9.765625 5.609375 -9.765625 C 4.460938 -9.765625 3.890625 -9.070312 3.890625 -7.6875 Z M 3.890625 -7.6875 "/></g></g></g><g fill="#1800ad" fill-opacity="1"><g transform="translate(230.259978, 93.337363)"><g><path d="M 8.90625 0 L 8.296875 -1.5625 L 8.21875 -1.5625 C 7.6875 -0.894531 7.144531 -0.429688 6.59375 -0.171875 C 6.039062 0.078125 5.316406 0.203125 4.421875 0.203125 C 3.316406 0.203125 2.445312 -0.109375 1.8125 -0.734375 C 1.1875 -1.359375 0.875 -2.253906 0.875 -3.421875 C 0.875 -4.628906 1.296875 -5.519531 2.140625 -6.09375 C 2.992188 -6.675781 4.28125 -7 6 -7.0625 L 7.984375 -7.125 L 7.984375 -7.625 C 7.984375 -8.78125 7.390625 -9.359375 6.203125 -9.359375 C 5.285156 -9.359375 4.210938 -9.082031 2.984375 -8.53125 L 1.9375 -10.640625 C 3.257812 -11.328125 4.722656 -11.671875 6.328125 -11.671875 C 7.859375 -11.671875 9.03125 -11.335938 9.84375 -10.671875 C 10.664062 -10.003906 11.078125 -8.988281 11.078125 -7.625 L 11.078125 0 Z M 7.984375 -5.296875 L 6.765625 -5.265625 C 5.859375 -5.234375 5.179688 -5.066406 4.734375 -4.765625 C 4.296875 -4.460938 4.078125 -4.003906 4.078125 -3.390625 C 4.078125 -2.515625 4.582031 -2.078125 5.59375 -2.078125 C 6.320312 -2.078125 6.898438 -2.285156 7.328125 -2.703125 C 7.765625 -3.117188 7.984375 -3.671875 7.984375 -4.359375 Z M 7.984375 -5.296875 "/></g></g></g><g fill="#1800ad" fill-opacity="1"><g transform="translate(242.909428, 93.337363)"><g><path d="M 8.015625 -11.65625 C 8.441406 -11.65625 8.796875 -11.625 9.078125 -11.5625 L 8.84375 -8.640625 C 8.59375 -8.703125 8.285156 -8.734375 7.921875 -8.734375 C 6.921875 -8.734375 6.140625 -8.476562 5.578125 -7.96875 C 5.023438 -7.457031 4.75 -6.742188 4.75 -5.828125 L 4.75 0 L 1.640625 0 L 1.640625 -11.4375 L 4 -11.4375 L 4.453125 -9.515625 L 4.609375 -9.515625 C 4.960938 -10.160156 5.441406 -10.675781 6.046875 -11.0625 C 6.648438 -11.457031 7.304688 -11.65625 8.015625 -11.65625 Z M 8.015625 -11.65625 "/></g></g></g><g fill="#1800ad" fill-opacity="1"><g transform="translate(252.41952, 93.337363)"><g/></g></g><g fill="#1800ad" fill-opacity="1"><g transform="translate(257.859701, 93.337363)"><g><path d="M 7.65625 0 L 4.484375 0 L 4.484375 -12.3125 L 0.421875 -12.3125 L 0.421875 -14.953125 L 11.71875 -14.953125 L 11.71875 -12.3125 L 7.65625 -12.3125 Z M 7.65625 0 "/></g></g></g><g fill="#1800ad" fill-opacity="1"><g transform="translate(269.987624, 93.337363)"><g><path d="M 8.015625 -11.65625 C 8.441406 -11.65625 8.796875 -11.625 9.078125 -11.5625 L 8.84375 -8.640625 C 8.59375 -8.703125 8.285156 -8.734375 7.921875 -8.734375 C 6.921875 -8.734375 6.140625 -8.476562 5.578125 -7.96875 C 5.023438 -7.457031 4.75 -6.742188 4.75 -5.828125 L 4.75 0 L 1.640625 0 L 1.640625 -11.4375 L 4 -11.4375 L 4.453125 -9.515625 L 4.609375 -9.515625 C 4.960938 -10.160156 5.441406 -10.675781 6.046875 -11.0625 C 6.648438 -11.457031 7.304688 -11.65625 8.015625 -11.65625 Z M 8.015625 -11.65625 "/></g></g></g><g fill="#1800ad" fill-opacity="1"><g transform="translate(279.497716, 93.337363)"><g><path d="M 8.90625 0 L 8.296875 -1.5625 L 8.21875 -1.5625 C 7.6875 -0.894531 7.144531 -0.429688 6.59375 -0.171875 C 6.039062 0.078125 5.316406 0.203125 4.421875 0.203125 C 3.316406 0.203125 2.445312 -0.109375 1.8125 -0.734375 C 1.1875 -1.359375 0.875 -2.253906 0.875 -3.421875 C 0.875 -4.628906 1.296875 -5.519531 2.140625 -6.09375 C 2.992188 -6.675781 4.28125 -7 6 -7.0625 L 7.984375 -7.125 L 7.984375 -7.625 C 7.984375 -8.78125 7.390625 -9.359375 6.203125 -9.359375 C 5.285156 -9.359375 4.210938 -9.082031 2.984375 -8.53125 L 1.9375 -10.640625 C 3.257812 -11.328125 4.722656 -11.671875 6.328125 -11.671875 C 7.859375 -11.671875 9.03125 -11.335938 9.84375 -10.671875 C 10.664062 -10.003906 11.078125 -8.988281 11.078125 -7.625 L 11.078125 0 Z M 7.984375 -5.296875 L 6.765625 -5.265625 C 5.859375 -5.234375 5.179688 -5.066406 4.734375 -4.765625 C 4.296875 -4.460938 4.078125 -4.003906 4.078125 -3.390625 C 4.078125 -2.515625 4.582031 -2.078125 5.59375 -2.078125 C 6.320312 -2.078125 6.898438 -2.285156 7.328125 -2.703125 C 7.765625 -3.117188 7.984375 -3.671875 7.984375 -4.359375 Z M 7.984375 -5.296875 "/></g></g></g><g fill="#1800ad" fill-opacity="1"><g transform="translate(292.147166, 93.337363)"><g><path d="M 12.203125 0 L 9.078125 0 L 9.078125 -6.6875 C 9.078125 -7.507812 8.925781 -8.125 8.625 -8.53125 C 8.332031 -8.945312 7.867188 -9.15625 7.234375 -9.15625 C 6.359375 -9.15625 5.722656 -8.863281 5.328125 -8.28125 C 4.941406 -7.695312 4.75 -6.726562 4.75 -5.375 L 4.75 0 L 1.640625 0 L 1.640625 -11.4375 L 4.015625 -11.4375 L 4.4375 -9.96875 L 4.609375 -9.96875 C 4.960938 -10.519531 5.441406 -10.9375 6.046875 -11.21875 C 6.660156 -11.507812 7.359375 -11.65625 8.140625 -11.65625 C 9.460938 -11.65625 10.46875 -11.296875 11.15625 -10.578125 C 11.851562 -9.859375 12.203125 -8.816406 12.203125 -7.453125 Z M 12.203125 0 "/></g></g></g><g fill="#1800ad" fill-opacity="1"><g transform="translate(305.911234, 93.337363)"><g><path d="M 6.375 -2.234375 C 7.164062 -2.234375 7.742188 -2.457031 8.109375 -2.90625 C 8.484375 -3.363281 8.6875 -4.160156 8.71875 -5.296875 L 8.71875 -5.671875 C 8.71875 -6.898438 8.523438 -7.78125 8.140625 -8.3125 C 7.765625 -8.84375 7.160156 -9.109375 6.328125 -9.109375 C 4.859375 -9.109375 4.125 -7.957031 4.125 -5.65625 C 4.125 -4.507812 4.304688 -3.648438 4.671875 -3.078125 C 5.035156 -2.515625 5.601562 -2.234375 6.375 -2.234375 Z M 5.265625 0.203125 C 3.910156 0.203125 2.847656 -0.316406 2.078125 -1.359375 C 1.316406 -2.398438 0.9375 -3.847656 0.9375 -5.703125 C 0.9375 -7.566406 1.328125 -9.023438 2.109375 -10.078125 C 2.890625 -11.128906 3.957031 -11.65625 5.3125 -11.65625 C 6.039062 -11.65625 6.671875 -11.515625 7.203125 -11.234375 C 7.742188 -10.960938 8.222656 -10.539062 8.640625 -9.96875 L 8.71875 -9.96875 L 9 -11.4375 L 11.625 -11.4375 L 11.625 5.03125 L 8.5 5.03125 L 8.5 0.234375 C 8.5 -0.179688 8.546875 -0.753906 8.640625 -1.484375 L 8.5 -1.484375 C 8.164062 -0.929688 7.722656 -0.507812 7.171875 -0.21875 C 6.617188 0.0625 5.984375 0.203125 5.265625 0.203125 Z M 5.265625 0.203125 "/></g></g></g><g fill="#1800ad" fill-opacity="1"><g transform="translate(319.164007, 93.337363)"><g><path d="M 9.734375 0 L 9.328125 -1.46875 L 9.15625 -1.46875 C 8.820312 -0.9375 8.347656 -0.523438 7.734375 -0.234375 C 7.117188 0.0546875 6.421875 0.203125 5.640625 0.203125 C 4.296875 0.203125 3.28125 -0.15625 2.59375 -0.875 C 1.914062 -1.59375 1.578125 -2.628906 1.578125 -3.984375 L 1.578125 -11.4375 L 4.703125 -11.4375 L 4.703125 -4.75 C 4.703125 -3.925781 4.847656 -3.304688 5.140625 -2.890625 C 5.429688 -2.484375 5.894531 -2.28125 6.53125 -2.28125 C 7.40625 -2.28125 8.035156 -2.570312 8.421875 -3.15625 C 8.816406 -3.738281 9.015625 -4.707031 9.015625 -6.0625 L 9.015625 -11.4375 L 12.140625 -11.4375 L 12.140625 0 Z M 9.734375 0 "/></g></g></g><g fill="#1800ad" fill-opacity="1"><g transform="translate(332.928075, 93.337363)"><g><path d="M 1.5 -14.390625 C 1.5 -15.410156 2.066406 -15.921875 3.203125 -15.921875 C 4.335938 -15.921875 4.90625 -15.410156 4.90625 -14.390625 C 4.90625 -13.910156 4.757812 -13.535156 4.46875 -13.265625 C 4.1875 -12.992188 3.765625 -12.859375 3.203125 -12.859375 C 2.066406 -12.859375 1.5 -13.367188 1.5 -14.390625 Z M 4.75 0 L 1.640625 0 L 1.640625 -11.4375 L 4.75 -11.4375 Z M 4.75 0 "/></g></g></g><g fill="#1800ad" fill-opacity="1"><g transform="translate(339.319272, 93.337363)"><g><path d="M 4.75 0 L 1.640625 0 L 1.640625 -15.921875 L 4.75 -15.921875 Z M 4.75 0 "/></g></g></g><g fill="#1800ad" fill-opacity="1"><g transform="translate(345.710468, 93.337363)"><g><path d="M 4.125 -5.734375 C 4.125 -4.609375 4.304688 -3.753906 4.671875 -3.171875 C 5.046875 -2.585938 5.65625 -2.296875 6.5 -2.296875 C 7.332031 -2.296875 7.929688 -2.582031 8.296875 -3.15625 C 8.660156 -3.738281 8.84375 -4.597656 8.84375 -5.734375 C 8.84375 -6.867188 8.65625 -7.71875 8.28125 -8.28125 C 7.914062 -8.851562 7.3125 -9.140625 6.46875 -9.140625 C 5.644531 -9.140625 5.046875 -8.859375 4.671875 -8.296875 C 4.304688 -7.734375 4.125 -6.878906 4.125 -5.734375 Z M 12.03125 -5.734375 C 12.03125 -3.878906 11.535156 -2.425781 10.546875 -1.375 C 9.566406 -0.320312 8.203125 0.203125 6.453125 0.203125 C 5.359375 0.203125 4.390625 -0.0351562 3.546875 -0.515625 C 2.710938 -0.992188 2.066406 -1.679688 1.609375 -2.578125 C 1.160156 -3.484375 0.9375 -4.535156 0.9375 -5.734375 C 0.9375 -7.609375 1.425781 -9.0625 2.40625 -10.09375 C 3.382812 -11.132812 4.753906 -11.65625 6.515625 -11.65625 C 7.617188 -11.65625 8.585938 -11.414062 9.421875 -10.9375 C 10.265625 -10.457031 10.910156 -9.769531 11.359375 -8.875 C 11.804688 -7.988281 12.03125 -6.941406 12.03125 -5.734375 Z M 12.03125 -5.734375 "/></g></g></g></svg>