<svg xmlns="http://www.w3.org/2000/svg" xmlns:xlink="http://www.w3.org/1999/xlink" width="512" zoomAndPan="magnify" viewBox="0 0 384 112.499997" height="150" preserveAspectRatio="xMidYMid meet" version="1.0"><defs><g/><clipPath id="e09ca63910"><path d="M 0.847656 0 L 93.4375 0 L 93.4375 111.253906 L 0.847656 111.253906 Z M 0.847656 0 " clip-rule="nonzero"/></clipPath></defs><g clip-path="url(#e09ca63910)"><path fill="#1800ad" d="M 4.585938 18.03125 L 4.585938 45.917969 C 4.585938 70.671875 18.339844 92.929688 40.480469 103.996094 L 47.253906 107.386719 L 54.03125 103.996094 C 76.171875 92.929688 89.925781 70.671875 89.925781 45.917969 L 89.925781 18.03125 L 47.253906 3.8125 Z M 47.253906 111.3125 C 46.972656 111.3125 46.6875 111.25 46.421875 111.117188 L 38.820312 107.3125 C 15.410156 95.609375 0.875 72.085938 0.875 45.917969 L 0.875 16.695312 C 0.875 15.898438 1.382812 15.191406 2.140625 14.9375 L 46.667969 0.09375 C 47.050781 -0.0273438 47.457031 -0.0273438 47.839844 0.09375 L 92.367188 14.9375 C 93.121094 15.191406 93.636719 15.898438 93.636719 16.695312 L 93.636719 45.917969 C 93.636719 72.085938 79.097656 95.609375 55.691406 107.3125 L 48.089844 111.117188 C 47.820312 111.25 47.539062 111.3125 47.253906 111.3125 " fill-opacity="1" fill-rule="nonzero"/></g><path fill="#1800ad" d="M 15.714844 26.058594 L 15.714844 45.917969 C 15.714844 66.425781 27.117188 84.871094 45.457031 94.035156 L 47.253906 94.9375 L 49.050781 94.035156 C 67.394531 84.871094 78.792969 66.425781 78.792969 45.917969 L 78.792969 26.058594 L 47.253906 15.542969 Z M 47.253906 98.871094 C 46.972656 98.871094 46.6875 98.804688 46.421875 98.675781 L 43.796875 97.355469 C 24.1875 87.558594 12.003906 67.847656 12.003906 45.917969 L 12.003906 24.71875 C 12.003906 23.921875 12.519531 23.210938 13.273438 22.957031 L 46.667969 11.828125 C 47.050781 11.703125 47.457031 11.703125 47.839844 11.828125 L 81.234375 22.957031 C 81.988281 23.210938 82.503906 23.921875 82.503906 24.71875 L 82.503906 45.917969 C 82.503906 67.847656 70.320312 87.558594 50.710938 97.355469 L 48.089844 98.675781 C 47.820312 98.804688 47.539062 98.871094 47.253906 98.871094 " fill-opacity="1" fill-rule="nonzero"/><path fill="#1800ad" d="M 30.425781 54.757812 L 43.542969 67.875 L 68.242188 43.175781 L 65.617188 40.554688 L 44.855469 61.316406 C 44.132812 62.042969 42.957031 62.042969 42.234375 61.316406 L 33.050781 52.136719 Z M 43.542969 72.355469 C 43.050781 72.355469 42.582031 72.160156 42.234375 71.808594 L 26.492188 56.070312 C 26.144531 55.722656 25.949219 55.25 25.949219 54.757812 C 25.949219 54.265625 26.144531 53.792969 26.492188 53.445312 L 31.738281 48.199219 C 32.464844 47.476562 33.636719 47.476562 34.363281 48.199219 L 43.542969 57.382812 L 64.308594 36.617188 C 65.03125 35.894531 66.207031 35.894531 66.929688 36.617188 L 72.175781 41.867188 C 72.902344 42.589844 72.902344 43.765625 72.175781 44.488281 L 44.855469 71.808594 C 44.507812 72.160156 44.035156 72.355469 43.542969 72.355469 " fill-opacity="1" fill-rule="nonzero"/><g fill="#1800ad" fill-opacity="1"><g transform="translate(117.137879, 39.823011)"><g><path d="M 7.828125 -11.90625 C 6.691406 -11.90625 5.8125 -11.476562 5.1875 -10.625 C 4.5625 -9.769531 4.25 -8.582031 4.25 -7.0625 C 4.25 -3.894531 5.441406 -2.3125 7.828125 -2.3125 C 8.828125 -2.3125 10.035156 -2.5625 11.453125 -3.0625 L 11.453125 -0.53125 C 10.285156 -0.0507812 8.984375 0.1875 7.546875 0.1875 C 5.472656 0.1875 3.890625 -0.4375 2.796875 -1.6875 C 1.703125 -2.9375 1.15625 -4.734375 1.15625 -7.078125 C 1.15625 -8.554688 1.421875 -9.851562 1.953125 -10.96875 C 2.492188 -12.082031 3.269531 -12.9375 4.28125 -13.53125 C 5.289062 -14.125 6.472656 -14.421875 7.828125 -14.421875 C 9.203125 -14.421875 10.585938 -14.082031 11.984375 -13.40625 L 11.015625 -10.96875 C 10.484375 -11.21875 9.945312 -11.4375 9.40625 -11.625 C 8.875 -11.8125 8.347656 -11.90625 7.828125 -11.90625 Z M 7.828125 -11.90625 "/></g></g></g><g fill="#1800ad" fill-opacity="1"><g transform="translate(129.820672, 39.823011)"><g><path d="M 3.921875 -5.453125 C 3.921875 -4.378906 4.097656 -3.566406 4.453125 -3.015625 C 4.804688 -2.460938 5.378906 -2.1875 6.171875 -2.1875 C 6.960938 -2.1875 7.53125 -2.457031 7.875 -3 C 8.21875 -3.550781 8.390625 -4.367188 8.390625 -5.453125 C 8.390625 -6.523438 8.210938 -7.332031 7.859375 -7.875 C 7.515625 -8.414062 6.945312 -8.6875 6.15625 -8.6875 C 5.363281 -8.6875 4.789062 -8.414062 4.4375 -7.875 C 4.09375 -7.34375 3.921875 -6.535156 3.921875 -5.453125 Z M 11.4375 -5.453125 C 11.4375 -3.679688 10.96875 -2.296875 10.03125 -1.296875 C 9.09375 -0.304688 7.796875 0.1875 6.140625 0.1875 C 5.085938 0.1875 4.160156 -0.0351562 3.359375 -0.484375 C 2.566406 -0.941406 1.957031 -1.597656 1.53125 -2.453125 C 1.101562 -3.304688 0.890625 -4.304688 0.890625 -5.453125 C 0.890625 -7.222656 1.351562 -8.601562 2.28125 -9.59375 C 3.207031 -10.582031 4.507812 -11.078125 6.1875 -11.078125 C 7.226562 -11.078125 8.144531 -10.847656 8.9375 -10.390625 C 9.738281 -9.929688 10.351562 -9.273438 10.78125 -8.421875 C 11.21875 -7.578125 11.4375 -6.585938 11.4375 -5.453125 Z M 11.4375 -5.453125 "/></g></g></g><g fill="#1800ad" fill-opacity="1"><g transform="translate(142.143877, 39.823011)"><g><path d="M 11.59375 0 L 8.625 0 L 8.625 -6.34375 C 8.625 -7.125 8.484375 -7.710938 8.203125 -8.109375 C 7.921875 -8.503906 7.476562 -8.703125 6.875 -8.703125 C 6.039062 -8.703125 5.4375 -8.421875 5.0625 -7.859375 C 4.695312 -7.304688 4.515625 -6.390625 4.515625 -5.109375 L 4.515625 0 L 1.5625 0 L 1.5625 -10.859375 L 3.8125 -10.859375 L 4.21875 -9.484375 L 4.390625 -9.484375 C 4.710938 -10.003906 5.164062 -10.398438 5.75 -10.671875 C 6.332031 -10.941406 6.992188 -11.078125 7.734375 -11.078125 C 8.992188 -11.078125 9.953125 -10.734375 10.609375 -10.046875 C 11.265625 -9.359375 11.59375 -8.367188 11.59375 -7.078125 Z M 11.59375 0 "/></g></g></g><g fill="#1800ad" fill-opacity="1"><g transform="translate(155.225134, 39.823011)"><g><path d="M 6.0625 -8.96875 C 5.425781 -8.96875 4.929688 -8.765625 4.578125 -8.359375 C 4.222656 -7.960938 4.019531 -7.398438 3.96875 -6.671875 L 8.125 -6.671875 C 8.113281 -7.398438 7.921875 -7.960938 7.546875 -8.359375 C 7.179688 -8.765625 6.6875 -8.96875 6.0625 -8.96875 Z M 6.46875 0.1875 C 4.71875 0.1875 3.347656 -0.289062 2.359375 -1.25 C 1.378906 -2.21875 0.890625 -3.585938 0.890625 -5.359375 C 0.890625 -7.179688 1.34375 -8.585938 2.25 -9.578125 C 3.164062 -10.578125 4.425781 -11.078125 6.03125 -11.078125 C 7.570312 -11.078125 8.769531 -10.640625 9.625 -9.765625 C 10.476562 -8.890625 10.90625 -7.679688 10.90625 -6.140625 L 10.90625 -4.6875 L 3.890625 -4.6875 C 3.929688 -3.851562 4.179688 -3.195312 4.640625 -2.71875 C 5.109375 -2.25 5.765625 -2.015625 6.609375 -2.015625 C 7.265625 -2.015625 7.882812 -2.082031 8.46875 -2.21875 C 9.050781 -2.351562 9.660156 -2.570312 10.296875 -2.875 L 10.296875 -0.578125 C 9.773438 -0.316406 9.21875 -0.125 8.625 0 C 8.039062 0.125 7.320312 0.1875 6.46875 0.1875 Z M 6.46875 0.1875 "/></g></g></g><g fill="#1800ad" fill-opacity="1"><g transform="translate(166.984659, 39.823011)"><g><path d="M 3.78125 -5.546875 L 0.28125 -10.859375 L 3.640625 -10.859375 L 5.75 -7.40625 L 7.875 -10.859375 L 11.25 -10.859375 L 7.703125 -5.546875 L 11.40625 0 L 8.03125 0 L 5.75 -3.71875 L 3.453125 0 L 0.09375 0 Z M 3.78125 -5.546875 "/></g></g></g><g fill="#1800ad" fill-opacity="1"><g transform="translate(178.4915, 39.823011)"><g><path d="M 8.453125 0 L 7.875 -1.484375 L 7.8125 -1.484375 C 7.3125 -0.847656 6.796875 -0.410156 6.265625 -0.171875 C 5.734375 0.0664062 5.046875 0.1875 4.203125 0.1875 C 3.160156 0.1875 2.335938 -0.109375 1.734375 -0.703125 C 1.128906 -1.296875 0.828125 -2.144531 0.828125 -3.25 C 0.828125 -4.40625 1.226562 -5.253906 2.03125 -5.796875 C 2.84375 -6.347656 4.066406 -6.648438 5.703125 -6.703125 L 7.578125 -6.765625 L 7.578125 -7.234375 C 7.578125 -8.335938 7.015625 -8.890625 5.890625 -8.890625 C 5.023438 -8.890625 4.003906 -8.628906 2.828125 -8.109375 L 1.84375 -10.109375 C 3.09375 -10.765625 4.476562 -11.09375 6 -11.09375 C 7.457031 -11.09375 8.578125 -10.773438 9.359375 -10.140625 C 10.140625 -9.503906 10.53125 -8.535156 10.53125 -7.234375 L 10.53125 0 Z M 7.578125 -5.03125 L 6.4375 -5 C 5.570312 -4.96875 4.925781 -4.8125 4.5 -4.53125 C 4.082031 -4.25 3.875 -3.816406 3.875 -3.234375 C 3.875 -2.390625 4.351562 -1.96875 5.3125 -1.96875 C 6 -1.96875 6.546875 -2.164062 6.953125 -2.5625 C 7.367188 -2.957031 7.578125 -3.484375 7.578125 -4.140625 Z M 4.53125 -13.078125 C 4.332031 -13.078125 4.140625 -12.988281 3.953125 -12.8125 C 3.773438 -12.644531 3.640625 -12.390625 3.546875 -12.046875 L 2.109375 -12.046875 C 2.179688 -12.984375 2.445312 -13.71875 2.90625 -14.25 C 3.375 -14.78125 3.988281 -15.046875 4.75 -15.046875 C 5.007812 -15.046875 5.269531 -14.988281 5.53125 -14.875 C 5.789062 -14.769531 6.046875 -14.65625 6.296875 -14.53125 C 6.546875 -14.40625 6.789062 -14.289062 7.03125 -14.1875 C 7.269531 -14.082031 7.503906 -14.03125 7.734375 -14.03125 C 7.929688 -14.03125 8.125 -14.113281 8.3125 -14.28125 C 8.5 -14.457031 8.632812 -14.71875 8.71875 -15.0625 L 10.15625 -15.0625 C 10.09375 -14.125 9.820312 -13.390625 9.34375 -12.859375 C 8.875 -12.328125 8.265625 -12.0625 7.515625 -12.0625 C 7.253906 -12.0625 6.992188 -12.113281 6.734375 -12.21875 C 6.484375 -12.332031 6.234375 -12.453125 5.984375 -12.578125 C 5.734375 -12.703125 5.488281 -12.816406 5.25 -12.921875 C 5.007812 -13.023438 4.769531 -13.078125 4.53125 -13.078125 Z M 4.53125 -13.078125 "/></g></g></g><g fill="#1800ad" fill-opacity="1"><g transform="translate(190.513428, 39.823011)"><g><path d="M 3.921875 -5.453125 C 3.921875 -4.378906 4.097656 -3.566406 4.453125 -3.015625 C 4.804688 -2.460938 5.378906 -2.1875 6.171875 -2.1875 C 6.960938 -2.1875 7.53125 -2.457031 7.875 -3 C 8.21875 -3.550781 8.390625 -4.367188 8.390625 -5.453125 C 8.390625 -6.523438 8.210938 -7.332031 7.859375 -7.875 C 7.515625 -8.414062 6.945312 -8.6875 6.15625 -8.6875 C 5.363281 -8.6875 4.789062 -8.414062 4.4375 -7.875 C 4.09375 -7.34375 3.921875 -6.535156 3.921875 -5.453125 Z M 11.4375 -5.453125 C 11.4375 -3.679688 10.96875 -2.296875 10.03125 -1.296875 C 9.09375 -0.304688 7.796875 0.1875 6.140625 0.1875 C 5.085938 0.1875 4.160156 -0.0351562 3.359375 -0.484375 C 2.566406 -0.941406 1.957031 -1.597656 1.53125 -2.453125 C 1.101562 -3.304688 0.890625 -4.304688 0.890625 -5.453125 C 0.890625 -7.222656 1.351562 -8.601562 2.28125 -9.59375 C 3.207031 -10.582031 4.507812 -11.078125 6.1875 -11.078125 C 7.226562 -11.078125 8.144531 -10.847656 8.9375 -10.390625 C 9.738281 -9.929688 10.351562 -9.273438 10.78125 -8.421875 C 11.21875 -7.578125 11.4375 -6.585938 11.4375 -5.453125 Z M 11.4375 -5.453125 "/></g></g></g><g fill="#1800ad" fill-opacity="1"><g transform="translate(202.836633, 39.823011)"><g/></g></g><g fill="#1800ad" fill-opacity="1"><g transform="translate(208.006936, 39.823011)"><g><path d="M 10.171875 -3.953125 C 10.171875 -2.660156 9.707031 -1.644531 8.78125 -0.90625 C 7.863281 -0.175781 6.582031 0.1875 4.9375 0.1875 C 3.414062 0.1875 2.070312 -0.09375 0.90625 -0.65625 L 0.90625 -3.453125 C 1.875 -3.023438 2.6875 -2.722656 3.34375 -2.546875 C 4.007812 -2.378906 4.617188 -2.296875 5.171875 -2.296875 C 5.828125 -2.296875 6.332031 -2.421875 6.6875 -2.671875 C 7.039062 -2.921875 7.21875 -3.296875 7.21875 -3.796875 C 7.21875 -4.078125 7.140625 -4.328125 6.984375 -4.546875 C 6.828125 -4.765625 6.597656 -4.972656 6.296875 -5.171875 C 5.992188 -5.367188 5.382812 -5.691406 4.46875 -6.140625 C 3.59375 -6.546875 2.9375 -6.9375 2.5 -7.3125 C 2.070312 -7.6875 1.726562 -8.125 1.46875 -8.625 C 1.207031 -9.125 1.078125 -9.707031 1.078125 -10.375 C 1.078125 -11.625 1.503906 -12.609375 2.359375 -13.328125 C 3.210938 -14.054688 4.390625 -14.421875 5.890625 -14.421875 C 6.628906 -14.421875 7.332031 -14.332031 8 -14.15625 C 8.675781 -13.976562 9.378906 -13.726562 10.109375 -13.40625 L 9.140625 -11.078125 C 8.378906 -11.378906 7.75 -11.59375 7.25 -11.71875 C 6.757812 -11.84375 6.273438 -11.90625 5.796875 -11.90625 C 5.222656 -11.90625 4.785156 -11.769531 4.484375 -11.5 C 4.179688 -11.238281 4.03125 -10.894531 4.03125 -10.46875 C 4.03125 -10.195312 4.085938 -9.960938 4.203125 -9.765625 C 4.328125 -9.578125 4.523438 -9.390625 4.796875 -9.203125 C 5.066406 -9.015625 5.703125 -8.679688 6.703125 -8.203125 C 8.035156 -7.566406 8.945312 -6.929688 9.4375 -6.296875 C 9.925781 -5.660156 10.171875 -4.878906 10.171875 -3.953125 Z M 10.171875 -3.953125 "/></g></g></g><g fill="#1800ad" fill-opacity="1"><g transform="translate(218.969535, 39.823011)"><g><path d="M 6.0625 -8.96875 C 5.425781 -8.96875 4.929688 -8.765625 4.578125 -8.359375 C 4.222656 -7.960938 4.019531 -7.398438 3.96875 -6.671875 L 8.125 -6.671875 C 8.113281 -7.398438 7.921875 -7.960938 7.546875 -8.359375 C 7.179688 -8.765625 6.6875 -8.96875 6.0625 -8.96875 Z M 6.46875 0.1875 C 4.71875 0.1875 3.347656 -0.289062 2.359375 -1.25 C 1.378906 -2.21875 0.890625 -3.585938 0.890625 -5.359375 C 0.890625 -7.179688 1.34375 -8.585938 2.25 -9.578125 C 3.164062 -10.578125 4.425781 -11.078125 6.03125 -11.078125 C 7.570312 -11.078125 8.769531 -10.640625 9.625 -9.765625 C 10.476562 -8.890625 10.90625 -7.679688 10.90625 -6.140625 L 10.90625 -4.6875 L 3.890625 -4.6875 C 3.929688 -3.851562 4.179688 -3.195312 4.640625 -2.71875 C 5.109375 -2.25 5.765625 -2.015625 6.609375 -2.015625 C 7.265625 -2.015625 7.882812 -2.082031 8.46875 -2.21875 C 9.050781 -2.351562 9.660156 -2.570312 10.296875 -2.875 L 10.296875 -0.578125 C 9.773438 -0.316406 9.21875 -0.125 8.625 0 C 8.039062 0.125 7.320312 0.1875 6.46875 0.1875 Z M 6.46875 0.1875 "/></g></g></g><g fill="#1800ad" fill-opacity="1"><g transform="translate(230.72906, 39.823011)"><g><path d="M 11.015625 -10.859375 L 11.015625 -9.359375 L 9.3125 -8.921875 C 9.625 -8.429688 9.78125 -7.890625 9.78125 -7.296875 C 9.78125 -6.128906 9.375 -5.21875 8.5625 -4.5625 C 7.75 -3.914062 6.617188 -3.59375 5.171875 -3.59375 L 4.640625 -3.609375 L 4.203125 -3.671875 C 3.890625 -3.429688 3.734375 -3.171875 3.734375 -2.890625 C 3.734375 -2.460938 4.28125 -2.25 5.375 -2.25 L 7.21875 -2.25 C 8.414062 -2.25 9.328125 -1.988281 9.953125 -1.46875 C 10.578125 -0.957031 10.890625 -0.207031 10.890625 0.78125 C 10.890625 2.050781 10.359375 3.035156 9.296875 3.734375 C 8.234375 4.429688 6.710938 4.78125 4.734375 4.78125 C 3.210938 4.78125 2.050781 4.515625 1.25 3.984375 C 0.457031 3.460938 0.0625 2.722656 0.0625 1.765625 C 0.0625 1.109375 0.265625 0.5625 0.671875 0.125 C 1.078125 -0.3125 1.675781 -0.625 2.46875 -0.8125 C 2.164062 -0.945312 1.898438 -1.160156 1.671875 -1.453125 C 1.441406 -1.742188 1.328125 -2.054688 1.328125 -2.390625 C 1.328125 -2.804688 1.445312 -3.148438 1.6875 -3.421875 C 1.925781 -3.703125 2.273438 -3.972656 2.734375 -4.234375 C 2.160156 -4.484375 1.707031 -4.878906 1.375 -5.421875 C 1.039062 -5.960938 0.875 -6.601562 0.875 -7.34375 C 0.875 -8.53125 1.257812 -9.445312 2.03125 -10.09375 C 2.800781 -10.75 3.90625 -11.078125 5.34375 -11.078125 C 5.644531 -11.078125 6.003906 -11.046875 6.421875 -10.984375 C 6.835938 -10.929688 7.101562 -10.890625 7.21875 -10.859375 Z M 2.625 1.53125 C 2.625 1.9375 2.816406 2.253906 3.203125 2.484375 C 3.597656 2.722656 4.148438 2.84375 4.859375 2.84375 C 5.921875 2.84375 6.753906 2.695312 7.359375 2.40625 C 7.960938 2.113281 8.265625 1.71875 8.265625 1.21875 C 8.265625 0.8125 8.082031 0.53125 7.71875 0.375 C 7.363281 0.21875 6.816406 0.140625 6.078125 0.140625 L 4.546875 0.140625 C 3.992188 0.140625 3.535156 0.265625 3.171875 0.515625 C 2.804688 0.773438 2.625 1.113281 2.625 1.53125 Z M 3.703125 -7.3125 C 3.703125 -6.71875 3.835938 -6.25 4.109375 -5.90625 C 4.378906 -5.5625 4.789062 -5.390625 5.34375 -5.390625 C 5.894531 -5.390625 6.300781 -5.5625 6.5625 -5.90625 C 6.820312 -6.25 6.953125 -6.71875 6.953125 -7.3125 C 6.953125 -8.613281 6.414062 -9.265625 5.34375 -9.265625 C 4.25 -9.265625 3.703125 -8.613281 3.703125 -7.3125 Z M 3.703125 -7.3125 "/></g></g></g><g fill="#1800ad" fill-opacity="1"><g transform="translate(241.973499, 39.823011)"><g><path d="M 9.25 0 L 8.859375 -1.390625 L 8.703125 -1.390625 C 8.378906 -0.878906 7.925781 -0.488281 7.34375 -0.21875 C 6.757812 0.0507812 6.097656 0.1875 5.359375 0.1875 C 4.078125 0.1875 3.113281 -0.148438 2.46875 -0.828125 C 1.820312 -1.515625 1.5 -2.5 1.5 -3.78125 L 1.5 -10.859375 L 4.46875 -10.859375 L 4.46875 -4.515625 C 4.46875 -3.734375 4.601562 -3.144531 4.875 -2.75 C 5.15625 -2.363281 5.601562 -2.171875 6.21875 -2.171875 C 7.039062 -2.171875 7.632812 -2.445312 8 -3 C 8.375 -3.550781 8.5625 -4.46875 8.5625 -5.75 L 8.5625 -10.859375 L 11.53125 -10.859375 L 11.53125 0 Z M 9.25 0 "/></g></g></g><g fill="#1800ad" fill-opacity="1"><g transform="translate(255.054756, 39.823011)"><g><path d="M 7.625 -11.078125 C 8.019531 -11.078125 8.351562 -11.046875 8.625 -10.984375 L 8.390625 -8.203125 C 8.148438 -8.265625 7.859375 -8.296875 7.515625 -8.296875 C 6.578125 -8.296875 5.84375 -8.050781 5.3125 -7.5625 C 4.78125 -7.082031 4.515625 -6.40625 4.515625 -5.53125 L 4.515625 0 L 1.5625 0 L 1.5625 -10.859375 L 3.796875 -10.859375 L 4.234375 -9.046875 L 4.390625 -9.046875 C 4.722656 -9.648438 5.175781 -10.140625 5.75 -10.515625 C 6.320312 -10.890625 6.945312 -11.078125 7.625 -11.078125 Z M 7.625 -11.078125 "/></g></g></g><g fill="#1800ad" fill-opacity="1"><g transform="translate(264.093068, 39.823011)"><g><path d="M 8.453125 0 L 7.875 -1.484375 L 7.8125 -1.484375 C 7.3125 -0.847656 6.796875 -0.410156 6.265625 -0.171875 C 5.734375 0.0664062 5.046875 0.1875 4.203125 0.1875 C 3.160156 0.1875 2.335938 -0.109375 1.734375 -0.703125 C 1.128906 -1.296875 0.828125 -2.144531 0.828125 -3.25 C 0.828125 -4.40625 1.226562 -5.253906 2.03125 -5.796875 C 2.84375 -6.347656 4.066406 -6.648438 5.703125 -6.703125 L 7.578125 -6.765625 L 7.578125 -7.234375 C 7.578125 -8.335938 7.015625 -8.890625 5.890625 -8.890625 C 5.023438 -8.890625 4.003906 -8.628906 2.828125 -8.109375 L 1.84375 -10.109375 C 3.09375 -10.765625 4.476562 -11.09375 6 -11.09375 C 7.457031 -11.09375 8.578125 -10.773438 9.359375 -10.140625 C 10.140625 -9.503906 10.53125 -8.535156 10.53125 -7.234375 L 10.53125 0 Z M 7.578125 -5.03125 L 6.4375 -5 C 5.570312 -4.96875 4.925781 -4.8125 4.5 -4.53125 C 4.082031 -4.25 3.875 -3.816406 3.875 -3.234375 C 3.875 -2.390625 4.351562 -1.96875 5.3125 -1.96875 C 6 -1.96875 6.546875 -2.164062 6.953125 -2.5625 C 7.367188 -2.957031 7.578125 -3.484375 7.578125 -4.140625 Z M 7.578125 -5.03125 "/></g></g></g><g fill="#1800ad" fill-opacity="1"><g transform="translate(276.114996, 39.823011)"><g/></g></g><g fill="#1800ad" fill-opacity="1"><g transform="translate(281.2853, 39.823011)"><g><path d="M 6.0625 -8.96875 C 5.425781 -8.96875 4.929688 -8.765625 4.578125 -8.359375 C 4.222656 -7.960938 4.019531 -7.398438 3.96875 -6.671875 L 8.125 -6.671875 C 8.113281 -7.398438 7.921875 -7.960938 7.546875 -8.359375 C 7.179688 -8.765625 6.6875 -8.96875 6.0625 -8.96875 Z M 6.46875 0.1875 C 4.71875 0.1875 3.347656 -0.289062 2.359375 -1.25 C 1.378906 -2.21875 0.890625 -3.585938 0.890625 -5.359375 C 0.890625 -7.179688 1.34375 -8.585938 2.25 -9.578125 C 3.164062 -10.578125 4.425781 -11.078125 6.03125 -11.078125 C 7.570312 -11.078125 8.769531 -10.640625 9.625 -9.765625 C 10.476562 -8.890625 10.90625 -7.679688 10.90625 -6.140625 L 10.90625 -4.6875 L 3.890625 -4.6875 C 3.929688 -3.851562 4.179688 -3.195312 4.640625 -2.71875 C 5.109375 -2.25 5.765625 -2.015625 6.609375 -2.015625 C 7.265625 -2.015625 7.882812 -2.082031 8.46875 -2.21875 C 9.050781 -2.351562 9.660156 -2.570312 10.296875 -2.875 L 10.296875 -0.578125 C 9.773438 -0.316406 9.21875 -0.125 8.625 0 C 8.039062 0.125 7.320312 0.1875 6.46875 0.1875 Z M 6.46875 0.1875 "/></g></g></g><g fill="#1800ad" fill-opacity="1"><g transform="translate(293.044825, 39.823011)"><g/></g></g><g fill="#1800ad" fill-opacity="1"><g transform="translate(298.215128, 39.823011)"><g><path d="M 9.96875 0 L 1.78125 0 L 1.78125 -14.203125 L 9.96875 -14.203125 L 9.96875 -11.734375 L 4.796875 -11.734375 L 4.796875 -8.625 L 9.609375 -8.625 L 9.609375 -6.15625 L 4.796875 -6.15625 L 4.796875 -2.484375 L 9.96875 -2.484375 Z M 9.96875 0 "/></g></g></g><g fill="#1800ad" fill-opacity="1"><g transform="translate(309.362392, 39.823011)"><g><path d="M 9.140625 -3.234375 C 9.140625 -2.117188 8.75 -1.269531 7.96875 -0.6875 C 7.195312 -0.101562 6.039062 0.1875 4.5 0.1875 C 3.707031 0.1875 3.03125 0.132812 2.46875 0.03125 C 1.914062 -0.0703125 1.394531 -0.226562 0.90625 -0.4375 L 0.90625 -2.890625 C 1.457031 -2.628906 2.078125 -2.410156 2.765625 -2.234375 C 3.460938 -2.054688 4.070312 -1.96875 4.59375 -1.96875 C 5.675781 -1.96875 6.21875 -2.28125 6.21875 -2.90625 C 6.21875 -3.132812 6.144531 -3.320312 6 -3.46875 C 5.851562 -3.613281 5.601562 -3.78125 5.25 -3.96875 C 4.90625 -4.15625 4.441406 -4.367188 3.859375 -4.609375 C 3.023438 -4.960938 2.410156 -5.285156 2.015625 -5.578125 C 1.617188 -5.878906 1.332031 -6.222656 1.15625 -6.609375 C 0.976562 -6.992188 0.890625 -7.46875 0.890625 -8.03125 C 0.890625 -9 1.265625 -9.75 2.015625 -10.28125 C 2.765625 -10.8125 3.828125 -11.078125 5.203125 -11.078125 C 6.503906 -11.078125 7.773438 -10.789062 9.015625 -10.21875 L 8.125 -8.078125 C 7.582031 -8.304688 7.070312 -8.492188 6.59375 -8.640625 C 6.125 -8.796875 5.644531 -8.875 5.15625 -8.875 C 4.28125 -8.875 3.84375 -8.640625 3.84375 -8.171875 C 3.84375 -7.898438 3.984375 -7.664062 4.265625 -7.46875 C 4.546875 -7.28125 5.160156 -6.992188 6.109375 -6.609375 C 6.960938 -6.265625 7.585938 -5.941406 7.984375 -5.640625 C 8.378906 -5.347656 8.671875 -5.003906 8.859375 -4.609375 C 9.046875 -4.222656 9.140625 -3.765625 9.140625 -3.234375 Z M 9.140625 -3.234375 "/></g></g></g><g fill="#1800ad" fill-opacity="1"><g transform="translate(319.25592, 39.823011)"><g><path d="M 6.140625 -2.171875 C 6.648438 -2.171875 7.269531 -2.28125 8 -2.5 L 8 -0.296875 C 7.257812 0.0234375 6.351562 0.1875 5.28125 0.1875 C 4.09375 0.1875 3.226562 -0.109375 2.6875 -0.703125 C 2.144531 -1.304688 1.875 -2.207031 1.875 -3.40625 L 1.875 -8.640625 L 0.453125 -8.640625 L 0.453125 -9.890625 L 2.09375 -10.890625 L 2.9375 -13.1875 L 4.84375 -13.1875 L 4.84375 -10.859375 L 7.875 -10.859375 L 7.875 -8.640625 L 4.84375 -8.640625 L 4.84375 -3.40625 C 4.84375 -2.976562 4.957031 -2.664062 5.1875 -2.46875 C 5.425781 -2.269531 5.742188 -2.171875 6.140625 -2.171875 Z M 6.140625 -2.171875 "/></g></g></g><g fill="#1800ad" fill-opacity="1"><g transform="translate(327.895781, 39.823011)"><g><path d="M 8.453125 0 L 7.875 -1.484375 L 7.8125 -1.484375 C 7.3125 -0.847656 6.796875 -0.410156 6.265625 -0.171875 C 5.734375 0.0664062 5.046875 0.1875 4.203125 0.1875 C 3.160156 0.1875 2.335938 -0.109375 1.734375 -0.703125 C 1.128906 -1.296875 0.828125 -2.144531 0.828125 -3.25 C 0.828125 -4.40625 1.226562 -5.253906 2.03125 -5.796875 C 2.84375 -6.347656 4.066406 -6.648438 5.703125 -6.703125 L 7.578125 -6.765625 L 7.578125 -7.234375 C 7.578125 -8.335938 7.015625 -8.890625 5.890625 -8.890625 C 5.023438 -8.890625 4.003906 -8.628906 2.828125 -8.109375 L 1.84375 -10.109375 C 3.09375 -10.765625 4.476562 -11.09375 6 -11.09375 C 7.457031 -11.09375 8.578125 -10.773438 9.359375 -10.140625 C 10.140625 -9.503906 10.53125 -8.535156 10.53125 -7.234375 L 10.53125 0 Z M 7.578125 -5.03125 L 6.4375 -5 C 5.570312 -4.96875 4.925781 -4.8125 4.5 -4.53125 C 4.082031 -4.25 3.875 -3.816406 3.875 -3.234375 C 3.875 -2.390625 4.351562 -1.96875 5.3125 -1.96875 C 6 -1.96875 6.546875 -2.164062 6.953125 -2.5625 C 7.367188 -2.957031 7.578125 -3.484375 7.578125 -4.140625 Z M 4.296875 -12.0625 L 4.296875 -12.328125 C 5.410156 -13.617188 6.171875 -14.59375 6.578125 -15.25 L 9.890625 -15.25 L 9.890625 -15.046875 C 9.554688 -14.710938 8.984375 -14.210938 8.171875 -13.546875 C 7.359375 -12.878906 6.722656 -12.382812 6.265625 -12.0625 Z M 4.296875 -12.0625 "/></g></g></g><g fill="#1800ad" fill-opacity="1"><g transform="translate(339.91772, 39.823011)"><g><path d="M 4.140625 0 L 0 -10.859375 L 3.09375 -10.859375 L 5.203125 -4.671875 C 5.429688 -3.890625 5.578125 -3.148438 5.640625 -2.453125 L 5.703125 -2.453125 C 5.734375 -3.066406 5.878906 -3.804688 6.140625 -4.671875 L 8.21875 -10.859375 L 11.328125 -10.859375 L 7.1875 0 Z M 4.140625 0 "/></g></g></g><g fill="#1800ad" fill-opacity="1"><g transform="translate(351.239896, 39.823011)"><g><path d="M 6.0625 -8.96875 C 5.425781 -8.96875 4.929688 -8.765625 4.578125 -8.359375 C 4.222656 -7.960938 4.019531 -7.398438 3.96875 -6.671875 L 8.125 -6.671875 C 8.113281 -7.398438 7.921875 -7.960938 7.546875 -8.359375 C 7.179688 -8.765625 6.6875 -8.96875 6.0625 -8.96875 Z M 6.46875 0.1875 C 4.71875 0.1875 3.347656 -0.289062 2.359375 -1.25 C 1.378906 -2.21875 0.890625 -3.585938 0.890625 -5.359375 C 0.890625 -7.179688 1.34375 -8.585938 2.25 -9.578125 C 3.164062 -10.578125 4.425781 -11.078125 6.03125 -11.078125 C 7.570312 -11.078125 8.769531 -10.640625 9.625 -9.765625 C 10.476562 -8.890625 10.90625 -7.679688 10.90625 -6.140625 L 10.90625 -4.6875 L 3.890625 -4.6875 C 3.929688 -3.851562 4.179688 -3.195312 4.640625 -2.71875 C 5.109375 -2.25 5.765625 -2.015625 6.609375 -2.015625 C 7.265625 -2.015625 7.882812 -2.082031 8.46875 -2.21875 C 9.050781 -2.351562 9.660156 -2.570312 10.296875 -2.875 L 10.296875 -0.578125 C 9.773438 -0.316406 9.21875 -0.125 8.625 0 C 8.039062 0.125 7.320312 0.1875 6.46875 0.1875 Z M 6.46875 0.1875 "/></g></g></g><g fill="#1800ad" fill-opacity="1"><g transform="translate(362.999421, 39.823011)"><g><path d="M 4.515625 0 L 1.5625 0 L 1.5625 -15.125 L 4.515625 -15.125 Z M 4.515625 0 "/></g></g></g><g fill="#1800ad" fill-opacity="1"><g transform="translate(192.272691, 67.450221)"><g><path d="M 7.515625 0.1875 C 6.242188 0.1875 5.242188 -0.273438 4.515625 -1.203125 L 4.359375 -1.203125 C 4.460938 -0.285156 4.515625 0.238281 4.515625 0.375 L 4.515625 4.78125 L 1.5625 4.78125 L 1.5625 -10.859375 L 3.96875 -10.859375 L 4.390625 -9.453125 L 4.515625 -9.453125 C 5.210938 -10.535156 6.238281 -11.078125 7.59375 -11.078125 C 8.882812 -11.078125 9.890625 -10.578125 10.609375 -9.578125 C 11.335938 -8.585938 11.703125 -7.210938 11.703125 -5.453125 C 11.703125 -4.296875 11.53125 -3.285156 11.1875 -2.421875 C 10.851562 -1.566406 10.367188 -0.914062 9.734375 -0.46875 C 9.109375 -0.03125 8.367188 0.1875 7.515625 0.1875 Z M 6.640625 -8.703125 C 5.910156 -8.703125 5.378906 -8.472656 5.046875 -8.015625 C 4.710938 -7.566406 4.535156 -6.828125 4.515625 -5.796875 L 4.515625 -5.46875 C 4.515625 -4.300781 4.6875 -3.460938 5.03125 -2.953125 C 5.382812 -2.453125 5.9375 -2.203125 6.6875 -2.203125 C 8.019531 -2.203125 8.6875 -3.296875 8.6875 -5.484375 C 8.6875 -6.554688 8.519531 -7.359375 8.1875 -7.890625 C 7.863281 -8.429688 7.347656 -8.703125 6.640625 -8.703125 Z M 6.640625 -8.703125 "/></g></g></g><g fill="#1800ad" fill-opacity="1"><g transform="translate(204.868017, 67.450221)"><g><path d="M 8.453125 0 L 7.875 -1.484375 L 7.8125 -1.484375 C 7.3125 -0.847656 6.796875 -0.410156 6.265625 -0.171875 C 5.734375 0.0664062 5.046875 0.1875 4.203125 0.1875 C 3.160156 0.1875 2.335938 -0.109375 1.734375 -0.703125 C 1.128906 -1.296875 0.828125 -2.144531 0.828125 -3.25 C 0.828125 -4.40625 1.226562 -5.253906 2.03125 -5.796875 C 2.84375 -6.347656 4.066406 -6.648438 5.703125 -6.703125 L 7.578125 -6.765625 L 7.578125 -7.234375 C 7.578125 -8.335938 7.015625 -8.890625 5.890625 -8.890625 C 5.023438 -8.890625 4.003906 -8.628906 2.828125 -8.109375 L 1.84375 -10.109375 C 3.09375 -10.765625 4.476562 -11.09375 6 -11.09375 C 7.457031 -11.09375 8.578125 -10.773438 9.359375 -10.140625 C 10.140625 -9.503906 10.53125 -8.535156 10.53125 -7.234375 L 10.53125 0 Z M 7.578125 -5.03125 L 6.4375 -5 C 5.570312 -4.96875 4.925781 -4.8125 4.5 -4.53125 C 4.082031 -4.25 3.875 -3.816406 3.875 -3.234375 C 3.875 -2.390625 4.351562 -1.96875 5.3125 -1.96875 C 6 -1.96875 6.546875 -2.164062 6.953125 -2.5625 C 7.367188 -2.957031 7.578125 -3.484375 7.578125 -4.140625 Z M 7.578125 -5.03125 "/></g></g></g><g fill="#1800ad" fill-opacity="1"><g transform="translate(216.889944, 67.450221)"><g><path d="M 7.625 -11.078125 C 8.019531 -11.078125 8.351562 -11.046875 8.625 -10.984375 L 8.390625 -8.203125 C 8.148438 -8.265625 7.859375 -8.296875 7.515625 -8.296875 C 6.578125 -8.296875 5.84375 -8.050781 5.3125 -7.5625 C 4.78125 -7.082031 4.515625 -6.40625 4.515625 -5.53125 L 4.515625 0 L 1.5625 0 L 1.5625 -10.859375 L 3.796875 -10.859375 L 4.234375 -9.046875 L 4.390625 -9.046875 C 4.722656 -9.648438 5.175781 -10.140625 5.75 -10.515625 C 6.320312 -10.890625 6.945312 -11.078125 7.625 -11.078125 Z M 7.625 -11.078125 "/></g></g></g><g fill="#1800ad" fill-opacity="1"><g transform="translate(225.928257, 67.450221)"><g><path d="M 8.453125 0 L 7.875 -1.484375 L 7.8125 -1.484375 C 7.3125 -0.847656 6.796875 -0.410156 6.265625 -0.171875 C 5.734375 0.0664062 5.046875 0.1875 4.203125 0.1875 C 3.160156 0.1875 2.335938 -0.109375 1.734375 -0.703125 C 1.128906 -1.296875 0.828125 -2.144531 0.828125 -3.25 C 0.828125 -4.40625 1.226562 -5.253906 2.03125 -5.796875 C 2.84375 -6.347656 4.066406 -6.648438 5.703125 -6.703125 L 7.578125 -6.765625 L 7.578125 -7.234375 C 7.578125 -8.335938 7.015625 -8.890625 5.890625 -8.890625 C 5.023438 -8.890625 4.003906 -8.628906 2.828125 -8.109375 L 1.84375 -10.109375 C 3.09375 -10.765625 4.476562 -11.09375 6 -11.09375 C 7.457031 -11.09375 8.578125 -10.773438 9.359375 -10.140625 C 10.140625 -9.503906 10.53125 -8.535156 10.53125 -7.234375 L 10.53125 0 Z M 7.578125 -5.03125 L 6.4375 -5 C 5.570312 -4.96875 4.925781 -4.8125 4.5 -4.53125 C 4.082031 -4.25 3.875 -3.816406 3.875 -3.234375 C 3.875 -2.390625 4.351562 -1.96875 5.3125 -1.96875 C 6 -1.96875 6.546875 -2.164062 6.953125 -2.5625 C 7.367188 -2.957031 7.578125 -3.484375 7.578125 -4.140625 Z M 7.578125 -5.03125 "/></g></g></g><g fill="#1800ad" fill-opacity="1"><g transform="translate(237.950185, 67.450221)"><g/></g></g><g fill="#1800ad" fill-opacity="1"><g transform="translate(243.120488, 67.450221)"><g><path d="M 4.140625 0 L 0 -10.859375 L 3.09375 -10.859375 L 5.203125 -4.671875 C 5.429688 -3.890625 5.578125 -3.148438 5.640625 -2.453125 L 5.703125 -2.453125 C 5.734375 -3.066406 5.878906 -3.804688 6.140625 -4.671875 L 8.21875 -10.859375 L 11.328125 -10.859375 L 7.1875 0 Z M 4.140625 0 "/></g></g></g><g fill="#1800ad" fill-opacity="1"><g transform="translate(254.442676, 67.450221)"><g><path d="M 3.921875 -5.453125 C 3.921875 -4.378906 4.097656 -3.566406 4.453125 -3.015625 C 4.804688 -2.460938 5.378906 -2.1875 6.171875 -2.1875 C 6.960938 -2.1875 7.53125 -2.457031 7.875 -3 C 8.21875 -3.550781 8.390625 -4.367188 8.390625 -5.453125 C 8.390625 -6.523438 8.210938 -7.332031 7.859375 -7.875 C 7.515625 -8.414062 6.945312 -8.6875 6.15625 -8.6875 C 5.363281 -8.6875 4.789062 -8.414062 4.4375 -7.875 C 4.09375 -7.34375 3.921875 -6.535156 3.921875 -5.453125 Z M 11.4375 -5.453125 C 11.4375 -3.679688 10.96875 -2.296875 10.03125 -1.296875 C 9.09375 -0.304688 7.796875 0.1875 6.140625 0.1875 C 5.085938 0.1875 4.160156 -0.0351562 3.359375 -0.484375 C 2.566406 -0.941406 1.957031 -1.597656 1.53125 -2.453125 C 1.101562 -3.304688 0.890625 -4.304688 0.890625 -5.453125 C 0.890625 -7.222656 1.351562 -8.601562 2.28125 -9.59375 C 3.207031 -10.582031 4.507812 -11.078125 6.1875 -11.078125 C 7.226562 -11.078125 8.144531 -10.847656 8.9375 -10.390625 C 9.738281 -9.929688 10.351562 -9.273438 10.78125 -8.421875 C 11.21875 -7.578125 11.4375 -6.585938 11.4375 -5.453125 Z M 11.4375 -5.453125 "/></g></g></g><g fill="#1800ad" fill-opacity="1"><g transform="translate(266.76588, 67.450221)"><g><path d="M 5.96875 0.1875 C 2.582031 0.1875 0.890625 -1.664062 0.890625 -5.375 C 0.890625 -7.21875 1.347656 -8.628906 2.265625 -9.609375 C 3.191406 -10.585938 4.515625 -11.078125 6.234375 -11.078125 C 7.484375 -11.078125 8.609375 -10.828125 9.609375 -10.328125 L 8.734375 -8.03125 C 8.265625 -8.21875 7.828125 -8.375 7.421875 -8.5 C 7.023438 -8.625 6.628906 -8.6875 6.234375 -8.6875 C 4.691406 -8.6875 3.921875 -7.585938 3.921875 -5.390625 C 3.921875 -3.265625 4.691406 -2.203125 6.234375 -2.203125 C 6.796875 -2.203125 7.320312 -2.273438 7.8125 -2.421875 C 8.300781 -2.578125 8.785156 -2.820312 9.265625 -3.15625 L 9.265625 -0.609375 C 8.785156 -0.304688 8.300781 -0.0976562 7.8125 0.015625 C 7.320312 0.128906 6.707031 0.1875 5.96875 0.1875 Z M 5.96875 0.1875 "/></g></g></g><g fill="#1800ad" fill-opacity="1"><g transform="translate(276.999583, 67.450221)"><g><path d="M 6.0625 -8.96875 C 5.425781 -8.96875 4.929688 -8.765625 4.578125 -8.359375 C 4.222656 -7.960938 4.019531 -7.398438 3.96875 -6.671875 L 8.125 -6.671875 C 8.113281 -7.398438 7.921875 -7.960938 7.546875 -8.359375 C 7.179688 -8.765625 6.6875 -8.96875 6.0625 -8.96875 Z M 6.46875 0.1875 C 4.71875 0.1875 3.347656 -0.289062 2.359375 -1.25 C 1.378906 -2.21875 0.890625 -3.585938 0.890625 -5.359375 C 0.890625 -7.179688 1.34375 -8.585938 2.25 -9.578125 C 3.164062 -10.578125 4.425781 -11.078125 6.03125 -11.078125 C 7.570312 -11.078125 8.769531 -10.640625 9.625 -9.765625 C 10.476562 -8.890625 10.90625 -7.679688 10.90625 -6.140625 L 10.90625 -4.6875 L 3.890625 -4.6875 C 3.929688 -3.851562 4.179688 -3.195312 4.640625 -2.71875 C 5.109375 -2.25 5.765625 -2.015625 6.609375 -2.015625 C 7.265625 -2.015625 7.882812 -2.082031 8.46875 -2.21875 C 9.050781 -2.351562 9.660156 -2.570312 10.296875 -2.875 L 10.296875 -0.578125 C 9.773438 -0.316406 9.21875 -0.125 8.625 0 C 8.039062 0.125 7.320312 0.1875 6.46875 0.1875 Z M 8.359375 -12.0625 C 7.335938 -12.664062 6.578125 -13.234375 6.078125 -13.765625 C 5.578125 -13.242188 4.835938 -12.675781 3.859375 -12.0625 L 1.890625 -12.0625 L 1.890625 -12.328125 C 3.109375 -13.546875 3.9375 -14.519531 4.375 -15.25 L 7.84375 -15.25 C 8.039062 -14.914062 8.382812 -14.457031 8.875 -13.875 C 9.375 -13.289062 9.859375 -12.773438 10.328125 -12.328125 L 10.328125 -12.0625 Z M 8.359375 -12.0625 "/></g></g></g><g fill="#1800ad" fill-opacity="1"><g transform="translate(288.769594, 67.450221)"><g/></g></g><g fill="#1800ad" fill-opacity="1"><g transform="translate(150.820208, 95.077432)"><g><path d="M 14.390625 0 L 10.5625 0 L 4.390625 -10.75 L 4.296875 -10.75 C 4.421875 -8.851562 4.484375 -7.5 4.484375 -6.6875 L 4.484375 0 L 1.78125 0 L 1.78125 -14.203125 L 5.59375 -14.203125 L 11.765625 -3.5625 L 11.828125 -3.5625 C 11.734375 -5.414062 11.6875 -6.722656 11.6875 -7.484375 L 11.6875 -14.203125 L 14.390625 -14.203125 Z M 14.390625 0 "/></g></g></g><g fill="#1800ad" fill-opacity="1"><g transform="translate(167.001704, 95.077432)"><g><path d="M 8.453125 0 L 7.875 -1.484375 L 7.8125 -1.484375 C 7.3125 -0.847656 6.796875 -0.410156 6.265625 -0.171875 C 5.734375 0.0664062 5.046875 0.1875 4.203125 0.1875 C 3.160156 0.1875 2.335938 -0.109375 1.734375 -0.703125 C 1.128906 -1.296875 0.828125 -2.144531 0.828125 -3.25 C 0.828125 -4.40625 1.226562 -5.253906 2.03125 -5.796875 C 2.84375 -6.347656 4.066406 -6.648438 5.703125 -6.703125 L 7.578125 -6.765625 L 7.578125 -7.234375 C 7.578125 -8.335938 7.015625 -8.890625 5.890625 -8.890625 C 5.023438 -8.890625 4.003906 -8.628906 2.828125 -8.109375 L 1.84375 -10.109375 C 3.09375 -10.765625 4.476562 -11.09375 6 -11.09375 C 7.457031 -11.09375 8.578125 -10.773438 9.359375 -10.140625 C 10.140625 -9.503906 10.53125 -8.535156 10.53125 -7.234375 L 10.53125 0 Z M 7.578125 -5.03125 L 6.4375 -5 C 5.570312 -4.96875 4.925781 -4.8125 4.5 -4.53125 C 4.082031 -4.25 3.875 -3.816406 3.875 -3.234375 C 3.875 -2.390625 4.351562 -1.96875 5.3125 -1.96875 C 6 -1.96875 6.546875 -2.164062 6.953125 -2.5625 C 7.367188 -2.957031 7.578125 -3.484375 7.578125 -4.140625 Z M 7.578125 -5.03125 "/></g></g></g><g fill="#1800ad" fill-opacity="1"><g transform="translate(179.023631, 95.077432)"><g><path d="M 4.140625 0 L 0 -10.859375 L 3.09375 -10.859375 L 5.203125 -4.671875 C 5.429688 -3.890625 5.578125 -3.148438 5.640625 -2.453125 L 5.703125 -2.453125 C 5.734375 -3.066406 5.878906 -3.804688 6.140625 -4.671875 L 8.21875 -10.859375 L 11.328125 -10.859375 L 7.1875 0 Z M 4.140625 0 "/></g></g></g><g fill="#1800ad" fill-opacity="1"><g transform="translate(190.345819, 95.077432)"><g><path d="M 6.0625 -8.96875 C 5.425781 -8.96875 4.929688 -8.765625 4.578125 -8.359375 C 4.222656 -7.960938 4.019531 -7.398438 3.96875 -6.671875 L 8.125 -6.671875 C 8.113281 -7.398438 7.921875 -7.960938 7.546875 -8.359375 C 7.179688 -8.765625 6.6875 -8.96875 6.0625 -8.96875 Z M 6.46875 0.1875 C 4.71875 0.1875 3.347656 -0.289062 2.359375 -1.25 C 1.378906 -2.21875 0.890625 -3.585938 0.890625 -5.359375 C 0.890625 -7.179688 1.34375 -8.585938 2.25 -9.578125 C 3.164062 -10.578125 4.425781 -11.078125 6.03125 -11.078125 C 7.570312 -11.078125 8.769531 -10.640625 9.625 -9.765625 C 10.476562 -8.890625 10.90625 -7.679688 10.90625 -6.140625 L 10.90625 -4.6875 L 3.890625 -4.6875 C 3.929688 -3.851562 4.179688 -3.195312 4.640625 -2.71875 C 5.109375 -2.25 5.765625 -2.015625 6.609375 -2.015625 C 7.265625 -2.015625 7.882812 -2.082031 8.46875 -2.21875 C 9.050781 -2.351562 9.660156 -2.570312 10.296875 -2.875 L 10.296875 -0.578125 C 9.773438 -0.316406 9.21875 -0.125 8.625 0 C 8.039062 0.125 7.320312 0.1875 6.46875 0.1875 Z M 6.46875 0.1875 "/></g></g></g><g fill="#1800ad" fill-opacity="1"><g transform="translate(202.105344, 95.077432)"><g><path d="M 11.015625 -10.859375 L 11.015625 -9.359375 L 9.3125 -8.921875 C 9.625 -8.429688 9.78125 -7.890625 9.78125 -7.296875 C 9.78125 -6.128906 9.375 -5.21875 8.5625 -4.5625 C 7.75 -3.914062 6.617188 -3.59375 5.171875 -3.59375 L 4.640625 -3.609375 L 4.203125 -3.671875 C 3.890625 -3.429688 3.734375 -3.171875 3.734375 -2.890625 C 3.734375 -2.460938 4.28125 -2.25 5.375 -2.25 L 7.21875 -2.25 C 8.414062 -2.25 9.328125 -1.988281 9.953125 -1.46875 C 10.578125 -0.957031 10.890625 -0.207031 10.890625 0.78125 C 10.890625 2.050781 10.359375 3.035156 9.296875 3.734375 C 8.234375 4.429688 6.710938 4.78125 4.734375 4.78125 C 3.210938 4.78125 2.050781 4.515625 1.25 3.984375 C 0.457031 3.460938 0.0625 2.722656 0.0625 1.765625 C 0.0625 1.109375 0.265625 0.5625 0.671875 0.125 C 1.078125 -0.3125 1.675781 -0.625 2.46875 -0.8125 C 2.164062 -0.945312 1.898438 -1.160156 1.671875 -1.453125 C 1.441406 -1.742188 1.328125 -2.054688 1.328125 -2.390625 C 1.328125 -2.804688 1.445312 -3.148438 1.6875 -3.421875 C 1.925781 -3.703125 2.273438 -3.972656 2.734375 -4.234375 C 2.160156 -4.484375 1.707031 -4.878906 1.375 -5.421875 C 1.039062 -5.960938 0.875 -6.601562 0.875 -7.34375 C 0.875 -8.53125 1.257812 -9.445312 2.03125 -10.09375 C 2.800781 -10.75 3.90625 -11.078125 5.34375 -11.078125 C 5.644531 -11.078125 6.003906 -11.046875 6.421875 -10.984375 C 6.835938 -10.929688 7.101562 -10.890625 7.21875 -10.859375 Z M 2.625 1.53125 C 2.625 1.9375 2.816406 2.253906 3.203125 2.484375 C 3.597656 2.722656 4.148438 2.84375 4.859375 2.84375 C 5.921875 2.84375 6.753906 2.695312 7.359375 2.40625 C 7.960938 2.113281 8.265625 1.71875 8.265625 1.21875 C 8.265625 0.8125 8.082031 0.53125 7.71875 0.375 C 7.363281 0.21875 6.816406 0.140625 6.078125 0.140625 L 4.546875 0.140625 C 3.992188 0.140625 3.535156 0.265625 3.171875 0.515625 C 2.804688 0.773438 2.625 1.113281 2.625 1.53125 Z M 3.703125 -7.3125 C 3.703125 -6.71875 3.835938 -6.25 4.109375 -5.90625 C 4.378906 -5.5625 4.789062 -5.390625 5.34375 -5.390625 C 5.894531 -5.390625 6.300781 -5.5625 6.5625 -5.90625 C 6.820312 -6.25 6.953125 -6.71875 6.953125 -7.3125 C 6.953125 -8.613281 6.414062 -9.265625 5.34375 -9.265625 C 4.25 -9.265625 3.703125 -8.613281 3.703125 -7.3125 Z M 3.703125 -7.3125 "/></g></g></g><g fill="#1800ad" fill-opacity="1"><g transform="translate(213.349782, 95.077432)"><g><path d="M 8.453125 0 L 7.875 -1.484375 L 7.8125 -1.484375 C 7.3125 -0.847656 6.796875 -0.410156 6.265625 -0.171875 C 5.734375 0.0664062 5.046875 0.1875 4.203125 0.1875 C 3.160156 0.1875 2.335938 -0.109375 1.734375 -0.703125 C 1.128906 -1.296875 0.828125 -2.144531 0.828125 -3.25 C 0.828125 -4.40625 1.226562 -5.253906 2.03125 -5.796875 C 2.84375 -6.347656 4.066406 -6.648438 5.703125 -6.703125 L 7.578125 -6.765625 L 7.578125 -7.234375 C 7.578125 -8.335938 7.015625 -8.890625 5.890625 -8.890625 C 5.023438 -8.890625 4.003906 -8.628906 2.828125 -8.109375 L 1.84375 -10.109375 C 3.09375 -10.765625 4.476562 -11.09375 6 -11.09375 C 7.457031 -11.09375 8.578125 -10.773438 9.359375 -10.140625 C 10.140625 -9.503906 10.53125 -8.535156 10.53125 -7.234375 L 10.53125 0 Z M 7.578125 -5.03125 L 6.4375 -5 C 5.570312 -4.96875 4.925781 -4.8125 4.5 -4.53125 C 4.082031 -4.25 3.875 -3.816406 3.875 -3.234375 C 3.875 -2.390625 4.351562 -1.96875 5.3125 -1.96875 C 6 -1.96875 6.546875 -2.164062 6.953125 -2.5625 C 7.367188 -2.957031 7.578125 -3.484375 7.578125 -4.140625 Z M 7.578125 -5.03125 "/></g></g></g><g fill="#1800ad" fill-opacity="1"><g transform="translate(225.37171, 95.077432)"><g><path d="M 7.625 -11.078125 C 8.019531 -11.078125 8.351562 -11.046875 8.625 -10.984375 L 8.390625 -8.203125 C 8.148438 -8.265625 7.859375 -8.296875 7.515625 -8.296875 C 6.578125 -8.296875 5.84375 -8.050781 5.3125 -7.5625 C 4.78125 -7.082031 4.515625 -6.40625 4.515625 -5.53125 L 4.515625 0 L 1.5625 0 L 1.5625 -10.859375 L 3.796875 -10.859375 L 4.234375 -9.046875 L 4.390625 -9.046875 C 4.722656 -9.648438 5.175781 -10.140625 5.75 -10.515625 C 6.320312 -10.890625 6.945312 -11.078125 7.625 -11.078125 Z M 7.625 -11.078125 "/></g></g></g><g fill="#1800ad" fill-opacity="1"><g transform="translate(234.410023, 95.077432)"><g/></g></g><g fill="#1800ad" fill-opacity="1"><g transform="translate(239.580326, 95.077432)"><g><path d="M 7.265625 0 L 4.25 0 L 4.25 -11.703125 L 0.40625 -11.703125 L 0.40625 -14.203125 L 11.125 -14.203125 L 11.125 -11.703125 L 7.265625 -11.703125 Z M 7.265625 0 "/></g></g></g><g fill="#1800ad" fill-opacity="1"><g transform="translate(251.106604, 95.077432)"><g><path d="M 7.625 -11.078125 C 8.019531 -11.078125 8.351562 -11.046875 8.625 -10.984375 L 8.390625 -8.203125 C 8.148438 -8.265625 7.859375 -8.296875 7.515625 -8.296875 C 6.578125 -8.296875 5.84375 -8.050781 5.3125 -7.5625 C 4.78125 -7.082031 4.515625 -6.40625 4.515625 -5.53125 L 4.515625 0 L 1.5625 0 L 1.5625 -10.859375 L 3.796875 -10.859375 L 4.234375 -9.046875 L 4.390625 -9.046875 C 4.722656 -9.648438 5.175781 -10.140625 5.75 -10.515625 C 6.320312 -10.890625 6.945312 -11.078125 7.625 -11.078125 Z M 7.625 -11.078125 "/></g></g></g><g fill="#1800ad" fill-opacity="1"><g transform="translate(260.144917, 95.077432)"><g><path d="M 8.453125 0 L 7.875 -1.484375 L 7.8125 -1.484375 C 7.3125 -0.847656 6.796875 -0.410156 6.265625 -0.171875 C 5.734375 0.0664062 5.046875 0.1875 4.203125 0.1875 C 3.160156 0.1875 2.335938 -0.109375 1.734375 -0.703125 C 1.128906 -1.296875 0.828125 -2.144531 0.828125 -3.25 C 0.828125 -4.40625 1.226562 -5.253906 2.03125 -5.796875 C 2.84375 -6.347656 4.066406 -6.648438 5.703125 -6.703125 L 7.578125 -6.765625 L 7.578125 -7.234375 C 7.578125 -8.335938 7.015625 -8.890625 5.890625 -8.890625 C 5.023438 -8.890625 4.003906 -8.628906 2.828125 -8.109375 L 1.84375 -10.109375 C 3.09375 -10.765625 4.476562 -11.09375 6 -11.09375 C 7.457031 -11.09375 8.578125 -10.773438 9.359375 -10.140625 C 10.140625 -9.503906 10.53125 -8.535156 10.53125 -7.234375 L 10.53125 0 Z M 7.578125 -5.03125 L 6.4375 -5 C 5.570312 -4.96875 4.925781 -4.8125 4.5 -4.53125 C 4.082031 -4.25 3.875 -3.816406 3.875 -3.234375 C 3.875 -2.390625 4.351562 -1.96875 5.3125 -1.96875 C 6 -1.96875 6.546875 -2.164062 6.953125 -2.5625 C 7.367188 -2.957031 7.578125 -3.484375 7.578125 -4.140625 Z M 7.578125 -5.03125 "/></g></g></g><g fill="#1800ad" fill-opacity="1"><g transform="translate(272.166845, 95.077432)"><g><path d="M 11.59375 0 L 8.625 0 L 8.625 -6.34375 C 8.625 -7.125 8.484375 -7.710938 8.203125 -8.109375 C 7.921875 -8.503906 7.476562 -8.703125 6.875 -8.703125 C 6.039062 -8.703125 5.4375 -8.421875 5.0625 -7.859375 C 4.695312 -7.304688 4.515625 -6.390625 4.515625 -5.109375 L 4.515625 0 L 1.5625 0 L 1.5625 -10.859375 L 3.8125 -10.859375 L 4.21875 -9.484375 L 4.390625 -9.484375 C 4.710938 -10.003906 5.164062 -10.398438 5.75 -10.671875 C 6.332031 -10.941406 6.992188 -11.078125 7.734375 -11.078125 C 8.992188 -11.078125 9.953125 -10.734375 10.609375 -10.046875 C 11.265625 -9.359375 11.59375 -8.367188 11.59375 -7.078125 Z M 11.59375 0 "/></g></g></g><g fill="#1800ad" fill-opacity="1"><g transform="translate(285.248102, 95.077432)"><g><path d="M 6.0625 -2.125 C 6.8125 -2.125 7.359375 -2.335938 7.703125 -2.765625 C 8.054688 -3.203125 8.25 -3.957031 8.28125 -5.03125 L 8.28125 -5.390625 C 8.28125 -6.554688 8.097656 -7.390625 7.734375 -7.890625 C 7.378906 -8.398438 6.800781 -8.65625 6 -8.65625 C 4.613281 -8.65625 3.921875 -7.5625 3.921875 -5.375 C 3.921875 -4.28125 4.09375 -3.460938 4.4375 -2.921875 C 4.78125 -2.390625 5.320312 -2.125 6.0625 -2.125 Z M 5 0.1875 C 3.71875 0.1875 2.710938 -0.300781 1.984375 -1.28125 C 1.253906 -2.269531 0.890625 -3.644531 0.890625 -5.40625 C 0.890625 -7.1875 1.257812 -8.578125 2 -9.578125 C 2.75 -10.578125 3.765625 -11.078125 5.046875 -11.078125 C 5.734375 -11.078125 6.332031 -10.945312 6.84375 -10.6875 C 7.363281 -10.425781 7.816406 -10.023438 8.203125 -9.484375 L 8.28125 -9.484375 L 8.546875 -10.859375 L 11.046875 -10.859375 L 11.046875 4.78125 L 8.078125 4.78125 L 8.078125 0.21875 C 8.078125 -0.175781 8.117188 -0.71875 8.203125 -1.40625 L 8.078125 -1.40625 C 7.753906 -0.882812 7.332031 -0.488281 6.8125 -0.21875 C 6.289062 0.0507812 5.6875 0.1875 5 0.1875 Z M 5 0.1875 "/></g></g></g><g fill="#1800ad" fill-opacity="1"><g transform="translate(297.843428, 95.077432)"><g><path d="M 9.25 0 L 8.859375 -1.390625 L 8.703125 -1.390625 C 8.378906 -0.878906 7.925781 -0.488281 7.34375 -0.21875 C 6.757812 0.0507812 6.097656 0.1875 5.359375 0.1875 C 4.078125 0.1875 3.113281 -0.148438 2.46875 -0.828125 C 1.820312 -1.515625 1.5 -2.5 1.5 -3.78125 L 1.5 -10.859375 L 4.46875 -10.859375 L 4.46875 -4.515625 C 4.46875 -3.734375 4.601562 -3.144531 4.875 -2.75 C 5.15625 -2.363281 5.601562 -2.171875 6.21875 -2.171875 C 7.039062 -2.171875 7.632812 -2.445312 8 -3 C 8.375 -3.550781 8.5625 -4.46875 8.5625 -5.75 L 8.5625 -10.859375 L 11.53125 -10.859375 L 11.53125 0 Z M 9.25 0 "/></g></g></g><g fill="#1800ad" fill-opacity="1"><g transform="translate(310.924685, 95.077432)"><g><path d="M 1.421875 -13.671875 C 1.421875 -14.640625 1.960938 -15.125 3.046875 -15.125 C 4.117188 -15.125 4.65625 -14.640625 4.65625 -13.671875 C 4.65625 -13.210938 4.519531 -12.851562 4.25 -12.59375 C 3.976562 -12.34375 3.578125 -12.21875 3.046875 -12.21875 C 1.960938 -12.21875 1.421875 -12.703125 1.421875 -13.671875 Z M 4.515625 0 L 1.5625 0 L 1.5625 -10.859375 L 4.515625 -10.859375 Z M 4.515625 0 "/></g></g></g><g fill="#1800ad" fill-opacity="1"><g transform="translate(316.99882, 95.077432)"><g><path d="M 4.515625 0 L 1.5625 0 L 1.5625 -15.125 L 4.515625 -15.125 Z M 4.515625 0 "/></g></g></g><g fill="#1800ad" fill-opacity="1"><g transform="translate(323.072955, 95.077432)"><g><path d="M 3.921875 -5.453125 C 3.921875 -4.378906 4.097656 -3.566406 4.453125 -3.015625 C 4.804688 -2.460938 5.378906 -2.1875 6.171875 -2.1875 C 6.960938 -2.1875 7.53125 -2.457031 7.875 -3 C 8.21875 -3.550781 8.390625 -4.367188 8.390625 -5.453125 C 8.390625 -6.523438 8.210938 -7.332031 7.859375 -7.875 C 7.515625 -8.414062 6.945312 -8.6875 6.15625 -8.6875 C 5.363281 -8.6875 4.789062 -8.414062 4.4375 -7.875 C 4.09375 -7.34375 3.921875 -6.535156 3.921875 -5.453125 Z M 11.4375 -5.453125 C 11.4375 -3.679688 10.96875 -2.296875 10.03125 -1.296875 C 9.09375 -0.304688 7.796875 0.1875 6.140625 0.1875 C 5.085938 0.1875 4.160156 -0.0351562 3.359375 -0.484375 C 2.566406 -0.941406 1.957031 -1.597656 1.53125 -2.453125 C 1.101562 -3.304688 0.890625 -4.304688 0.890625 -5.453125 C 0.890625 -7.222656 1.351562 -8.601562 2.28125 -9.59375 C 3.207031 -10.582031 4.507812 -11.078125 6.1875 -11.078125 C 7.226562 -11.078125 8.144531 -10.847656 8.9375 -10.390625 C 9.738281 -9.929688 10.351562 -9.273438 10.78125 -8.421875 C 11.21875 -7.578125 11.4375 -6.585938 11.4375 -5.453125 Z M 11.4375 -5.453125 "/></g></g></g></svg>