<svg xmlns="http://www.w3.org/2000/svg" xmlns:xlink="http://www.w3.org/1999/xlink" width="554" zoomAndPan="magnify" viewBox="0 0 415.5 111.749996" height="149" preserveAspectRatio="xMidYMid meet" version="1.0"><defs><g/><clipPath id="0267f1a827"><path d="M 8 81 L 104 81 L 104 110.753906 L 8 110.753906 Z M 8 81 " clip-rule="nonzero"/></clipPath><clipPath id="d05966f88b"><rect x="0" width="255" y="0" height="87"/></clipPath></defs><path fill="#1800ad" d="M 93.660156 29.609375 L 17.785156 29.609375 C 12.578125 29.609375 8.347656 25.378906 8.347656 20.171875 L 8.347656 9.4375 C 8.347656 4.230469 12.578125 0 17.785156 0 L 93.660156 0 C 98.863281 0 103.160156 4.230469 103.160156 9.4375 L 103.160156 20.171875 C 103.160156 25.378906 98.863281 29.609375 93.660156 29.609375 Z M 17.785156 3.90625 C 14.789062 3.90625 12.253906 6.441406 12.253906 9.4375 L 12.253906 20.171875 C 12.253906 23.230469 14.726562 25.703125 17.785156 25.703125 L 93.660156 25.703125 C 96.71875 25.703125 99.253906 23.230469 99.253906 20.171875 L 99.253906 9.4375 C 99.253906 6.378906 96.71875 3.90625 93.660156 3.90625 Z M 17.785156 3.90625 " fill-opacity="1" fill-rule="evenodd"/><path fill="#1800ad" d="M 93.660156 70.34375 L 17.785156 70.34375 C 12.578125 70.34375 8.347656 66.113281 8.347656 60.910156 L 8.347656 50.171875 C 8.347656 44.964844 12.578125 40.734375 17.785156 40.734375 L 93.660156 40.734375 C 98.863281 40.734375 103.160156 44.964844 103.160156 50.171875 L 103.160156 60.910156 C 103.160156 66.113281 98.863281 70.34375 93.660156 70.34375 Z M 17.785156 44.640625 C 14.726562 44.640625 12.253906 47.113281 12.253906 50.171875 L 12.253906 60.910156 C 12.253906 63.902344 14.789062 66.441406 17.785156 66.441406 L 93.660156 66.441406 C 96.71875 66.441406 99.253906 63.964844 99.253906 60.910156 L 99.253906 50.171875 C 99.253906 47.113281 96.71875 44.640625 93.660156 44.640625 Z M 17.785156 44.640625 " fill-opacity="1" fill-rule="evenodd"/><g clip-path="url(#0267f1a827)"><path fill="#1800ad" d="M 93.660156 111.078125 L 17.785156 111.078125 C 12.578125 111.078125 8.347656 106.785156 8.347656 101.644531 L 8.347656 90.84375 C 8.347656 85.636719 12.578125 81.40625 17.785156 81.40625 L 93.660156 81.40625 C 98.863281 81.40625 103.160156 85.636719 103.160156 90.84375 L 103.160156 101.644531 C 103.160156 106.785156 98.863281 111.078125 93.660156 111.078125 Z M 17.785156 85.3125 C 14.789062 85.3125 12.253906 87.847656 12.253906 90.84375 L 12.253906 101.644531 C 12.253906 104.636719 14.789062 107.175781 17.785156 107.175781 L 93.660156 107.175781 C 96.71875 107.175781 99.253906 104.636719 99.253906 101.644531 L 99.253906 90.84375 C 99.253906 87.785156 96.71875 85.3125 93.660156 85.3125 Z M 17.785156 85.3125 " fill-opacity="1" fill-rule="evenodd"/></g><path fill="#1800ad" d="M 28.195312 44.640625 C 27.089844 44.640625 26.242188 43.730469 26.242188 42.6875 L 26.242188 27.65625 C 26.242188 26.550781 27.089844 25.703125 28.195312 25.703125 C 29.300781 25.703125 30.148438 26.550781 30.148438 27.65625 L 30.148438 42.6875 C 30.148438 43.730469 29.300781 44.640625 28.195312 44.640625 Z M 17.785156 44.640625 C 16.679688 44.640625 15.832031 43.730469 15.832031 42.6875 L 15.832031 27.65625 C 15.832031 26.550781 16.679688 25.703125 17.785156 25.703125 C 18.890625 25.703125 19.734375 26.550781 19.734375 27.65625 L 19.734375 42.6875 C 19.734375 43.730469 18.890625 44.640625 17.785156 44.640625 Z M 17.785156 44.640625 " fill-opacity="1" fill-rule="evenodd"/><path fill="#1800ad" d="M 93.660156 44.640625 C 92.554688 44.640625 91.707031 43.730469 91.707031 42.6875 L 91.707031 27.65625 C 91.707031 26.550781 92.554688 25.703125 93.660156 25.703125 C 94.699219 25.703125 95.609375 26.550781 95.609375 27.65625 L 95.609375 42.6875 C 95.609375 43.730469 94.699219 44.640625 93.660156 44.640625 Z M 83.246094 44.640625 C 82.140625 44.640625 81.296875 43.730469 81.296875 42.6875 L 81.296875 27.65625 C 81.296875 26.550781 82.140625 25.703125 83.246094 25.703125 C 84.289062 25.703125 85.199219 26.550781 85.199219 27.65625 L 85.199219 42.6875 C 85.199219 43.730469 84.289062 44.640625 83.246094 44.640625 Z M 83.246094 44.640625 " fill-opacity="1" fill-rule="evenodd"/><path fill="#1800ad" d="M 28.195312 85.3125 C 27.089844 85.3125 26.242188 84.398438 26.242188 83.359375 L 26.242188 68.390625 C 26.242188 67.285156 27.089844 66.441406 28.195312 66.441406 C 29.300781 66.441406 30.148438 67.285156 30.148438 68.390625 L 30.148438 83.359375 C 30.148438 84.398438 29.300781 85.3125 28.195312 85.3125 Z M 17.785156 85.3125 C 16.679688 85.3125 15.832031 84.398438 15.832031 83.359375 L 15.832031 68.390625 C 15.832031 67.285156 16.679688 66.441406 17.785156 66.441406 C 18.890625 66.441406 19.734375 67.285156 19.734375 68.390625 L 19.734375 83.359375 C 19.734375 84.398438 18.890625 85.3125 17.785156 85.3125 Z M 17.785156 85.3125 " fill-opacity="1" fill-rule="evenodd"/><path fill="#1800ad" d="M 93.660156 85.3125 C 92.554688 85.3125 91.707031 84.398438 91.707031 83.359375 L 91.707031 68.390625 C 91.707031 67.285156 92.554688 66.441406 93.660156 66.441406 C 94.699219 66.441406 95.609375 67.285156 95.609375 68.390625 L 95.609375 83.359375 C 95.609375 84.398438 94.699219 85.3125 93.660156 85.3125 Z M 83.246094 85.3125 C 82.140625 85.3125 81.296875 84.398438 81.296875 83.359375 L 81.296875 68.390625 C 81.296875 67.285156 82.140625 66.441406 83.246094 66.441406 C 84.289062 66.441406 85.199219 67.285156 85.199219 68.390625 L 85.199219 83.359375 C 85.199219 84.398438 84.289062 85.3125 83.246094 85.3125 Z M 83.246094 85.3125 " fill-opacity="1" fill-rule="evenodd"/><path fill="#1800ad" d="M 24.878906 22.777344 C 20.515625 22.777344 16.9375 19.195312 16.9375 14.835938 C 16.9375 10.410156 20.515625 6.832031 24.878906 6.832031 C 29.300781 6.832031 32.882812 10.410156 32.882812 14.835938 C 32.882812 19.195312 29.300781 22.777344 24.878906 22.777344 Z M 24.878906 10.738281 C 22.664062 10.738281 20.84375 12.558594 20.84375 14.835938 C 20.84375 17.050781 22.664062 18.871094 24.878906 18.871094 C 27.15625 18.871094 28.976562 17.113281 28.976562 14.835938 C 28.976562 12.558594 27.15625 10.738281 24.878906 10.738281 Z M 24.878906 10.738281 " fill-opacity="1" fill-rule="evenodd"/><path fill="#1800ad" d="M 45.636719 22.777344 C 41.273438 22.777344 37.695312 19.195312 37.695312 14.835938 C 37.695312 10.410156 41.273438 6.832031 45.636719 6.832031 C 50.058594 6.832031 53.640625 10.410156 53.640625 14.835938 C 53.640625 19.195312 50.058594 22.777344 45.636719 22.777344 Z M 45.636719 10.738281 C 43.421875 10.738281 41.601562 12.558594 41.601562 14.835938 C 41.601562 17.050781 43.421875 18.871094 45.636719 18.871094 C 47.914062 18.871094 49.734375 17.113281 49.734375 14.835938 C 49.734375 12.558594 47.914062 10.738281 45.636719 10.738281 Z M 45.636719 10.738281 " fill-opacity="1" fill-rule="evenodd"/><path fill="#1800ad" d="M 90.144531 21.082031 L 63.921875 21.082031 C 61.511719 21.082031 59.5625 19.132812 59.5625 16.660156 L 59.5625 12.949219 C 59.5625 10.542969 61.511719 8.523438 63.921875 8.523438 L 90.144531 8.523438 C 92.554688 8.523438 94.570312 10.542969 94.570312 12.949219 L 94.570312 16.660156 C 94.570312 19.132812 92.554688 21.082031 90.144531 21.082031 Z M 63.921875 12.429688 C 63.660156 12.429688 63.464844 12.6875 63.464844 12.949219 L 63.464844 16.660156 C 63.464844 16.984375 63.660156 17.179688 63.921875 17.179688 L 90.144531 17.179688 C 90.40625 17.179688 90.664062 16.917969 90.664062 16.660156 L 90.664062 12.949219 C 90.664062 12.6875 90.40625 12.429688 90.144531 12.429688 Z M 63.921875 12.429688 " fill-opacity="1" fill-rule="evenodd"/><path fill="#1800ad" d="M 24.878906 63.511719 C 20.515625 63.511719 16.9375 59.933594 16.9375 55.507812 C 16.9375 51.148438 20.515625 47.570312 24.878906 47.570312 C 29.300781 47.570312 32.882812 51.148438 32.882812 55.507812 C 32.882812 59.933594 29.300781 63.511719 24.878906 63.511719 Z M 24.878906 51.472656 C 22.664062 51.472656 20.84375 53.292969 20.84375 55.507812 C 20.84375 57.785156 22.664062 59.605469 24.878906 59.605469 C 27.15625 59.605469 28.976562 57.785156 28.976562 55.507812 C 28.976562 53.230469 27.15625 51.472656 24.878906 51.472656 Z M 24.878906 51.472656 " fill-opacity="1" fill-rule="evenodd"/><path fill="#1800ad" d="M 45.636719 63.511719 C 41.273438 63.511719 37.695312 59.933594 37.695312 55.507812 C 37.695312 51.148438 41.273438 47.570312 45.636719 47.570312 C 50.058594 47.570312 53.640625 51.148438 53.640625 55.507812 C 53.640625 59.933594 50.058594 63.511719 45.636719 63.511719 Z M 45.636719 51.472656 C 43.421875 51.472656 41.601562 53.292969 41.601562 55.507812 C 41.601562 57.785156 43.421875 59.605469 45.636719 59.605469 C 47.914062 59.605469 49.734375 57.785156 49.734375 55.507812 C 49.734375 53.230469 47.914062 51.472656 45.636719 51.472656 Z M 45.636719 51.472656 " fill-opacity="1" fill-rule="evenodd"/><path fill="#1800ad" d="M 90.144531 61.820312 L 63.921875 61.820312 C 61.511719 61.820312 59.5625 59.800781 59.5625 57.394531 L 59.5625 53.683594 C 59.5625 51.210938 61.511719 49.261719 63.921875 49.261719 L 90.144531 49.261719 C 92.554688 49.261719 94.570312 51.210938 94.570312 53.683594 L 94.570312 57.394531 C 94.570312 59.800781 92.554688 61.820312 90.144531 61.820312 Z M 63.921875 53.164062 C 63.660156 53.164062 63.464844 53.359375 63.464844 53.683594 L 63.464844 57.394531 C 63.464844 57.65625 63.660156 57.914062 63.921875 57.914062 L 90.144531 57.914062 C 90.40625 57.914062 90.664062 57.65625 90.664062 57.394531 L 90.664062 53.683594 C 90.664062 53.359375 90.40625 53.164062 90.144531 53.164062 Z M 63.921875 53.164062 " fill-opacity="1" fill-rule="evenodd"/><path fill="#1800ad" d="M 24.878906 104.246094 C 20.515625 104.246094 16.9375 100.601562 16.9375 96.242188 C 16.9375 91.816406 20.515625 88.238281 24.878906 88.238281 C 29.300781 88.238281 32.882812 91.816406 32.882812 96.242188 C 32.882812 100.601562 29.300781 104.246094 24.878906 104.246094 Z M 24.878906 92.144531 C 22.664062 92.144531 20.84375 93.964844 20.84375 96.242188 C 20.84375 98.457031 22.664062 100.34375 24.878906 100.34375 C 27.15625 100.34375 28.976562 98.457031 28.976562 96.242188 C 28.976562 93.964844 27.15625 92.144531 24.878906 92.144531 Z M 24.878906 92.144531 " fill-opacity="1" fill-rule="evenodd"/><path fill="#1800ad" d="M 45.636719 104.246094 C 41.273438 104.246094 37.695312 100.601562 37.695312 96.242188 C 37.695312 91.816406 41.273438 88.238281 45.636719 88.238281 C 50.058594 88.238281 53.640625 91.816406 53.640625 96.242188 C 53.640625 100.601562 50.058594 104.246094 45.636719 104.246094 Z M 45.636719 92.144531 C 43.421875 92.144531 41.601562 93.964844 41.601562 96.242188 C 41.601562 98.457031 43.421875 100.34375 45.636719 100.34375 C 47.914062 100.34375 49.734375 98.457031 49.734375 96.242188 C 49.734375 93.964844 47.914062 92.144531 45.636719 92.144531 Z M 45.636719 92.144531 " fill-opacity="1" fill-rule="evenodd"/><path fill="#1800ad" d="M 90.144531 102.488281 L 63.921875 102.488281 C 61.511719 102.488281 59.5625 100.472656 59.5625 98.128906 L 59.5625 94.355469 C 59.5625 91.949219 61.511719 89.996094 63.921875 89.996094 L 90.144531 89.996094 C 92.554688 89.996094 94.570312 91.949219 94.570312 94.355469 L 94.570312 98.128906 C 94.570312 100.539062 92.554688 102.488281 90.144531 102.488281 Z M 63.921875 93.898438 C 63.660156 93.898438 63.464844 94.09375 63.464844 94.355469 L 63.464844 98.128906 C 63.464844 98.324219 63.660156 98.585938 63.921875 98.585938 L 90.144531 98.585938 C 90.40625 98.585938 90.664062 98.324219 90.664062 98.128906 L 90.664062 94.355469 C 90.664062 94.09375 90.40625 93.898438 90.144531 93.898438 Z M 63.921875 93.898438 " fill-opacity="1" fill-rule="evenodd"/><g transform="matrix(1, 0, 0, 1, 137, 12)"><g clip-path="url(#d05966f88b)"><g fill="#1800ad" fill-opacity="1"><g transform="translate(0.971385, 22.362261)"><g><path d="M 1.859375 0 L 1.859375 -14.796875 L 5 -14.796875 L 5 0 Z M 1.859375 0 "/></g></g></g><g fill="#1800ad" fill-opacity="1"><g transform="translate(7.829747, 22.362261)"><g><path d="M 12.0625 0 L 8.96875 0 L 8.96875 -6.609375 C 8.96875 -7.421875 8.820312 -8.03125 8.53125 -8.4375 C 8.25 -8.84375 7.789062 -9.046875 7.15625 -9.046875 C 6.289062 -9.046875 5.664062 -8.757812 5.28125 -8.1875 C 4.894531 -7.613281 4.703125 -6.660156 4.703125 -5.328125 L 4.703125 0 L 1.625 0 L 1.625 -11.3125 L 3.96875 -11.3125 L 4.390625 -9.859375 L 4.5625 -9.859375 C 4.90625 -10.410156 5.378906 -10.820312 5.984375 -11.09375 C 6.585938 -11.375 7.273438 -11.515625 8.046875 -11.515625 C 9.359375 -11.515625 10.351562 -11.160156 11.03125 -10.453125 C 11.71875 -9.742188 12.0625 -8.71875 12.0625 -7.375 Z M 12.0625 0 "/></g></g></g><g fill="#1800ad" fill-opacity="1"><g transform="translate(21.445314, 22.362261)"><g><path d="M 7.875 -9 L 5.203125 -9 L 5.203125 0 L 2.109375 0 L 2.109375 -9 L 0.421875 -9 L 0.421875 -10.484375 L 2.109375 -11.3125 L 2.109375 -12.140625 C 2.109375 -13.429688 2.425781 -14.375 3.0625 -14.96875 C 3.695312 -15.5625 4.710938 -15.859375 6.109375 -15.859375 C 7.171875 -15.859375 8.117188 -15.695312 8.953125 -15.375 L 8.171875 -13.109375 C 7.546875 -13.304688 6.96875 -13.40625 6.4375 -13.40625 C 6 -13.40625 5.679688 -13.273438 5.484375 -13.015625 C 5.296875 -12.753906 5.203125 -12.421875 5.203125 -12.015625 L 5.203125 -11.3125 L 7.875 -11.3125 Z M 7.875 -9 "/></g></g></g><g fill="#1800ad" fill-opacity="1"><g transform="translate(29.466973, 22.362261)"><g><path d="M 7.9375 -11.515625 C 8.351562 -11.515625 8.695312 -11.488281 8.96875 -11.4375 L 8.734375 -8.53125 C 8.484375 -8.601562 8.179688 -8.640625 7.828125 -8.640625 C 6.847656 -8.640625 6.082031 -8.382812 5.53125 -7.875 C 4.976562 -7.375 4.703125 -6.664062 4.703125 -5.75 L 4.703125 0 L 1.625 0 L 1.625 -11.3125 L 3.953125 -11.3125 L 4.40625 -9.40625 L 4.5625 -9.40625 C 4.914062 -10.039062 5.390625 -10.550781 5.984375 -10.9375 C 6.578125 -11.320312 7.226562 -11.515625 7.9375 -11.515625 Z M 7.9375 -11.515625 "/></g></g></g><g fill="#1800ad" fill-opacity="1"><g transform="translate(38.87446, 22.362261)"><g><path d="M 8.796875 0 L 8.203125 -1.53125 L 8.125 -1.53125 C 7.601562 -0.882812 7.066406 -0.429688 6.515625 -0.171875 C 5.972656 0.078125 5.257812 0.203125 4.375 0.203125 C 3.28125 0.203125 2.421875 -0.101562 1.796875 -0.71875 C 1.179688 -1.34375 0.875 -2.226562 0.875 -3.375 C 0.875 -4.582031 1.289062 -5.46875 2.125 -6.03125 C 2.96875 -6.601562 4.234375 -6.921875 5.921875 -6.984375 L 7.890625 -7.046875 L 7.890625 -7.53125 C 7.890625 -8.675781 7.300781 -9.25 6.125 -9.25 C 5.226562 -9.25 4.164062 -8.976562 2.9375 -8.4375 L 1.921875 -10.515625 C 3.222656 -11.203125 4.664062 -11.546875 6.25 -11.546875 C 7.769531 -11.546875 8.929688 -11.210938 9.734375 -10.546875 C 10.546875 -9.890625 10.953125 -8.882812 10.953125 -7.53125 L 10.953125 0 Z M 7.890625 -5.234375 L 6.703125 -5.203125 C 5.804688 -5.171875 5.132812 -5.003906 4.6875 -4.703125 C 4.25 -4.410156 4.03125 -3.960938 4.03125 -3.359375 C 4.03125 -2.484375 4.53125 -2.046875 5.53125 -2.046875 C 6.25 -2.046875 6.820312 -2.25 7.25 -2.65625 C 7.675781 -3.070312 7.890625 -3.625 7.890625 -4.3125 Z M 7.890625 -5.234375 "/></g></g></g><g fill="#1800ad" fill-opacity="1"><g transform="translate(51.387435, 22.362261)"><g><path d="M 6.296875 -9.328125 C 5.648438 -9.328125 5.140625 -9.117188 4.765625 -8.703125 C 4.390625 -8.285156 4.175781 -7.695312 4.125 -6.9375 L 8.453125 -6.9375 C 8.441406 -7.695312 8.242188 -8.285156 7.859375 -8.703125 C 7.472656 -9.117188 6.953125 -9.328125 6.296875 -9.328125 Z M 6.734375 0.203125 C 4.910156 0.203125 3.488281 -0.296875 2.46875 -1.296875 C 1.445312 -2.304688 0.9375 -3.734375 0.9375 -5.578125 C 0.9375 -7.472656 1.410156 -8.9375 2.359375 -9.96875 C 3.304688 -11 4.613281 -11.515625 6.28125 -11.515625 C 7.882812 -11.515625 9.128906 -11.0625 10.015625 -10.15625 C 10.898438 -9.25 11.34375 -7.992188 11.34375 -6.390625 L 11.34375 -4.890625 L 4.0625 -4.890625 C 4.09375 -4.015625 4.347656 -3.328125 4.828125 -2.828125 C 5.316406 -2.335938 6 -2.09375 6.875 -2.09375 C 7.5625 -2.09375 8.207031 -2.160156 8.8125 -2.296875 C 9.414062 -2.441406 10.050781 -2.671875 10.71875 -2.984375 L 10.71875 -0.59375 C 10.175781 -0.320312 9.597656 -0.125 8.984375 0 C 8.367188 0.132812 7.617188 0.203125 6.734375 0.203125 Z M 6.734375 0.203125 "/></g></g></g><g fill="#1800ad" fill-opacity="1"><g transform="translate(63.627284, 22.362261)"><g><path d="M 9.515625 -3.359375 C 9.515625 -2.203125 9.109375 -1.316406 8.296875 -0.703125 C 7.492188 -0.0976562 6.289062 0.203125 4.6875 0.203125 C 3.863281 0.203125 3.160156 0.144531 2.578125 0.03125 C 1.992188 -0.0703125 1.453125 -0.234375 0.953125 -0.453125 L 0.953125 -3 C 1.523438 -2.726562 2.171875 -2.5 2.890625 -2.3125 C 3.609375 -2.132812 4.238281 -2.046875 4.78125 -2.046875 C 5.90625 -2.046875 6.46875 -2.375 6.46875 -3.03125 C 6.46875 -3.269531 6.390625 -3.460938 6.234375 -3.609375 C 6.085938 -3.765625 5.832031 -3.9375 5.46875 -4.125 C 5.101562 -4.320312 4.617188 -4.550781 4.015625 -4.8125 C 3.148438 -5.175781 2.507812 -5.507812 2.09375 -5.8125 C 1.6875 -6.125 1.390625 -6.476562 1.203125 -6.875 C 1.023438 -7.28125 0.9375 -7.773438 0.9375 -8.359375 C 0.9375 -9.367188 1.320312 -10.144531 2.09375 -10.6875 C 2.875 -11.238281 3.976562 -11.515625 5.40625 -11.515625 C 6.769531 -11.515625 8.097656 -11.21875 9.390625 -10.625 L 8.453125 -8.40625 C 7.890625 -8.644531 7.359375 -8.84375 6.859375 -9 C 6.367188 -9.15625 5.867188 -9.234375 5.359375 -9.234375 C 4.453125 -9.234375 4 -8.988281 4 -8.5 C 4 -8.21875 4.144531 -7.972656 4.4375 -7.765625 C 4.726562 -7.566406 5.367188 -7.269531 6.359375 -6.875 C 7.242188 -6.519531 7.890625 -6.1875 8.296875 -5.875 C 8.710938 -5.5625 9.019531 -5.203125 9.21875 -4.796875 C 9.414062 -4.398438 9.515625 -3.921875 9.515625 -3.359375 Z M 9.515625 -3.359375 "/></g></g></g><g fill="#1800ad" fill-opacity="1"><g transform="translate(73.924941, 22.362261)"><g><path d="M 6.390625 -2.25 C 6.921875 -2.25 7.566406 -2.367188 8.328125 -2.609375 L 8.328125 -0.3125 C 7.554688 0.03125 6.613281 0.203125 5.5 0.203125 C 4.257812 0.203125 3.359375 -0.109375 2.796875 -0.734375 C 2.234375 -1.359375 1.953125 -2.296875 1.953125 -3.546875 L 1.953125 -9 L 0.46875 -9 L 0.46875 -10.296875 L 2.171875 -11.328125 L 3.0625 -13.71875 L 5.03125 -13.71875 L 5.03125 -11.3125 L 8.203125 -11.3125 L 8.203125 -9 L 5.03125 -9 L 5.03125 -3.546875 C 5.03125 -3.109375 5.15625 -2.78125 5.40625 -2.5625 C 5.65625 -2.351562 5.984375 -2.25 6.390625 -2.25 Z M 6.390625 -2.25 "/></g></g></g><g fill="#1800ad" fill-opacity="1"><g transform="translate(82.917695, 22.362261)"><g><path d="M 7.9375 -11.515625 C 8.351562 -11.515625 8.695312 -11.488281 8.96875 -11.4375 L 8.734375 -8.53125 C 8.484375 -8.601562 8.179688 -8.640625 7.828125 -8.640625 C 6.847656 -8.640625 6.082031 -8.382812 5.53125 -7.875 C 4.976562 -7.375 4.703125 -6.664062 4.703125 -5.75 L 4.703125 0 L 1.625 0 L 1.625 -11.3125 L 3.953125 -11.3125 L 4.40625 -9.40625 L 4.5625 -9.40625 C 4.914062 -10.039062 5.390625 -10.550781 5.984375 -10.9375 C 6.578125 -11.320312 7.226562 -11.515625 7.9375 -11.515625 Z M 7.9375 -11.515625 "/></g></g></g><g fill="#1800ad" fill-opacity="1"><g transform="translate(92.325183, 22.362261)"><g><path d="M 9.625 0 L 9.21875 -1.453125 L 9.046875 -1.453125 C 8.722656 -0.921875 8.253906 -0.507812 7.640625 -0.21875 C 7.035156 0.0625 6.347656 0.203125 5.578125 0.203125 C 4.242188 0.203125 3.238281 -0.148438 2.5625 -0.859375 C 1.894531 -1.578125 1.5625 -2.601562 1.5625 -3.9375 L 1.5625 -11.3125 L 4.640625 -11.3125 L 4.640625 -4.703125 C 4.640625 -3.890625 4.785156 -3.273438 5.078125 -2.859375 C 5.367188 -2.453125 5.832031 -2.25 6.46875 -2.25 C 7.332031 -2.25 7.953125 -2.535156 8.328125 -3.109375 C 8.710938 -3.691406 8.90625 -4.648438 8.90625 -5.984375 L 8.90625 -11.3125 L 12 -11.3125 L 12 0 Z M 9.625 0 "/></g></g></g><g fill="#1800ad" fill-opacity="1"><g transform="translate(105.94075, 22.362261)"><g><path d="M 6.390625 -2.25 C 6.921875 -2.25 7.566406 -2.367188 8.328125 -2.609375 L 8.328125 -0.3125 C 7.554688 0.03125 6.613281 0.203125 5.5 0.203125 C 4.257812 0.203125 3.359375 -0.109375 2.796875 -0.734375 C 2.234375 -1.359375 1.953125 -2.296875 1.953125 -3.546875 L 1.953125 -9 L 0.46875 -9 L 0.46875 -10.296875 L 2.171875 -11.328125 L 3.0625 -13.71875 L 5.03125 -13.71875 L 5.03125 -11.3125 L 8.203125 -11.3125 L 8.203125 -9 L 5.03125 -9 L 5.03125 -3.546875 C 5.03125 -3.109375 5.15625 -2.78125 5.40625 -2.5625 C 5.65625 -2.351562 5.984375 -2.25 6.390625 -2.25 Z M 6.390625 -2.25 "/></g></g></g><g fill="#1800ad" fill-opacity="1"><g transform="translate(114.933504, 22.362261)"><g><path d="M 9.625 0 L 9.21875 -1.453125 L 9.046875 -1.453125 C 8.722656 -0.921875 8.253906 -0.507812 7.640625 -0.21875 C 7.035156 0.0625 6.347656 0.203125 5.578125 0.203125 C 4.242188 0.203125 3.238281 -0.148438 2.5625 -0.859375 C 1.894531 -1.578125 1.5625 -2.601562 1.5625 -3.9375 L 1.5625 -11.3125 L 4.640625 -11.3125 L 4.640625 -4.703125 C 4.640625 -3.890625 4.785156 -3.273438 5.078125 -2.859375 C 5.367188 -2.453125 5.832031 -2.25 6.46875 -2.25 C 7.332031 -2.25 7.953125 -2.535156 8.328125 -3.109375 C 8.710938 -3.691406 8.90625 -4.648438 8.90625 -5.984375 L 8.90625 -11.3125 L 12 -11.3125 L 12 0 Z M 9.625 0 "/></g></g></g><g fill="#1800ad" fill-opacity="1"><g transform="translate(128.549072, 22.362261)"><g><path d="M 7.9375 -11.515625 C 8.351562 -11.515625 8.695312 -11.488281 8.96875 -11.4375 L 8.734375 -8.53125 C 8.484375 -8.601562 8.179688 -8.640625 7.828125 -8.640625 C 6.847656 -8.640625 6.082031 -8.382812 5.53125 -7.875 C 4.976562 -7.375 4.703125 -6.664062 4.703125 -5.75 L 4.703125 0 L 1.625 0 L 1.625 -11.3125 L 3.953125 -11.3125 L 4.40625 -9.40625 L 4.5625 -9.40625 C 4.914062 -10.039062 5.390625 -10.550781 5.984375 -10.9375 C 6.578125 -11.320312 7.226562 -11.515625 7.9375 -11.515625 Z M 7.9375 -11.515625 "/></g></g></g><g fill="#1800ad" fill-opacity="1"><g transform="translate(137.956559, 22.362261)"><g><path d="M 8.796875 0 L 8.203125 -1.53125 L 8.125 -1.53125 C 7.601562 -0.882812 7.066406 -0.429688 6.515625 -0.171875 C 5.972656 0.078125 5.257812 0.203125 4.375 0.203125 C 3.28125 0.203125 2.421875 -0.101562 1.796875 -0.71875 C 1.179688 -1.34375 0.875 -2.226562 0.875 -3.375 C 0.875 -4.582031 1.289062 -5.46875 2.125 -6.03125 C 2.96875 -6.601562 4.234375 -6.921875 5.921875 -6.984375 L 7.890625 -7.046875 L 7.890625 -7.53125 C 7.890625 -8.675781 7.300781 -9.25 6.125 -9.25 C 5.226562 -9.25 4.164062 -8.976562 2.9375 -8.4375 L 1.921875 -10.515625 C 3.222656 -11.203125 4.664062 -11.546875 6.25 -11.546875 C 7.769531 -11.546875 8.929688 -11.210938 9.734375 -10.546875 C 10.546875 -9.890625 10.953125 -8.882812 10.953125 -7.53125 L 10.953125 0 Z M 7.890625 -5.234375 L 6.703125 -5.203125 C 5.804688 -5.171875 5.132812 -5.003906 4.6875 -4.703125 C 4.25 -4.410156 4.03125 -3.960938 4.03125 -3.359375 C 4.03125 -2.484375 4.53125 -2.046875 5.53125 -2.046875 C 6.25 -2.046875 6.820312 -2.25 7.25 -2.65625 C 7.675781 -3.070312 7.890625 -3.625 7.890625 -4.3125 Z M 7.890625 -5.234375 "/></g></g></g><g fill="#1800ad" fill-opacity="1"><g transform="translate(150.469534, 22.362261)"><g/></g></g><g fill="#1800ad" fill-opacity="1"><g transform="translate(155.851021, 22.362261)"><g><path d="M 8.125 0 L 4.5625 -11.609375 L 4.46875 -11.609375 C 4.59375 -9.242188 4.65625 -7.664062 4.65625 -6.875 L 4.65625 0 L 1.859375 0 L 1.859375 -14.796875 L 6.125 -14.796875 L 9.625 -3.484375 L 9.6875 -3.484375 L 13.40625 -14.796875 L 17.671875 -14.796875 L 17.671875 0 L 14.75 0 L 14.75 -7 C 14.75 -7.332031 14.753906 -7.710938 14.765625 -8.140625 C 14.773438 -8.578125 14.820312 -9.722656 14.90625 -11.578125 L 14.8125 -11.578125 L 11 0 Z M 8.125 0 "/></g></g></g><g fill="#1800ad" fill-opacity="1"><g transform="translate(175.384207, 22.362261)"><g><path d="M 4.078125 -5.671875 C 4.078125 -4.554688 4.257812 -3.710938 4.625 -3.140625 C 5 -2.566406 5.597656 -2.28125 6.421875 -2.28125 C 7.242188 -2.28125 7.832031 -2.5625 8.1875 -3.125 C 8.550781 -3.695312 8.734375 -4.546875 8.734375 -5.671875 C 8.734375 -6.796875 8.550781 -7.632812 8.1875 -8.1875 C 7.820312 -8.75 7.226562 -9.03125 6.40625 -9.03125 C 5.582031 -9.03125 4.988281 -8.75 4.625 -8.1875 C 4.257812 -7.632812 4.078125 -6.796875 4.078125 -5.671875 Z M 11.890625 -5.671875 C 11.890625 -3.828125 11.40625 -2.382812 10.4375 -1.34375 C 9.46875 -0.3125 8.117188 0.203125 6.390625 0.203125 C 5.296875 0.203125 4.332031 -0.03125 3.5 -0.5 C 2.675781 -0.976562 2.039062 -1.660156 1.59375 -2.546875 C 1.15625 -3.441406 0.9375 -4.484375 0.9375 -5.671875 C 0.9375 -7.523438 1.414062 -8.960938 2.375 -9.984375 C 3.34375 -11.003906 4.695312 -11.515625 6.4375 -11.515625 C 7.53125 -11.515625 8.488281 -11.28125 9.3125 -10.8125 C 10.144531 -10.34375 10.78125 -9.664062 11.21875 -8.78125 C 11.664062 -7.894531 11.890625 -6.859375 11.890625 -5.671875 Z M 11.890625 -5.671875 "/></g></g></g><g fill="#1800ad" fill-opacity="1"><g transform="translate(188.210759, 22.362261)"><g><path d="M 5.203125 0.203125 C 3.867188 0.203125 2.820312 -0.3125 2.0625 -1.34375 C 1.3125 -2.375 0.9375 -3.804688 0.9375 -5.640625 C 0.9375 -7.492188 1.320312 -8.9375 2.09375 -9.96875 C 2.863281 -11 3.925781 -11.515625 5.28125 -11.515625 C 6.707031 -11.515625 7.789062 -10.960938 8.53125 -9.859375 L 8.640625 -9.859375 C 8.484375 -10.703125 8.40625 -11.457031 8.40625 -12.125 L 8.40625 -15.734375 L 11.5 -15.734375 L 11.5 0 L 9.140625 0 L 8.53125 -1.46875 L 8.40625 -1.46875 C 7.707031 -0.351562 6.640625 0.203125 5.203125 0.203125 Z M 6.28125 -2.25 C 7.070312 -2.25 7.648438 -2.476562 8.015625 -2.9375 C 8.378906 -3.394531 8.582031 -4.175781 8.625 -5.28125 L 8.625 -5.609375 C 8.625 -6.828125 8.4375 -7.695312 8.0625 -8.21875 C 7.6875 -8.75 7.078125 -9.015625 6.234375 -9.015625 C 5.546875 -9.015625 5.007812 -8.722656 4.625 -8.140625 C 4.25 -7.554688 4.0625 -6.707031 4.0625 -5.59375 C 4.0625 -4.476562 4.25 -3.640625 4.625 -3.078125 C 5.007812 -2.523438 5.5625 -2.25 6.28125 -2.25 Z M 6.28125 -2.25 "/></g></g></g><g fill="#1800ad" fill-opacity="1"><g transform="translate(201.320547, 22.362261)"><g><path d="M 6.296875 -9.328125 C 5.648438 -9.328125 5.140625 -9.117188 4.765625 -8.703125 C 4.390625 -8.285156 4.175781 -7.695312 4.125 -6.9375 L 8.453125 -6.9375 C 8.441406 -7.695312 8.242188 -8.285156 7.859375 -8.703125 C 7.472656 -9.117188 6.953125 -9.328125 6.296875 -9.328125 Z M 6.734375 0.203125 C 4.910156 0.203125 3.488281 -0.296875 2.46875 -1.296875 C 1.445312 -2.304688 0.9375 -3.734375 0.9375 -5.578125 C 0.9375 -7.472656 1.410156 -8.9375 2.359375 -9.96875 C 3.304688 -11 4.613281 -11.515625 6.28125 -11.515625 C 7.882812 -11.515625 9.128906 -11.0625 10.015625 -10.15625 C 10.898438 -9.25 11.34375 -7.992188 11.34375 -6.390625 L 11.34375 -4.890625 L 4.0625 -4.890625 C 4.09375 -4.015625 4.347656 -3.328125 4.828125 -2.828125 C 5.316406 -2.335938 6 -2.09375 6.875 -2.09375 C 7.5625 -2.09375 8.207031 -2.160156 8.8125 -2.296875 C 9.414062 -2.441406 10.050781 -2.671875 10.71875 -2.984375 L 10.71875 -0.59375 C 10.175781 -0.320312 9.597656 -0.125 8.984375 0 C 8.367188 0.132812 7.617188 0.203125 6.734375 0.203125 Z M 6.734375 0.203125 "/></g></g></g><g fill="#1800ad" fill-opacity="1"><g transform="translate(213.560407, 22.362261)"><g><path d="M 7.9375 -11.515625 C 8.351562 -11.515625 8.695312 -11.488281 8.96875 -11.4375 L 8.734375 -8.53125 C 8.484375 -8.601562 8.179688 -8.640625 7.828125 -8.640625 C 6.847656 -8.640625 6.082031 -8.382812 5.53125 -7.875 C 4.976562 -7.375 4.703125 -6.664062 4.703125 -5.75 L 4.703125 0 L 1.625 0 L 1.625 -11.3125 L 3.953125 -11.3125 L 4.40625 -9.40625 L 4.5625 -9.40625 C 4.914062 -10.039062 5.390625 -10.550781 5.984375 -10.9375 C 6.578125 -11.320312 7.226562 -11.515625 7.9375 -11.515625 Z M 7.9375 -11.515625 "/></g></g></g><g fill="#1800ad" fill-opacity="1"><g transform="translate(222.967883, 22.362261)"><g><path d="M 12.0625 0 L 8.96875 0 L 8.96875 -6.609375 C 8.96875 -7.421875 8.820312 -8.03125 8.53125 -8.4375 C 8.25 -8.84375 7.789062 -9.046875 7.15625 -9.046875 C 6.289062 -9.046875 5.664062 -8.757812 5.28125 -8.1875 C 4.894531 -7.613281 4.703125 -6.660156 4.703125 -5.328125 L 4.703125 0 L 1.625 0 L 1.625 -11.3125 L 3.96875 -11.3125 L 4.390625 -9.859375 L 4.5625 -9.859375 C 4.90625 -10.410156 5.378906 -10.820312 5.984375 -11.09375 C 6.585938 -11.375 7.273438 -11.515625 8.046875 -11.515625 C 9.359375 -11.515625 10.351562 -11.160156 11.03125 -10.453125 C 11.71875 -9.742188 12.0625 -8.71875 12.0625 -7.375 Z M 12.0625 0 "/></g></g></g><g fill="#1800ad" fill-opacity="1"><g transform="translate(236.583438, 22.362261)"><g><path d="M 8.796875 0 L 8.203125 -1.53125 L 8.125 -1.53125 C 7.601562 -0.882812 7.066406 -0.429688 6.515625 -0.171875 C 5.972656 0.078125 5.257812 0.203125 4.375 0.203125 C 3.28125 0.203125 2.421875 -0.101562 1.796875 -0.71875 C 1.179688 -1.34375 0.875 -2.226562 0.875 -3.375 C 0.875 -4.582031 1.289062 -5.46875 2.125 -6.03125 C 2.96875 -6.601562 4.234375 -6.921875 5.921875 -6.984375 L 7.890625 -7.046875 L 7.890625 -7.53125 C 7.890625 -8.675781 7.300781 -9.25 6.125 -9.25 C 5.226562 -9.25 4.164062 -8.976562 2.9375 -8.4375 L 1.921875 -10.515625 C 3.222656 -11.203125 4.664062 -11.546875 6.25 -11.546875 C 7.769531 -11.546875 8.929688 -11.210938 9.734375 -10.546875 C 10.546875 -9.890625 10.953125 -8.882812 10.953125 -7.53125 L 10.953125 0 Z M 7.890625 -5.234375 L 6.703125 -5.203125 C 5.804688 -5.171875 5.132812 -5.003906 4.6875 -4.703125 C 4.25 -4.410156 4.03125 -3.960938 4.03125 -3.359375 C 4.03125 -2.484375 4.53125 -2.046875 5.53125 -2.046875 C 6.25 -2.046875 6.820312 -2.25 7.25 -2.65625 C 7.675781 -3.070312 7.890625 -3.625 7.890625 -4.3125 Z M 7.890625 -5.234375 "/></g></g></g><g fill="#1800ad" fill-opacity="1"><g transform="translate(249.097566, 22.362261)"><g/></g></g><g fill="#1800ad" fill-opacity="1"><g transform="translate(24.441061, 51.23378)"><g><path d="M 7.828125 0.203125 C 6.503906 0.203125 5.460938 -0.28125 4.703125 -1.25 L 4.546875 -1.25 C 4.648438 -0.300781 4.703125 0.242188 4.703125 0.390625 L 4.703125 4.984375 L 1.625 4.984375 L 1.625 -11.3125 L 4.125 -11.3125 L 4.5625 -9.84375 L 4.703125 -9.84375 C 5.421875 -10.957031 6.488281 -11.515625 7.90625 -11.515625 C 9.25 -11.515625 10.296875 -11 11.046875 -9.96875 C 11.804688 -8.9375 12.1875 -7.503906 12.1875 -5.671875 C 12.1875 -4.460938 12.007812 -3.410156 11.65625 -2.515625 C 11.300781 -1.628906 10.796875 -0.953125 10.140625 -0.484375 C 9.484375 -0.0234375 8.710938 0.203125 7.828125 0.203125 Z M 6.921875 -9.046875 C 6.160156 -9.046875 5.601562 -8.8125 5.25 -8.34375 C 4.894531 -7.875 4.710938 -7.101562 4.703125 -6.03125 L 4.703125 -5.703125 C 4.703125 -4.484375 4.878906 -3.609375 5.234375 -3.078125 C 5.597656 -2.554688 6.171875 -2.296875 6.953125 -2.296875 C 8.335938 -2.296875 9.03125 -3.4375 9.03125 -5.71875 C 9.03125 -6.832031 8.859375 -7.664062 8.515625 -8.21875 C 8.179688 -8.769531 7.648438 -9.046875 6.921875 -9.046875 Z M 6.921875 -9.046875 "/></g></g></g><g fill="#1800ad" fill-opacity="1"><g transform="translate(37.55085, 51.23378)"><g><path d="M 7.9375 -11.515625 C 8.351562 -11.515625 8.695312 -11.488281 8.96875 -11.4375 L 8.734375 -8.53125 C 8.484375 -8.601562 8.179688 -8.640625 7.828125 -8.640625 C 6.847656 -8.640625 6.082031 -8.382812 5.53125 -7.875 C 4.976562 -7.375 4.703125 -6.664062 4.703125 -5.75 L 4.703125 0 L 1.625 0 L 1.625 -11.3125 L 3.953125 -11.3125 L 4.40625 -9.40625 L 4.5625 -9.40625 C 4.914062 -10.039062 5.390625 -10.550781 5.984375 -10.9375 C 6.578125 -11.320312 7.226562 -11.515625 7.9375 -11.515625 Z M 7.9375 -11.515625 "/></g></g></g><g fill="#1800ad" fill-opacity="1"><g transform="translate(46.958337, 51.23378)"><g><path d="M 6.296875 -9.328125 C 5.648438 -9.328125 5.140625 -9.117188 4.765625 -8.703125 C 4.390625 -8.285156 4.175781 -7.695312 4.125 -6.9375 L 8.453125 -6.9375 C 8.441406 -7.695312 8.242188 -8.285156 7.859375 -8.703125 C 7.472656 -9.117188 6.953125 -9.328125 6.296875 -9.328125 Z M 6.734375 0.203125 C 4.910156 0.203125 3.488281 -0.296875 2.46875 -1.296875 C 1.445312 -2.304688 0.9375 -3.734375 0.9375 -5.578125 C 0.9375 -7.472656 1.410156 -8.9375 2.359375 -9.96875 C 3.304688 -11 4.613281 -11.515625 6.28125 -11.515625 C 7.882812 -11.515625 9.128906 -11.0625 10.015625 -10.15625 C 10.898438 -9.25 11.34375 -7.992188 11.34375 -6.390625 L 11.34375 -4.890625 L 4.0625 -4.890625 C 4.09375 -4.015625 4.347656 -3.328125 4.828125 -2.828125 C 5.316406 -2.335938 6 -2.09375 6.875 -2.09375 C 7.5625 -2.09375 8.207031 -2.160156 8.8125 -2.296875 C 9.414062 -2.441406 10.050781 -2.671875 10.71875 -2.984375 L 10.71875 -0.59375 C 10.175781 -0.320312 9.597656 -0.125 8.984375 0 C 8.367188 0.132812 7.617188 0.203125 6.734375 0.203125 Z M 6.734375 0.203125 "/></g></g></g><g fill="#1800ad" fill-opacity="1"><g transform="translate(59.198185, 51.23378)"><g><path d="M 7.828125 0.203125 C 6.503906 0.203125 5.460938 -0.28125 4.703125 -1.25 L 4.546875 -1.25 C 4.648438 -0.300781 4.703125 0.242188 4.703125 0.390625 L 4.703125 4.984375 L 1.625 4.984375 L 1.625 -11.3125 L 4.125 -11.3125 L 4.5625 -9.84375 L 4.703125 -9.84375 C 5.421875 -10.957031 6.488281 -11.515625 7.90625 -11.515625 C 9.25 -11.515625 10.296875 -11 11.046875 -9.96875 C 11.804688 -8.9375 12.1875 -7.503906 12.1875 -5.671875 C 12.1875 -4.460938 12.007812 -3.410156 11.65625 -2.515625 C 11.300781 -1.628906 10.796875 -0.953125 10.140625 -0.484375 C 9.484375 -0.0234375 8.710938 0.203125 7.828125 0.203125 Z M 6.921875 -9.046875 C 6.160156 -9.046875 5.601562 -8.8125 5.25 -8.34375 C 4.894531 -7.875 4.710938 -7.101562 4.703125 -6.03125 L 4.703125 -5.703125 C 4.703125 -4.484375 4.878906 -3.609375 5.234375 -3.078125 C 5.597656 -2.554688 6.171875 -2.296875 6.953125 -2.296875 C 8.335938 -2.296875 9.03125 -3.4375 9.03125 -5.71875 C 9.03125 -6.832031 8.859375 -7.664062 8.515625 -8.21875 C 8.179688 -8.769531 7.648438 -9.046875 6.921875 -9.046875 Z M 6.921875 -9.046875 "/></g></g></g><g fill="#1800ad" fill-opacity="1"><g transform="translate(72.307974, 51.23378)"><g><path d="M 8.796875 0 L 8.203125 -1.53125 L 8.125 -1.53125 C 7.601562 -0.882812 7.066406 -0.429688 6.515625 -0.171875 C 5.972656 0.078125 5.257812 0.203125 4.375 0.203125 C 3.28125 0.203125 2.421875 -0.101562 1.796875 -0.71875 C 1.179688 -1.34375 0.875 -2.226562 0.875 -3.375 C 0.875 -4.582031 1.289062 -5.46875 2.125 -6.03125 C 2.96875 -6.601562 4.234375 -6.921875 5.921875 -6.984375 L 7.890625 -7.046875 L 7.890625 -7.53125 C 7.890625 -8.675781 7.300781 -9.25 6.125 -9.25 C 5.226562 -9.25 4.164062 -8.976562 2.9375 -8.4375 L 1.921875 -10.515625 C 3.222656 -11.203125 4.664062 -11.546875 6.25 -11.546875 C 7.769531 -11.546875 8.929688 -11.210938 9.734375 -10.546875 C 10.546875 -9.890625 10.953125 -8.882812 10.953125 -7.53125 L 10.953125 0 Z M 7.890625 -5.234375 L 6.703125 -5.203125 C 5.804688 -5.171875 5.132812 -5.003906 4.6875 -4.703125 C 4.25 -4.410156 4.03125 -3.960938 4.03125 -3.359375 C 4.03125 -2.484375 4.53125 -2.046875 5.53125 -2.046875 C 6.25 -2.046875 6.820312 -2.25 7.25 -2.65625 C 7.675781 -3.070312 7.890625 -3.625 7.890625 -4.3125 Z M 7.890625 -5.234375 "/></g></g></g><g fill="#1800ad" fill-opacity="1"><g transform="translate(84.820948, 51.23378)"><g><path d="M 7.9375 -11.515625 C 8.351562 -11.515625 8.695312 -11.488281 8.96875 -11.4375 L 8.734375 -8.53125 C 8.484375 -8.601562 8.179688 -8.640625 7.828125 -8.640625 C 6.847656 -8.640625 6.082031 -8.382812 5.53125 -7.875 C 4.976562 -7.375 4.703125 -6.664062 4.703125 -5.75 L 4.703125 0 L 1.625 0 L 1.625 -11.3125 L 3.953125 -11.3125 L 4.40625 -9.40625 L 4.5625 -9.40625 C 4.914062 -10.039062 5.390625 -10.550781 5.984375 -10.9375 C 6.578125 -11.320312 7.226562 -11.515625 7.9375 -11.515625 Z M 7.9375 -11.515625 "/></g></g></g><g fill="#1800ad" fill-opacity="1"><g transform="translate(94.228435, 51.23378)"><g><path d="M 8.796875 0 L 8.203125 -1.53125 L 8.125 -1.53125 C 7.601562 -0.882812 7.066406 -0.429688 6.515625 -0.171875 C 5.972656 0.078125 5.257812 0.203125 4.375 0.203125 C 3.28125 0.203125 2.421875 -0.101562 1.796875 -0.71875 C 1.179688 -1.34375 0.875 -2.226562 0.875 -3.375 C 0.875 -4.582031 1.289062 -5.46875 2.125 -6.03125 C 2.96875 -6.601562 4.234375 -6.921875 5.921875 -6.984375 L 7.890625 -7.046875 L 7.890625 -7.53125 C 7.890625 -8.675781 7.300781 -9.25 6.125 -9.25 C 5.226562 -9.25 4.164062 -8.976562 2.9375 -8.4375 L 1.921875 -10.515625 C 3.222656 -11.203125 4.664062 -11.546875 6.25 -11.546875 C 7.769531 -11.546875 8.929688 -11.210938 9.734375 -10.546875 C 10.546875 -9.890625 10.953125 -8.882812 10.953125 -7.53125 L 10.953125 0 Z M 7.890625 -5.234375 L 6.703125 -5.203125 C 5.804688 -5.171875 5.132812 -5.003906 4.6875 -4.703125 C 4.25 -4.410156 4.03125 -3.960938 4.03125 -3.359375 C 4.03125 -2.484375 4.53125 -2.046875 5.53125 -2.046875 C 6.25 -2.046875 6.820312 -2.25 7.25 -2.65625 C 7.675781 -3.070312 7.890625 -3.625 7.890625 -4.3125 Z M 7.890625 -5.234375 "/></g></g></g><g fill="#1800ad" fill-opacity="1"><g transform="translate(106.74141, 51.23378)"><g><path d="M 5.203125 0.203125 C 3.867188 0.203125 2.820312 -0.3125 2.0625 -1.34375 C 1.3125 -2.375 0.9375 -3.804688 0.9375 -5.640625 C 0.9375 -7.492188 1.320312 -8.9375 2.09375 -9.96875 C 2.863281 -11 3.925781 -11.515625 5.28125 -11.515625 C 6.707031 -11.515625 7.789062 -10.960938 8.53125 -9.859375 L 8.640625 -9.859375 C 8.484375 -10.703125 8.40625 -11.457031 8.40625 -12.125 L 8.40625 -15.734375 L 11.5 -15.734375 L 11.5 0 L 9.140625 0 L 8.53125 -1.46875 L 8.40625 -1.46875 C 7.707031 -0.351562 6.640625 0.203125 5.203125 0.203125 Z M 6.28125 -2.25 C 7.070312 -2.25 7.648438 -2.476562 8.015625 -2.9375 C 8.378906 -3.394531 8.582031 -4.175781 8.625 -5.28125 L 8.625 -5.609375 C 8.625 -6.828125 8.4375 -7.695312 8.0625 -8.21875 C 7.6875 -8.75 7.078125 -9.015625 6.234375 -9.015625 C 5.546875 -9.015625 5.007812 -8.722656 4.625 -8.140625 C 4.25 -7.554688 4.0625 -6.707031 4.0625 -5.59375 C 4.0625 -4.476562 4.25 -3.640625 4.625 -3.078125 C 5.007812 -2.523438 5.5625 -2.25 6.28125 -2.25 Z M 6.28125 -2.25 "/></g></g></g><g fill="#1800ad" fill-opacity="1"><g transform="translate(119.851198, 51.23378)"><g><path d="M 8.796875 0 L 8.203125 -1.53125 L 8.125 -1.53125 C 7.601562 -0.882812 7.066406 -0.429688 6.515625 -0.171875 C 5.972656 0.078125 5.257812 0.203125 4.375 0.203125 C 3.28125 0.203125 2.421875 -0.101562 1.796875 -0.71875 C 1.179688 -1.34375 0.875 -2.226562 0.875 -3.375 C 0.875 -4.582031 1.289062 -5.46875 2.125 -6.03125 C 2.96875 -6.601562 4.234375 -6.921875 5.921875 -6.984375 L 7.890625 -7.046875 L 7.890625 -7.53125 C 7.890625 -8.675781 7.300781 -9.25 6.125 -9.25 C 5.226562 -9.25 4.164062 -8.976562 2.9375 -8.4375 L 1.921875 -10.515625 C 3.222656 -11.203125 4.664062 -11.546875 6.25 -11.546875 C 7.769531 -11.546875 8.929688 -11.210938 9.734375 -10.546875 C 10.546875 -9.890625 10.953125 -8.882812 10.953125 -7.53125 L 10.953125 0 Z M 7.890625 -5.234375 L 6.703125 -5.203125 C 5.804688 -5.171875 5.132812 -5.003906 4.6875 -4.703125 C 4.25 -4.410156 4.03125 -3.960938 4.03125 -3.359375 C 4.03125 -2.484375 4.53125 -2.046875 5.53125 -2.046875 C 6.25 -2.046875 6.820312 -2.25 7.25 -2.65625 C 7.675781 -3.070312 7.890625 -3.625 7.890625 -4.3125 Z M 7.890625 -5.234375 "/></g></g></g><g fill="#1800ad" fill-opacity="1"><g transform="translate(132.364173, 51.23378)"><g/></g></g><g fill="#1800ad" fill-opacity="1"><g transform="translate(137.74566, 51.23378)"><g><path d="M 7.828125 0.203125 C 6.503906 0.203125 5.460938 -0.28125 4.703125 -1.25 L 4.546875 -1.25 C 4.648438 -0.300781 4.703125 0.242188 4.703125 0.390625 L 4.703125 4.984375 L 1.625 4.984375 L 1.625 -11.3125 L 4.125 -11.3125 L 4.5625 -9.84375 L 4.703125 -9.84375 C 5.421875 -10.957031 6.488281 -11.515625 7.90625 -11.515625 C 9.25 -11.515625 10.296875 -11 11.046875 -9.96875 C 11.804688 -8.9375 12.1875 -7.503906 12.1875 -5.671875 C 12.1875 -4.460938 12.007812 -3.410156 11.65625 -2.515625 C 11.300781 -1.628906 10.796875 -0.953125 10.140625 -0.484375 C 9.484375 -0.0234375 8.710938 0.203125 7.828125 0.203125 Z M 6.921875 -9.046875 C 6.160156 -9.046875 5.601562 -8.8125 5.25 -8.34375 C 4.894531 -7.875 4.710938 -7.101562 4.703125 -6.03125 L 4.703125 -5.703125 C 4.703125 -4.484375 4.878906 -3.609375 5.234375 -3.078125 C 5.597656 -2.554688 6.171875 -2.296875 6.953125 -2.296875 C 8.335938 -2.296875 9.03125 -3.4375 9.03125 -5.71875 C 9.03125 -6.832031 8.859375 -7.664062 8.515625 -8.21875 C 8.179688 -8.769531 7.648438 -9.046875 6.921875 -9.046875 Z M 6.921875 -9.046875 "/></g></g></g><g fill="#1800ad" fill-opacity="1"><g transform="translate(150.855448, 51.23378)"><g><path d="M 8.796875 0 L 8.203125 -1.53125 L 8.125 -1.53125 C 7.601562 -0.882812 7.066406 -0.429688 6.515625 -0.171875 C 5.972656 0.078125 5.257812 0.203125 4.375 0.203125 C 3.28125 0.203125 2.421875 -0.101562 1.796875 -0.71875 C 1.179688 -1.34375 0.875 -2.226562 0.875 -3.375 C 0.875 -4.582031 1.289062 -5.46875 2.125 -6.03125 C 2.96875 -6.601562 4.234375 -6.921875 5.921875 -6.984375 L 7.890625 -7.046875 L 7.890625 -7.53125 C 7.890625 -8.675781 7.300781 -9.25 6.125 -9.25 C 5.226562 -9.25 4.164062 -8.976562 2.9375 -8.4375 L 1.921875 -10.515625 C 3.222656 -11.203125 4.664062 -11.546875 6.25 -11.546875 C 7.769531 -11.546875 8.929688 -11.210938 9.734375 -10.546875 C 10.546875 -9.890625 10.953125 -8.882812 10.953125 -7.53125 L 10.953125 0 Z M 7.890625 -5.234375 L 6.703125 -5.203125 C 5.804688 -5.171875 5.132812 -5.003906 4.6875 -4.703125 C 4.25 -4.410156 4.03125 -3.960938 4.03125 -3.359375 C 4.03125 -2.484375 4.53125 -2.046875 5.53125 -2.046875 C 6.25 -2.046875 6.820312 -2.25 7.25 -2.65625 C 7.675781 -3.070312 7.890625 -3.625 7.890625 -4.3125 Z M 7.890625 -5.234375 "/></g></g></g><g fill="#1800ad" fill-opacity="1"><g transform="translate(163.368423, 51.23378)"><g><path d="M 7.9375 -11.515625 C 8.351562 -11.515625 8.695312 -11.488281 8.96875 -11.4375 L 8.734375 -8.53125 C 8.484375 -8.601562 8.179688 -8.640625 7.828125 -8.640625 C 6.847656 -8.640625 6.082031 -8.382812 5.53125 -7.875 C 4.976562 -7.375 4.703125 -6.664062 4.703125 -5.75 L 4.703125 0 L 1.625 0 L 1.625 -11.3125 L 3.953125 -11.3125 L 4.40625 -9.40625 L 4.5625 -9.40625 C 4.914062 -10.039062 5.390625 -10.550781 5.984375 -10.9375 C 6.578125 -11.320312 7.226562 -11.515625 7.9375 -11.515625 Z M 7.9375 -11.515625 "/></g></g></g><g fill="#1800ad" fill-opacity="1"><g transform="translate(172.77591, 51.23378)"><g><path d="M 8.796875 0 L 8.203125 -1.53125 L 8.125 -1.53125 C 7.601562 -0.882812 7.066406 -0.429688 6.515625 -0.171875 C 5.972656 0.078125 5.257812 0.203125 4.375 0.203125 C 3.28125 0.203125 2.421875 -0.101562 1.796875 -0.71875 C 1.179688 -1.34375 0.875 -2.226562 0.875 -3.375 C 0.875 -4.582031 1.289062 -5.46875 2.125 -6.03125 C 2.96875 -6.601562 4.234375 -6.921875 5.921875 -6.984375 L 7.890625 -7.046875 L 7.890625 -7.53125 C 7.890625 -8.675781 7.300781 -9.25 6.125 -9.25 C 5.226562 -9.25 4.164062 -8.976562 2.9375 -8.4375 L 1.921875 -10.515625 C 3.222656 -11.203125 4.664062 -11.546875 6.25 -11.546875 C 7.769531 -11.546875 8.929688 -11.210938 9.734375 -10.546875 C 10.546875 -9.890625 10.953125 -8.882812 10.953125 -7.53125 L 10.953125 0 Z M 7.890625 -5.234375 L 6.703125 -5.203125 C 5.804688 -5.171875 5.132812 -5.003906 4.6875 -4.703125 C 4.25 -4.410156 4.03125 -3.960938 4.03125 -3.359375 C 4.03125 -2.484375 4.53125 -2.046875 5.53125 -2.046875 C 6.25 -2.046875 6.820312 -2.25 7.25 -2.65625 C 7.675781 -3.070312 7.890625 -3.625 7.890625 -4.3125 Z M 7.890625 -5.234375 "/></g></g></g><g fill="#1800ad" fill-opacity="1"><g transform="translate(185.288885, 51.23378)"><g/></g></g><g fill="#1800ad" fill-opacity="1"><g transform="translate(190.670372, 51.23378)"><g><path d="M 8.796875 0 L 8.203125 -1.53125 L 8.125 -1.53125 C 7.601562 -0.882812 7.066406 -0.429688 6.515625 -0.171875 C 5.972656 0.078125 5.257812 0.203125 4.375 0.203125 C 3.28125 0.203125 2.421875 -0.101562 1.796875 -0.71875 C 1.179688 -1.34375 0.875 -2.226562 0.875 -3.375 C 0.875 -4.582031 1.289062 -5.46875 2.125 -6.03125 C 2.96875 -6.601562 4.234375 -6.921875 5.921875 -6.984375 L 7.890625 -7.046875 L 7.890625 -7.53125 C 7.890625 -8.675781 7.300781 -9.25 6.125 -9.25 C 5.226562 -9.25 4.164062 -8.976562 2.9375 -8.4375 L 1.921875 -10.515625 C 3.222656 -11.203125 4.664062 -11.546875 6.25 -11.546875 C 7.769531 -11.546875 8.929688 -11.210938 9.734375 -10.546875 C 10.546875 -9.890625 10.953125 -8.882812 10.953125 -7.53125 L 10.953125 0 Z M 7.890625 -5.234375 L 6.703125 -5.203125 C 5.804688 -5.171875 5.132812 -5.003906 4.6875 -4.703125 C 4.25 -4.410156 4.03125 -3.960938 4.03125 -3.359375 C 4.03125 -2.484375 4.53125 -2.046875 5.53125 -2.046875 C 6.25 -2.046875 6.820312 -2.25 7.25 -2.65625 C 7.675781 -3.070312 7.890625 -3.625 7.890625 -4.3125 Z M 7.890625 -5.234375 "/></g></g></g><g fill="#1800ad" fill-opacity="1"><g transform="translate(203.183347, 51.23378)"><g><path d="M 4.703125 0 L 1.625 0 L 1.625 -15.734375 L 4.703125 -15.734375 Z M 4.703125 0 "/></g></g></g><g fill="#1800ad" fill-opacity="1"><g transform="translate(209.505588, 51.23378)"><g><path d="M 6.390625 -2.25 C 6.921875 -2.25 7.566406 -2.367188 8.328125 -2.609375 L 8.328125 -0.3125 C 7.554688 0.03125 6.613281 0.203125 5.5 0.203125 C 4.257812 0.203125 3.359375 -0.109375 2.796875 -0.734375 C 2.234375 -1.359375 1.953125 -2.296875 1.953125 -3.546875 L 1.953125 -9 L 0.46875 -9 L 0.46875 -10.296875 L 2.171875 -11.328125 L 3.0625 -13.71875 L 5.03125 -13.71875 L 5.03125 -11.3125 L 8.203125 -11.3125 L 8.203125 -9 L 5.03125 -9 L 5.03125 -3.546875 C 5.03125 -3.109375 5.15625 -2.78125 5.40625 -2.5625 C 5.65625 -2.351562 5.984375 -2.25 6.390625 -2.25 Z M 6.390625 -2.25 "/></g></g></g><g fill="#1800ad" fill-opacity="1"><g transform="translate(218.498342, 51.23378)"><g><path d="M 8.796875 0 L 8.203125 -1.53125 L 8.125 -1.53125 C 7.601562 -0.882812 7.066406 -0.429688 6.515625 -0.171875 C 5.972656 0.078125 5.257812 0.203125 4.375 0.203125 C 3.28125 0.203125 2.421875 -0.101562 1.796875 -0.71875 C 1.179688 -1.34375 0.875 -2.226562 0.875 -3.375 C 0.875 -4.582031 1.289062 -5.46875 2.125 -6.03125 C 2.96875 -6.601562 4.234375 -6.921875 5.921875 -6.984375 L 7.890625 -7.046875 L 7.890625 -7.53125 C 7.890625 -8.675781 7.300781 -9.25 6.125 -9.25 C 5.226562 -9.25 4.164062 -8.976562 2.9375 -8.4375 L 1.921875 -10.515625 C 3.222656 -11.203125 4.664062 -11.546875 6.25 -11.546875 C 7.769531 -11.546875 8.929688 -11.210938 9.734375 -10.546875 C 10.546875 -9.890625 10.953125 -8.882812 10.953125 -7.53125 L 10.953125 0 Z M 7.890625 -5.234375 L 6.703125 -5.203125 C 5.804688 -5.171875 5.132812 -5.003906 4.6875 -4.703125 C 4.25 -4.410156 4.03125 -3.960938 4.03125 -3.359375 C 4.03125 -2.484375 4.53125 -2.046875 5.53125 -2.046875 C 6.25 -2.046875 6.820312 -2.25 7.25 -2.65625 C 7.675781 -3.070312 7.890625 -3.625 7.890625 -4.3125 Z M 7.890625 -5.234375 "/></g></g></g><g fill="#1800ad" fill-opacity="1"><g transform="translate(79.003142, 80.105299)"><g><path d="M 5.203125 0.203125 C 3.867188 0.203125 2.820312 -0.3125 2.0625 -1.34375 C 1.3125 -2.375 0.9375 -3.804688 0.9375 -5.640625 C 0.9375 -7.492188 1.320312 -8.9375 2.09375 -9.96875 C 2.863281 -11 3.925781 -11.515625 5.28125 -11.515625 C 6.707031 -11.515625 7.789062 -10.960938 8.53125 -9.859375 L 8.640625 -9.859375 C 8.484375 -10.703125 8.40625 -11.457031 8.40625 -12.125 L 8.40625 -15.734375 L 11.5 -15.734375 L 11.5 0 L 9.140625 0 L 8.53125 -1.46875 L 8.40625 -1.46875 C 7.707031 -0.351562 6.640625 0.203125 5.203125 0.203125 Z M 6.28125 -2.25 C 7.070312 -2.25 7.648438 -2.476562 8.015625 -2.9375 C 8.378906 -3.394531 8.582031 -4.175781 8.625 -5.28125 L 8.625 -5.609375 C 8.625 -6.828125 8.4375 -7.695312 8.0625 -8.21875 C 7.6875 -8.75 7.078125 -9.015625 6.234375 -9.015625 C 5.546875 -9.015625 5.007812 -8.722656 4.625 -8.140625 C 4.25 -7.554688 4.0625 -6.707031 4.0625 -5.59375 C 4.0625 -4.476562 4.25 -3.640625 4.625 -3.078125 C 5.007812 -2.523438 5.5625 -2.25 6.28125 -2.25 Z M 6.28125 -2.25 "/></g></g></g><g fill="#1800ad" fill-opacity="1"><g transform="translate(92.11293, 80.105299)"><g><path d="M 6.296875 -9.328125 C 5.648438 -9.328125 5.140625 -9.117188 4.765625 -8.703125 C 4.390625 -8.285156 4.175781 -7.695312 4.125 -6.9375 L 8.453125 -6.9375 C 8.441406 -7.695312 8.242188 -8.285156 7.859375 -8.703125 C 7.472656 -9.117188 6.953125 -9.328125 6.296875 -9.328125 Z M 6.734375 0.203125 C 4.910156 0.203125 3.488281 -0.296875 2.46875 -1.296875 C 1.445312 -2.304688 0.9375 -3.734375 0.9375 -5.578125 C 0.9375 -7.472656 1.410156 -8.9375 2.359375 -9.96875 C 3.304688 -11 4.613281 -11.515625 6.28125 -11.515625 C 7.882812 -11.515625 9.128906 -11.0625 10.015625 -10.15625 C 10.898438 -9.25 11.34375 -7.992188 11.34375 -6.390625 L 11.34375 -4.890625 L 4.0625 -4.890625 C 4.09375 -4.015625 4.347656 -3.328125 4.828125 -2.828125 C 5.316406 -2.335938 6 -2.09375 6.875 -2.09375 C 7.5625 -2.09375 8.207031 -2.160156 8.8125 -2.296875 C 9.414062 -2.441406 10.050781 -2.671875 10.71875 -2.984375 L 10.71875 -0.59375 C 10.175781 -0.320312 9.597656 -0.125 8.984375 0 C 8.367188 0.132812 7.617188 0.203125 6.734375 0.203125 Z M 6.734375 0.203125 "/></g></g></g><g fill="#1800ad" fill-opacity="1"><g transform="translate(104.352779, 80.105299)"><g><path d="M 11.75 0 L 8.65625 0 L 8.65625 -6.609375 C 8.65625 -7.421875 8.519531 -8.03125 8.25 -8.4375 C 7.976562 -8.84375 7.546875 -9.046875 6.953125 -9.046875 C 6.171875 -9.046875 5.597656 -8.753906 5.234375 -8.171875 C 4.878906 -7.597656 4.703125 -6.648438 4.703125 -5.328125 L 4.703125 0 L 1.625 0 L 1.625 -11.3125 L 3.96875 -11.3125 L 4.390625 -9.859375 L 4.5625 -9.859375 C 4.863281 -10.378906 5.300781 -10.785156 5.875 -11.078125 C 6.445312 -11.367188 7.101562 -11.515625 7.84375 -11.515625 C 9.539062 -11.515625 10.691406 -10.960938 11.296875 -9.859375 L 11.5625 -9.859375 C 11.863281 -10.390625 12.304688 -10.796875 12.890625 -11.078125 C 13.484375 -11.367188 14.15625 -11.515625 14.90625 -11.515625 C 16.1875 -11.515625 17.15625 -11.1875 17.8125 -10.53125 C 18.46875 -9.875 18.796875 -8.820312 18.796875 -7.375 L 18.796875 0 L 15.703125 0 L 15.703125 -6.609375 C 15.703125 -7.421875 15.5625 -8.03125 15.28125 -8.4375 C 15.007812 -8.84375 14.582031 -9.046875 14 -9.046875 C 13.25 -9.046875 12.6875 -8.773438 12.3125 -8.234375 C 11.9375 -7.703125 11.75 -6.847656 11.75 -5.671875 Z M 11.75 0 "/></g></g></g><g fill="#1800ad" fill-opacity="1"><g transform="translate(124.695211, 80.105299)"><g><path d="M 8.796875 0 L 8.203125 -1.53125 L 8.125 -1.53125 C 7.601562 -0.882812 7.066406 -0.429688 6.515625 -0.171875 C 5.972656 0.078125 5.257812 0.203125 4.375 0.203125 C 3.28125 0.203125 2.421875 -0.101562 1.796875 -0.71875 C 1.179688 -1.34375 0.875 -2.226562 0.875 -3.375 C 0.875 -4.582031 1.289062 -5.46875 2.125 -6.03125 C 2.96875 -6.601562 4.234375 -6.921875 5.921875 -6.984375 L 7.890625 -7.046875 L 7.890625 -7.53125 C 7.890625 -8.675781 7.300781 -9.25 6.125 -9.25 C 5.226562 -9.25 4.164062 -8.976562 2.9375 -8.4375 L 1.921875 -10.515625 C 3.222656 -11.203125 4.664062 -11.546875 6.25 -11.546875 C 7.769531 -11.546875 8.929688 -11.210938 9.734375 -10.546875 C 10.546875 -9.890625 10.953125 -8.882812 10.953125 -7.53125 L 10.953125 0 Z M 7.890625 -5.234375 L 6.703125 -5.203125 C 5.804688 -5.171875 5.132812 -5.003906 4.6875 -4.703125 C 4.25 -4.410156 4.03125 -3.960938 4.03125 -3.359375 C 4.03125 -2.484375 4.53125 -2.046875 5.53125 -2.046875 C 6.25 -2.046875 6.820312 -2.25 7.25 -2.65625 C 7.675781 -3.070312 7.890625 -3.625 7.890625 -4.3125 Z M 7.890625 -5.234375 "/></g></g></g><g fill="#1800ad" fill-opacity="1"><g transform="translate(137.208186, 80.105299)"><g><path d="M 12.0625 0 L 8.96875 0 L 8.96875 -6.609375 C 8.96875 -7.421875 8.820312 -8.03125 8.53125 -8.4375 C 8.25 -8.84375 7.789062 -9.046875 7.15625 -9.046875 C 6.289062 -9.046875 5.664062 -8.757812 5.28125 -8.1875 C 4.894531 -7.613281 4.703125 -6.660156 4.703125 -5.328125 L 4.703125 0 L 1.625 0 L 1.625 -11.3125 L 3.96875 -11.3125 L 4.390625 -9.859375 L 4.5625 -9.859375 C 4.90625 -10.410156 5.378906 -10.820312 5.984375 -11.09375 C 6.585938 -11.375 7.273438 -11.515625 8.046875 -11.515625 C 9.359375 -11.515625 10.351562 -11.160156 11.03125 -10.453125 C 11.71875 -9.742188 12.0625 -8.71875 12.0625 -7.375 Z M 12.0625 0 "/></g></g></g><g fill="#1800ad" fill-opacity="1"><g transform="translate(150.823754, 80.105299)"><g><path d="M 5.203125 0.203125 C 3.867188 0.203125 2.820312 -0.3125 2.0625 -1.34375 C 1.3125 -2.375 0.9375 -3.804688 0.9375 -5.640625 C 0.9375 -7.492188 1.320312 -8.9375 2.09375 -9.96875 C 2.863281 -11 3.925781 -11.515625 5.28125 -11.515625 C 6.707031 -11.515625 7.789062 -10.960938 8.53125 -9.859375 L 8.640625 -9.859375 C 8.484375 -10.703125 8.40625 -11.457031 8.40625 -12.125 L 8.40625 -15.734375 L 11.5 -15.734375 L 11.5 0 L 9.140625 0 L 8.53125 -1.46875 L 8.40625 -1.46875 C 7.707031 -0.351562 6.640625 0.203125 5.203125 0.203125 Z M 6.28125 -2.25 C 7.070312 -2.25 7.648438 -2.476562 8.015625 -2.9375 C 8.378906 -3.394531 8.582031 -4.175781 8.625 -5.28125 L 8.625 -5.609375 C 8.625 -6.828125 8.4375 -7.695312 8.0625 -8.21875 C 7.6875 -8.75 7.078125 -9.015625 6.234375 -9.015625 C 5.546875 -9.015625 5.007812 -8.722656 4.625 -8.140625 C 4.25 -7.554688 4.0625 -6.707031 4.0625 -5.59375 C 4.0625 -4.476562 4.25 -3.640625 4.625 -3.078125 C 5.007812 -2.523438 5.5625 -2.25 6.28125 -2.25 Z M 6.28125 -2.25 "/></g></g></g><g fill="#1800ad" fill-opacity="1"><g transform="translate(163.933542, 80.105299)"><g><path d="M 8.796875 0 L 8.203125 -1.53125 L 8.125 -1.53125 C 7.601562 -0.882812 7.066406 -0.429688 6.515625 -0.171875 C 5.972656 0.078125 5.257812 0.203125 4.375 0.203125 C 3.28125 0.203125 2.421875 -0.101562 1.796875 -0.71875 C 1.179688 -1.34375 0.875 -2.226562 0.875 -3.375 C 0.875 -4.582031 1.289062 -5.46875 2.125 -6.03125 C 2.96875 -6.601562 4.234375 -6.921875 5.921875 -6.984375 L 7.890625 -7.046875 L 7.890625 -7.53125 C 7.890625 -8.675781 7.300781 -9.25 6.125 -9.25 C 5.226562 -9.25 4.164062 -8.976562 2.9375 -8.4375 L 1.921875 -10.515625 C 3.222656 -11.203125 4.664062 -11.546875 6.25 -11.546875 C 7.769531 -11.546875 8.929688 -11.210938 9.734375 -10.546875 C 10.546875 -9.890625 10.953125 -8.882812 10.953125 -7.53125 L 10.953125 0 Z M 7.890625 -5.234375 L 6.703125 -5.203125 C 5.804688 -5.171875 5.132812 -5.003906 4.6875 -4.703125 C 4.25 -4.410156 4.03125 -3.960938 4.03125 -3.359375 C 4.03125 -2.484375 4.53125 -2.046875 5.53125 -2.046875 C 6.25 -2.046875 6.820312 -2.25 7.25 -2.65625 C 7.675781 -3.070312 7.890625 -3.625 7.890625 -4.3125 Z M 7.890625 -5.234375 "/></g></g></g></g></g></svg>