<svg xmlns="http://www.w3.org/2000/svg" xmlns:xlink="http://www.w3.org/1999/xlink" width="1093" zoomAndPan="magnify" viewBox="0 0 819.75 130.499996" height="174" preserveAspectRatio="xMidYMid meet" version="1.0"><defs><g/><clipPath id="3230c734cb"><path d="M 7 6 L 109 6 L 109 130 L 7 130 Z M 7 6 " clip-rule="nonzero"/></clipPath><clipPath id="cb49a86d79"><path d="M 80 125 L 818.0625 125 L 818.0625 130 L 80 130 Z M 80 125 " clip-rule="nonzero"/></clipPath></defs><g clip-path="url(#3230c734cb)"><path stroke-linecap="butt" transform="matrix(0.349127, 0.660549, -0.660549, 0.349127, 34.617933, 30.80401)" fill="none" stroke-linejoin="miter" d="M 0.000475581 2.999597 L 144.783585 3.000732 " stroke="#1800ad" stroke-width="6" stroke-opacity="1" stroke-miterlimit="4"/></g><g clip-path="url(#cb49a86d79)"><path stroke-linecap="butt" transform="matrix(0.747137, 0.000000000000000259, -0.000000000000000259, 0.747137, 83.183772, 125.245393)" fill="none" stroke-linejoin="miter" d="M -0.000239059 3.001976 L 983.587316 3.001976 " stroke="#1800ad" stroke-width="6" stroke-opacity="1" stroke-miterlimit="4"/></g><g fill="#1800ad" fill-opacity="1"><g transform="translate(51.668922, 59.097505)"><g><path d="M 23.46875 -9.09375 C 23.46875 -6.132812 22.398438 -3.800781 20.265625 -2.09375 C 18.140625 -0.394531 15.179688 0.453125 11.390625 0.453125 C 7.890625 0.453125 4.796875 -0.207031 2.109375 -1.53125 L 2.109375 -7.984375 C 4.316406 -6.992188 6.1875 -6.296875 7.71875 -5.890625 C 9.25 -5.492188 10.648438 -5.296875 11.921875 -5.296875 C 13.453125 -5.296875 14.625 -5.582031 15.4375 -6.15625 C 16.25 -6.738281 16.65625 -7.609375 16.65625 -8.765625 C 16.65625 -9.410156 16.472656 -9.984375 16.109375 -10.484375 C 15.753906 -10.984375 15.226562 -11.460938 14.53125 -11.921875 C 13.84375 -12.390625 12.425781 -13.128906 10.28125 -14.140625 C 8.28125 -15.085938 6.78125 -15.992188 5.78125 -16.859375 C 4.78125 -17.722656 3.976562 -18.726562 3.375 -19.875 C 2.78125 -21.03125 2.484375 -22.378906 2.484375 -23.921875 C 2.484375 -26.816406 3.46875 -29.09375 5.4375 -30.75 C 7.40625 -32.40625 10.117188 -33.234375 13.578125 -33.234375 C 15.285156 -33.234375 16.910156 -33.03125 18.453125 -32.625 C 20.003906 -32.226562 21.625 -31.664062 23.3125 -30.9375 L 21.0625 -25.53125 C 19.320312 -26.25 17.878906 -26.75 16.734375 -27.03125 C 15.585938 -27.3125 14.460938 -27.453125 13.359375 -27.453125 C 12.046875 -27.453125 11.035156 -27.144531 10.328125 -26.53125 C 9.628906 -25.925781 9.28125 -25.128906 9.28125 -24.140625 C 9.28125 -23.523438 9.421875 -22.988281 9.703125 -22.53125 C 9.984375 -22.082031 10.429688 -21.644531 11.046875 -21.21875 C 11.671875 -20.789062 13.144531 -20.023438 15.46875 -18.921875 C 18.53125 -17.453125 20.628906 -15.984375 21.765625 -14.515625 C 22.898438 -13.046875 23.46875 -11.238281 23.46875 -9.09375 Z M 23.46875 -9.09375 "/></g></g></g><g fill="#1800ad" fill-opacity="1"><g transform="translate(76.951022, 59.097505)"><g><path d="M 13.96875 -20.671875 C 12.519531 -20.671875 11.382812 -20.207031 10.5625 -19.28125 C 9.738281 -18.363281 9.265625 -17.0625 9.140625 -15.375 L 18.734375 -15.375 C 18.703125 -17.0625 18.257812 -18.363281 17.40625 -19.28125 C 16.5625 -20.207031 15.414062 -20.671875 13.96875 -20.671875 Z M 14.921875 0.453125 C 10.890625 0.453125 7.738281 -0.660156 5.46875 -2.890625 C 3.195312 -5.117188 2.0625 -8.269531 2.0625 -12.34375 C 2.0625 -16.550781 3.109375 -19.800781 5.203125 -22.09375 C 7.304688 -24.382812 10.210938 -25.53125 13.921875 -25.53125 C 17.460938 -25.53125 20.21875 -24.519531 22.1875 -22.5 C 24.164062 -20.488281 25.15625 -17.703125 25.15625 -14.140625 L 25.15625 -10.828125 L 8.984375 -10.828125 C 9.054688 -8.878906 9.628906 -7.359375 10.703125 -6.265625 C 11.785156 -5.179688 13.300781 -4.640625 15.25 -4.640625 C 16.75 -4.640625 18.171875 -4.796875 19.515625 -5.109375 C 20.867188 -5.421875 22.273438 -5.921875 23.734375 -6.609375 L 23.734375 -1.328125 C 22.535156 -0.722656 21.253906 -0.273438 19.890625 0.015625 C 18.535156 0.304688 16.878906 0.453125 14.921875 0.453125 Z M 14.921875 0.453125 "/></g></g></g><g fill="#1800ad" fill-opacity="1"><g transform="translate(104.071004, 59.097505)"><g><path d="M 25.390625 -25.0625 L 25.390625 -21.578125 L 21.46875 -20.578125 C 22.1875 -19.453125 22.546875 -18.195312 22.546875 -16.8125 C 22.546875 -14.125 21.609375 -12.023438 19.734375 -10.515625 C 17.859375 -9.015625 15.253906 -8.265625 11.921875 -8.265625 L 10.6875 -8.34375 L 9.6875 -8.453125 C 8.976562 -7.910156 8.625 -7.3125 8.625 -6.65625 C 8.625 -5.664062 9.878906 -5.171875 12.390625 -5.171875 L 16.65625 -5.171875 C 19.40625 -5.171875 21.5 -4.582031 22.9375 -3.40625 C 24.382812 -2.226562 25.109375 -0.492188 25.109375 1.796875 C 25.109375 4.722656 23.882812 6.992188 21.4375 8.609375 C 19 10.222656 15.492188 11.03125 10.921875 11.03125 C 7.421875 11.03125 4.75 10.421875 2.90625 9.203125 C 1.0625 7.984375 0.140625 6.273438 0.140625 4.078125 C 0.140625 2.566406 0.609375 1.300781 1.546875 0.28125 C 2.484375 -0.726562 3.863281 -1.453125 5.6875 -1.890625 C 4.988281 -2.179688 4.378906 -2.664062 3.859375 -3.34375 C 3.335938 -4.03125 3.078125 -4.753906 3.078125 -5.515625 C 3.078125 -6.472656 3.351562 -7.269531 3.90625 -7.90625 C 4.457031 -8.539062 5.253906 -9.160156 6.296875 -9.765625 C 4.984375 -10.335938 3.941406 -11.25 3.171875 -12.5 C 2.398438 -13.757812 2.015625 -15.242188 2.015625 -16.953125 C 2.015625 -19.679688 2.90625 -21.789062 4.6875 -23.28125 C 6.46875 -24.78125 9.007812 -25.53125 12.3125 -25.53125 C 13.007812 -25.53125 13.835938 -25.46875 14.796875 -25.34375 C 15.765625 -25.21875 16.382812 -25.125 16.65625 -25.0625 Z M 6.046875 3.546875 C 6.046875 4.484375 6.5 5.21875 7.40625 5.75 C 8.3125 6.289062 9.578125 6.5625 11.203125 6.5625 C 13.660156 6.5625 15.582031 6.222656 16.96875 5.546875 C 18.351562 4.878906 19.046875 3.960938 19.046875 2.796875 C 19.046875 1.859375 18.632812 1.207031 17.8125 0.84375 C 17 0.488281 15.734375 0.3125 14.015625 0.3125 L 10.46875 0.3125 C 9.207031 0.3125 8.15625 0.601562 7.3125 1.1875 C 6.46875 1.78125 6.046875 2.566406 6.046875 3.546875 Z M 8.546875 -16.859375 C 8.546875 -15.492188 8.851562 -14.414062 9.46875 -13.625 C 10.09375 -12.832031 11.039062 -12.4375 12.3125 -12.4375 C 13.59375 -12.4375 14.53125 -12.832031 15.125 -13.625 C 15.726562 -14.414062 16.03125 -15.492188 16.03125 -16.859375 C 16.03125 -19.878906 14.789062 -21.390625 12.3125 -21.390625 C 9.800781 -21.390625 8.546875 -19.878906 8.546875 -16.859375 Z M 8.546875 -16.859375 "/></g></g></g><g fill="#1800ad" fill-opacity="1"><g transform="translate(130.003086, 59.097505)"><g><path d="M 21.34375 0 L 20.421875 -3.203125 L 20.0625 -3.203125 C 19.332031 -2.035156 18.289062 -1.132812 16.9375 -0.5 C 15.59375 0.132812 14.0625 0.453125 12.34375 0.453125 C 9.40625 0.453125 7.1875 -0.332031 5.6875 -1.90625 C 4.195312 -3.488281 3.453125 -5.757812 3.453125 -8.71875 L 3.453125 -25.0625 L 10.28125 -25.0625 L 10.28125 -10.421875 C 10.28125 -8.609375 10.601562 -7.25 11.25 -6.34375 C 11.894531 -5.445312 12.921875 -5 14.328125 -5 C 16.234375 -5 17.613281 -5.632812 18.46875 -6.90625 C 19.320312 -8.1875 19.75 -10.304688 19.75 -13.265625 L 19.75 -25.0625 L 26.578125 -25.0625 L 26.578125 0 Z M 21.34375 0 "/></g></g></g><g fill="#1800ad" fill-opacity="1"><g transform="translate(160.171265, 59.097505)"><g><path d="M 17.578125 -25.53125 C 18.503906 -25.53125 19.269531 -25.460938 19.875 -25.328125 L 19.359375 -18.921875 C 18.804688 -19.066406 18.132812 -19.140625 17.34375 -19.140625 C 15.164062 -19.140625 13.46875 -18.578125 12.25 -17.453125 C 11.03125 -16.335938 10.421875 -14.769531 10.421875 -12.75 L 10.421875 0 L 3.59375 0 L 3.59375 -25.0625 L 8.765625 -25.0625 L 9.765625 -20.84375 L 10.109375 -20.84375 C 10.890625 -22.25 11.941406 -23.378906 13.265625 -24.234375 C 14.585938 -25.097656 16.023438 -25.53125 17.578125 -25.53125 Z M 17.578125 -25.53125 "/></g></g></g><g fill="#1800ad" fill-opacity="1"><g transform="translate(181.015549, 59.097505)"><g><path d="M 19.5 0 L 18.171875 -3.40625 L 18 -3.40625 C 16.84375 -1.957031 15.65625 -0.953125 14.4375 -0.390625 C 13.226562 0.171875 11.644531 0.453125 9.6875 0.453125 C 7.28125 0.453125 5.382812 -0.234375 4 -1.609375 C 2.613281 -2.984375 1.921875 -4.941406 1.921875 -7.484375 C 1.921875 -10.148438 2.851562 -12.113281 4.71875 -13.375 C 6.582031 -14.632812 9.390625 -15.332031 13.140625 -15.46875 L 17.484375 -15.59375 L 17.484375 -16.703125 C 17.484375 -19.242188 16.179688 -20.515625 13.578125 -20.515625 C 11.578125 -20.515625 9.222656 -19.90625 6.515625 -18.6875 L 4.265625 -23.3125 C 7.140625 -24.820312 10.335938 -25.578125 13.859375 -25.578125 C 17.210938 -25.578125 19.785156 -24.84375 21.578125 -23.375 C 23.378906 -21.914062 24.28125 -19.691406 24.28125 -16.703125 L 24.28125 0 Z M 17.484375 -11.609375 L 14.84375 -11.515625 C 12.851562 -11.460938 11.367188 -11.101562 10.390625 -10.4375 C 9.421875 -9.78125 8.9375 -8.78125 8.9375 -7.4375 C 8.9375 -5.507812 10.046875 -4.546875 12.265625 -4.546875 C 13.847656 -4.546875 15.113281 -5 16.0625 -5.90625 C 17.007812 -6.820312 17.484375 -8.035156 17.484375 -9.546875 Z M 17.484375 -11.609375 "/></g></g></g><g fill="#1800ad" fill-opacity="1"><g transform="translate(208.740688, 59.097505)"><g><path d="M 26.71875 0 L 19.875 0 L 19.875 -14.640625 C 19.875 -16.441406 19.550781 -17.796875 18.90625 -18.703125 C 18.269531 -19.609375 17.25 -20.0625 15.84375 -20.0625 C 13.9375 -20.0625 12.554688 -19.421875 11.703125 -18.140625 C 10.847656 -16.867188 10.421875 -14.753906 10.421875 -11.796875 L 10.421875 0 L 3.59375 0 L 3.59375 -25.0625 L 8.8125 -25.0625 L 9.734375 -21.859375 L 10.109375 -21.859375 C 10.867188 -23.066406 11.914062 -23.976562 13.25 -24.59375 C 14.59375 -25.21875 16.113281 -25.53125 17.8125 -25.53125 C 20.726562 -25.53125 22.941406 -24.738281 24.453125 -23.15625 C 25.960938 -21.582031 26.71875 -19.3125 26.71875 -16.34375 Z M 26.71875 0 "/></g></g></g><g fill="#1800ad" fill-opacity="1"><g transform="translate(238.908867, 59.097505)"><g><path d="M 13.765625 0.453125 C 5.960938 0.453125 2.0625 -3.828125 2.0625 -12.390625 C 2.0625 -16.648438 3.117188 -19.90625 5.234375 -22.15625 C 7.359375 -24.40625 10.40625 -25.53125 14.375 -25.53125 C 17.269531 -25.53125 19.867188 -24.960938 22.171875 -23.828125 L 20.15625 -18.53125 C 19.070312 -18.96875 18.066406 -19.320312 17.140625 -19.59375 C 16.222656 -19.875 15.300781 -20.015625 14.375 -20.015625 C 10.8125 -20.015625 9.03125 -17.488281 9.03125 -12.4375 C 9.03125 -7.539062 10.8125 -5.09375 14.375 -5.09375 C 15.6875 -5.09375 16.898438 -5.265625 18.015625 -5.609375 C 19.140625 -5.960938 20.265625 -6.515625 21.390625 -7.265625 L 21.390625 -1.40625 C 20.273438 -0.707031 19.15625 -0.222656 18.03125 0.046875 C 16.90625 0.316406 15.484375 0.453125 13.765625 0.453125 Z M 18.046875 5.609375 C 18.046875 7.515625 17.476562 8.894531 16.34375 9.75 C 15.21875 10.601562 13.472656 11.03125 11.109375 11.03125 C 9.941406 11.03125 8.851562 10.875 7.84375 10.5625 L 7.84375 6.796875 C 8.25 6.898438 8.789062 7.003906 9.46875 7.109375 C 10.144531 7.210938 10.671875 7.265625 11.046875 7.265625 C 12.117188 7.265625 12.65625 6.800781 12.65625 5.875 C 12.65625 4.632812 11.414062 3.828125 8.9375 3.453125 L 10.6875 0 L 15.015625 0 L 14.40625 1.375 C 15.507812 1.726562 16.390625 2.28125 17.046875 3.03125 C 17.710938 3.789062 18.046875 4.648438 18.046875 5.609375 Z M 18.046875 5.609375 "/></g></g></g><g fill="#1800ad" fill-opacity="1"><g transform="translate(262.509975, 59.097505)"><g><path d="M 19.5 0 L 18.171875 -3.40625 L 18 -3.40625 C 16.84375 -1.957031 15.65625 -0.953125 14.4375 -0.390625 C 13.226562 0.171875 11.644531 0.453125 9.6875 0.453125 C 7.28125 0.453125 5.382812 -0.234375 4 -1.609375 C 2.613281 -2.984375 1.921875 -4.941406 1.921875 -7.484375 C 1.921875 -10.148438 2.851562 -12.113281 4.71875 -13.375 C 6.582031 -14.632812 9.390625 -15.332031 13.140625 -15.46875 L 17.484375 -15.59375 L 17.484375 -16.703125 C 17.484375 -19.242188 16.179688 -20.515625 13.578125 -20.515625 C 11.578125 -20.515625 9.222656 -19.90625 6.515625 -18.6875 L 4.265625 -23.3125 C 7.140625 -24.820312 10.335938 -25.578125 13.859375 -25.578125 C 17.210938 -25.578125 19.785156 -24.84375 21.578125 -23.375 C 23.378906 -21.914062 24.28125 -19.691406 24.28125 -16.703125 L 24.28125 0 Z M 17.484375 -11.609375 L 14.84375 -11.515625 C 12.851562 -11.460938 11.367188 -11.101562 10.390625 -10.4375 C 9.421875 -9.78125 8.9375 -8.78125 8.9375 -7.4375 C 8.9375 -5.507812 10.046875 -4.546875 12.265625 -4.546875 C 13.847656 -4.546875 15.113281 -5 16.0625 -5.90625 C 17.007812 -6.820312 17.484375 -8.035156 17.484375 -9.546875 Z M 17.484375 -11.609375 "/></g></g></g><g fill="#1800ad" fill-opacity="1"><g transform="translate(290.235114, 59.097505)"><g/></g></g><g fill="#1800ad" fill-opacity="1"><g transform="translate(302.158941, 59.097505)"><g><path d="M 13.96875 -20.671875 C 12.519531 -20.671875 11.382812 -20.207031 10.5625 -19.28125 C 9.738281 -18.363281 9.265625 -17.0625 9.140625 -15.375 L 18.734375 -15.375 C 18.703125 -17.0625 18.257812 -18.363281 17.40625 -19.28125 C 16.5625 -20.207031 15.414062 -20.671875 13.96875 -20.671875 Z M 14.921875 0.453125 C 10.890625 0.453125 7.738281 -0.660156 5.46875 -2.890625 C 3.195312 -5.117188 2.0625 -8.269531 2.0625 -12.34375 C 2.0625 -16.550781 3.109375 -19.800781 5.203125 -22.09375 C 7.304688 -24.382812 10.210938 -25.53125 13.921875 -25.53125 C 17.460938 -25.53125 20.21875 -24.519531 22.1875 -22.5 C 24.164062 -20.488281 25.15625 -17.703125 25.15625 -14.140625 L 25.15625 -10.828125 L 8.984375 -10.828125 C 9.054688 -8.878906 9.628906 -7.359375 10.703125 -6.265625 C 11.785156 -5.179688 13.300781 -4.640625 15.25 -4.640625 C 16.75 -4.640625 18.171875 -4.796875 19.515625 -5.109375 C 20.867188 -5.421875 22.273438 -5.921875 23.734375 -6.609375 L 23.734375 -1.328125 C 22.535156 -0.722656 21.253906 -0.273438 19.890625 0.015625 C 18.535156 0.304688 16.878906 0.453125 14.921875 0.453125 Z M 10.015625 -27.8125 L 10.015625 -28.421875 C 12.585938 -31.410156 14.34375 -33.660156 15.28125 -35.171875 L 22.953125 -35.171875 L 22.953125 -34.703125 C 22.171875 -33.921875 20.84375 -32.765625 18.96875 -31.234375 C 17.09375 -29.703125 15.625 -28.5625 14.5625 -27.8125 Z M 10.015625 -27.8125 "/></g></g></g><g fill="#1800ad" fill-opacity="1"><g transform="translate(329.278924, 59.097505)"><g/></g></g><g fill="#1800ad" fill-opacity="1"><g transform="translate(341.20275, 59.097505)"><g><path d="M 24.1875 0 L 21.8125 -7.796875 L 9.859375 -7.796875 L 7.484375 0 L 0 0 L 11.5625 -32.90625 L 20.0625 -32.90625 L 31.671875 0 Z M 20.15625 -13.625 C 17.957031 -20.695312 16.71875 -24.695312 16.4375 -25.625 C 16.164062 -26.550781 15.96875 -27.28125 15.84375 -27.8125 C 15.351562 -25.90625 13.941406 -21.175781 11.609375 -13.625 Z M 20.15625 -13.625 "/></g></g></g><g fill="#1800ad" fill-opacity="1"><g transform="translate(372.872614, 59.097505)"><g><path d="M 13.96875 -4.90625 C 15.695312 -4.90625 16.960938 -5.398438 17.765625 -6.390625 C 18.578125 -7.390625 19.019531 -9.128906 19.09375 -11.609375 L 19.09375 -12.4375 C 19.09375 -15.125 18.675781 -17.050781 17.84375 -18.21875 C 17.019531 -19.382812 15.691406 -19.96875 13.859375 -19.96875 C 10.640625 -19.96875 9.03125 -17.441406 9.03125 -12.390625 C 9.03125 -9.878906 9.429688 -8.003906 10.234375 -6.765625 C 11.035156 -5.523438 12.28125 -4.90625 13.96875 -4.90625 Z M 11.515625 0.453125 C 8.554688 0.453125 6.238281 -0.6875 4.5625 -2.96875 C 2.894531 -5.25 2.0625 -8.421875 2.0625 -12.484375 C 2.0625 -16.578125 2.914062 -19.773438 4.625 -22.078125 C 6.332031 -24.378906 8.675781 -25.53125 11.65625 -25.53125 C 13.238281 -25.53125 14.617188 -25.226562 15.796875 -24.625 C 16.984375 -24.03125 18.023438 -23.109375 18.921875 -21.859375 L 19.09375 -21.859375 L 19.703125 -25.0625 L 25.484375 -25.0625 L 25.484375 11.03125 L 18.625 11.03125 L 18.625 0.515625 C 18.625 -0.398438 18.722656 -1.65625 18.921875 -3.25 L 18.625 -3.25 C 17.894531 -2.039062 16.921875 -1.117188 15.703125 -0.484375 C 14.492188 0.140625 13.097656 0.453125 11.515625 0.453125 Z M 11.515625 0.453125 "/></g></g></g><g fill="#1800ad" fill-opacity="1"><g transform="translate(401.920132, 59.097505)"><g><path d="M 21.34375 0 L 20.421875 -3.203125 L 20.0625 -3.203125 C 19.332031 -2.035156 18.289062 -1.132812 16.9375 -0.5 C 15.59375 0.132812 14.0625 0.453125 12.34375 0.453125 C 9.40625 0.453125 7.1875 -0.332031 5.6875 -1.90625 C 4.195312 -3.488281 3.453125 -5.757812 3.453125 -8.71875 L 3.453125 -25.0625 L 10.28125 -25.0625 L 10.28125 -10.421875 C 10.28125 -8.609375 10.601562 -7.25 11.25 -6.34375 C 11.894531 -5.445312 12.921875 -5 14.328125 -5 C 16.234375 -5 17.613281 -5.632812 18.46875 -6.90625 C 19.320312 -8.1875 19.75 -10.304688 19.75 -13.265625 L 19.75 -25.0625 L 26.578125 -25.0625 L 26.578125 0 Z M 21.34375 0 "/></g></g></g><g fill="#1800ad" fill-opacity="1"><g transform="translate(432.088311, 59.097505)"><g><path d="M 3.296875 -31.53125 C 3.296875 -33.757812 4.535156 -34.875 7.015625 -34.875 C 9.492188 -34.875 10.734375 -33.757812 10.734375 -31.53125 C 10.734375 -30.476562 10.421875 -29.65625 9.796875 -29.0625 C 9.179688 -28.46875 8.253906 -28.171875 7.015625 -28.171875 C 4.535156 -28.171875 3.296875 -29.289062 3.296875 -31.53125 Z M 10.421875 0 L 3.59375 0 L 3.59375 -25.0625 L 10.421875 -25.0625 Z M 10.421875 0 "/></g></g></g><g fill="#1800ad" fill-opacity="1"><g transform="translate(446.099073, 59.097505)"><g/></g></g><g fill="#1800ad" fill-opacity="1"><g transform="translate(83.230468, 111.815175)"><g><path d="M 20.171875 -21.453125 L 20.171875 -7.578125 C 20.171875 -5.992188 19.816406 -4.601562 19.109375 -3.40625 C 18.398438 -2.207031 17.375 -1.289062 16.03125 -0.65625 C 14.6875 -0.0195312 13.101562 0.296875 11.28125 0.296875 C 8.519531 0.296875 6.375 -0.410156 4.84375 -1.828125 C 3.3125 -3.242188 2.546875 -5.179688 2.546875 -7.640625 L 2.546875 -21.453125 L 7.09375 -21.453125 L 7.09375 -8.328125 C 7.09375 -6.671875 7.425781 -5.453125 8.09375 -4.671875 C 8.757812 -3.898438 9.859375 -3.515625 11.390625 -3.515625 C 12.878906 -3.515625 13.957031 -3.90625 14.625 -4.6875 C 15.300781 -5.46875 15.640625 -6.691406 15.640625 -8.359375 L 15.640625 -21.453125 Z M 20.171875 -21.453125 "/></g></g></g><g fill="#1800ad" fill-opacity="1"><g transform="translate(105.952058, 111.815175)"><g><path d="M 9.265625 -3.265625 C 10.046875 -3.265625 10.984375 -3.4375 12.078125 -3.78125 L 12.078125 -0.453125 C 10.960938 0.046875 9.59375 0.296875 7.96875 0.296875 C 6.175781 0.296875 4.867188 -0.15625 4.046875 -1.0625 C 3.234375 -1.96875 2.828125 -3.328125 2.828125 -5.140625 L 2.828125 -13.046875 L 0.6875 -13.046875 L 0.6875 -14.9375 L 3.15625 -16.4375 L 4.453125 -19.90625 L 7.3125 -19.90625 L 7.3125 -16.40625 L 11.90625 -16.40625 L 11.90625 -13.046875 L 7.3125 -13.046875 L 7.3125 -5.140625 C 7.3125 -4.503906 7.488281 -4.03125 7.84375 -3.71875 C 8.195312 -3.414062 8.671875 -3.265625 9.265625 -3.265625 Z M 9.265625 -3.265625 "/></g></g></g><g fill="#1800ad" fill-opacity="1"><g transform="translate(119.000832, 111.815175)"><g><path d="M 2.15625 -20.65625 C 2.15625 -22.113281 2.96875 -22.84375 4.59375 -22.84375 C 6.21875 -22.84375 7.03125 -22.113281 7.03125 -20.65625 C 7.03125 -19.957031 6.828125 -19.414062 6.421875 -19.03125 C 6.015625 -18.644531 5.40625 -18.453125 4.59375 -18.453125 C 2.96875 -18.453125 2.15625 -19.1875 2.15625 -20.65625 Z M 6.828125 0 L 2.34375 0 L 2.34375 -16.40625 L 6.828125 -16.40625 Z M 6.828125 0 "/></g></g></g><g fill="#1800ad" fill-opacity="1"><g transform="translate(128.174607, 111.815175)"><g><path d="M 6.828125 0 L 2.34375 0 L 2.34375 -22.84375 L 6.828125 -22.84375 Z M 6.828125 0 "/></g></g></g><g fill="#1800ad" fill-opacity="1"><g transform="translate(137.348381, 111.815175)"><g><path d="M 2.15625 -20.65625 C 2.15625 -22.113281 2.96875 -22.84375 4.59375 -22.84375 C 6.21875 -22.84375 7.03125 -22.113281 7.03125 -20.65625 C 7.03125 -19.957031 6.828125 -19.414062 6.421875 -19.03125 C 6.015625 -18.644531 5.40625 -18.453125 4.59375 -18.453125 C 2.96875 -18.453125 2.15625 -19.1875 2.15625 -20.65625 Z M 6.828125 0 L 2.34375 0 L 2.34375 -16.40625 L 6.828125 -16.40625 Z M 6.828125 0 "/></g></g></g><g fill="#1800ad" fill-opacity="1"><g transform="translate(146.522155, 111.815175)"><g><path d="M 13.765625 0 L 0.8125 0 L 0.8125 -2.640625 L 8.40625 -12.984375 L 1.265625 -12.984375 L 1.265625 -16.40625 L 13.5 -16.40625 L 13.5 -13.5 L 6.109375 -3.421875 L 13.765625 -3.421875 Z M 13.765625 0 "/></g></g></g><g fill="#1800ad" fill-opacity="1"><g transform="translate(161.185512, 111.815175)"><g><path d="M 12.765625 0 L 11.90625 -2.234375 L 11.78125 -2.234375 C 11.03125 -1.285156 10.253906 -0.625 9.453125 -0.25 C 8.660156 0.113281 7.625 0.296875 6.34375 0.296875 C 4.769531 0.296875 3.53125 -0.148438 2.625 -1.046875 C 1.71875 -1.953125 1.265625 -3.238281 1.265625 -4.90625 C 1.265625 -6.644531 1.875 -7.925781 3.09375 -8.75 C 4.3125 -9.582031 6.148438 -10.039062 8.609375 -10.125 L 11.453125 -10.21875 L 11.453125 -10.9375 C 11.453125 -12.601562 10.597656 -13.4375 8.890625 -13.4375 C 7.578125 -13.4375 6.035156 -13.039062 4.265625 -12.25 L 2.78125 -15.265625 C 4.675781 -16.253906 6.773438 -16.75 9.078125 -16.75 C 11.273438 -16.75 12.957031 -16.269531 14.125 -15.3125 C 15.300781 -14.351562 15.890625 -12.894531 15.890625 -10.9375 L 15.890625 0 Z M 11.453125 -7.609375 L 9.71875 -7.546875 C 8.414062 -7.503906 7.445312 -7.265625 6.8125 -6.828125 C 6.175781 -6.398438 5.859375 -5.75 5.859375 -4.875 C 5.859375 -3.613281 6.582031 -2.984375 8.03125 -2.984375 C 9.0625 -2.984375 9.890625 -3.28125 10.515625 -3.875 C 11.140625 -4.46875 11.453125 -5.257812 11.453125 -6.25 Z M 11.453125 -7.609375 "/></g></g></g><g fill="#1800ad" fill-opacity="1"><g transform="translate(179.34224, 111.815175)"><g><path d="M 17.046875 0 L 12.5625 0 L 12.5625 -9.578125 C 12.5625 -10.765625 12.363281 -11.65625 11.96875 -12.25 C 11.570312 -12.84375 10.945312 -13.140625 10.09375 -13.140625 C 8.945312 -13.140625 8.113281 -12.71875 7.59375 -11.875 C 7.082031 -11.03125 6.828125 -9.644531 6.828125 -7.71875 L 6.828125 0 L 2.34375 0 L 2.34375 -16.40625 L 5.765625 -16.40625 L 6.375 -14.3125 L 6.625 -14.3125 C 7.0625 -15.0625 7.695312 -15.648438 8.53125 -16.078125 C 9.363281 -16.503906 10.316406 -16.71875 11.390625 -16.71875 C 13.847656 -16.71875 15.507812 -15.914062 16.375 -14.3125 L 16.78125 -14.3125 C 17.21875 -15.070312 17.863281 -15.660156 18.71875 -16.078125 C 19.570312 -16.503906 20.539062 -16.71875 21.625 -16.71875 C 23.476562 -16.71875 24.882812 -16.238281 25.84375 -15.28125 C 26.800781 -14.332031 27.28125 -12.804688 27.28125 -10.703125 L 27.28125 0 L 22.78125 0 L 22.78125 -9.578125 C 22.78125 -10.765625 22.582031 -11.65625 22.1875 -12.25 C 21.789062 -12.84375 21.164062 -13.140625 20.3125 -13.140625 C 19.21875 -13.140625 18.398438 -12.742188 17.859375 -11.953125 C 17.316406 -11.171875 17.046875 -9.929688 17.046875 -8.234375 Z M 17.046875 0 "/></g></g></g><g fill="#1800ad" fill-opacity="1"><g transform="translate(208.859763, 111.815175)"><g><path d="M 5.921875 -8.234375 C 5.921875 -6.609375 6.1875 -5.378906 6.71875 -4.546875 C 7.25 -3.710938 8.117188 -3.296875 9.328125 -3.296875 C 10.515625 -3.296875 11.367188 -3.707031 11.890625 -4.53125 C 12.421875 -5.363281 12.6875 -6.597656 12.6875 -8.234375 C 12.6875 -9.859375 12.421875 -11.078125 11.890625 -11.890625 C 11.359375 -12.703125 10.492188 -13.109375 9.296875 -13.109375 C 8.097656 -13.109375 7.234375 -12.703125 6.703125 -11.890625 C 6.179688 -11.085938 5.921875 -9.867188 5.921875 -8.234375 Z M 17.265625 -8.234375 C 17.265625 -5.566406 16.554688 -3.476562 15.140625 -1.96875 C 13.734375 -0.457031 11.773438 0.296875 9.265625 0.296875 C 7.691406 0.296875 6.300781 -0.046875 5.09375 -0.734375 C 3.882812 -1.429688 2.957031 -2.425781 2.3125 -3.71875 C 1.664062 -5.007812 1.34375 -6.515625 1.34375 -8.234375 C 1.34375 -10.910156 2.039062 -12.992188 3.4375 -14.484375 C 4.84375 -15.972656 6.8125 -16.71875 9.34375 -16.71875 C 10.925781 -16.71875 12.316406 -16.375 13.515625 -15.6875 C 14.722656 -15.007812 15.648438 -14.023438 16.296875 -12.734375 C 16.941406 -11.453125 17.265625 -9.953125 17.265625 -8.234375 Z M 17.265625 -8.234375 "/></g></g></g><g fill="#1800ad" fill-opacity="1"><g transform="translate(227.471504, 111.815175)"><g><path d="M 13.796875 -4.875 C 13.796875 -3.1875 13.210938 -1.898438 12.046875 -1.015625 C 10.878906 -0.140625 9.128906 0.296875 6.796875 0.296875 C 5.597656 0.296875 4.578125 0.210938 3.734375 0.046875 C 2.898438 -0.109375 2.113281 -0.34375 1.375 -0.65625 L 1.375 -4.359375 C 2.207031 -3.960938 3.144531 -3.632812 4.1875 -3.375 C 5.226562 -3.113281 6.144531 -2.984375 6.9375 -2.984375 C 8.5625 -2.984375 9.375 -3.453125 9.375 -4.390625 C 9.375 -4.742188 9.265625 -5.03125 9.046875 -5.25 C 8.835938 -5.46875 8.46875 -5.71875 7.9375 -6 C 7.414062 -6.28125 6.710938 -6.601562 5.828125 -6.96875 C 4.566406 -7.5 3.640625 -7.988281 3.046875 -8.4375 C 2.453125 -8.882812 2.019531 -9.398438 1.75 -9.984375 C 1.476562 -10.566406 1.34375 -11.285156 1.34375 -12.140625 C 1.34375 -13.597656 1.90625 -14.722656 3.03125 -15.515625 C 4.164062 -16.316406 5.773438 -16.71875 7.859375 -16.71875 C 9.828125 -16.71875 11.75 -16.285156 13.625 -15.421875 L 12.265625 -12.203125 C 11.441406 -12.554688 10.671875 -12.84375 9.953125 -13.0625 C 9.242188 -13.289062 8.519531 -13.40625 7.78125 -13.40625 C 6.457031 -13.40625 5.796875 -13.046875 5.796875 -12.328125 C 5.796875 -11.929688 6.007812 -11.582031 6.4375 -11.28125 C 6.863281 -10.988281 7.796875 -10.554688 9.234375 -9.984375 C 10.515625 -9.460938 11.453125 -8.976562 12.046875 -8.53125 C 12.648438 -8.082031 13.09375 -7.5625 13.375 -6.96875 C 13.65625 -6.382812 13.796875 -5.6875 13.796875 -4.875 Z M 13.796875 -4.875 "/></g></g></g><g fill="#1800ad" fill-opacity="1"><g transform="translate(242.413738, 111.815175)"><g/></g></g><g fill="#1800ad" fill-opacity="1"><g transform="translate(250.22245, 111.815175)"><g><path d="M 12.765625 0 L 11.90625 -2.234375 L 11.78125 -2.234375 C 11.03125 -1.285156 10.253906 -0.625 9.453125 -0.25 C 8.660156 0.113281 7.625 0.296875 6.34375 0.296875 C 4.769531 0.296875 3.53125 -0.148438 2.625 -1.046875 C 1.71875 -1.953125 1.265625 -3.238281 1.265625 -4.90625 C 1.265625 -6.644531 1.875 -7.925781 3.09375 -8.75 C 4.3125 -9.582031 6.148438 -10.039062 8.609375 -10.125 L 11.453125 -10.21875 L 11.453125 -10.9375 C 11.453125 -12.601562 10.597656 -13.4375 8.890625 -13.4375 C 7.578125 -13.4375 6.035156 -13.039062 4.265625 -12.25 L 2.78125 -15.265625 C 4.675781 -16.253906 6.773438 -16.75 9.078125 -16.75 C 11.273438 -16.75 12.957031 -16.269531 14.125 -15.3125 C 15.300781 -14.351562 15.890625 -12.894531 15.890625 -10.9375 L 15.890625 0 Z M 11.453125 -7.609375 L 9.71875 -7.546875 C 8.414062 -7.503906 7.445312 -7.265625 6.8125 -6.828125 C 6.175781 -6.398438 5.859375 -5.75 5.859375 -4.875 C 5.859375 -3.613281 6.582031 -2.984375 8.03125 -2.984375 C 9.0625 -2.984375 9.890625 -3.28125 10.515625 -3.875 C 11.140625 -4.46875 11.453125 -5.257812 11.453125 -6.25 Z M 11.453125 -7.609375 "/></g></g></g><g fill="#1800ad" fill-opacity="1"><g transform="translate(268.379178, 111.815175)"><g><path d="M 13.796875 -4.875 C 13.796875 -3.1875 13.210938 -1.898438 12.046875 -1.015625 C 10.878906 -0.140625 9.128906 0.296875 6.796875 0.296875 C 5.597656 0.296875 4.578125 0.210938 3.734375 0.046875 C 2.898438 -0.109375 2.113281 -0.34375 1.375 -0.65625 L 1.375 -4.359375 C 2.207031 -3.960938 3.144531 -3.632812 4.1875 -3.375 C 5.226562 -3.113281 6.144531 -2.984375 6.9375 -2.984375 C 8.5625 -2.984375 9.375 -3.453125 9.375 -4.390625 C 9.375 -4.742188 9.265625 -5.03125 9.046875 -5.25 C 8.835938 -5.46875 8.46875 -5.71875 7.9375 -6 C 7.414062 -6.28125 6.710938 -6.601562 5.828125 -6.96875 C 4.566406 -7.5 3.640625 -7.988281 3.046875 -8.4375 C 2.453125 -8.882812 2.019531 -9.398438 1.75 -9.984375 C 1.476562 -10.566406 1.34375 -11.285156 1.34375 -12.140625 C 1.34375 -13.597656 1.90625 -14.722656 3.03125 -15.515625 C 4.164062 -16.316406 5.773438 -16.71875 7.859375 -16.71875 C 9.828125 -16.71875 11.75 -16.285156 13.625 -15.421875 L 12.265625 -12.203125 C 11.441406 -12.554688 10.671875 -12.84375 9.953125 -13.0625 C 9.242188 -13.289062 8.519531 -13.40625 7.78125 -13.40625 C 6.457031 -13.40625 5.796875 -13.046875 5.796875 -12.328125 C 5.796875 -11.929688 6.007812 -11.582031 6.4375 -11.28125 C 6.863281 -10.988281 7.796875 -10.554688 9.234375 -9.984375 C 10.515625 -9.460938 11.453125 -8.976562 12.046875 -8.53125 C 12.648438 -8.082031 13.09375 -7.5625 13.375 -6.96875 C 13.65625 -6.382812 13.796875 -5.6875 13.796875 -4.875 Z M 13.796875 -4.875 "/></g></g></g><g fill="#1800ad" fill-opacity="1"><g transform="translate(283.321411, 111.815175)"><g/></g></g><g fill="#1800ad" fill-opacity="1"><g transform="translate(291.130123, 111.815175)"><g><path d="M 17.046875 0 L 12.5625 0 L 12.5625 -9.578125 C 12.5625 -10.765625 12.363281 -11.65625 11.96875 -12.25 C 11.570312 -12.84375 10.945312 -13.140625 10.09375 -13.140625 C 8.945312 -13.140625 8.113281 -12.71875 7.59375 -11.875 C 7.082031 -11.03125 6.828125 -9.644531 6.828125 -7.71875 L 6.828125 0 L 2.34375 0 L 2.34375 -16.40625 L 5.765625 -16.40625 L 6.375 -14.3125 L 6.625 -14.3125 C 7.0625 -15.0625 7.695312 -15.648438 8.53125 -16.078125 C 9.363281 -16.503906 10.316406 -16.71875 11.390625 -16.71875 C 13.847656 -16.71875 15.507812 -15.914062 16.375 -14.3125 L 16.78125 -14.3125 C 17.21875 -15.070312 17.863281 -15.660156 18.71875 -16.078125 C 19.570312 -16.503906 20.539062 -16.71875 21.625 -16.71875 C 23.476562 -16.71875 24.882812 -16.238281 25.84375 -15.28125 C 26.800781 -14.332031 27.28125 -12.804688 27.28125 -10.703125 L 27.28125 0 L 22.78125 0 L 22.78125 -9.578125 C 22.78125 -10.765625 22.582031 -11.65625 22.1875 -12.25 C 21.789062 -12.84375 21.164062 -13.140625 20.3125 -13.140625 C 19.21875 -13.140625 18.398438 -12.742188 17.859375 -11.953125 C 17.316406 -11.171875 17.046875 -9.929688 17.046875 -8.234375 Z M 17.046875 0 "/></g></g></g><g fill="#1800ad" fill-opacity="1"><g transform="translate(320.647635, 111.815175)"><g><path d="M 9.140625 -13.53125 C 8.191406 -13.53125 7.445312 -13.226562 6.90625 -12.625 C 6.375 -12.03125 6.066406 -11.175781 5.984375 -10.0625 L 12.265625 -10.0625 C 12.253906 -11.175781 11.96875 -12.03125 11.40625 -12.625 C 10.84375 -13.226562 10.085938 -13.53125 9.140625 -13.53125 Z M 9.78125 0.296875 C 7.132812 0.296875 5.066406 -0.429688 3.578125 -1.890625 C 2.085938 -3.347656 1.34375 -5.414062 1.34375 -8.09375 C 1.34375 -10.84375 2.03125 -12.96875 3.40625 -14.46875 C 4.78125 -15.96875 6.679688 -16.71875 9.109375 -16.71875 C 11.429688 -16.71875 13.238281 -16.054688 14.53125 -14.734375 C 15.820312 -13.410156 16.46875 -11.585938 16.46875 -9.265625 L 16.46875 -7.09375 L 5.890625 -7.09375 C 5.929688 -5.820312 6.304688 -4.828125 7.015625 -4.109375 C 7.722656 -3.390625 8.710938 -3.03125 9.984375 -3.03125 C 10.972656 -3.03125 11.90625 -3.132812 12.78125 -3.34375 C 13.664062 -3.550781 14.585938 -3.878906 15.546875 -4.328125 L 15.546875 -0.859375 C 14.765625 -0.472656 13.925781 -0.1875 13.03125 0 C 12.144531 0.195312 11.0625 0.296875 9.78125 0.296875 Z M 9.78125 0.296875 "/></g></g></g><g fill="#1800ad" fill-opacity="1"><g transform="translate(338.408062, 111.815175)"><g><path d="M 6.828125 0 L 2.34375 0 L 2.34375 -22.84375 L 6.828125 -22.84375 Z M 6.828125 0 "/></g></g></g><g fill="#1800ad" fill-opacity="1"><g transform="translate(347.581836, 111.815175)"><g><path d="M 17.5 0 L 13.015625 0 L 13.015625 -9.578125 C 13.015625 -11.953125 12.132812 -13.140625 10.375 -13.140625 C 9.125 -13.140625 8.21875 -12.710938 7.65625 -11.859375 C 7.101562 -11.003906 6.828125 -9.625 6.828125 -7.71875 L 6.828125 0 L 2.34375 0 L 2.34375 -22.84375 L 6.828125 -22.84375 L 6.828125 -18.1875 C 6.828125 -17.820312 6.789062 -16.972656 6.71875 -15.640625 L 6.625 -14.3125 L 6.859375 -14.3125 C 7.859375 -15.914062 9.441406 -16.71875 11.609375 -16.71875 C 13.535156 -16.71875 15 -16.195312 16 -15.15625 C 17 -14.125 17.5 -12.640625 17.5 -10.703125 Z M 17.5 0 "/></g></g></g><g fill="#1800ad" fill-opacity="1"><g transform="translate(367.338475, 111.815175)"><g><path d="M 5.921875 -8.234375 C 5.921875 -6.609375 6.1875 -5.378906 6.71875 -4.546875 C 7.25 -3.710938 8.117188 -3.296875 9.328125 -3.296875 C 10.515625 -3.296875 11.367188 -3.707031 11.890625 -4.53125 C 12.421875 -5.363281 12.6875 -6.597656 12.6875 -8.234375 C 12.6875 -9.859375 12.421875 -11.078125 11.890625 -11.890625 C 11.359375 -12.703125 10.492188 -13.109375 9.296875 -13.109375 C 8.097656 -13.109375 7.234375 -12.703125 6.703125 -11.890625 C 6.179688 -11.085938 5.921875 -9.867188 5.921875 -8.234375 Z M 17.265625 -8.234375 C 17.265625 -5.566406 16.554688 -3.476562 15.140625 -1.96875 C 13.734375 -0.457031 11.773438 0.296875 9.265625 0.296875 C 7.691406 0.296875 6.300781 -0.046875 5.09375 -0.734375 C 3.882812 -1.429688 2.957031 -2.425781 2.3125 -3.71875 C 1.664062 -5.007812 1.34375 -6.515625 1.34375 -8.234375 C 1.34375 -10.910156 2.039062 -12.992188 3.4375 -14.484375 C 4.84375 -15.972656 6.8125 -16.71875 9.34375 -16.71875 C 10.925781 -16.71875 12.316406 -16.375 13.515625 -15.6875 C 14.722656 -15.007812 15.648438 -14.023438 16.296875 -12.734375 C 16.941406 -11.453125 17.265625 -9.953125 17.265625 -8.234375 Z M 17.265625 -8.234375 "/></g></g></g><g fill="#1800ad" fill-opacity="1"><g transform="translate(385.950193, 111.815175)"><g><path d="M 11.515625 -16.71875 C 12.117188 -16.71875 12.617188 -16.675781 13.015625 -16.59375 L 12.6875 -12.390625 C 12.320312 -12.484375 11.878906 -12.53125 11.359375 -12.53125 C 9.929688 -12.53125 8.816406 -12.160156 8.015625 -11.421875 C 7.222656 -10.691406 6.828125 -9.671875 6.828125 -8.359375 L 6.828125 0 L 2.34375 0 L 2.34375 -16.40625 L 5.734375 -16.40625 L 6.40625 -13.65625 L 6.625 -13.65625 C 7.132812 -14.570312 7.820312 -15.3125 8.6875 -15.875 C 9.550781 -16.4375 10.492188 -16.71875 11.515625 -16.71875 Z M 11.515625 -16.71875 "/></g></g></g><g fill="#1800ad" fill-opacity="1"><g transform="translate(399.600772, 111.815175)"><g><path d="M 9.140625 -13.53125 C 8.191406 -13.53125 7.445312 -13.226562 6.90625 -12.625 C 6.375 -12.03125 6.066406 -11.175781 5.984375 -10.0625 L 12.265625 -10.0625 C 12.253906 -11.175781 11.96875 -12.03125 11.40625 -12.625 C 10.84375 -13.226562 10.085938 -13.53125 9.140625 -13.53125 Z M 9.78125 0.296875 C 7.132812 0.296875 5.066406 -0.429688 3.578125 -1.890625 C 2.085938 -3.347656 1.34375 -5.414062 1.34375 -8.09375 C 1.34375 -10.84375 2.03125 -12.96875 3.40625 -14.46875 C 4.78125 -15.96875 6.679688 -16.71875 9.109375 -16.71875 C 11.429688 -16.71875 13.238281 -16.054688 14.53125 -14.734375 C 15.820312 -13.410156 16.46875 -11.585938 16.46875 -9.265625 L 16.46875 -7.09375 L 5.890625 -7.09375 C 5.929688 -5.820312 6.304688 -4.828125 7.015625 -4.109375 C 7.722656 -3.390625 8.710938 -3.03125 9.984375 -3.03125 C 10.972656 -3.03125 11.90625 -3.132812 12.78125 -3.34375 C 13.664062 -3.550781 14.585938 -3.878906 15.546875 -4.328125 L 15.546875 -0.859375 C 14.765625 -0.472656 13.925781 -0.1875 13.03125 0 C 12.144531 0.195312 11.0625 0.296875 9.78125 0.296875 Z M 9.78125 0.296875 "/></g></g></g><g fill="#1800ad" fill-opacity="1"><g transform="translate(417.361199, 111.815175)"><g><path d="M 13.796875 -4.875 C 13.796875 -3.1875 13.210938 -1.898438 12.046875 -1.015625 C 10.878906 -0.140625 9.128906 0.296875 6.796875 0.296875 C 5.597656 0.296875 4.578125 0.210938 3.734375 0.046875 C 2.898438 -0.109375 2.113281 -0.34375 1.375 -0.65625 L 1.375 -4.359375 C 2.207031 -3.960938 3.144531 -3.632812 4.1875 -3.375 C 5.226562 -3.113281 6.144531 -2.984375 6.9375 -2.984375 C 8.5625 -2.984375 9.375 -3.453125 9.375 -4.390625 C 9.375 -4.742188 9.265625 -5.03125 9.046875 -5.25 C 8.835938 -5.46875 8.46875 -5.71875 7.9375 -6 C 7.414062 -6.28125 6.710938 -6.601562 5.828125 -6.96875 C 4.566406 -7.5 3.640625 -7.988281 3.046875 -8.4375 C 2.453125 -8.882812 2.019531 -9.398438 1.75 -9.984375 C 1.476562 -10.566406 1.34375 -11.285156 1.34375 -12.140625 C 1.34375 -13.597656 1.90625 -14.722656 3.03125 -15.515625 C 4.164062 -16.316406 5.773438 -16.71875 7.859375 -16.71875 C 9.828125 -16.71875 11.75 -16.285156 13.625 -15.421875 L 12.265625 -12.203125 C 11.441406 -12.554688 10.671875 -12.84375 9.953125 -13.0625 C 9.242188 -13.289062 8.519531 -13.40625 7.78125 -13.40625 C 6.457031 -13.40625 5.796875 -13.046875 5.796875 -12.328125 C 5.796875 -11.929688 6.007812 -11.582031 6.4375 -11.28125 C 6.863281 -10.988281 7.796875 -10.554688 9.234375 -9.984375 C 10.515625 -9.460938 11.453125 -8.976562 12.046875 -8.53125 C 12.648438 -8.082031 13.09375 -7.5625 13.375 -6.96875 C 13.65625 -6.382812 13.796875 -5.6875 13.796875 -4.875 Z M 13.796875 -4.875 "/></g></g></g><g fill="#1800ad" fill-opacity="1"><g transform="translate(432.303422, 111.815175)"><g/></g></g><g fill="#1800ad" fill-opacity="1"><g transform="translate(440.112133, 111.815175)"><g><path d="M 10.984375 0 L 6.421875 0 L 6.421875 -17.671875 L 0.609375 -17.671875 L 0.609375 -21.453125 L 16.8125 -21.453125 L 16.8125 -17.671875 L 10.984375 -17.671875 Z M 10.984375 0 "/></g></g></g><g fill="#1800ad" fill-opacity="1"><g transform="translate(457.520288, 111.815175)"><g><path d="M 9.140625 -13.53125 C 8.191406 -13.53125 7.445312 -13.226562 6.90625 -12.625 C 6.375 -12.03125 6.066406 -11.175781 5.984375 -10.0625 L 12.265625 -10.0625 C 12.253906 -11.175781 11.96875 -12.03125 11.40625 -12.625 C 10.84375 -13.226562 10.085938 -13.53125 9.140625 -13.53125 Z M 9.78125 0.296875 C 7.132812 0.296875 5.066406 -0.429688 3.578125 -1.890625 C 2.085938 -3.347656 1.34375 -5.414062 1.34375 -8.09375 C 1.34375 -10.84375 2.03125 -12.96875 3.40625 -14.46875 C 4.78125 -15.96875 6.679688 -16.71875 9.109375 -16.71875 C 11.429688 -16.71875 13.238281 -16.054688 14.53125 -14.734375 C 15.820312 -13.410156 16.46875 -11.585938 16.46875 -9.265625 L 16.46875 -7.09375 L 5.890625 -7.09375 C 5.929688 -5.820312 6.304688 -4.828125 7.015625 -4.109375 C 7.722656 -3.390625 8.710938 -3.03125 9.984375 -3.03125 C 10.972656 -3.03125 11.90625 -3.132812 12.78125 -3.34375 C 13.664062 -3.550781 14.585938 -3.878906 15.546875 -4.328125 L 15.546875 -0.859375 C 14.765625 -0.472656 13.925781 -0.1875 13.03125 0 C 12.144531 0.195312 11.0625 0.296875 9.78125 0.296875 Z M 9.78125 0.296875 "/></g></g></g><g fill="#1800ad" fill-opacity="1"><g transform="translate(475.280669, 111.815175)"><g><path d="M 9.015625 0.296875 C 3.898438 0.296875 1.34375 -2.507812 1.34375 -8.125 C 1.34375 -10.90625 2.035156 -13.03125 3.421875 -14.5 C 4.816406 -15.976562 6.8125 -16.71875 9.40625 -16.71875 C 11.300781 -16.71875 13.003906 -16.347656 14.515625 -15.609375 L 13.203125 -12.140625 C 12.492188 -12.421875 11.832031 -12.648438 11.21875 -12.828125 C 10.613281 -13.015625 10.007812 -13.109375 9.40625 -13.109375 C 7.082031 -13.109375 5.921875 -11.453125 5.921875 -8.140625 C 5.921875 -4.929688 7.082031 -3.328125 9.40625 -3.328125 C 10.269531 -3.328125 11.066406 -3.441406 11.796875 -3.671875 C 12.535156 -3.898438 13.269531 -4.257812 14 -4.75 L 14 -0.921875 C 13.28125 -0.460938 12.550781 -0.144531 11.8125 0.03125 C 11.070312 0.207031 10.140625 0.296875 9.015625 0.296875 Z M 9.015625 0.296875 "/></g></g></g><g fill="#1800ad" fill-opacity="1"><g transform="translate(490.736663, 111.815175)"><g><path d="M 17.5 0 L 13.015625 0 L 13.015625 -9.578125 C 13.015625 -10.765625 12.804688 -11.65625 12.390625 -12.25 C 11.972656 -12.84375 11.300781 -13.140625 10.375 -13.140625 C 9.125 -13.140625 8.21875 -12.71875 7.65625 -11.875 C 7.101562 -11.039062 6.828125 -9.65625 6.828125 -7.71875 L 6.828125 0 L 2.34375 0 L 2.34375 -16.40625 L 5.765625 -16.40625 L 6.375 -14.3125 L 6.625 -14.3125 C 7.125 -15.101562 7.8125 -15.703125 8.6875 -16.109375 C 9.5625 -16.515625 10.554688 -16.71875 11.671875 -16.71875 C 13.578125 -16.71875 15.023438 -16.203125 16.015625 -15.171875 C 17.003906 -14.140625 17.5 -12.648438 17.5 -10.703125 Z M 17.5 0 "/></g></g></g><g fill="#1800ad" fill-opacity="1"><g transform="translate(510.493302, 111.815175)"><g><path d="M 5.921875 -8.234375 C 5.921875 -6.609375 6.1875 -5.378906 6.71875 -4.546875 C 7.25 -3.710938 8.117188 -3.296875 9.328125 -3.296875 C 10.515625 -3.296875 11.367188 -3.707031 11.890625 -4.53125 C 12.421875 -5.363281 12.6875 -6.597656 12.6875 -8.234375 C 12.6875 -9.859375 12.421875 -11.078125 11.890625 -11.890625 C 11.359375 -12.703125 10.492188 -13.109375 9.296875 -13.109375 C 8.097656 -13.109375 7.234375 -12.703125 6.703125 -11.890625 C 6.179688 -11.085938 5.921875 -9.867188 5.921875 -8.234375 Z M 17.265625 -8.234375 C 17.265625 -5.566406 16.554688 -3.476562 15.140625 -1.96875 C 13.734375 -0.457031 11.773438 0.296875 9.265625 0.296875 C 7.691406 0.296875 6.300781 -0.046875 5.09375 -0.734375 C 3.882812 -1.429688 2.957031 -2.425781 2.3125 -3.71875 C 1.664062 -5.007812 1.34375 -6.515625 1.34375 -8.234375 C 1.34375 -10.910156 2.039062 -12.992188 3.4375 -14.484375 C 4.84375 -15.972656 6.8125 -16.71875 9.34375 -16.71875 C 10.925781 -16.71875 12.316406 -16.375 13.515625 -15.6875 C 14.722656 -15.007812 15.648438 -14.023438 16.296875 -12.734375 C 16.941406 -11.453125 17.265625 -9.953125 17.265625 -8.234375 Z M 17.265625 -8.234375 "/></g></g></g><g fill="#1800ad" fill-opacity="1"><g transform="translate(529.105021, 111.815175)"><g><path d="M 6.828125 0 L 2.34375 0 L 2.34375 -22.84375 L 6.828125 -22.84375 Z M 6.828125 0 "/></g></g></g><g fill="#1800ad" fill-opacity="1"><g transform="translate(538.278795, 111.815175)"><g><path d="M 5.921875 -8.234375 C 5.921875 -6.609375 6.1875 -5.378906 6.71875 -4.546875 C 7.25 -3.710938 8.117188 -3.296875 9.328125 -3.296875 C 10.515625 -3.296875 11.367188 -3.707031 11.890625 -4.53125 C 12.421875 -5.363281 12.6875 -6.597656 12.6875 -8.234375 C 12.6875 -9.859375 12.421875 -11.078125 11.890625 -11.890625 C 11.359375 -12.703125 10.492188 -13.109375 9.296875 -13.109375 C 8.097656 -13.109375 7.234375 -12.703125 6.703125 -11.890625 C 6.179688 -11.085938 5.921875 -9.867188 5.921875 -8.234375 Z M 17.265625 -8.234375 C 17.265625 -5.566406 16.554688 -3.476562 15.140625 -1.96875 C 13.734375 -0.457031 11.773438 0.296875 9.265625 0.296875 C 7.691406 0.296875 6.300781 -0.046875 5.09375 -0.734375 C 3.882812 -1.429688 2.957031 -2.425781 2.3125 -3.71875 C 1.664062 -5.007812 1.34375 -6.515625 1.34375 -8.234375 C 1.34375 -10.910156 2.039062 -12.992188 3.4375 -14.484375 C 4.84375 -15.972656 6.8125 -16.71875 9.34375 -16.71875 C 10.925781 -16.71875 12.316406 -16.375 13.515625 -15.6875 C 14.722656 -15.007812 15.648438 -14.023438 16.296875 -12.734375 C 16.941406 -11.453125 17.265625 -9.953125 17.265625 -8.234375 Z M 17.265625 -8.234375 "/></g></g></g><g fill="#1800ad" fill-opacity="1"><g transform="translate(556.890559, 111.815175)"><g><path d="M 16.625 -16.40625 L 16.625 -14.140625 L 14.0625 -13.46875 C 14.53125 -12.738281 14.765625 -11.921875 14.765625 -11.015625 C 14.765625 -9.242188 14.148438 -7.867188 12.921875 -6.890625 C 11.691406 -5.910156 9.988281 -5.421875 7.8125 -5.421875 L 7 -5.453125 L 6.34375 -5.53125 C 5.882812 -5.175781 5.65625 -4.785156 5.65625 -4.359375 C 5.65625 -3.710938 6.476562 -3.390625 8.125 -3.390625 L 10.90625 -3.390625 C 12.707031 -3.390625 14.078125 -3.003906 15.015625 -2.234375 C 15.960938 -1.460938 16.4375 -0.328125 16.4375 1.171875 C 16.4375 3.085938 15.632812 4.570312 14.03125 5.625 C 12.4375 6.6875 10.144531 7.21875 7.15625 7.21875 C 4.863281 7.21875 3.113281 6.816406 1.90625 6.015625 C 0.695312 5.222656 0.09375 4.109375 0.09375 2.671875 C 0.09375 1.679688 0.398438 0.851562 1.015625 0.1875 C 1.628906 -0.476562 2.535156 -0.953125 3.734375 -1.234375 C 3.265625 -1.429688 2.859375 -1.75 2.515625 -2.1875 C 2.179688 -2.632812 2.015625 -3.109375 2.015625 -3.609375 C 2.015625 -4.234375 2.191406 -4.753906 2.546875 -5.171875 C 2.910156 -5.585938 3.4375 -6 4.125 -6.40625 C 3.257812 -6.769531 2.578125 -7.363281 2.078125 -8.1875 C 1.578125 -9.007812 1.328125 -9.976562 1.328125 -11.09375 C 1.328125 -12.882812 1.90625 -14.269531 3.0625 -15.25 C 4.226562 -16.226562 5.894531 -16.71875 8.0625 -16.71875 C 8.519531 -16.71875 9.0625 -16.675781 9.6875 -16.59375 C 10.320312 -16.507812 10.726562 -16.445312 10.90625 -16.40625 Z M 3.96875 2.3125 C 3.96875 2.9375 4.257812 3.421875 4.84375 3.765625 C 5.4375 4.117188 6.269531 4.296875 7.34375 4.296875 C 8.945312 4.296875 10.203125 4.078125 11.109375 3.640625 C 12.023438 3.203125 12.484375 2.597656 12.484375 1.828125 C 12.484375 1.210938 12.210938 0.785156 11.671875 0.546875 C 11.128906 0.316406 10.296875 0.203125 9.171875 0.203125 L 6.859375 0.203125 C 6.035156 0.203125 5.347656 0.394531 4.796875 0.78125 C 4.242188 1.164062 3.96875 1.675781 3.96875 2.3125 Z M 5.59375 -11.03125 C 5.59375 -10.144531 5.796875 -9.441406 6.203125 -8.921875 C 6.609375 -8.398438 7.226562 -8.140625 8.0625 -8.140625 C 8.90625 -8.140625 9.519531 -8.398438 9.90625 -8.921875 C 10.300781 -9.441406 10.5 -10.144531 10.5 -11.03125 C 10.5 -13.007812 9.6875 -14 8.0625 -14 C 6.414062 -14 5.59375 -13.007812 5.59375 -11.03125 Z M 5.59375 -11.03125 "/></g></g></g><g fill="#1800ad" fill-opacity="1"><g transform="translate(573.873023, 111.815175)"><g><path d="M 2.15625 -20.65625 C 2.15625 -22.113281 2.96875 -22.84375 4.59375 -22.84375 C 6.21875 -22.84375 7.03125 -22.113281 7.03125 -20.65625 C 7.03125 -19.957031 6.828125 -19.414062 6.421875 -19.03125 C 6.015625 -18.644531 5.40625 -18.453125 4.59375 -18.453125 C 2.96875 -18.453125 2.15625 -19.1875 2.15625 -20.65625 Z M 6.828125 0 L 2.34375 0 L 2.34375 -16.40625 L 6.828125 -16.40625 Z M 6.828125 0 "/></g></g></g><g fill="#1800ad" fill-opacity="1"><g transform="translate(583.046797, 111.815175)"><g><path d="M 12.765625 0 L 11.90625 -2.234375 L 11.78125 -2.234375 C 11.03125 -1.285156 10.253906 -0.625 9.453125 -0.25 C 8.660156 0.113281 7.625 0.296875 6.34375 0.296875 C 4.769531 0.296875 3.53125 -0.148438 2.625 -1.046875 C 1.71875 -1.953125 1.265625 -3.238281 1.265625 -4.90625 C 1.265625 -6.644531 1.875 -7.925781 3.09375 -8.75 C 4.3125 -9.582031 6.148438 -10.039062 8.609375 -10.125 L 11.453125 -10.21875 L 11.453125 -10.9375 C 11.453125 -12.601562 10.597656 -13.4375 8.890625 -13.4375 C 7.578125 -13.4375 6.035156 -13.039062 4.265625 -12.25 L 2.78125 -15.265625 C 4.675781 -16.253906 6.773438 -16.75 9.078125 -16.75 C 11.273438 -16.75 12.957031 -16.269531 14.125 -15.3125 C 15.300781 -14.351562 15.890625 -12.894531 15.890625 -10.9375 L 15.890625 0 Z M 11.453125 -7.609375 L 9.71875 -7.546875 C 8.414062 -7.503906 7.445312 -7.265625 6.8125 -6.828125 C 6.175781 -6.398438 5.859375 -5.75 5.859375 -4.875 C 5.859375 -3.613281 6.582031 -2.984375 8.03125 -2.984375 C 9.0625 -2.984375 9.890625 -3.28125 10.515625 -3.875 C 11.140625 -4.46875 11.453125 -5.257812 11.453125 -6.25 Z M 11.453125 -7.609375 "/></g></g></g><g fill="#1800ad" fill-opacity="1"><g transform="translate(601.203548, 111.815175)"><g><path d="M 13.796875 -4.875 C 13.796875 -3.1875 13.210938 -1.898438 12.046875 -1.015625 C 10.878906 -0.140625 9.128906 0.296875 6.796875 0.296875 C 5.597656 0.296875 4.578125 0.210938 3.734375 0.046875 C 2.898438 -0.109375 2.113281 -0.34375 1.375 -0.65625 L 1.375 -4.359375 C 2.207031 -3.960938 3.144531 -3.632812 4.1875 -3.375 C 5.226562 -3.113281 6.144531 -2.984375 6.9375 -2.984375 C 8.5625 -2.984375 9.375 -3.453125 9.375 -4.390625 C 9.375 -4.742188 9.265625 -5.03125 9.046875 -5.25 C 8.835938 -5.46875 8.46875 -5.71875 7.9375 -6 C 7.414062 -6.28125 6.710938 -6.601562 5.828125 -6.96875 C 4.566406 -7.5 3.640625 -7.988281 3.046875 -8.4375 C 2.453125 -8.882812 2.019531 -9.398438 1.75 -9.984375 C 1.476562 -10.566406 1.34375 -11.285156 1.34375 -12.140625 C 1.34375 -13.597656 1.90625 -14.722656 3.03125 -15.515625 C 4.164062 -16.316406 5.773438 -16.71875 7.859375 -16.71875 C 9.828125 -16.71875 11.75 -16.285156 13.625 -15.421875 L 12.265625 -12.203125 C 11.441406 -12.554688 10.671875 -12.84375 9.953125 -13.0625 C 9.242188 -13.289062 8.519531 -13.40625 7.78125 -13.40625 C 6.457031 -13.40625 5.796875 -13.046875 5.796875 -12.328125 C 5.796875 -11.929688 6.007812 -11.582031 6.4375 -11.28125 C 6.863281 -10.988281 7.796875 -10.554688 9.234375 -9.984375 C 10.515625 -9.460938 11.453125 -8.976562 12.046875 -8.53125 C 12.648438 -8.082031 13.09375 -7.5625 13.375 -6.96875 C 13.65625 -6.382812 13.796875 -5.6875 13.796875 -4.875 Z M 13.796875 -4.875 "/></g></g></g><g fill="#1800ad" fill-opacity="1"><g transform="translate(616.145794, 111.815175)"><g/></g></g><g fill="#1800ad" fill-opacity="1"><g transform="translate(623.954483, 111.815175)"><g><path d="M 7.546875 0.296875 C 5.617188 0.296875 4.101562 -0.453125 3 -1.953125 C 1.894531 -3.453125 1.34375 -5.523438 1.34375 -8.171875 C 1.34375 -10.867188 1.90625 -12.96875 3.03125 -14.46875 C 4.15625 -15.96875 5.695312 -16.71875 7.65625 -16.71875 C 9.726562 -16.71875 11.304688 -15.914062 12.390625 -14.3125 L 12.53125 -14.3125 C 12.3125 -15.53125 12.203125 -16.617188 12.203125 -17.578125 L 12.203125 -22.84375 L 16.6875 -22.84375 L 16.6875 0 L 13.25 0 L 12.390625 -2.125 L 12.203125 -2.125 C 11.179688 -0.507812 9.628906 0.296875 7.546875 0.296875 Z M 9.109375 -3.265625 C 10.253906 -3.265625 11.09375 -3.597656 11.625 -4.265625 C 12.164062 -4.929688 12.457031 -6.0625 12.5 -7.65625 L 12.5 -8.140625 C 12.5 -9.898438 12.226562 -11.160156 11.6875 -11.921875 C 11.144531 -12.691406 10.265625 -13.078125 9.046875 -13.078125 C 8.046875 -13.078125 7.269531 -12.65625 6.71875 -11.8125 C 6.164062 -10.96875 5.890625 -9.738281 5.890625 -8.125 C 5.890625 -6.507812 6.164062 -5.296875 6.71875 -4.484375 C 7.28125 -3.671875 8.078125 -3.265625 9.109375 -3.265625 Z M 9.109375 -3.265625 "/></g></g></g><g fill="#1800ad" fill-opacity="1"><g transform="translate(642.977208, 111.815175)"><g><path d="M 5.921875 -8.234375 C 5.921875 -6.609375 6.1875 -5.378906 6.71875 -4.546875 C 7.25 -3.710938 8.117188 -3.296875 9.328125 -3.296875 C 10.515625 -3.296875 11.367188 -3.707031 11.890625 -4.53125 C 12.421875 -5.363281 12.6875 -6.597656 12.6875 -8.234375 C 12.6875 -9.859375 12.421875 -11.078125 11.890625 -11.890625 C 11.359375 -12.703125 10.492188 -13.109375 9.296875 -13.109375 C 8.097656 -13.109375 7.234375 -12.703125 6.703125 -11.890625 C 6.179688 -11.085938 5.921875 -9.867188 5.921875 -8.234375 Z M 17.265625 -8.234375 C 17.265625 -5.566406 16.554688 -3.476562 15.140625 -1.96875 C 13.734375 -0.457031 11.773438 0.296875 9.265625 0.296875 C 7.691406 0.296875 6.300781 -0.046875 5.09375 -0.734375 C 3.882812 -1.429688 2.957031 -2.425781 2.3125 -3.71875 C 1.664062 -5.007812 1.34375 -6.515625 1.34375 -8.234375 C 1.34375 -10.910156 2.039062 -12.992188 3.4375 -14.484375 C 4.84375 -15.972656 6.8125 -16.71875 9.34375 -16.71875 C 10.925781 -16.71875 12.316406 -16.375 13.515625 -15.6875 C 14.722656 -15.007812 15.648438 -14.023438 16.296875 -12.734375 C 16.941406 -11.453125 17.265625 -9.953125 17.265625 -8.234375 Z M 17.265625 -8.234375 "/></g></g></g><g fill="#1800ad" fill-opacity="1"><g transform="translate(661.588927, 111.815175)"><g/></g></g><g fill="#1800ad" fill-opacity="1"><g transform="translate(669.397662, 111.815175)"><g><path d="M 11.78125 0 L 6.625 -16.84375 L 6.484375 -16.84375 C 6.671875 -13.414062 6.765625 -11.128906 6.765625 -9.984375 L 6.765625 0 L 2.703125 0 L 2.703125 -21.453125 L 8.890625 -21.453125 L 13.96875 -5.046875 L 14.0625 -5.046875 L 19.453125 -21.453125 L 25.640625 -21.453125 L 25.640625 0 L 21.40625 0 L 21.40625 -10.15625 C 21.40625 -10.632812 21.410156 -11.1875 21.421875 -11.8125 C 21.441406 -12.4375 21.507812 -14.101562 21.625 -16.8125 L 21.484375 -16.8125 L 15.953125 0 Z M 11.78125 0 "/></g></g></g><g fill="#1800ad" fill-opacity="1"><g transform="translate(697.740954, 111.815175)"><g><path d="M 9.140625 -13.53125 C 8.191406 -13.53125 7.445312 -13.226562 6.90625 -12.625 C 6.375 -12.03125 6.066406 -11.175781 5.984375 -10.0625 L 12.265625 -10.0625 C 12.253906 -11.175781 11.96875 -12.03125 11.40625 -12.625 C 10.84375 -13.226562 10.085938 -13.53125 9.140625 -13.53125 Z M 9.78125 0.296875 C 7.132812 0.296875 5.066406 -0.429688 3.578125 -1.890625 C 2.085938 -3.347656 1.34375 -5.414062 1.34375 -8.09375 C 1.34375 -10.84375 2.03125 -12.96875 3.40625 -14.46875 C 4.78125 -15.96875 6.679688 -16.71875 9.109375 -16.71875 C 11.429688 -16.71875 13.238281 -16.054688 14.53125 -14.734375 C 15.820312 -13.410156 16.46875 -11.585938 16.46875 -9.265625 L 16.46875 -7.09375 L 5.890625 -7.09375 C 5.929688 -5.820312 6.304688 -4.828125 7.015625 -4.109375 C 7.722656 -3.390625 8.710938 -3.03125 9.984375 -3.03125 C 10.972656 -3.03125 11.90625 -3.132812 12.78125 -3.34375 C 13.664062 -3.550781 14.585938 -3.878906 15.546875 -4.328125 L 15.546875 -0.859375 C 14.765625 -0.472656 13.925781 -0.1875 13.03125 0 C 12.144531 0.195312 11.0625 0.296875 9.78125 0.296875 Z M 9.78125 0.296875 "/></g></g></g><g fill="#1800ad" fill-opacity="1"><g transform="translate(715.501381, 111.815175)"><g><path d="M 11.515625 -16.71875 C 12.117188 -16.71875 12.617188 -16.675781 13.015625 -16.59375 L 12.6875 -12.390625 C 12.320312 -12.484375 11.878906 -12.53125 11.359375 -12.53125 C 9.929688 -12.53125 8.816406 -12.160156 8.015625 -11.421875 C 7.222656 -10.691406 6.828125 -9.671875 6.828125 -8.359375 L 6.828125 0 L 2.34375 0 L 2.34375 -16.40625 L 5.734375 -16.40625 L 6.40625 -13.65625 L 6.625 -13.65625 C 7.132812 -14.570312 7.820312 -15.3125 8.6875 -15.875 C 9.550781 -16.4375 10.492188 -16.71875 11.515625 -16.71875 Z M 11.515625 -16.71875 "/></g></g></g><g fill="#1800ad" fill-opacity="1"><g transform="translate(729.151914, 111.815175)"><g><path d="M 9.015625 0.296875 C 3.898438 0.296875 1.34375 -2.507812 1.34375 -8.125 C 1.34375 -10.90625 2.035156 -13.03125 3.421875 -14.5 C 4.816406 -15.976562 6.8125 -16.71875 9.40625 -16.71875 C 11.300781 -16.71875 13.003906 -16.347656 14.515625 -15.609375 L 13.203125 -12.140625 C 12.492188 -12.421875 11.832031 -12.648438 11.21875 -12.828125 C 10.613281 -13.015625 10.007812 -13.109375 9.40625 -13.109375 C 7.082031 -13.109375 5.921875 -11.453125 5.921875 -8.140625 C 5.921875 -4.929688 7.082031 -3.328125 9.40625 -3.328125 C 10.269531 -3.328125 11.066406 -3.441406 11.796875 -3.671875 C 12.535156 -3.898438 13.269531 -4.257812 14 -4.75 L 14 -0.921875 C 13.28125 -0.460938 12.550781 -0.144531 11.8125 0.03125 C 11.070312 0.207031 10.140625 0.296875 9.015625 0.296875 Z M 9.015625 0.296875 "/></g></g></g><g fill="#1800ad" fill-opacity="1"><g transform="translate(744.607908, 111.815175)"><g><path d="M 12.765625 0 L 11.90625 -2.234375 L 11.78125 -2.234375 C 11.03125 -1.285156 10.253906 -0.625 9.453125 -0.25 C 8.660156 0.113281 7.625 0.296875 6.34375 0.296875 C 4.769531 0.296875 3.53125 -0.148438 2.625 -1.046875 C 1.71875 -1.953125 1.265625 -3.238281 1.265625 -4.90625 C 1.265625 -6.644531 1.875 -7.925781 3.09375 -8.75 C 4.3125 -9.582031 6.148438 -10.039062 8.609375 -10.125 L 11.453125 -10.21875 L 11.453125 -10.9375 C 11.453125 -12.601562 10.597656 -13.4375 8.890625 -13.4375 C 7.578125 -13.4375 6.035156 -13.039062 4.265625 -12.25 L 2.78125 -15.265625 C 4.675781 -16.253906 6.773438 -16.75 9.078125 -16.75 C 11.273438 -16.75 12.957031 -16.269531 14.125 -15.3125 C 15.300781 -14.351562 15.890625 -12.894531 15.890625 -10.9375 L 15.890625 0 Z M 11.453125 -7.609375 L 9.71875 -7.546875 C 8.414062 -7.503906 7.445312 -7.265625 6.8125 -6.828125 C 6.175781 -6.398438 5.859375 -5.75 5.859375 -4.875 C 5.859375 -3.613281 6.582031 -2.984375 8.03125 -2.984375 C 9.0625 -2.984375 9.890625 -3.28125 10.515625 -3.875 C 11.140625 -4.46875 11.453125 -5.257812 11.453125 -6.25 Z M 11.453125 -7.609375 "/></g></g></g><g fill="#1800ad" fill-opacity="1"><g transform="translate(762.764613, 111.815175)"><g><path d="M 7.546875 0.296875 C 5.617188 0.296875 4.101562 -0.453125 3 -1.953125 C 1.894531 -3.453125 1.34375 -5.523438 1.34375 -8.171875 C 1.34375 -10.867188 1.90625 -12.96875 3.03125 -14.46875 C 4.15625 -15.96875 5.695312 -16.71875 7.65625 -16.71875 C 9.726562 -16.71875 11.304688 -15.914062 12.390625 -14.3125 L 12.53125 -14.3125 C 12.3125 -15.53125 12.203125 -16.617188 12.203125 -17.578125 L 12.203125 -22.84375 L 16.6875 -22.84375 L 16.6875 0 L 13.25 0 L 12.390625 -2.125 L 12.203125 -2.125 C 11.179688 -0.507812 9.628906 0.296875 7.546875 0.296875 Z M 9.109375 -3.265625 C 10.253906 -3.265625 11.09375 -3.597656 11.625 -4.265625 C 12.164062 -4.929688 12.457031 -6.0625 12.5 -7.65625 L 12.5 -8.140625 C 12.5 -9.898438 12.226562 -11.160156 11.6875 -11.921875 C 11.144531 -12.691406 10.265625 -13.078125 9.046875 -13.078125 C 8.046875 -13.078125 7.269531 -12.65625 6.71875 -11.8125 C 6.164062 -10.96875 5.890625 -9.738281 5.890625 -8.125 C 5.890625 -6.507812 6.164062 -5.296875 6.71875 -4.484375 C 7.28125 -3.671875 8.078125 -3.265625 9.109375 -3.265625 Z M 9.109375 -3.265625 "/></g></g></g><g fill="#1800ad" fill-opacity="1"><g transform="translate(781.787339, 111.815175)"><g><path d="M 5.921875 -8.234375 C 5.921875 -6.609375 6.1875 -5.378906 6.71875 -4.546875 C 7.25 -3.710938 8.117188 -3.296875 9.328125 -3.296875 C 10.515625 -3.296875 11.367188 -3.707031 11.890625 -4.53125 C 12.421875 -5.363281 12.6875 -6.597656 12.6875 -8.234375 C 12.6875 -9.859375 12.421875 -11.078125 11.890625 -11.890625 C 11.359375 -12.703125 10.492188 -13.109375 9.296875 -13.109375 C 8.097656 -13.109375 7.234375 -12.703125 6.703125 -11.890625 C 6.179688 -11.085938 5.921875 -9.867188 5.921875 -8.234375 Z M 17.265625 -8.234375 C 17.265625 -5.566406 16.554688 -3.476562 15.140625 -1.96875 C 13.734375 -0.457031 11.773438 0.296875 9.265625 0.296875 C 7.691406 0.296875 6.300781 -0.046875 5.09375 -0.734375 C 3.882812 -1.429688 2.957031 -2.425781 2.3125 -3.71875 C 1.664062 -5.007812 1.34375 -6.515625 1.34375 -8.234375 C 1.34375 -10.910156 2.039062 -12.992188 3.4375 -14.484375 C 4.84375 -15.972656 6.8125 -16.71875 9.34375 -16.71875 C 10.925781 -16.71875 12.316406 -16.375 13.515625 -15.6875 C 14.722656 -15.007812 15.648438 -14.023438 16.296875 -12.734375 C 16.941406 -11.453125 17.265625 -9.953125 17.265625 -8.234375 Z M 17.265625 -8.234375 "/></g></g></g></svg>