<svg xmlns="http://www.w3.org/2000/svg" xmlns:xlink="http://www.w3.org/1999/xlink" width="512" zoomAndPan="magnify" viewBox="0 0 384 125.999998" height="168" preserveAspectRatio="xMidYMid meet" version="1.0"><defs><g/></defs><path fill="#1800ad" d="M 125.4375 5.457031 C 125.042969 2.785156 122.980469 0.726562 120.308594 0.328125 C 108.328125 -1.4375 95.039062 3.960938 83.855469 15.148438 L 67.808594 31.195312 L 52.226562 31.351562 C 50.578125 31.371094 49.152344 31.96875 47.988281 33.132812 L 34.5 46.621094 C 33.5625 47.5625 33.296875 48.902344 33.8125 50.128906 C 34.320312 51.339844 35.449219 52.089844 36.761719 52.089844 C 36.773438 52.089844 36.785156 52.089844 36.796875 52.089844 L 47.84375 51.976562 C 47.15625 53.863281 47.4375 56.007812 48.675781 57.671875 L 40.839844 60.074219 C 40.40625 60.203125 40.078125 60.550781 39.96875 60.988281 C 39.859375 61.425781 39.988281 61.886719 40.308594 62.207031 L 42.773438 64.675781 C 32.519531 74.410156 27.777344 83.03125 25.480469 96.015625 C 25.265625 97.21875 25.640625 98.402344 26.503906 99.261719 C 27.207031 99.96875 28.121094 100.34375 29.089844 100.34375 C 29.304688 100.34375 29.527344 100.324219 29.75 100.285156 C 42.734375 97.984375 51.355469 93.246094 61.089844 82.992188 L 63.558594 85.457031 C 63.800781 85.703125 64.128906 85.835938 64.464844 85.835938 C 64.570312 85.835938 64.671875 85.820312 64.777344 85.796875 C 65.214844 85.6875 65.5625 85.359375 65.691406 84.925781 L 68.089844 77.09375 C 69.132812 77.867188 70.378906 78.304688 71.703125 78.304688 C 72.425781 78.304688 73.125 78.160156 73.789062 77.917969 L 73.675781 88.96875 C 73.664062 90.296875 74.414062 91.441406 75.636719 91.953125 C 76.050781 92.128906 76.480469 92.210938 76.898438 92.210938 C 77.722656 92.210938 78.523438 91.886719 79.144531 91.265625 L 92.632812 77.777344 C 93.796875 76.613281 94.394531 75.1875 94.414062 73.539062 L 94.570312 57.957031 L 110.617188 41.910156 C 121.804688 30.726562 127.203125 17.4375 125.4375 5.457031 Z M 119.933594 2.871094 C 121.5 3.101562 122.664062 4.265625 122.894531 5.832031 C 123.425781 9.429688 123.246094 12.894531 122.597656 16.164062 L 109.601562 3.167969 C 112.871094 2.519531 116.335938 2.339844 119.933594 2.871094 Z M 49.804688 34.949219 C 50.484375 34.265625 51.289062 33.929688 52.253906 33.917969 L 65.214844 33.789062 L 55.234375 43.769531 L 40.835938 43.914062 Z M 36.769531 49.523438 C 36.492188 49.515625 36.285156 49.386719 36.179688 49.132812 C 36.070312 48.878906 36.121094 48.632812 36.316406 48.4375 L 38.242188 46.507812 L 52.640625 46.363281 L 49.609375 49.394531 Z M 29.300781 97.757812 C 28.917969 97.828125 28.59375 97.726562 28.316406 97.449219 C 28.039062 97.171875 27.9375 96.851562 28.007812 96.464844 C 30.203125 84.066406 34.746094 75.828125 44.589844 66.488281 L 46.652344 68.554688 C 40.9375 74.417969 39.179688 79.640625 38.277344 86.039062 C 38.21875 86.4375 38.355469 86.839844 38.636719 87.125 C 38.882812 87.371094 39.207031 87.503906 39.546875 87.503906 C 39.605469 87.503906 39.664062 87.5 39.726562 87.492188 C 46.125 86.585938 51.347656 84.828125 57.210938 79.113281 L 59.277344 81.175781 C 49.9375 91.019531 41.699219 95.5625 29.300781 97.757812 Z M 48.464844 70.367188 L 55.398438 77.296875 C 50.546875 82.027344 46.300781 83.761719 41.089844 84.675781 C 42.003906 79.464844 43.738281 75.21875 48.464844 70.367188 Z M 63.863281 82.132812 L 43.632812 61.902344 L 50.632812 59.757812 L 66.007812 75.132812 Z M 69.214844 74.710938 L 51.054688 56.550781 C 49.683594 55.179688 49.683594 52.949219 51.054688 51.578125 L 63.226562 39.40625 L 86.359375 62.539062 L 74.1875 74.710938 C 73.527344 75.375 72.644531 75.738281 71.703125 75.738281 C 70.761719 75.738281 69.878906 75.375 69.214844 74.710938 Z M 77.328125 89.449219 C 77.132812 89.644531 76.886719 89.695312 76.632812 89.585938 C 76.378906 89.480469 76.238281 89.269531 76.242188 88.996094 L 76.371094 76.15625 L 79.402344 73.125 L 79.257812 87.523438 Z M 91.847656 73.511719 C 91.835938 74.476562 91.5 75.28125 90.816406 75.960938 L 81.851562 84.929688 L 81.996094 70.53125 L 91.976562 60.550781 Z M 88.171875 60.726562 L 65.039062 37.59375 L 85.671875 16.960938 C 89.207031 13.425781 96.898438 6.71875 106.683594 3.878906 L 121.886719 19.082031 C 119.046875 28.867188 112.339844 36.558594 108.804688 40.09375 Z M 22.382812 87 L 8.949219 100.433594 C 8.699219 100.683594 8.371094 100.808594 8.042969 100.808594 C 7.710938 100.808594 7.382812 100.683594 7.132812 100.433594 C 6.632812 99.933594 6.632812 99.121094 7.132812 98.617188 L 20.566406 85.183594 C 21.070312 84.683594 21.882812 84.683594 22.382812 85.183594 C 22.882812 85.683594 22.882812 86.5 22.382812 87 Z M 5.011719 102.554688 C 5.511719 103.058594 5.511719 103.871094 5.011719 104.371094 L 2.191406 107.191406 C 1.941406 107.441406 1.613281 107.566406 1.285156 107.566406 C 0.953125 107.566406 0.625 107.441406 0.375 107.191406 C -0.125 106.691406 -0.125 105.878906 0.375 105.375 L 3.195312 102.554688 C 3.695312 102.054688 4.507812 102.054688 5.011719 102.554688 Z M 23.210938 120.753906 C 23.710938 121.253906 23.710938 122.070312 23.210938 122.570312 L 20.390625 125.390625 C 20.136719 125.640625 19.808594 125.765625 19.480469 125.765625 C 19.152344 125.765625 18.824219 125.640625 18.574219 125.390625 C 18.074219 124.886719 18.074219 124.074219 18.574219 123.574219 L 21.394531 120.753906 C 21.894531 120.253906 22.707031 120.253906 23.210938 120.753906 Z M 40.582031 103.382812 C 41.082031 103.882812 41.082031 104.695312 40.582031 105.199219 L 27.148438 118.632812 C 26.894531 118.882812 26.566406 119.007812 26.238281 119.007812 C 25.910156 119.007812 25.582031 118.882812 25.332031 118.632812 C 24.832031 118.128906 24.832031 117.316406 25.332031 116.816406 L 38.765625 103.382812 C 39.265625 102.882812 40.078125 102.882812 40.582031 103.382812 Z M 10.265625 80.703125 C 9.761719 80.203125 9.761719 79.390625 10.265625 78.890625 L 13.085938 76.070312 C 13.585938 75.570312 14.398438 75.570312 14.898438 76.070312 C 15.398438 76.570312 15.398438 77.382812 14.898438 77.882812 L 12.078125 80.703125 C 11.828125 80.953125 11.5 81.082031 11.171875 81.082031 C 10.84375 81.082031 10.515625 80.953125 10.265625 80.703125 Z M 17.023438 73.945312 C 16.519531 73.445312 16.519531 72.632812 17.023438 72.132812 L 30.457031 58.699219 C 30.957031 58.195312 31.769531 58.195312 32.269531 58.699219 C 32.773438 59.199219 32.773438 60.011719 32.269531 60.511719 L 18.835938 73.945312 C 18.585938 74.199219 18.257812 74.324219 17.929688 74.324219 C 17.601562 74.324219 17.273438 74.199219 17.023438 73.945312 Z M 67.066406 93.496094 C 67.570312 93.996094 67.570312 94.808594 67.066406 95.308594 L 53.632812 108.742188 C 53.382812 108.996094 53.054688 109.121094 52.726562 109.121094 C 52.398438 109.121094 52.070312 108.996094 51.820312 108.742188 C 51.316406 108.242188 51.316406 107.429688 51.820312 106.929688 L 65.253906 93.496094 C 65.753906 92.992188 66.566406 92.992188 67.066406 93.496094 Z M 49.695312 110.867188 C 50.199219 111.367188 50.199219 112.179688 49.695312 112.679688 L 46.875 115.5 C 46.625 115.753906 46.296875 115.878906 45.96875 115.878906 C 45.640625 115.878906 45.3125 115.753906 45.0625 115.5 C 44.558594 115 44.558594 114.1875 45.0625 113.6875 L 47.882812 110.867188 C 48.382812 110.367188 49.195312 110.367188 49.695312 110.867188 Z M 95.6875 19.804688 C 90.019531 19.804688 85.410156 24.414062 85.410156 30.078125 C 85.410156 35.746094 90.019531 40.355469 95.6875 40.355469 C 101.351562 40.355469 105.960938 35.746094 105.960938 30.078125 C 105.960938 24.414062 101.351562 19.804688 95.6875 19.804688 Z M 95.6875 37.785156 C 91.4375 37.785156 87.980469 34.328125 87.980469 30.078125 C 87.980469 25.828125 91.4375 22.371094 95.6875 22.371094 C 99.9375 22.371094 103.394531 25.828125 103.394531 30.078125 C 103.394531 34.328125 99.9375 37.785156 95.6875 37.785156 Z M 95.6875 37.785156 " fill-opacity="1" fill-rule="nonzero"/><g fill="#1800ad" fill-opacity="1"><g transform="translate(147.067963, 35.775007)"><g><path d="M 10.4375 -14.984375 L 13.640625 -14.984375 L 8.546875 0 L 5.09375 0 L 0 -14.984375 L 3.203125 -14.984375 L 6.03125 -6.078125 C 6.1875 -5.546875 6.347656 -4.925781 6.515625 -4.21875 C 6.679688 -3.519531 6.785156 -3.035156 6.828125 -2.765625 C 6.898438 -3.398438 7.15625 -4.503906 7.59375 -6.078125 Z M 10.4375 -14.984375 "/></g></g></g><g fill="#1800ad" fill-opacity="1"><g transform="translate(160.708301, 35.775007)"><g><path d="M 6.390625 -9.453125 C 5.722656 -9.453125 5.203125 -9.238281 4.828125 -8.8125 C 4.453125 -8.394531 4.238281 -7.800781 4.1875 -7.03125 L 8.578125 -7.03125 C 8.554688 -7.800781 8.351562 -8.394531 7.96875 -8.8125 C 7.582031 -9.238281 7.054688 -9.453125 6.390625 -9.453125 Z M 6.828125 0.203125 C 4.984375 0.203125 3.539062 -0.300781 2.5 -1.3125 C 1.457031 -2.332031 0.9375 -3.78125 0.9375 -5.65625 C 0.9375 -7.570312 1.414062 -9.050781 2.375 -10.09375 C 3.34375 -11.144531 4.675781 -11.671875 6.375 -11.671875 C 7.988281 -11.671875 9.242188 -11.207031 10.140625 -10.28125 C 11.046875 -9.363281 11.5 -8.09375 11.5 -6.46875 L 11.5 -4.953125 L 4.109375 -4.953125 C 4.140625 -4.066406 4.398438 -3.375 4.890625 -2.875 C 5.390625 -2.375 6.082031 -2.125 6.96875 -2.125 C 7.664062 -2.125 8.320312 -2.191406 8.9375 -2.328125 C 9.550781 -2.472656 10.191406 -2.707031 10.859375 -3.03125 L 10.859375 -0.609375 C 10.304688 -0.328125 9.71875 -0.125 9.09375 0 C 8.476562 0.132812 7.722656 0.203125 6.828125 0.203125 Z M 6.828125 0.203125 "/></g></g></g><g fill="#1800ad" fill-opacity="1"><g transform="translate(173.108603, 35.775007)"><g><path d="M 4.765625 0 L 1.640625 0 L 1.640625 -15.953125 L 4.765625 -15.953125 Z M 4.765625 0 "/></g></g></g><g fill="#1800ad" fill-opacity="1"><g transform="translate(179.513724, 35.775007)"><g><path d="M 4.125 -5.75 C 4.125 -4.613281 4.3125 -3.753906 4.6875 -3.171875 C 5.0625 -2.597656 5.671875 -2.3125 6.515625 -2.3125 C 7.347656 -2.3125 7.945312 -2.597656 8.3125 -3.171875 C 8.675781 -3.753906 8.859375 -4.613281 8.859375 -5.75 C 8.859375 -6.882812 8.671875 -7.734375 8.296875 -8.296875 C 7.929688 -8.867188 7.328125 -9.15625 6.484375 -9.15625 C 5.648438 -9.15625 5.046875 -8.875 4.671875 -8.3125 C 4.304688 -7.75 4.125 -6.894531 4.125 -5.75 Z M 12.0625 -5.75 C 12.0625 -3.882812 11.566406 -2.425781 10.578125 -1.375 C 9.597656 -0.320312 8.226562 0.203125 6.46875 0.203125 C 5.363281 0.203125 4.390625 -0.0351562 3.546875 -0.515625 C 2.710938 -0.992188 2.066406 -1.6875 1.609375 -2.59375 C 1.160156 -3.5 0.9375 -4.550781 0.9375 -5.75 C 0.9375 -7.625 1.425781 -9.078125 2.40625 -10.109375 C 3.382812 -11.148438 4.757812 -11.671875 6.53125 -11.671875 C 7.632812 -11.671875 8.601562 -11.429688 9.4375 -10.953125 C 10.28125 -10.484375 10.925781 -9.800781 11.375 -8.90625 C 11.832031 -8.007812 12.0625 -6.957031 12.0625 -5.75 Z M 12.0625 -5.75 "/></g></g></g><g fill="#1800ad" fill-opacity="1"><g transform="translate(192.50842, 35.775007)"><g><path d="M 6.296875 0.203125 C 2.722656 0.203125 0.9375 -1.753906 0.9375 -5.671875 C 0.9375 -7.617188 1.421875 -9.101562 2.390625 -10.125 C 3.367188 -11.15625 4.765625 -11.671875 6.578125 -11.671875 C 7.898438 -11.671875 9.085938 -11.414062 10.140625 -10.90625 L 9.21875 -8.484375 C 8.726562 -8.679688 8.269531 -8.84375 7.84375 -8.96875 C 7.414062 -9.09375 6.992188 -9.15625 6.578125 -9.15625 C 4.941406 -9.15625 4.125 -8 4.125 -5.6875 C 4.125 -3.445312 4.941406 -2.328125 6.578125 -2.328125 C 7.171875 -2.328125 7.722656 -2.40625 8.234375 -2.5625 C 8.753906 -2.726562 9.269531 -2.984375 9.78125 -3.328125 L 9.78125 -0.640625 C 9.28125 -0.328125 8.769531 -0.109375 8.25 0.015625 C 7.726562 0.140625 7.078125 0.203125 6.296875 0.203125 Z M 6.296875 0.203125 "/></g></g></g><g fill="#1800ad" fill-opacity="1"><g transform="translate(203.299763, 35.775007)"><g><path d="M 1.5 -14.421875 C 1.5 -15.441406 2.066406 -15.953125 3.203125 -15.953125 C 4.335938 -15.953125 4.90625 -15.441406 4.90625 -14.421875 C 4.90625 -13.941406 4.765625 -13.566406 4.484375 -13.296875 C 4.203125 -13.023438 3.773438 -12.890625 3.203125 -12.890625 C 2.066406 -12.890625 1.5 -13.398438 1.5 -14.421875 Z M 4.765625 0 L 1.640625 0 L 1.640625 -11.46875 L 4.765625 -11.46875 Z M 4.765625 0 "/></g></g></g><g fill="#1800ad" fill-opacity="1"><g transform="translate(209.704884, 35.775007)"><g><path d="M 5.265625 0.203125 C 3.921875 0.203125 2.863281 -0.316406 2.09375 -1.359375 C 1.320312 -2.410156 0.9375 -3.863281 0.9375 -5.71875 C 0.9375 -7.59375 1.328125 -9.050781 2.109375 -10.09375 C 2.898438 -11.144531 3.984375 -11.671875 5.359375 -11.671875 C 6.796875 -11.671875 7.894531 -11.113281 8.65625 -10 L 8.75 -10 C 8.59375 -10.851562 8.515625 -11.613281 8.515625 -12.28125 L 8.515625 -15.953125 L 11.65625 -15.953125 L 11.65625 0 L 9.265625 0 L 8.65625 -1.484375 L 8.515625 -1.484375 C 7.804688 -0.359375 6.722656 0.203125 5.265625 0.203125 Z M 6.375 -2.28125 C 7.164062 -2.28125 7.75 -2.515625 8.125 -2.984375 C 8.5 -3.453125 8.703125 -4.242188 8.734375 -5.359375 L 8.734375 -5.6875 C 8.734375 -6.914062 8.539062 -7.796875 8.15625 -8.328125 C 7.78125 -8.867188 7.164062 -9.140625 6.3125 -9.140625 C 5.613281 -9.140625 5.070312 -8.84375 4.6875 -8.25 C 4.300781 -7.65625 4.109375 -6.796875 4.109375 -5.671875 C 4.109375 -4.546875 4.300781 -3.695312 4.6875 -3.125 C 5.082031 -2.5625 5.644531 -2.28125 6.375 -2.28125 Z M 6.375 -2.28125 "/></g></g></g><g fill="#1800ad" fill-opacity="1"><g transform="translate(222.98653, 35.775007)"><g><path d="M 8.921875 0 L 8.3125 -1.5625 L 8.234375 -1.5625 C 7.703125 -0.894531 7.15625 -0.429688 6.59375 -0.171875 C 6.039062 0.078125 5.320312 0.203125 4.4375 0.203125 C 3.332031 0.203125 2.460938 -0.109375 1.828125 -0.734375 C 1.191406 -1.367188 0.875 -2.265625 0.875 -3.421875 C 0.875 -4.640625 1.300781 -5.535156 2.15625 -6.109375 C 3.007812 -6.691406 4.296875 -7.015625 6.015625 -7.078125 L 8 -7.140625 L 8 -7.640625 C 8 -8.796875 7.40625 -9.375 6.21875 -9.375 C 5.300781 -9.375 4.222656 -9.097656 2.984375 -8.546875 L 1.953125 -10.671875 C 3.265625 -11.359375 4.726562 -11.703125 6.34375 -11.703125 C 7.875 -11.703125 9.050781 -11.363281 9.875 -10.6875 C 10.695312 -10.019531 11.109375 -9.003906 11.109375 -7.640625 L 11.109375 0 Z M 8 -5.3125 L 6.78125 -5.265625 C 5.875 -5.242188 5.195312 -5.082031 4.75 -4.78125 C 4.3125 -4.476562 4.09375 -4.019531 4.09375 -3.40625 C 4.09375 -2.519531 4.597656 -2.078125 5.609375 -2.078125 C 6.335938 -2.078125 6.914062 -2.285156 7.34375 -2.703125 C 7.78125 -3.117188 8 -3.675781 8 -4.375 Z M 8 -5.3125 "/></g></g></g><g fill="#1800ad" fill-opacity="1"><g transform="translate(235.663538, 35.775007)"><g><path d="M 5.265625 0.203125 C 3.921875 0.203125 2.863281 -0.316406 2.09375 -1.359375 C 1.320312 -2.410156 0.9375 -3.863281 0.9375 -5.71875 C 0.9375 -7.59375 1.328125 -9.050781 2.109375 -10.09375 C 2.898438 -11.144531 3.984375 -11.671875 5.359375 -11.671875 C 6.796875 -11.671875 7.894531 -11.113281 8.65625 -10 L 8.75 -10 C 8.59375 -10.851562 8.515625 -11.613281 8.515625 -12.28125 L 8.515625 -15.953125 L 11.65625 -15.953125 L 11.65625 0 L 9.265625 0 L 8.65625 -1.484375 L 8.515625 -1.484375 C 7.804688 -0.359375 6.722656 0.203125 5.265625 0.203125 Z M 6.375 -2.28125 C 7.164062 -2.28125 7.75 -2.515625 8.125 -2.984375 C 8.5 -3.453125 8.703125 -4.242188 8.734375 -5.359375 L 8.734375 -5.6875 C 8.734375 -6.914062 8.539062 -7.796875 8.15625 -8.328125 C 7.78125 -8.867188 7.164062 -9.140625 6.3125 -9.140625 C 5.613281 -9.140625 5.070312 -8.84375 4.6875 -8.25 C 4.300781 -7.65625 4.109375 -6.796875 4.109375 -5.671875 C 4.109375 -4.546875 4.300781 -3.695312 4.6875 -3.125 C 5.082031 -2.5625 5.644531 -2.28125 6.375 -2.28125 Z M 6.375 -2.28125 "/></g></g></g><g fill="#1800ad" fill-opacity="1"><g transform="translate(248.945184, 35.775007)"><g><path d="M 6.390625 -9.453125 C 5.722656 -9.453125 5.203125 -9.238281 4.828125 -8.8125 C 4.453125 -8.394531 4.238281 -7.800781 4.1875 -7.03125 L 8.578125 -7.03125 C 8.554688 -7.800781 8.351562 -8.394531 7.96875 -8.8125 C 7.582031 -9.238281 7.054688 -9.453125 6.390625 -9.453125 Z M 6.828125 0.203125 C 4.984375 0.203125 3.539062 -0.300781 2.5 -1.3125 C 1.457031 -2.332031 0.9375 -3.78125 0.9375 -5.65625 C 0.9375 -7.570312 1.414062 -9.050781 2.375 -10.09375 C 3.34375 -11.144531 4.675781 -11.671875 6.375 -11.671875 C 7.988281 -11.671875 9.242188 -11.207031 10.140625 -10.28125 C 11.046875 -9.363281 11.5 -8.09375 11.5 -6.46875 L 11.5 -4.953125 L 4.109375 -4.953125 C 4.140625 -4.066406 4.398438 -3.375 4.890625 -2.875 C 5.390625 -2.375 6.082031 -2.125 6.96875 -2.125 C 7.664062 -2.125 8.320312 -2.191406 8.9375 -2.328125 C 9.550781 -2.472656 10.191406 -2.707031 10.859375 -3.03125 L 10.859375 -0.609375 C 10.304688 -0.328125 9.71875 -0.125 9.09375 0 C 8.476562 0.132812 7.722656 0.203125 6.828125 0.203125 Z M 6.828125 0.203125 "/></g></g></g><g fill="#1800ad" fill-opacity="1"><g transform="translate(261.345486, 35.775007)"><g/></g></g><g fill="#1800ad" fill-opacity="1"><g transform="translate(266.79752, 35.775007)"><g><path d="M 5.265625 0.203125 C 3.921875 0.203125 2.863281 -0.316406 2.09375 -1.359375 C 1.320312 -2.410156 0.9375 -3.863281 0.9375 -5.71875 C 0.9375 -7.59375 1.328125 -9.050781 2.109375 -10.09375 C 2.898438 -11.144531 3.984375 -11.671875 5.359375 -11.671875 C 6.796875 -11.671875 7.894531 -11.113281 8.65625 -10 L 8.75 -10 C 8.59375 -10.851562 8.515625 -11.613281 8.515625 -12.28125 L 8.515625 -15.953125 L 11.65625 -15.953125 L 11.65625 0 L 9.265625 0 L 8.65625 -1.484375 L 8.515625 -1.484375 C 7.804688 -0.359375 6.722656 0.203125 5.265625 0.203125 Z M 6.375 -2.28125 C 7.164062 -2.28125 7.75 -2.515625 8.125 -2.984375 C 8.5 -3.453125 8.703125 -4.242188 8.734375 -5.359375 L 8.734375 -5.6875 C 8.734375 -6.914062 8.539062 -7.796875 8.15625 -8.328125 C 7.78125 -8.867188 7.164062 -9.140625 6.3125 -9.140625 C 5.613281 -9.140625 5.070312 -8.84375 4.6875 -8.25 C 4.300781 -7.65625 4.109375 -6.796875 4.109375 -5.671875 C 4.109375 -4.546875 4.300781 -3.695312 4.6875 -3.125 C 5.082031 -2.5625 5.644531 -2.28125 6.375 -2.28125 Z M 6.375 -2.28125 "/></g></g></g><g fill="#1800ad" fill-opacity="1"><g transform="translate(280.079166, 35.775007)"><g><path d="M 6.390625 -9.453125 C 5.722656 -9.453125 5.203125 -9.238281 4.828125 -8.8125 C 4.453125 -8.394531 4.238281 -7.800781 4.1875 -7.03125 L 8.578125 -7.03125 C 8.554688 -7.800781 8.351562 -8.394531 7.96875 -8.8125 C 7.582031 -9.238281 7.054688 -9.453125 6.390625 -9.453125 Z M 6.828125 0.203125 C 4.984375 0.203125 3.539062 -0.300781 2.5 -1.3125 C 1.457031 -2.332031 0.9375 -3.78125 0.9375 -5.65625 C 0.9375 -7.570312 1.414062 -9.050781 2.375 -10.09375 C 3.34375 -11.144531 4.675781 -11.671875 6.375 -11.671875 C 7.988281 -11.671875 9.242188 -11.207031 10.140625 -10.28125 C 11.046875 -9.363281 11.5 -8.09375 11.5 -6.46875 L 11.5 -4.953125 L 4.109375 -4.953125 C 4.140625 -4.066406 4.398438 -3.375 4.890625 -2.875 C 5.390625 -2.375 6.082031 -2.125 6.96875 -2.125 C 7.664062 -2.125 8.320312 -2.191406 8.9375 -2.328125 C 9.550781 -2.472656 10.191406 -2.707031 10.859375 -3.03125 L 10.859375 -0.609375 C 10.304688 -0.328125 9.71875 -0.125 9.09375 0 C 8.476562 0.132812 7.722656 0.203125 6.828125 0.203125 Z M 6.828125 0.203125 "/></g></g></g><g fill="#1800ad" fill-opacity="1"><g transform="translate(292.479468, 35.775007)"><g/></g></g><g fill="#1800ad" fill-opacity="1"><g transform="translate(297.931501, 35.775007)"><g><path d="M 9.640625 -3.40625 C 9.640625 -2.226562 9.226562 -1.332031 8.40625 -0.71875 C 7.59375 -0.101562 6.375 0.203125 4.75 0.203125 C 3.914062 0.203125 3.203125 0.144531 2.609375 0.03125 C 2.023438 -0.0820312 1.476562 -0.25 0.96875 -0.46875 L 0.96875 -3.046875 C 1.539062 -2.773438 2.191406 -2.546875 2.921875 -2.359375 C 3.648438 -2.171875 4.289062 -2.078125 4.84375 -2.078125 C 5.976562 -2.078125 6.546875 -2.40625 6.546875 -3.0625 C 6.546875 -3.3125 6.46875 -3.507812 6.3125 -3.65625 C 6.164062 -3.8125 5.910156 -3.988281 5.546875 -4.1875 C 5.179688 -4.382812 4.691406 -4.613281 4.078125 -4.875 C 3.191406 -5.238281 2.539062 -5.578125 2.125 -5.890625 C 1.707031 -6.210938 1.40625 -6.578125 1.21875 -6.984375 C 1.03125 -7.390625 0.9375 -7.890625 0.9375 -8.484375 C 0.9375 -9.503906 1.332031 -10.289062 2.125 -10.84375 C 2.914062 -11.394531 4.035156 -11.671875 5.484375 -11.671875 C 6.867188 -11.671875 8.210938 -11.375 9.515625 -10.78125 L 8.578125 -8.515625 C 8.003906 -8.765625 7.46875 -8.96875 6.96875 -9.125 C 6.46875 -9.28125 5.957031 -9.359375 5.4375 -9.359375 C 4.507812 -9.359375 4.046875 -9.109375 4.046875 -8.609375 C 4.046875 -8.328125 4.191406 -8.082031 4.484375 -7.875 C 4.785156 -7.675781 5.441406 -7.375 6.453125 -6.96875 C 7.347656 -6.601562 8.003906 -6.265625 8.421875 -5.953125 C 8.835938 -5.640625 9.144531 -5.273438 9.34375 -4.859375 C 9.539062 -4.453125 9.640625 -3.96875 9.640625 -3.40625 Z M 9.640625 -3.40625 "/></g></g></g><g fill="#1800ad" fill-opacity="1"><g transform="translate(308.364152, 35.775007)"><g><path d="M 4.125 -5.75 C 4.125 -4.613281 4.3125 -3.753906 4.6875 -3.171875 C 5.0625 -2.597656 5.671875 -2.3125 6.515625 -2.3125 C 7.347656 -2.3125 7.945312 -2.597656 8.3125 -3.171875 C 8.675781 -3.753906 8.859375 -4.613281 8.859375 -5.75 C 8.859375 -6.882812 8.671875 -7.734375 8.296875 -8.296875 C 7.929688 -8.867188 7.328125 -9.15625 6.484375 -9.15625 C 5.648438 -9.15625 5.046875 -8.875 4.671875 -8.3125 C 4.304688 -7.75 4.125 -6.894531 4.125 -5.75 Z M 12.0625 -5.75 C 12.0625 -3.882812 11.566406 -2.425781 10.578125 -1.375 C 9.597656 -0.320312 8.226562 0.203125 6.46875 0.203125 C 5.363281 0.203125 4.390625 -0.0351562 3.546875 -0.515625 C 2.710938 -0.992188 2.066406 -1.6875 1.609375 -2.59375 C 1.160156 -3.5 0.9375 -4.550781 0.9375 -5.75 C 0.9375 -7.625 1.425781 -9.078125 2.40625 -10.109375 C 3.382812 -11.148438 4.757812 -11.671875 6.53125 -11.671875 C 7.632812 -11.671875 8.601562 -11.429688 9.4375 -10.953125 C 10.28125 -10.484375 10.925781 -9.800781 11.375 -8.90625 C 11.832031 -8.007812 12.0625 -6.957031 12.0625 -5.75 Z M 12.0625 -5.75 "/></g></g></g><g fill="#1800ad" fill-opacity="1"><g transform="translate(321.358849, 35.775007)"><g><path d="M 8.015625 -11.671875 C 9.367188 -11.671875 10.425781 -11.144531 11.1875 -10.09375 C 11.957031 -9.039062 12.34375 -7.59375 12.34375 -5.75 C 12.34375 -3.851562 11.945312 -2.382812 11.15625 -1.34375 C 10.375 -0.3125 9.300781 0.203125 7.9375 0.203125 C 6.59375 0.203125 5.535156 -0.285156 4.765625 -1.265625 L 4.546875 -1.265625 L 4.03125 0 L 1.640625 0 L 1.640625 -15.953125 L 4.765625 -15.953125 L 4.765625 -12.25 C 4.765625 -11.769531 4.722656 -11.015625 4.640625 -9.984375 L 4.765625 -9.984375 C 5.492188 -11.109375 6.578125 -11.671875 8.015625 -11.671875 Z M 7.015625 -9.171875 C 6.242188 -9.171875 5.675781 -8.929688 5.3125 -8.453125 C 4.957031 -7.984375 4.773438 -7.203125 4.765625 -6.109375 L 4.765625 -5.765625 C 4.765625 -4.535156 4.945312 -3.65625 5.3125 -3.125 C 5.675781 -2.59375 6.257812 -2.328125 7.0625 -2.328125 C 7.695312 -2.328125 8.203125 -2.625 8.578125 -3.21875 C 8.960938 -3.8125 9.15625 -4.671875 9.15625 -5.796875 C 9.15625 -6.921875 8.960938 -7.765625 8.578125 -8.328125 C 8.203125 -8.890625 7.679688 -9.171875 7.015625 -9.171875 Z M 7.015625 -9.171875 "/></g></g></g><g fill="#1800ad" fill-opacity="1"><g transform="translate(334.640495, 35.775007)"><g><path d="M 8.046875 -11.671875 C 8.460938 -11.671875 8.8125 -11.644531 9.09375 -11.59375 L 8.859375 -8.65625 C 8.609375 -8.71875 8.300781 -8.75 7.9375 -8.75 C 6.9375 -8.75 6.15625 -8.492188 5.59375 -7.984375 C 5.039062 -7.472656 4.765625 -6.753906 4.765625 -5.828125 L 4.765625 0 L 1.640625 0 L 1.640625 -11.46875 L 4.015625 -11.46875 L 4.46875 -9.53125 L 4.625 -9.53125 C 4.976562 -10.175781 5.457031 -10.691406 6.0625 -11.078125 C 6.664062 -11.472656 7.328125 -11.671875 8.046875 -11.671875 Z M 8.046875 -11.671875 "/></g></g></g><g fill="#1800ad" fill-opacity="1"><g transform="translate(344.171305, 35.775007)"><g><path d="M 8.921875 0 L 8.3125 -1.5625 L 8.234375 -1.5625 C 7.703125 -0.894531 7.15625 -0.429688 6.59375 -0.171875 C 6.039062 0.078125 5.320312 0.203125 4.4375 0.203125 C 3.332031 0.203125 2.460938 -0.109375 1.828125 -0.734375 C 1.191406 -1.367188 0.875 -2.265625 0.875 -3.421875 C 0.875 -4.640625 1.300781 -5.535156 2.15625 -6.109375 C 3.007812 -6.691406 4.296875 -7.015625 6.015625 -7.078125 L 8 -7.140625 L 8 -7.640625 C 8 -8.796875 7.40625 -9.375 6.21875 -9.375 C 5.300781 -9.375 4.222656 -9.097656 2.984375 -8.546875 L 1.953125 -10.671875 C 3.265625 -11.359375 4.726562 -11.703125 6.34375 -11.703125 C 7.875 -11.703125 9.050781 -11.363281 9.875 -10.6875 C 10.695312 -10.019531 11.109375 -9.003906 11.109375 -7.640625 L 11.109375 0 Z M 8 -5.3125 L 6.78125 -5.265625 C 5.875 -5.242188 5.195312 -5.082031 4.75 -4.78125 C 4.3125 -4.476562 4.09375 -4.019531 4.09375 -3.40625 C 4.09375 -2.519531 4.597656 -2.078125 5.609375 -2.078125 C 6.335938 -2.078125 6.914062 -2.285156 7.34375 -2.703125 C 7.78125 -3.117188 8 -3.675781 8 -4.375 Z M 8 -5.3125 "/></g></g></g><g fill="#1800ad" fill-opacity="1"><g transform="translate(356.857017, 35.775007)"><g/></g></g><g fill="#1800ad" fill-opacity="1"><g transform="translate(132.232026, 65.025006)"><g><path d="M 6.296875 0.203125 C 2.722656 0.203125 0.9375 -1.753906 0.9375 -5.671875 C 0.9375 -7.617188 1.421875 -9.101562 2.390625 -10.125 C 3.367188 -11.15625 4.765625 -11.671875 6.578125 -11.671875 C 7.898438 -11.671875 9.085938 -11.414062 10.140625 -10.90625 L 9.21875 -8.484375 C 8.726562 -8.679688 8.269531 -8.84375 7.84375 -8.96875 C 7.414062 -9.09375 6.992188 -9.15625 6.578125 -9.15625 C 4.941406 -9.15625 4.125 -8 4.125 -5.6875 C 4.125 -3.445312 4.941406 -2.328125 6.578125 -2.328125 C 7.171875 -2.328125 7.722656 -2.40625 8.234375 -2.5625 C 8.753906 -2.726562 9.269531 -2.984375 9.78125 -3.328125 L 9.78125 -0.640625 C 9.28125 -0.328125 8.769531 -0.109375 8.25 0.015625 C 7.726562 0.140625 7.078125 0.203125 6.296875 0.203125 Z M 6.296875 0.203125 "/></g></g></g><g fill="#1800ad" fill-opacity="1"><g transform="translate(143.023369, 65.025006)"><g><path d="M 4.125 -5.75 C 4.125 -4.613281 4.3125 -3.753906 4.6875 -3.171875 C 5.0625 -2.597656 5.671875 -2.3125 6.515625 -2.3125 C 7.347656 -2.3125 7.945312 -2.597656 8.3125 -3.171875 C 8.675781 -3.753906 8.859375 -4.613281 8.859375 -5.75 C 8.859375 -6.882812 8.671875 -7.734375 8.296875 -8.296875 C 7.929688 -8.867188 7.328125 -9.15625 6.484375 -9.15625 C 5.648438 -9.15625 5.046875 -8.875 4.671875 -8.3125 C 4.304688 -7.75 4.125 -6.894531 4.125 -5.75 Z M 12.0625 -5.75 C 12.0625 -3.882812 11.566406 -2.425781 10.578125 -1.375 C 9.597656 -0.320312 8.226562 0.203125 6.46875 0.203125 C 5.363281 0.203125 4.390625 -0.0351562 3.546875 -0.515625 C 2.710938 -0.992188 2.066406 -1.6875 1.609375 -2.59375 C 1.160156 -3.5 0.9375 -4.550781 0.9375 -5.75 C 0.9375 -7.625 1.425781 -9.078125 2.40625 -10.109375 C 3.382812 -11.148438 4.757812 -11.671875 6.53125 -11.671875 C 7.632812 -11.671875 8.601562 -11.429688 9.4375 -10.953125 C 10.28125 -10.484375 10.925781 -9.800781 11.375 -8.90625 C 11.832031 -8.007812 12.0625 -6.957031 12.0625 -5.75 Z M 12.0625 -5.75 "/></g></g></g><g fill="#1800ad" fill-opacity="1"><g transform="translate(156.018066, 65.025006)"><g><path d="M 11.90625 0 L 8.78125 0 L 8.78125 -6.703125 C 8.78125 -7.523438 8.640625 -8.140625 8.359375 -8.546875 C 8.085938 -8.960938 7.65625 -9.171875 7.0625 -9.171875 C 6.257812 -9.171875 5.675781 -8.875 5.3125 -8.28125 C 4.945312 -7.695312 4.765625 -6.734375 4.765625 -5.390625 L 4.765625 0 L 1.640625 0 L 1.640625 -11.46875 L 4.03125 -11.46875 L 4.453125 -10 L 4.625 -10 C 4.9375 -10.519531 5.378906 -10.925781 5.953125 -11.21875 C 6.535156 -11.519531 7.203125 -11.671875 7.953125 -11.671875 C 9.671875 -11.671875 10.832031 -11.113281 11.4375 -10 L 11.71875 -10 C 12.03125 -10.53125 12.484375 -10.941406 13.078125 -11.234375 C 13.671875 -11.523438 14.347656 -11.671875 15.109375 -11.671875 C 16.398438 -11.671875 17.378906 -11.335938 18.046875 -10.671875 C 18.710938 -10.015625 19.046875 -8.945312 19.046875 -7.46875 L 19.046875 0 L 15.921875 0 L 15.921875 -6.703125 C 15.921875 -7.523438 15.78125 -8.140625 15.5 -8.546875 C 15.21875 -8.960938 14.78125 -9.171875 14.1875 -9.171875 C 13.425781 -9.171875 12.851562 -8.894531 12.46875 -8.34375 C 12.09375 -7.800781 11.90625 -6.9375 11.90625 -5.75 Z M 11.90625 0 "/></g></g></g><g fill="#1800ad" fill-opacity="1"><g transform="translate(176.627169, 65.025006)"><g/></g></g><g fill="#1800ad" fill-opacity="1"><g transform="translate(182.079203, 65.025006)"><g><path d="M 8.015625 -11.671875 C 9.367188 -11.671875 10.425781 -11.144531 11.1875 -10.09375 C 11.957031 -9.039062 12.34375 -7.59375 12.34375 -5.75 C 12.34375 -3.851562 11.945312 -2.382812 11.15625 -1.34375 C 10.375 -0.3125 9.300781 0.203125 7.9375 0.203125 C 6.59375 0.203125 5.535156 -0.285156 4.765625 -1.265625 L 4.546875 -1.265625 L 4.03125 0 L 1.640625 0 L 1.640625 -15.953125 L 4.765625 -15.953125 L 4.765625 -12.25 C 4.765625 -11.769531 4.722656 -11.015625 4.640625 -9.984375 L 4.765625 -9.984375 C 5.492188 -11.109375 6.578125 -11.671875 8.015625 -11.671875 Z M 7.015625 -9.171875 C 6.242188 -9.171875 5.675781 -8.929688 5.3125 -8.453125 C 4.957031 -7.984375 4.773438 -7.203125 4.765625 -6.109375 L 4.765625 -5.765625 C 4.765625 -4.535156 4.945312 -3.65625 5.3125 -3.125 C 5.675781 -2.59375 6.257812 -2.328125 7.0625 -2.328125 C 7.695312 -2.328125 8.203125 -2.625 8.578125 -3.21875 C 8.960938 -3.8125 9.15625 -4.671875 9.15625 -5.796875 C 9.15625 -6.921875 8.960938 -7.765625 8.578125 -8.328125 C 8.203125 -8.890625 7.679688 -9.171875 7.015625 -9.171875 Z M 7.015625 -9.171875 "/></g></g></g><g fill="#1800ad" fill-opacity="1"><g transform="translate(195.360848, 65.025006)"><g><path d="M 8.921875 0 L 8.3125 -1.5625 L 8.234375 -1.5625 C 7.703125 -0.894531 7.15625 -0.429688 6.59375 -0.171875 C 6.039062 0.078125 5.320312 0.203125 4.4375 0.203125 C 3.332031 0.203125 2.460938 -0.109375 1.828125 -0.734375 C 1.191406 -1.367188 0.875 -2.265625 0.875 -3.421875 C 0.875 -4.640625 1.300781 -5.535156 2.15625 -6.109375 C 3.007812 -6.691406 4.296875 -7.015625 6.015625 -7.078125 L 8 -7.140625 L 8 -7.640625 C 8 -8.796875 7.40625 -9.375 6.21875 -9.375 C 5.300781 -9.375 4.222656 -9.097656 2.984375 -8.546875 L 1.953125 -10.671875 C 3.265625 -11.359375 4.726562 -11.703125 6.34375 -11.703125 C 7.875 -11.703125 9.050781 -11.363281 9.875 -10.6875 C 10.695312 -10.019531 11.109375 -9.003906 11.109375 -7.640625 L 11.109375 0 Z M 8 -5.3125 L 6.78125 -5.265625 C 5.875 -5.242188 5.195312 -5.082031 4.75 -4.78125 C 4.3125 -4.476562 4.09375 -4.019531 4.09375 -3.40625 C 4.09375 -2.519531 4.597656 -2.078125 5.609375 -2.078125 C 6.335938 -2.078125 6.914062 -2.285156 7.34375 -2.703125 C 7.78125 -3.117188 8 -3.675781 8 -4.375 Z M 8 -5.3125 "/></g></g></g><g fill="#1800ad" fill-opacity="1"><g transform="translate(208.037857, 65.025006)"><g><path d="M 12.21875 0 L 9.09375 0 L 9.09375 -6.703125 C 9.09375 -7.523438 8.945312 -8.140625 8.65625 -8.546875 C 8.363281 -8.960938 7.894531 -9.171875 7.25 -9.171875 C 6.375 -9.171875 5.738281 -8.878906 5.34375 -8.296875 C 4.957031 -7.710938 4.765625 -6.742188 4.765625 -5.390625 L 4.765625 0 L 1.640625 0 L 1.640625 -11.46875 L 4.03125 -11.46875 L 4.453125 -10 L 4.625 -10 C 4.96875 -10.550781 5.445312 -10.96875 6.0625 -11.25 C 6.675781 -11.53125 7.375 -11.671875 8.15625 -11.671875 C 9.488281 -11.671875 10.5 -11.3125 11.1875 -10.59375 C 11.875 -9.875 12.21875 -8.832031 12.21875 -7.46875 Z M 12.21875 0 "/></g></g></g><g fill="#1800ad" fill-opacity="1"><g transform="translate(221.831912, 65.025006)"><g><path d="M 5.265625 0.203125 C 3.921875 0.203125 2.863281 -0.316406 2.09375 -1.359375 C 1.320312 -2.410156 0.9375 -3.863281 0.9375 -5.71875 C 0.9375 -7.59375 1.328125 -9.050781 2.109375 -10.09375 C 2.898438 -11.144531 3.984375 -11.671875 5.359375 -11.671875 C 6.796875 -11.671875 7.894531 -11.113281 8.65625 -10 L 8.75 -10 C 8.59375 -10.851562 8.515625 -11.613281 8.515625 -12.28125 L 8.515625 -15.953125 L 11.65625 -15.953125 L 11.65625 0 L 9.265625 0 L 8.65625 -1.484375 L 8.515625 -1.484375 C 7.804688 -0.359375 6.722656 0.203125 5.265625 0.203125 Z M 6.375 -2.28125 C 7.164062 -2.28125 7.75 -2.515625 8.125 -2.984375 C 8.5 -3.453125 8.703125 -4.242188 8.734375 -5.359375 L 8.734375 -5.6875 C 8.734375 -6.914062 8.539062 -7.796875 8.15625 -8.328125 C 7.78125 -8.867188 7.164062 -9.140625 6.3125 -9.140625 C 5.613281 -9.140625 5.070312 -8.84375 4.6875 -8.25 C 4.300781 -7.65625 4.109375 -6.796875 4.109375 -5.671875 C 4.109375 -4.546875 4.300781 -3.695312 4.6875 -3.125 C 5.082031 -2.5625 5.644531 -2.28125 6.375 -2.28125 Z M 6.375 -2.28125 "/></g></g></g><g fill="#1800ad" fill-opacity="1"><g transform="translate(235.113558, 65.025006)"><g><path d="M 8.921875 0 L 8.3125 -1.5625 L 8.234375 -1.5625 C 7.703125 -0.894531 7.15625 -0.429688 6.59375 -0.171875 C 6.039062 0.078125 5.320312 0.203125 4.4375 0.203125 C 3.332031 0.203125 2.460938 -0.109375 1.828125 -0.734375 C 1.191406 -1.367188 0.875 -2.265625 0.875 -3.421875 C 0.875 -4.640625 1.300781 -5.535156 2.15625 -6.109375 C 3.007812 -6.691406 4.296875 -7.015625 6.015625 -7.078125 L 8 -7.140625 L 8 -7.640625 C 8 -8.796875 7.40625 -9.375 6.21875 -9.375 C 5.300781 -9.375 4.222656 -9.097656 2.984375 -8.546875 L 1.953125 -10.671875 C 3.265625 -11.359375 4.726562 -11.703125 6.34375 -11.703125 C 7.875 -11.703125 9.050781 -11.363281 9.875 -10.6875 C 10.695312 -10.019531 11.109375 -9.003906 11.109375 -7.640625 L 11.109375 0 Z M 8 -5.3125 L 6.78125 -5.265625 C 5.875 -5.242188 5.195312 -5.082031 4.75 -4.78125 C 4.3125 -4.476562 4.09375 -4.019531 4.09375 -3.40625 C 4.09375 -2.519531 4.597656 -2.078125 5.609375 -2.078125 C 6.335938 -2.078125 6.914062 -2.285156 7.34375 -2.703125 C 7.78125 -3.117188 8 -3.675781 8 -4.375 Z M 8 -5.3125 "/></g></g></g><g fill="#1800ad" fill-opacity="1"><g transform="translate(247.790567, 65.025006)"><g/></g></g><g fill="#1800ad" fill-opacity="1"><g transform="translate(253.2426, 65.025006)"><g><path d="M 4.765625 0 L 1.640625 0 L 1.640625 -15.953125 L 4.765625 -15.953125 Z M 4.765625 0 "/></g></g></g><g fill="#1800ad" fill-opacity="1"><g transform="translate(259.647721, 65.025006)"><g><path d="M 8.921875 0 L 8.3125 -1.5625 L 8.234375 -1.5625 C 7.703125 -0.894531 7.15625 -0.429688 6.59375 -0.171875 C 6.039062 0.078125 5.320312 0.203125 4.4375 0.203125 C 3.332031 0.203125 2.460938 -0.109375 1.828125 -0.734375 C 1.191406 -1.367188 0.875 -2.265625 0.875 -3.421875 C 0.875 -4.640625 1.300781 -5.535156 2.15625 -6.109375 C 3.007812 -6.691406 4.296875 -7.015625 6.015625 -7.078125 L 8 -7.140625 L 8 -7.640625 C 8 -8.796875 7.40625 -9.375 6.21875 -9.375 C 5.300781 -9.375 4.222656 -9.097656 2.984375 -8.546875 L 1.953125 -10.671875 C 3.265625 -11.359375 4.726562 -11.703125 6.34375 -11.703125 C 7.875 -11.703125 9.050781 -11.363281 9.875 -10.6875 C 10.695312 -10.019531 11.109375 -9.003906 11.109375 -7.640625 L 11.109375 0 Z M 8 -5.3125 L 6.78125 -5.265625 C 5.875 -5.242188 5.195312 -5.082031 4.75 -4.78125 C 4.3125 -4.476562 4.09375 -4.019531 4.09375 -3.40625 C 4.09375 -2.519531 4.597656 -2.078125 5.609375 -2.078125 C 6.335938 -2.078125 6.914062 -2.285156 7.34375 -2.703125 C 7.78125 -3.117188 8 -3.675781 8 -4.375 Z M 8 -5.3125 "/></g></g></g><g fill="#1800ad" fill-opacity="1"><g transform="translate(272.324729, 65.025006)"><g><path d="M 8.046875 -11.671875 C 8.460938 -11.671875 8.8125 -11.644531 9.09375 -11.59375 L 8.859375 -8.65625 C 8.609375 -8.71875 8.300781 -8.75 7.9375 -8.75 C 6.9375 -8.75 6.15625 -8.492188 5.59375 -7.984375 C 5.039062 -7.472656 4.765625 -6.753906 4.765625 -5.828125 L 4.765625 0 L 1.640625 0 L 1.640625 -11.46875 L 4.015625 -11.46875 L 4.46875 -9.53125 L 4.625 -9.53125 C 4.976562 -10.175781 5.457031 -10.691406 6.0625 -11.078125 C 6.664062 -11.472656 7.328125 -11.671875 8.046875 -11.671875 Z M 8.046875 -11.671875 "/></g></g></g><g fill="#1800ad" fill-opacity="1"><g transform="translate(281.85554, 65.025006)"><g><path d="M 11.625 -11.46875 L 11.625 -9.875 L 9.828125 -9.40625 C 10.148438 -8.894531 10.3125 -8.320312 10.3125 -7.6875 C 10.3125 -6.457031 9.878906 -5.5 9.015625 -4.8125 C 8.160156 -4.125 6.972656 -3.78125 5.453125 -3.78125 L 4.890625 -3.8125 L 4.4375 -3.859375 C 4.113281 -3.617188 3.953125 -3.347656 3.953125 -3.046875 C 3.953125 -2.597656 4.523438 -2.375 5.671875 -2.375 L 7.625 -2.375 C 8.875 -2.375 9.828125 -2.101562 10.484375 -1.5625 C 11.148438 -1.019531 11.484375 -0.222656 11.484375 0.828125 C 11.484375 2.160156 10.921875 3.195312 9.796875 3.9375 C 8.679688 4.675781 7.082031 5.046875 5 5.046875 C 3.394531 5.046875 2.171875 4.765625 1.328125 4.203125 C 0.484375 3.648438 0.0625 2.867188 0.0625 1.859375 C 0.0625 1.171875 0.273438 0.59375 0.703125 0.125 C 1.140625 -0.332031 1.773438 -0.660156 2.609375 -0.859375 C 2.285156 -0.992188 2.003906 -1.21875 1.765625 -1.53125 C 1.523438 -1.84375 1.40625 -2.171875 1.40625 -2.515625 C 1.40625 -2.953125 1.53125 -3.316406 1.78125 -3.609375 C 2.03125 -3.898438 2.394531 -4.1875 2.875 -4.46875 C 2.28125 -4.726562 1.804688 -5.144531 1.453125 -5.71875 C 1.097656 -6.289062 0.921875 -6.96875 0.921875 -7.75 C 0.921875 -9 1.328125 -9.960938 2.140625 -10.640625 C 2.953125 -11.328125 4.113281 -11.671875 5.625 -11.671875 C 5.945312 -11.671875 6.328125 -11.640625 6.765625 -11.578125 C 7.210938 -11.523438 7.5 -11.488281 7.625 -11.46875 Z M 2.765625 1.625 C 2.765625 2.050781 2.972656 2.382812 3.390625 2.625 C 3.804688 2.875 4.382812 3 5.125 3 C 6.25 3 7.128906 2.84375 7.765625 2.53125 C 8.398438 2.226562 8.71875 1.8125 8.71875 1.28125 C 8.71875 0.851562 8.53125 0.554688 8.15625 0.390625 C 7.78125 0.222656 7.195312 0.140625 6.40625 0.140625 L 4.78125 0.140625 C 4.207031 0.140625 3.726562 0.273438 3.34375 0.546875 C 2.957031 0.816406 2.765625 1.175781 2.765625 1.625 Z M 3.90625 -7.71875 C 3.90625 -7.09375 4.046875 -6.597656 4.328125 -6.234375 C 4.617188 -5.867188 5.050781 -5.6875 5.625 -5.6875 C 6.21875 -5.6875 6.648438 -5.867188 6.921875 -6.234375 C 7.191406 -6.597656 7.328125 -7.09375 7.328125 -7.71875 C 7.328125 -9.09375 6.757812 -9.78125 5.625 -9.78125 C 4.476562 -9.78125 3.90625 -9.09375 3.90625 -7.71875 Z M 3.90625 -7.71875 "/></g></g></g><g fill="#1800ad" fill-opacity="1"><g transform="translate(293.712694, 65.025006)"><g><path d="M 8.921875 0 L 8.3125 -1.5625 L 8.234375 -1.5625 C 7.703125 -0.894531 7.15625 -0.429688 6.59375 -0.171875 C 6.039062 0.078125 5.320312 0.203125 4.4375 0.203125 C 3.332031 0.203125 2.460938 -0.109375 1.828125 -0.734375 C 1.191406 -1.367188 0.875 -2.265625 0.875 -3.421875 C 0.875 -4.640625 1.300781 -5.535156 2.15625 -6.109375 C 3.007812 -6.691406 4.296875 -7.015625 6.015625 -7.078125 L 8 -7.140625 L 8 -7.640625 C 8 -8.796875 7.40625 -9.375 6.21875 -9.375 C 5.300781 -9.375 4.222656 -9.097656 2.984375 -8.546875 L 1.953125 -10.671875 C 3.265625 -11.359375 4.726562 -11.703125 6.34375 -11.703125 C 7.875 -11.703125 9.050781 -11.363281 9.875 -10.6875 C 10.695312 -10.019531 11.109375 -9.003906 11.109375 -7.640625 L 11.109375 0 Z M 8 -5.3125 L 6.78125 -5.265625 C 5.875 -5.242188 5.195312 -5.082031 4.75 -4.78125 C 4.3125 -4.476562 4.09375 -4.019531 4.09375 -3.40625 C 4.09375 -2.519531 4.597656 -2.078125 5.609375 -2.078125 C 6.335938 -2.078125 6.914062 -2.285156 7.34375 -2.703125 C 7.78125 -3.117188 8 -3.675781 8 -4.375 Z M 8 -5.3125 "/></g></g></g><g fill="#1800ad" fill-opacity="1"><g transform="translate(306.389703, 65.025006)"><g/></g></g><g fill="#1800ad" fill-opacity="1"><g transform="translate(311.841737, 65.025006)"><g><path d="M 5.265625 0.203125 C 3.921875 0.203125 2.863281 -0.316406 2.09375 -1.359375 C 1.320312 -2.410156 0.9375 -3.863281 0.9375 -5.71875 C 0.9375 -7.59375 1.328125 -9.050781 2.109375 -10.09375 C 2.898438 -11.144531 3.984375 -11.671875 5.359375 -11.671875 C 6.796875 -11.671875 7.894531 -11.113281 8.65625 -10 L 8.75 -10 C 8.59375 -10.851562 8.515625 -11.613281 8.515625 -12.28125 L 8.515625 -15.953125 L 11.65625 -15.953125 L 11.65625 0 L 9.265625 0 L 8.65625 -1.484375 L 8.515625 -1.484375 C 7.804688 -0.359375 6.722656 0.203125 5.265625 0.203125 Z M 6.375 -2.28125 C 7.164062 -2.28125 7.75 -2.515625 8.125 -2.984375 C 8.5 -3.453125 8.703125 -4.242188 8.734375 -5.359375 L 8.734375 -5.6875 C 8.734375 -6.914062 8.539062 -7.796875 8.15625 -8.328125 C 7.78125 -8.867188 7.164062 -9.140625 6.3125 -9.140625 C 5.613281 -9.140625 5.070312 -8.84375 4.6875 -8.25 C 4.300781 -7.65625 4.109375 -6.796875 4.109375 -5.671875 C 4.109375 -4.546875 4.300781 -3.695312 4.6875 -3.125 C 5.082031 -2.5625 5.644531 -2.28125 6.375 -2.28125 Z M 6.375 -2.28125 "/></g></g></g><g fill="#1800ad" fill-opacity="1"><g transform="translate(325.123371, 65.025006)"><g><path d="M 6.390625 -9.453125 C 5.722656 -9.453125 5.203125 -9.238281 4.828125 -8.8125 C 4.453125 -8.394531 4.238281 -7.800781 4.1875 -7.03125 L 8.578125 -7.03125 C 8.554688 -7.800781 8.351562 -8.394531 7.96875 -8.8125 C 7.582031 -9.238281 7.054688 -9.453125 6.390625 -9.453125 Z M 6.828125 0.203125 C 4.984375 0.203125 3.539062 -0.300781 2.5 -1.3125 C 1.457031 -2.332031 0.9375 -3.78125 0.9375 -5.65625 C 0.9375 -7.570312 1.414062 -9.050781 2.375 -10.09375 C 3.34375 -11.144531 4.675781 -11.671875 6.375 -11.671875 C 7.988281 -11.671875 9.242188 -11.207031 10.140625 -10.28125 C 11.046875 -9.363281 11.5 -8.09375 11.5 -6.46875 L 11.5 -4.953125 L 4.109375 -4.953125 C 4.140625 -4.066406 4.398438 -3.375 4.890625 -2.875 C 5.390625 -2.375 6.082031 -2.125 6.96875 -2.125 C 7.664062 -2.125 8.320312 -2.191406 8.9375 -2.328125 C 9.550781 -2.472656 10.191406 -2.707031 10.859375 -3.03125 L 10.859375 -0.609375 C 10.304688 -0.328125 9.71875 -0.125 9.09375 0 C 8.476562 0.132812 7.722656 0.203125 6.828125 0.203125 Z M 6.828125 0.203125 "/></g></g></g><g fill="#1800ad" fill-opacity="1"><g transform="translate(337.523685, 65.025006)"><g/></g></g><g fill="#1800ad" fill-opacity="1"><g transform="translate(342.975718, 65.025006)"><g><path d="M 8.921875 0 L 8.3125 -1.5625 L 8.234375 -1.5625 C 7.703125 -0.894531 7.15625 -0.429688 6.59375 -0.171875 C 6.039062 0.078125 5.320312 0.203125 4.4375 0.203125 C 3.332031 0.203125 2.460938 -0.109375 1.828125 -0.734375 C 1.191406 -1.367188 0.875 -2.265625 0.875 -3.421875 C 0.875 -4.640625 1.300781 -5.535156 2.15625 -6.109375 C 3.007812 -6.691406 4.296875 -7.015625 6.015625 -7.078125 L 8 -7.140625 L 8 -7.640625 C 8 -8.796875 7.40625 -9.375 6.21875 -9.375 C 5.300781 -9.375 4.222656 -9.097656 2.984375 -8.546875 L 1.953125 -10.671875 C 3.265625 -11.359375 4.726562 -11.703125 6.34375 -11.703125 C 7.875 -11.703125 9.050781 -11.363281 9.875 -10.6875 C 10.695312 -10.019531 11.109375 -9.003906 11.109375 -7.640625 L 11.109375 0 Z M 8 -5.3125 L 6.78125 -5.265625 C 5.875 -5.242188 5.195312 -5.082031 4.75 -4.78125 C 4.3125 -4.476562 4.09375 -4.019531 4.09375 -3.40625 C 4.09375 -2.519531 4.597656 -2.078125 5.609375 -2.078125 C 6.335938 -2.078125 6.914062 -2.285156 7.34375 -2.703125 C 7.78125 -3.117188 8 -3.675781 8 -4.375 Z M 8 -5.3125 "/></g></g></g><g fill="#1800ad" fill-opacity="1"><g transform="translate(355.652727, 65.025006)"><g><path d="M 6.46875 -2.28125 C 7.019531 -2.28125 7.675781 -2.398438 8.4375 -2.640625 L 8.4375 -0.3125 C 7.65625 0.03125 6.695312 0.203125 5.5625 0.203125 C 4.3125 0.203125 3.398438 -0.109375 2.828125 -0.734375 C 2.265625 -1.367188 1.984375 -2.320312 1.984375 -3.59375 L 1.984375 -9.109375 L 0.484375 -9.109375 L 0.484375 -10.4375 L 2.203125 -11.484375 L 3.109375 -13.90625 L 5.109375 -13.90625 L 5.109375 -11.46875 L 8.3125 -11.46875 L 8.3125 -9.109375 L 5.109375 -9.109375 L 5.109375 -3.59375 C 5.109375 -3.144531 5.234375 -2.8125 5.484375 -2.59375 C 5.734375 -2.382812 6.0625 -2.28125 6.46875 -2.28125 Z M 6.46875 -2.28125 "/></g></g></g><g fill="#1800ad" fill-opacity="1"><g transform="translate(364.763368, 65.025006)"><g><path d="M 6.390625 -9.453125 C 5.722656 -9.453125 5.203125 -9.238281 4.828125 -8.8125 C 4.453125 -8.394531 4.238281 -7.800781 4.1875 -7.03125 L 8.578125 -7.03125 C 8.554688 -7.800781 8.351562 -8.394531 7.96875 -8.8125 C 7.582031 -9.238281 7.054688 -9.453125 6.390625 -9.453125 Z M 6.828125 0.203125 C 4.984375 0.203125 3.539062 -0.300781 2.5 -1.3125 C 1.457031 -2.332031 0.9375 -3.78125 0.9375 -5.65625 C 0.9375 -7.570312 1.414062 -9.050781 2.375 -10.09375 C 3.34375 -11.144531 4.675781 -11.671875 6.375 -11.671875 C 7.988281 -11.671875 9.242188 -11.207031 10.140625 -10.28125 C 11.046875 -9.363281 11.5 -8.09375 11.5 -6.46875 L 11.5 -4.953125 L 4.109375 -4.953125 C 4.140625 -4.066406 4.398438 -3.375 4.890625 -2.875 C 5.390625 -2.375 6.082031 -2.125 6.96875 -2.125 C 7.664062 -2.125 8.320312 -2.191406 8.9375 -2.328125 C 9.550781 -2.472656 10.191406 -2.707031 10.859375 -3.03125 L 10.859375 -0.609375 C 10.304688 -0.328125 9.71875 -0.125 9.09375 0 C 8.476562 0.132812 7.722656 0.203125 6.828125 0.203125 Z M 4.578125 -12.71875 L 4.578125 -13 C 5.753906 -14.363281 6.554688 -15.394531 6.984375 -16.09375 L 10.5 -16.09375 L 10.5 -15.875 C 10.132812 -15.519531 9.523438 -14.988281 8.671875 -14.28125 C 7.816406 -13.582031 7.144531 -13.0625 6.65625 -12.71875 Z M 4.578125 -12.71875 "/></g></g></g><g fill="#1800ad" fill-opacity="1"><g transform="translate(222.911708, 94.275004)"><g><path d="M 8.671875 0 L 5.5 0 L 5.5 -8.671875 L 5.53125 -10.09375 L 5.59375 -11.65625 C 5.0625 -11.132812 4.691406 -10.789062 4.484375 -10.625 L 2.765625 -9.234375 L 1.234375 -11.140625 L 6.078125 -14.984375 L 8.671875 -14.984375 Z M 8.671875 0 "/></g></g></g><g fill="#1800ad" fill-opacity="1"><g transform="translate(234.891841, 94.275004)"><g/></g></g><g fill="#1800ad" fill-opacity="1"><g transform="translate(240.343874, 94.275004)"><g><path d="M 7.578125 -8.421875 L 13.53125 -8.421875 L 13.53125 -0.640625 C 12.5625 -0.328125 11.648438 -0.109375 10.796875 0.015625 C 9.953125 0.140625 9.082031 0.203125 8.1875 0.203125 C 5.925781 0.203125 4.195312 -0.457031 3 -1.78125 C 1.8125 -3.113281 1.21875 -5.023438 1.21875 -7.515625 C 1.21875 -9.929688 1.910156 -11.816406 3.296875 -13.171875 C 4.679688 -14.523438 6.597656 -15.203125 9.046875 -15.203125 C 10.585938 -15.203125 12.070312 -14.894531 13.5 -14.28125 L 12.453125 -11.734375 C 11.359375 -12.285156 10.21875 -12.5625 9.03125 -12.5625 C 7.65625 -12.5625 6.550781 -12.097656 5.71875 -11.171875 C 4.894531 -10.253906 4.484375 -9.015625 4.484375 -7.453125 C 4.484375 -5.828125 4.816406 -4.582031 5.484375 -3.71875 C 6.148438 -2.863281 7.117188 -2.4375 8.390625 -2.4375 C 9.054688 -2.4375 9.734375 -2.503906 10.421875 -2.640625 L 10.421875 -5.765625 L 7.578125 -5.765625 Z M 7.578125 -8.421875 "/></g></g></g><g fill="#1800ad" fill-opacity="1"><g transform="translate(255.541937, 94.275004)"><g><path d="M 1.5 -14.421875 C 1.5 -15.441406 2.066406 -15.953125 3.203125 -15.953125 C 4.335938 -15.953125 4.90625 -15.441406 4.90625 -14.421875 C 4.90625 -13.941406 4.765625 -13.566406 4.484375 -13.296875 C 4.203125 -13.023438 3.773438 -12.890625 3.203125 -12.890625 C 2.066406 -12.890625 1.5 -13.398438 1.5 -14.421875 Z M 4.765625 0 L 1.640625 0 L 1.640625 -11.46875 L 4.765625 -11.46875 Z M 4.765625 0 "/></g></g></g><g fill="#1800ad" fill-opacity="1"><g transform="translate(261.947057, 94.275004)"><g><path d="M 11.625 -11.46875 L 11.625 -9.875 L 9.828125 -9.40625 C 10.148438 -8.894531 10.3125 -8.320312 10.3125 -7.6875 C 10.3125 -6.457031 9.878906 -5.5 9.015625 -4.8125 C 8.160156 -4.125 6.972656 -3.78125 5.453125 -3.78125 L 4.890625 -3.8125 L 4.4375 -3.859375 C 4.113281 -3.617188 3.953125 -3.347656 3.953125 -3.046875 C 3.953125 -2.597656 4.523438 -2.375 5.671875 -2.375 L 7.625 -2.375 C 8.875 -2.375 9.828125 -2.101562 10.484375 -1.5625 C 11.148438 -1.019531 11.484375 -0.222656 11.484375 0.828125 C 11.484375 2.160156 10.921875 3.195312 9.796875 3.9375 C 8.679688 4.675781 7.082031 5.046875 5 5.046875 C 3.394531 5.046875 2.171875 4.765625 1.328125 4.203125 C 0.484375 3.648438 0.0625 2.867188 0.0625 1.859375 C 0.0625 1.171875 0.273438 0.59375 0.703125 0.125 C 1.140625 -0.332031 1.773438 -0.660156 2.609375 -0.859375 C 2.285156 -0.992188 2.003906 -1.21875 1.765625 -1.53125 C 1.523438 -1.84375 1.40625 -2.171875 1.40625 -2.515625 C 1.40625 -2.953125 1.53125 -3.316406 1.78125 -3.609375 C 2.03125 -3.898438 2.394531 -4.1875 2.875 -4.46875 C 2.28125 -4.726562 1.804688 -5.144531 1.453125 -5.71875 C 1.097656 -6.289062 0.921875 -6.96875 0.921875 -7.75 C 0.921875 -9 1.328125 -9.960938 2.140625 -10.640625 C 2.953125 -11.328125 4.113281 -11.671875 5.625 -11.671875 C 5.945312 -11.671875 6.328125 -11.640625 6.765625 -11.578125 C 7.210938 -11.523438 7.5 -11.488281 7.625 -11.46875 Z M 2.765625 1.625 C 2.765625 2.050781 2.972656 2.382812 3.390625 2.625 C 3.804688 2.875 4.382812 3 5.125 3 C 6.25 3 7.128906 2.84375 7.765625 2.53125 C 8.398438 2.226562 8.71875 1.8125 8.71875 1.28125 C 8.71875 0.851562 8.53125 0.554688 8.15625 0.390625 C 7.78125 0.222656 7.195312 0.140625 6.40625 0.140625 L 4.78125 0.140625 C 4.207031 0.140625 3.726562 0.273438 3.34375 0.546875 C 2.957031 0.816406 2.765625 1.175781 2.765625 1.625 Z M 3.90625 -7.71875 C 3.90625 -7.09375 4.046875 -6.597656 4.328125 -6.234375 C 4.617188 -5.867188 5.050781 -5.6875 5.625 -5.6875 C 6.21875 -5.6875 6.648438 -5.867188 6.921875 -6.234375 C 7.191406 -6.597656 7.328125 -7.09375 7.328125 -7.71875 C 7.328125 -9.09375 6.757812 -9.78125 5.625 -9.78125 C 4.476562 -9.78125 3.90625 -9.09375 3.90625 -7.71875 Z M 3.90625 -7.71875 "/></g></g></g><g fill="#1800ad" fill-opacity="1"><g transform="translate(273.804211, 94.275004)"><g><path d="M 8.921875 0 L 8.3125 -1.5625 L 8.234375 -1.5625 C 7.703125 -0.894531 7.15625 -0.429688 6.59375 -0.171875 C 6.039062 0.078125 5.320312 0.203125 4.4375 0.203125 C 3.332031 0.203125 2.460938 -0.109375 1.828125 -0.734375 C 1.191406 -1.367188 0.875 -2.265625 0.875 -3.421875 C 0.875 -4.640625 1.300781 -5.535156 2.15625 -6.109375 C 3.007812 -6.691406 4.296875 -7.015625 6.015625 -7.078125 L 8 -7.140625 L 8 -7.640625 C 8 -8.796875 7.40625 -9.375 6.21875 -9.375 C 5.300781 -9.375 4.222656 -9.097656 2.984375 -8.546875 L 1.953125 -10.671875 C 3.265625 -11.359375 4.726562 -11.703125 6.34375 -11.703125 C 7.875 -11.703125 9.050781 -11.363281 9.875 -10.6875 C 10.695312 -10.019531 11.109375 -9.003906 11.109375 -7.640625 L 11.109375 0 Z M 8 -5.3125 L 6.78125 -5.265625 C 5.875 -5.242188 5.195312 -5.082031 4.75 -4.78125 C 4.3125 -4.476562 4.09375 -4.019531 4.09375 -3.40625 C 4.09375 -2.519531 4.597656 -2.078125 5.609375 -2.078125 C 6.335938 -2.078125 6.914062 -2.285156 7.34375 -2.703125 C 7.78125 -3.117188 8 -3.675781 8 -4.375 Z M 8 -5.3125 "/></g></g></g></svg>