<svg xmlns="http://www.w3.org/2000/svg" xmlns:xlink="http://www.w3.org/1999/xlink" width="272" zoomAndPan="magnify" viewBox="0 0 204 179.249993" height="239" preserveAspectRatio="xMidYMid meet" version="1.0"><defs><clipPath id="e12df8b2ec"><path d="M 26.582031 0 L 203.574219 0 L 203.574219 177.757812 L 26.582031 177.757812 Z M 26.582031 0 " clip-rule="nonzero"/></clipPath></defs><g clip-path="url(#e12df8b2ec)"><path fill="#ffffff" d="M 177.78125 25.898438 C 161.144531 9.265625 139.019531 0.0898438 115.445312 0.0898438 C 66.871094 0.0898438 27.335938 39.566406 27.320312 88.097656 C 27.320312 103.605469 31.371094 118.753906 39.085938 132.097656 L 26.582031 177.703125 L 73.300781 165.460938 C 86.171875 172.476562 100.664062 176.164062 115.410156 176.175781 L 115.445312 176.175781 C 164.011719 176.175781 203.554688 136.6875 203.5625 88.167969 C 203.5625 64.648438 194.417969 42.542969 177.773438 25.898438 Z M 115.445312 161.316406 L 115.417969 161.316406 C 102.28125 161.316406 89.382812 157.785156 78.136719 151.117188 L 75.460938 149.527344 L 47.738281 156.792969 L 55.132812 129.792969 L 53.390625 127.027344 C 46.058594 115.382812 42.1875 101.917969 42.199219 88.097656 C 42.214844 47.769531 75.074219 14.949219 115.472656 14.949219 C 135.039062 14.949219 153.425781 22.570312 167.257812 36.402344 C 181.085938 50.226562 188.695312 68.609375 188.683594 88.15625 C 188.667969 128.496094 155.808594 161.316406 115.4375 161.316406 Z M 155.621094 106.53125 C 153.425781 105.433594 142.597656 100.109375 140.578125 99.382812 C 138.554688 98.644531 137.09375 98.285156 135.625 100.480469 C 134.15625 102.683594 129.9375 107.636719 128.652344 109.105469 C 127.371094 110.570312 126.085938 110.753906 123.878906 109.648438 C 121.679688 108.550781 114.582031 106.222656 106.167969 98.730469 C 99.625 92.902344 95.203125 85.699219 93.917969 83.496094 C 92.636719 81.289062 93.789062 80.105469 94.886719 79.007812 C 95.871094 78.023438 97.085938 76.433594 98.191406 75.152344 C 99.292969 73.871094 99.660156 72.945312 100.390625 71.480469 C 101.128906 70.015625 100.761719 68.730469 100.207031 67.625 C 99.652344 66.527344 95.257812 55.699219 93.417969 51.296875 C 91.632812 47.011719 89.8125 47.59375 88.46875 47.523438 C 87.183594 47.460938 85.714844 47.441406 84.246094 47.441406 C 82.777344 47.441406 80.394531 47.988281 78.375 50.191406 C 76.351562 52.394531 70.671875 57.71875 70.671875 68.539062 C 70.671875 79.359375 78.558594 89.816406 79.664062 91.292969 C 80.765625 92.761719 95.195312 114.96875 117.285156 124.5 C 122.53125 126.765625 126.640625 128.117188 129.839844 129.136719 C 135.117188 130.8125 139.917969 130.578125 143.707031 130.003906 C 147.9375 129.375 156.730469 124.683594 158.566406 119.546875 C 160.40625 114.410156 160.40625 110.007812 159.851562 109.085938 C 159.296875 108.164062 157.828125 107.621094 155.632812 106.511719 Z M 155.621094 106.53125 " fill-opacity="1" fill-rule="evenodd"/></g></svg>